<svg width="177" height="136" viewBox="0 0 177 136" fill="none" xmlns="http://www.w3.org/2000/svg">
<path d="M122.299 13.3715C121.206 9.54613 116.422 8.27782 113.578 11.0595L84.1927 39.7979C80.9711 42.9486 82.9534 48.427 87.4452 48.7867L125.919 51.8677C129.573 52.1603 132.394 48.7151 131.388 45.191L122.299 13.3715Z" fill="#DF7009"/>
<path d="M117.999 28.6323C116.557 25.7646 112.902 24.8502 110.28 26.7009L94.8993 37.5542C90.9898 40.313 92.5058 46.4362 97.2508 47.0523L119.544 49.9471C123.72 50.4893 126.804 46.1425 124.912 42.3804L117.999 28.6323Z" fill="#EF790B"/>
<path d="M32.3694 13.3725C33.462 9.5471 38.2461 8.27879 41.0903 11.0604L70.4756 39.7989C73.6973 42.9496 71.715 48.428 67.2232 48.7877L28.7491 51.8687C25.0957 52.1613 22.274 48.7161 23.2806 45.1919L32.3694 13.3725Z" fill="#DF7009"/>
<path d="M36.6695 28.6318C38.1115 25.7641 41.7661 24.8497 44.3887 26.7004L59.7691 37.5537C63.6786 40.3125 62.1626 46.4357 57.4176 47.0519L35.124 49.9466C30.9482 50.4888 27.8646 46.142 29.7563 42.3799L36.6695 28.6318Z" fill="#EF790B"/>
<path d="M113.678 130.61C97.268 127.21 91.4929 117.781 88.6311 111.01C88.0945 109.741 89.0248 108.355 90.4022 108.303L111.01 107.522C112.965 107.448 113.971 110.072 112.762 111.61C107.4 118.432 111.384 123.669 115.218 127.763C116.455 129.084 115.45 130.977 113.678 130.61Z" fill="#FFA047"/>
<rect x="20.9506" y="36.8271" width="112.7" height="75.5375" rx="16.1578" fill="#FFAA5A"/>
<mask id="mask0_1681_1169" style="mask-type:alpha" maskUnits="userSpaceOnUse" x="21" y="36" width="113" height="77">
<rect x="21.0058" y="36.8262" width="112.7" height="75.5375" rx="16.1578" fill="#FFD4D4"/>
</mask>
<g mask="url(#mask0_1681_1169)">
<ellipse cx="32.9867" cy="84.3067" rx="23.5162" ry="19.0642" fill="#FFC085"/>
<ellipse cx="119.952" cy="84.3067" rx="23.5162" ry="19.0642" fill="#FFC085"/>
</g>
<path d="M77.3006 78.4341L77.3006 83.2814" stroke="#AE7878" stroke-width="1.21183" stroke-linecap="round"/>
<circle cx="77.3001" cy="78.6361" r="2.62564" fill="#5E4E4E"/>
<ellipse cx="77.503" cy="93.3801" rx="4.84733" ry="10.0986" fill="#5E4E4E"/>
<mask id="mask1_1681_1169" style="mask-type:alpha" maskUnits="userSpaceOnUse" x="72" y="83" width="11" height="21">
<ellipse cx="77.5038" cy="93.3803" rx="4.84733" ry="10.0986" fill="#5E4E4E"/>
</mask>
<g mask="url(#mask1_1681_1169)">
<ellipse cx="6.29875" cy="9.92783" rx="6.29875" ry="9.92783" transform="matrix(0.928279 0.371884 -0.248361 0.968668 77.9919 89.3408)" fill="#7F6E6E"/>
</g>
<circle cx="99.5751" cy="66.924" r="14.34" fill="white"/>
<circle cx="99.5746" cy="66.9248" r="7.87691" fill="#5E4E4E"/>
<circle cx="102.2" cy="64.7021" r="2.01972" fill="#7F6E6E"/>
<circle cx="55.5455" cy="66.924" r="14.34" fill="white"/>
<circle cx="55.5451" cy="66.9248" r="7.87691" fill="#5E4E4E"/>
<circle cx="58.5746" cy="64.7021" r="2.01972" fill="#7F6E6E"/>
<path d="M54.0734 44.9064C55.6467 43.7746 58.5381 42.869 61.3444 44.9064" stroke="#EA872B" stroke-width="1.61578" stroke-linecap="round"/>
<path d="M80.7336 105.901C79.3352 107.033 76.7651 107.939 74.2705 105.901" stroke="#EA882B" stroke-width="1.61578" stroke-linecap="round"/>
<path d="M93.6602 44.9064C95.2335 43.7746 98.1249 42.869 100.931 44.9064" stroke="#EA872B" stroke-width="1.61578" stroke-linecap="round"/>
<path d="M29.4876 77.2219L42.4138 81.2614" stroke="#EA872B" stroke-width="1.61578" stroke-linecap="round"/>
<path d="M42.4142 89.3401L29.488 93.3795" stroke="#EA872B" stroke-width="1.61578" stroke-linecap="round"/>
<path d="M27.4689 85.2998L42.4148 85.2998" stroke="#EA872B" stroke-width="1.61578" stroke-linecap="round"/>
<path d="M125.628 77.2219L112.701 81.2614" stroke="#EA872B" stroke-width="1.61578" stroke-linecap="round"/>
<path d="M112.701 89.3401L125.627 93.3795" stroke="#EA872B" stroke-width="1.61578" stroke-linecap="round"/>
<path d="M127.648 85.2998L112.702 85.2998" stroke="#EA872B" stroke-width="1.61578" stroke-linecap="round"/>
<rect x="28.6014" y="105.787" width="4.69187" height="5.4137" transform="rotate(-28.3071 28.6014 105.787)" fill="#D8D8D8"/>
<path d="M29.5319 109.796L35.887 106.373L44.9576 123.214C45.8083 124.793 45.2175 126.763 43.6381 127.614L43.0026 127.956C41.4232 128.807 39.4532 128.216 38.6025 126.637L29.5319 109.796Z" fill="#D79455"/>
<path d="M15.2522 75.674C23.6757 71.1371 34.1824 74.2872 38.7194 82.7107C43.2564 91.1342 40.1055 101.641 31.6819 106.178C23.2584 110.715 12.752 107.564 8.21511 99.1404C3.67835 90.7169 6.82887 80.211 15.2522 75.674ZM16.7933 78.5332C9.94912 82.2195 7.38893 90.7569 11.0752 97.601C14.7616 104.445 23.2985 107.004 30.1426 103.318C36.9865 99.632 39.5462 91.0958 35.8602 84.2517C32.1739 77.4076 23.6374 74.847 16.7933 78.5332Z" fill="#C4C9CC"/>
<circle cx="23.4679" cy="90.9251" r="14.0756" transform="rotate(-28.3071 23.4679 90.9251)" fill="white" fill-opacity="0.5"/>
<path d="M31.6039 85.9536C33.4766 88.2953 34.648 96.0194 28.5607 99.53" stroke="white" stroke-width="2.80927" stroke-linecap="round"/>
<path d="M151.15 29.457C149.643 31.0228 147.517 31.5307 145.592 30.2626C143.717 29.0045 143.758 26.7296 145.265 24.9043C148.32 21.0542 153.24 20.0686 158.278 21.0787C165.362 22.4988 169.81 27.2304 168.4 34.2643C167.93 36.6089 166.722 39.0131 164.915 41.0378L157.916 49.027C156.399 50.9022 154.253 50.991 152.518 49.8128C150.643 48.5547 150.394 46.1698 152.011 44.3147L156.783 38.8888C158.191 37.3029 159.968 35.1684 160.408 32.9735C160.928 30.3794 159.313 28.3431 156.719 27.8231C154.474 27.3731 152.638 27.9909 151.15 29.457ZM147.845 57.3341C148.335 54.8897 150.73 53.2943 153.175 53.7844C155.619 54.2744 157.214 56.6699 156.724 59.1143C156.234 61.5587 153.839 63.1541 151.394 62.664C148.95 62.174 147.355 59.7785 147.845 57.3341Z" fill="#B4EB79"/>
</svg>
