<svg width="194" height="130" viewBox="0 0 194 130" fill="none" xmlns="http://www.w3.org/2000/svg">
<path d="M170.543 128.081C153.118 124.471 146.986 114.459 143.947 107.27C143.377 105.922 144.365 104.45 145.828 104.395L167.71 103.566C169.786 103.488 170.854 106.273 169.57 107.907C163.876 115.151 168.107 120.711 172.178 125.059C173.492 126.461 172.425 128.471 170.543 128.081Z" fill="#FFE5D3"/>
<rect x="71.5893" y="23.1626" width="121.386" height="90.0746" rx="17.1571" fill="#FFE5D3"/>
<mask id="mask0_2122_726" style="mask-type:alpha" maskUnits="userSpaceOnUse" x="71" y="23" width="122" height="91">
<rect x="71.5893" y="23.1626" width="121.386" height="90.0746" rx="17.1571" fill="#FFCAB2"/>
</mask>
<g mask="url(#mask0_2122_726)">
<ellipse cx="84.4923" cy="79.781" rx="25.3286" ry="22.7331" fill="#FFCAB2"/>
<ellipse cx="178.16" cy="79.781" rx="25.3286" ry="22.7331" fill="#FFCAB2"/>
</g>
<circle cx="111.265" cy="60.2645" r="15.2269" fill="white"/>
<circle cx="111.265" cy="60.2645" r="8.36407" fill="#5E4E4E"/>
<circle cx="153.3" cy="60.2645" r="15.2269" fill="white"/>
<circle cx="153.3" cy="60.2645" r="8.36407" fill="#5E4E4E"/>
<circle cx="156.088" cy="57.9054" r="2.14463" fill="#7F6E6E"/>
<circle cx="114.482" cy="57.9054" r="2.14463" fill="#7F6E6E"/>
<path d="M122.632 88.7884C126.808 83.5807 134.483 79.4134 141.933 88.7884" stroke="#FFBE8F" stroke-width="2.57356" stroke-linecap="round"/>
<path d="M107.862 40.4398C109.22 38.8931 111.995 37.2654 115.385 38.7031" stroke="#FFA362" stroke-width="1.71571" stroke-linecap="round"/>
<path d="M149.608 38.7025C151.506 37.9073 154.714 37.6609 157.131 40.4393" stroke="#FFA362" stroke-width="1.71571" stroke-linecap="round"/>
<ellipse cx="132.497" cy="70.9881" rx="12.4389" ry="8.36407" fill="#FFBE8F"/>
<path d="M90.6636 38.604C93.2199 42.3633 98.9586 41.6481 100.514 37.3765L106.775 20.182C108.202 16.2651 104.983 12.2253 100.846 12.7408L84.2954 14.8034C80.159 15.3189 78.03 20.0251 80.374 23.4721L90.6636 38.604Z" fill="#FFC9A3"/>
<path d="M174.497 38.604C171.941 42.3633 166.202 41.6481 164.646 37.3765L158.385 20.182C156.959 16.2651 160.178 12.2253 164.314 12.7408L180.865 14.8034C185.001 15.3189 187.13 20.0251 184.786 23.4721L174.497 38.604Z" fill="#FFC9A3"/>
<circle cx="128.422" cy="70.9875" r="2.3591" fill="#5E4E4E"/>
<circle cx="136.143" cy="70.9875" r="2.3591" fill="#5E4E4E"/>
<path d="M27.6416 17.0005C42.2005 17.0005 54.0029 28.8029 54.0029 43.3618C54.0029 51.0115 50.7426 57.8979 45.5381 62.7134C46.5353 66.2438 49.8399 68.3783 52.9336 70.0747C54.4211 70.8904 54.0793 72.8697 52.3936 73.0601C43.1787 74.1001 36.6522 72.1864 31.9199 69.3755C30.5273 69.6028 29.0984 69.7231 27.6416 69.7231C13.0827 69.7231 1.28029 57.9207 1.28027 43.3618C1.28027 28.8029 13.0827 17.0005 27.6416 17.0005Z" fill="white"/>
<path d="M27.6416 17.0005L27.6416 16.0419H27.6416V17.0005ZM54.0029 43.3618L54.9615 43.3618V43.3618H54.0029ZM45.5381 62.7134L44.8871 62.0098C44.6225 62.2546 44.5176 62.6271 44.6156 62.9739L45.5381 62.7134ZM52.9336 70.0747L52.4727 70.9152L52.4727 70.9152L52.9336 70.0747ZM52.3936 73.0601L52.5011 74.0126L52.5011 74.0126L52.3936 73.0601ZM31.9199 69.3755L32.4095 68.5513C32.2158 68.4363 31.9878 68.3931 31.7655 68.4294L31.9199 69.3755ZM27.6416 69.7231V70.6817H27.6416L27.6416 69.7231ZM1.28027 43.3618H0.321681V43.3618L1.28027 43.3618ZM27.6416 17.0005L27.6416 17.9591C41.6711 17.9591 53.0443 29.3323 53.0443 43.3618H54.0029H54.9615C54.9615 28.2735 42.7299 16.0419 27.6416 16.0419L27.6416 17.0005ZM54.0029 43.3618L53.0443 43.3618C53.0443 50.733 49.9039 57.3679 44.8871 62.0098L45.5381 62.7134L46.1891 63.417C51.5812 58.4279 54.9615 51.2899 54.9615 43.3618L54.0029 43.3618ZM45.5381 62.7134L44.6156 62.9739C45.734 66.9336 49.4055 69.2334 52.4727 70.9152L52.9336 70.0747L53.3945 69.2342C50.2742 67.5233 47.3365 65.554 46.4606 62.4528L45.5381 62.7134ZM52.9336 70.0747L52.4727 70.9152C52.8765 71.1366 52.944 71.4411 52.9097 71.6342C52.8772 71.8175 52.727 72.0577 52.286 72.1075L52.3936 73.0601L52.5011 74.0126C53.7459 73.8721 54.6095 73.0274 54.7974 71.9695C54.9835 70.9215 54.4782 69.8284 53.3945 69.2342L52.9336 70.0747ZM52.3936 73.0601L52.286 72.1075C43.2689 73.1253 36.9536 71.2505 32.4095 68.5513L31.9199 69.3755L31.4304 70.1997C36.3508 73.1223 43.0885 75.075 52.5011 74.0126L52.3936 73.0601ZM31.9199 69.3755L31.7655 68.4294C30.4228 68.6486 29.0455 68.7645 27.6416 68.7646L27.6416 69.7231L27.6416 70.6817C29.1514 70.6817 30.6319 70.557 32.0743 70.3216L31.9199 69.3755ZM27.6416 69.7231V68.7646C13.6121 68.7646 2.23888 57.3913 2.23887 43.3618L1.28027 43.3618L0.321681 43.3618C0.3217 58.4502 12.5533 70.6817 27.6416 70.6817V69.7231ZM1.28027 43.3618H2.23887C2.23887 29.3323 13.6121 17.9591 27.6416 17.9591V17.0005V16.0419C12.5532 16.0419 0.321681 28.2735 0.321681 43.3618H1.28027Z" fill="#E4E4E4"/>
<path d="M36.9407 31.458C37.8742 31.4581 38.3923 32.5389 37.8079 33.2666L29.6517 43.4131L37.8079 53.5596C38.3926 54.2873 37.8743 55.3681 36.9407 55.3682H18.7884C17.8547 55.3682 17.3363 54.2873 17.9212 53.5596L26.0765 43.4131L17.9212 33.2666C17.3366 32.5388 17.8548 31.458 18.7884 31.458H36.9407Z" fill="#D8EEFF"/>
<path d="M26.7127 48.0942C27.3063 47.3561 28.4302 47.3561 29.0238 48.0942L32.1888 52.0299C32.9691 53.0002 32.2784 54.442 31.0333 54.442H24.7032C23.4581 54.442 22.7674 53.0002 23.5477 52.0299L26.7127 48.0942Z" fill="#B2D6F1"/>
<path d="M27.3177 41.5983C27.6122 41.9246 28.1243 41.9246 28.4188 41.5983L30.7644 38.9981C31.1946 38.5212 30.8562 37.7601 30.2139 37.7601H25.5226C24.8803 37.7601 24.5419 38.5212 24.9721 38.9981L27.3177 41.5983Z" fill="#B2D6F1"/>
<mask id="mask1_2122_726" style="mask-type:alpha" maskUnits="userSpaceOnUse" x="17" y="31" width="22" height="25">
<path d="M36.9408 31.458C37.8743 31.4582 38.3919 32.5389 37.807 33.2666L29.6507 43.4131L37.807 53.5596C38.3919 54.2873 37.8743 55.368 36.9408 55.3682H18.7884C17.8547 55.3682 17.3363 54.2873 17.9212 53.5596L26.0765 43.4131L17.9212 33.2666C17.3366 32.5388 17.8548 31.458 18.7884 31.458H36.9408Z" fill="#D9D9D9"/>
</mask>
<g mask="url(#mask1_2122_726)">
<path d="M40.2872 57.0366H15.8204V52.2173H40.2872V57.0366ZM40.2872 34.4243H15.8204V29.605H40.2872V34.4243Z" fill="#DFA573"/>
</g>
<circle cx="27.8682" cy="45.7304" r="0.556054" fill="#B2D6F1"/>
<circle cx="27.8682" cy="43.8764" r="0.556054" fill="#B2D6F1"/>
</svg>
