<svg width="134" height="130" viewBox="0 0 134 130" fill="none" xmlns="http://www.w3.org/2000/svg">
<path d="M109.236 128.132C90.0009 124.147 83.2313 113.095 79.8768 105.158C79.2478 103.67 80.3382 102.046 81.9528 101.984L106.109 101.07C108.401 100.983 109.58 104.058 108.163 105.861C101.877 113.858 106.548 119.996 111.041 124.795C112.492 126.344 111.314 128.563 109.236 128.132Z" fill="#E6E6E6"/>
<rect y="12.3108" width="134" height="99.4346" rx="18.9399" fill="#E6E6E6"/>
<mask id="mask0_1268_1226" style="mask-type:alpha" maskUnits="userSpaceOnUse" x="0" y="12" width="134" height="100">
<rect y="12.3113" width="134" height="99.4346" rx="18.9399" fill="#FFD4D4"/>
</mask>
<g mask="url(#mask0_1268_1226)">
<ellipse cx="14.2441" cy="74.8132" rx="27.9606" ry="25.0954" fill="#D5D5D5"/>
<ellipse cx="117.645" cy="74.8132" rx="27.9606" ry="25.0954" fill="#D5D5D5"/>
</g>
<path d="M55.2841 43.7465C53.4922 46.5513 50.4537 47.9537 47.1814 46.6293C43.987 45.3048 43.3638 41.8767 45.0778 38.6823C48.5059 31.982 55.5958 29.0214 63.4648 29.0214C74.5282 29.0214 82.6309 34.7868 82.6309 45.7722C82.6309 49.434 81.5402 53.4075 79.4366 56.9914L71.3338 71.0933C69.6198 74.3656 66.4254 75.1447 63.4648 73.8981C60.2704 72.5736 59.1797 69.0676 61.0496 65.7954L66.5812 56.2123C68.2174 53.4075 70.2431 49.6678 70.2431 46.2397C70.2431 42.1883 67.2045 39.6173 63.1532 39.6173C59.6472 39.6173 57.0761 41.0976 55.2841 43.7465ZM58.7122 86.5976C58.7122 82.78 61.8287 79.6635 65.6463 79.6635C69.4639 79.6635 72.5804 82.78 72.5804 86.5976C72.5804 90.4152 69.4639 93.5317 65.6463 93.5317C61.8287 93.5317 58.7122 90.4152 58.7122 86.5976Z" fill="#898989"/>
</svg>
