<svg width="214" height="149" viewBox="0 0 214 149" fill="none" xmlns="http://www.w3.org/2000/svg">
<path d="M127.097 143.69C108.833 139.906 102.405 129.412 99.2201 121.877C98.6228 120.464 99.6582 118.921 101.191 118.863L124.127 117.995C126.304 117.913 127.423 120.832 126.077 122.544C120.109 130.137 124.544 135.965 128.811 140.522C130.187 141.992 129.069 144.099 127.097 143.69Z" fill="#FFE5D3"/>
<rect x="23.3789" y="33.7188" width="127.231" height="94.4118" rx="17.9832" fill="#FFE5D3"/>
<mask id="mask0_1387_626" style="mask-type:alpha" maskUnits="userSpaceOnUse" x="23" y="33" width="128" height="96">
<rect x="23.3779" y="33.7188" width="127.231" height="94.4118" rx="17.9832" fill="#FFCAB2"/>
</mask>
<g mask="url(#mask0_1387_626)">
<ellipse cx="36.9022" cy="93.0633" rx="26.5482" ry="23.8277" fill="#FFCAB2"/>
<ellipse cx="135.08" cy="93.0633" rx="26.5482" ry="23.8277" fill="#FFCAB2"/>
</g>
<circle cx="64.964" cy="69.4603" r="15.9601" fill="white"/>
<circle cx="64.9641" cy="69.4604" r="8.76681" fill="#5E4E4E"/>
<circle cx="109.023" cy="69.4603" r="15.9601" fill="white"/>
<circle cx="109.023" cy="69.4604" r="8.76681" fill="#5E4E4E"/>
<circle cx="111.945" cy="66.9881" r="2.2479" fill="#7F6E6E"/>
<circle cx="68.3358" cy="66.9881" r="2.2479" fill="#7F6E6E"/>
<path d="M81.8242 105.202C83.3807 103.943 86.2411 102.935 89.0175 105.202" stroke="#FFCAA4" stroke-width="1.79832" stroke-linecap="round"/>
<path d="M61.1426 45.8566C62.8936 44.5969 66.1116 43.5889 69.235 45.8566" stroke="#FFA362" stroke-width="1.79832" stroke-linecap="round"/>
<path d="M112.981 43.4843C111.616 45.1542 108.768 46.9608 105.164 45.5788" stroke="#FFA362" stroke-width="1.79832" stroke-linecap="round"/>
<path d="M43.3699 49.9051C46.0493 53.8453 52.0644 53.0957 53.6947 48.6184L60.2573 30.596C61.7523 26.4906 58.3784 22.2562 54.0428 22.7965L36.6951 24.9584C32.3595 25.4987 30.128 30.4316 32.5848 34.0445L43.3699 49.9051Z" fill="#FFC9A3"/>
<path d="M131.24 49.9051C128.561 53.8453 122.545 53.0957 120.915 48.6184L114.353 30.596C112.858 26.4906 116.231 22.2562 120.567 22.7965L137.915 24.9584C142.25 25.4987 144.482 30.4316 142.025 34.0445L131.24 49.9051Z" fill="#FFC9A3"/>
<mask id="mask1_1387_626" style="mask-type:alpha" maskUnits="userSpaceOnUse" x="93" y="74" width="32" height="12">
<rect width="30.1218" height="10.7899" transform="matrix(1 0 0 -1 93.9619 85.4214)" fill="#FFCAB2"/>
</mask>
<g mask="url(#mask1_1387_626)">
<circle cx="109.023" cy="69.4613" r="15.9601" fill="#FFD9C7"/>
</g>
<mask id="mask2_1387_626" style="mask-type:alpha" maskUnits="userSpaceOnUse" x="93" y="53" width="32" height="12">
<rect width="30.1218" height="10.7899" transform="matrix(-1 -8.74228e-08 -8.74228e-08 1 124.084 53.4993)" fill="#FFCAB2"/>
</mask>
<g mask="url(#mask2_1387_626)">
<circle cx="109.023" cy="69.4594" r="15.9601" transform="rotate(-180 109.023 69.4594)" fill="#FFD9C7"/>
</g>
<mask id="mask3_1387_626" style="mask-type:alpha" maskUnits="userSpaceOnUse" x="49" y="74" width="32" height="12">
<rect width="30.1218" height="10.7899" transform="matrix(1 0 0 -1 49.9033 85.4214)" fill="#FFCAB2"/>
</mask>
<g mask="url(#mask3_1387_626)">
<circle cx="64.9645" cy="69.4613" r="15.9601" fill="#FFD9C7"/>
</g>
<ellipse cx="87.2195" cy="80.7004" rx="13.0378" ry="8.76681" fill="#FFBE8F"/>
<circle cx="82.9473" cy="80.6992" r="2.47269" fill="#5E4E4E"/>
<circle cx="91.0391" cy="80.6992" r="2.47269" fill="#5E4E4E"/>
<path d="M75.9785 100.098C76.1284 98.2244 77.3722 94.2531 81.1487 93.354C84.9252 92.4548 89.4659 93.3537 96.2096 100.098" stroke="#FFA362" stroke-width="2.69748" stroke-linecap="round"/>
<rect x="31.833" y="114.593" width="5.22194" height="6.02532" transform="rotate(-28.3071 31.833 114.593)" fill="#D8D8D8"/>
<path d="M32.8677 119.055L39.9407 115.245L50.0361 133.989C50.9829 135.747 50.3254 137.939 48.5676 138.886L47.8603 139.267C46.1024 140.214 43.9099 139.556 42.9631 137.798L32.8677 119.055Z" fill="#D79455"/>
<path d="M16.9756 81.0771C26.3507 76.0279 38.0439 79.535 43.0934 88.91C48.1429 98.2852 44.6367 109.979 35.2618 115.028C25.8865 120.078 14.1926 116.571 9.14311 107.196C4.09367 97.8206 7.60038 86.1266 16.9756 81.0771ZM18.6904 84.2609C11.073 88.3636 8.22374 97.8649 12.3265 105.482C16.4293 113.1 25.9306 115.949 33.5479 111.846C41.1653 107.743 44.0145 98.2421 39.9118 90.6248C35.8091 83.0074 26.3078 80.1581 18.6904 84.2609Z" fill="#C4C9CC"/>
<circle cx="26.1191" cy="98.053" r="15.6658" transform="rotate(-28.3071 26.1191 98.053)" fill="white" fill-opacity="0.5"/>
<path d="M35.1739 92.519C37.2582 95.1252 38.5619 103.722 31.7868 107.629" stroke="white" stroke-width="3.12665" stroke-linecap="round"/>
<ellipse cx="182.305" cy="21.3555" rx="31.6954" ry="15.5105" fill="#EAE8E8"/>
<circle cx="164.097" cy="13.4879" r="8.9916" fill="#EAE8E8"/>
<circle cx="206.133" cy="13.2632" r="5.17017" fill="#EAE8E8"/>
<circle cx="186.351" cy="7.86827" r="6.51891" fill="#EAE8E8"/>
<circle cx="197.59" cy="12.3638" r="9.21639" fill="#EAE8E8"/>
<circle cx="175.786" cy="11.6896" r="11.6891" fill="#EAE8E8"/>
<circle cx="8.9916" cy="8.9916" r="8.9916" transform="matrix(1 0 0 -1 152.857 35.5173)" fill="#EAE8E8"/>
<circle cx="5.17017" cy="5.17017" r="5.17017" transform="matrix(1 0 0 -1 201.412 33.719)" fill="#EAE8E8"/>
<circle cx="6.51891" cy="6.51891" r="6.51891" transform="matrix(1 0 0 -1 179.832 39.5635)" fill="#EAE8E8"/>
<circle cx="9.21639" cy="9.21639" r="9.21639" transform="matrix(1 0 0 -1 188.374 37.7651)" fill="#EAE8E8"/>
<circle cx="11.6891" cy="11.6891" r="11.6891" transform="matrix(1 0 0 -1 163.198 40.4626)" fill="#EAE8E8"/>
<path d="M162.996 24.4575V16.5674C162.996 15.893 163.454 15.4344 164.128 15.4344C164.816 15.4344 165.261 15.893 165.261 16.5674V19.3592H169.173V16.5674C169.173 15.893 169.631 15.4344 170.306 15.4344C170.994 15.4344 171.439 15.893 171.439 16.5674V24.4575C171.439 25.1318 170.98 25.5904 170.306 25.5904C169.631 25.5904 169.173 25.1318 169.173 24.4575V21.3014H165.261V24.4575C165.261 25.1318 164.803 25.5904 164.115 25.5904C163.441 25.5904 162.996 25.1318 162.996 24.4575ZM181.148 24.5654V21.5307C181.148 20.9508 180.757 20.4922 180.15 20.4922C179.543 20.4922 179.152 20.9373 179.152 21.6386V24.5654C179.152 25.1993 178.815 25.5904 178.181 25.5904C177.547 25.5904 177.196 25.1993 177.196 24.5654V21.5307C177.196 20.9508 176.805 20.4922 176.198 20.4922C175.591 20.4922 175.2 20.9373 175.2 21.6386V24.5654C175.2 25.1993 174.836 25.5904 174.202 25.5904C173.568 25.5904 173.191 25.1993 173.191 24.5654V19.9257C173.191 19.2379 173.582 18.8872 174.189 18.8872C174.769 18.8872 175.133 19.3323 175.173 19.8178C175.484 19.1839 176.063 18.7793 176.981 18.7793C177.871 18.7793 178.41 19.2918 178.626 19.9662C179.085 19.1704 179.853 18.7793 180.878 18.7793C182.119 18.7793 183.158 19.4402 183.158 21.0587V24.5654C183.158 25.1993 182.78 25.5904 182.146 25.5904C181.499 25.5904 181.148 25.1993 181.148 24.5654ZM192.601 24.5654V21.5307C192.601 20.9508 192.21 20.4922 191.603 20.4922C190.996 20.4922 190.605 20.9373 190.605 21.6386V24.5654C190.605 25.1993 190.268 25.5904 189.634 25.5904C189 25.5904 188.649 25.1993 188.649 24.5654V21.5307C188.649 20.9508 188.258 20.4922 187.651 20.4922C187.044 20.4922 186.653 20.9373 186.653 21.6386V24.5654C186.653 25.1993 186.289 25.5904 185.655 25.5904C185.021 25.5904 184.643 25.1993 184.643 24.5654V19.9257C184.643 19.2379 185.034 18.8872 185.641 18.8872C186.221 18.8872 186.586 19.3323 186.626 19.8178C186.936 19.1839 187.516 18.7793 188.433 18.7793C189.323 18.7793 189.863 19.2918 190.079 19.9662C190.537 19.1704 191.306 18.7793 192.331 18.7793C193.572 18.7793 194.611 19.4402 194.611 21.0587V24.5654C194.611 25.1993 194.233 25.5904 193.599 25.5904C192.952 25.5904 192.601 25.1993 192.601 24.5654ZM195.894 24.997C195.894 24.3361 196.433 23.7966 197.094 23.7966C197.755 23.7966 198.294 24.3361 198.294 24.997C198.294 25.6579 197.755 26.1974 197.094 26.1974C196.433 26.1974 195.894 25.6579 195.894 24.997ZM200.313 24.997C200.313 24.3361 200.852 23.7966 201.513 23.7966C202.174 23.7966 202.714 24.3361 202.714 24.997C202.714 25.6579 202.174 26.1974 201.513 26.1974C200.852 26.1974 200.313 25.6579 200.313 24.997Z" fill="#FCA177"/>
<circle cx="163.422" cy="41.5863" r="2.92227" fill="#EAE8E8"/>
<circle cx="156.679" cy="43.8344" r="2.02311" fill="#EAE8E8"/>
</svg>
