<svg xmlns="http://www.w3.org/2000/svg" width="57" height="62" viewBox="0 0 57 62" fill="none">
  <path fill-rule="evenodd" clip-rule="evenodd" d="M47.1376 49.6304C52.564 44.6098 55.9613 37.4276 55.9613 29.4519C55.9613 14.2729 43.6563 1.96783 28.4772 1.96783C13.2982 1.96783 0.993164 14.2729 0.993164 29.4519C0.993164 44.6309 13.2982 56.936 28.4772 56.936C29.9967 56.936 31.4874 56.8127 32.9399 56.5755C37.8735 59.5054 44.6779 61.4993 54.2838 60.4151C56.0414 60.2168 56.3983 58.153 54.8474 57.3026C51.6226 55.5344 48.1784 53.3096 47.1376 49.6304Z" fill="white"/>
  <path d="M47.1376 49.6304L46.4589 48.8968C46.1829 49.1521 46.0736 49.5407 46.1759 49.9024L47.1376 49.6304ZM32.9399 56.5755L33.4502 55.7162C33.2483 55.5963 33.0106 55.5513 32.7788 55.5891L32.9399 56.5755ZM54.2838 60.4151L54.1717 59.422L54.2838 60.4151ZM54.8474 57.3026L55.3279 56.4263L54.8474 57.3026ZM54.9619 29.4519C54.9619 37.1376 51.6894 44.0574 46.4589 48.8968L47.8163 50.364C53.4386 45.1622 56.9607 37.7176 56.9607 29.4519H54.9619ZM28.4772 2.96726C43.1043 2.96726 54.9619 14.8248 54.9619 29.4519H56.9607C56.9607 13.7209 44.2082 0.968414 28.4772 0.968414V2.96726ZM1.99258 29.4519C1.99258 14.8248 13.8502 2.96726 28.4772 2.96726V0.968414C12.7462 0.968414 -0.0062567 13.7209 -0.0062567 29.4519H1.99258ZM28.4772 55.9366C13.8502 55.9366 1.99258 44.079 1.99258 29.4519H-0.0062567C-0.0062567 45.1829 12.7462 57.9354 28.4772 57.9354V55.9366ZM32.7788 55.5891C31.3794 55.8176 29.9426 55.9366 28.4772 55.9366V57.9354C30.0509 57.9354 31.5954 57.8077 33.1009 57.5619L32.7788 55.5891ZM54.1717 59.422C44.7719 60.483 38.1877 58.5296 33.4502 55.7162L32.4295 57.4348C37.5594 60.4813 44.5839 62.5157 54.3959 61.4082L54.1717 59.422ZM54.3669 58.179C54.7878 58.4098 54.8581 58.7271 54.8223 58.9284C54.7883 59.1196 54.6315 59.3701 54.1717 59.422L54.3959 61.4082C55.6937 61.2618 56.5942 60.3812 56.7903 59.2784C56.9846 58.1856 56.4579 57.0459 55.3279 56.4263L54.3669 58.179ZM46.1759 49.9024C47.3432 54.0288 51.1697 56.4259 54.3669 58.179L55.3279 56.4263C52.0756 54.643 49.0135 52.5903 48.0993 49.3584L46.1759 49.9024Z" fill="#E4E4E4"/>
</svg>