<svg xmlns="http://www.w3.org/2000/svg" width="82" height="92" viewBox="0 0 82 92" fill="none">
  <rect x="0.389648" y="20.4122" width="80.9531" height="57.0496" rx="12.7485" fill="#FFEF92"/>
  <mask id="mask0_163_932" style="mask-type:alpha" maskUnits="userSpaceOnUse" x="0" y="20" width="82" height="58">
    <rect x="0.389648" y="20.4104" width="80.9531" height="57.0496" rx="12.7485" fill="#FFD4D4"/>
  </mask>
  <g mask="url(#mask0_163_932)">
    <ellipse cx="8.99432" cy="56.2704" rx="16.8918" ry="14.3982" fill="#FFDD77"/>
    <ellipse cx="71.4631" cy="56.2704" rx="16.8918" ry="14.3982" fill="#FFDD77"/>
  </g>
  <circle cx="25.0907" cy="45.7492" r="11.3143" fill="white"/>
  <circle cx="25.0899" cy="45.7489" r="6.2149" fill="#5E4E4E"/>
  <circle cx="56.3231" cy="45.7492" r="11.3143" fill="white"/>
  <circle cx="56.3223" cy="45.7489" r="6.2149" fill="#5E4E4E"/>
  <ellipse cx="40.8665" cy="62.1635" rx="3.82455" ry="7.96782" fill="#5E4E4E"/>
  <mask id="mask1_163_932" style="mask-type:alpha" maskUnits="userSpaceOnUse" x="37" y="54" width="8" height="17">
    <ellipse cx="40.8695" cy="62.1636" rx="3.82455" ry="7.96782" fill="#5E4E4E"/>
  </mask>
  <g mask="url(#mask1_163_932)">
    <ellipse cx="4.96973" cy="7.83309" rx="4.96973" ry="7.83309" transform="matrix(0.928279 0.371884 -0.248361 0.968668 41.2549 58.9769)" fill="#7F6E6E"/>
  </g>
  <path d="M69.1375 90.9011C56.19 88.2184 51.6334 80.7791 49.3755 75.4371C48.9521 74.4353 49.6861 73.342 50.7728 73.3009L67.0326 72.6852C68.5753 72.6268 69.3689 74.6966 68.4149 75.9103C64.1838 81.2931 67.3277 85.4245 70.3525 88.6549C71.3285 89.6973 70.5358 91.1908 69.1375 90.9011Z" fill="#FFEF92"/>
  <circle cx="58.3943" cy="43.9946" r="1.59356" fill="#7F6E6E"/>
  <circle cx="27.4803" cy="43.9946" r="1.59356" fill="#7F6E6E"/>
  <path d="M22.3809 29.0166C23.6222 28.1236 25.9035 27.4091 28.1177 29.0166" stroke="#FFBA1A" stroke-width="1.27485" stroke-linecap="round"/>
  <path d="M53.6162 29.0166C54.8575 28.1236 57.1388 27.4091 59.353 29.0166" stroke="#FFBA1A" stroke-width="1.27485" stroke-linecap="round"/>
  <path d="M45.3292 55.6288C45.3292 56.7729 43.3315 57.3817 40.8673 57.3817C38.403 57.3817 36.4053 56.7729 36.4053 55.6288C36.4053 54.4846 38.403 52.4417 40.8673 52.4417C43.3315 52.4417 45.3292 54.4846 45.3292 55.6288Z" fill="#FFBA1A"/>
  <path d="M43.7359 69.1755C43.7359 69.8795 42.4516 70.769 40.8674 70.769C39.2833 70.769 37.999 69.8795 37.999 69.1755C37.999 68.4714 39.2833 68.2193 40.8674 68.2193C42.4516 68.2193 43.7359 68.4714 43.7359 69.1755Z" fill="#FFBA1A"/>
  <ellipse cx="37.1419" cy="16.5883" rx="4.78069" ry="9.24267" transform="rotate(-11.1295 37.1419 16.5883)" fill="#FFEF92"/>
  <ellipse cx="44.1537" cy="12.5155" rx="5.69637" ry="10.9211" transform="rotate(7.15205 44.1537 12.5155)" fill="#FFEF92"/>
  <path d="M40.2285 11.4874C40.8128 12.8154 41.6627 16.9055 41.1847 19.6146" stroke="#FFDD77" stroke-width="1.27485" stroke-linecap="round"/>
</svg>