<svg xmlns="http://www.w3.org/2000/svg" width="128" height="135" viewBox="0 0 128 135" fill="none">
  <path d="M109.963 14.5109C108.849 10.6107 103.972 9.3176 101.072 12.1537L71.1119 41.4541C67.8273 44.6665 69.8483 50.252 74.428 50.6188L113.655 53.7601C117.379 54.0583 120.256 50.5457 119.23 46.9527L109.963 14.5109Z" fill="#DF7009"/>
  <path d="M105.58 30.0724C104.11 27.1487 100.383 26.2164 97.7095 28.1032L82.0284 39.1688C78.0424 41.9816 79.5881 48.2246 84.4259 48.8527L107.155 51.804C111.413 52.3569 114.557 47.925 112.628 44.0894L105.58 30.0724Z" fill="#EF790B"/>
  <path d="M18.2748 14.5109C19.3889 10.6107 24.2665 9.3176 27.1664 12.1537L57.1264 41.4541C60.411 44.6665 58.39 50.252 53.8103 50.6188L14.5837 53.7601C10.8589 54.0583 7.98199 50.5457 9.00829 46.9527L18.2748 14.5109Z" fill="#DF7009"/>
  <path d="M22.6586 30.0724C24.1288 27.1487 27.8548 26.2164 30.5287 28.1032L46.2099 39.1688C50.1958 41.9816 48.6502 48.2246 43.8124 48.8527L21.0828 51.804C16.8253 52.3569 13.6814 47.925 15.6102 44.0894L22.6586 30.0724Z" fill="#EF790B"/>
  <path d="M101.174 134.045C84.4433 130.579 78.5551 120.966 75.6375 114.063C75.0903 112.768 76.0388 111.355 77.4431 111.302L98.4542 110.507C100.448 110.431 101.473 113.106 100.24 114.674C94.7729 121.63 98.8355 126.968 102.744 131.143C104.005 132.49 102.981 134.42 101.174 134.045Z" fill="#FFA047"/>
  <rect x="6.63281" y="38.4304" width="114.905" height="77.0148" rx="16.4738" fill="#FFAA5A"/>
  <mask id="mask0_163_958" style="mask-type:alpha" maskUnits="userSpaceOnUse" x="6" y="38" width="116" height="78">
    <rect x="6.69043" y="38.4284" width="114.905" height="77.0148" rx="16.4738" fill="#FFD4D4"/>
  </mask>
  <g mask="url(#mask0_163_958)">
    <ellipse cx="18.9048" cy="86.8384" rx="23.9761" ry="19.4371" fill="#FFC085"/>
    <ellipse cx="107.574" cy="86.8384" rx="23.9761" ry="19.4371" fill="#FFC085"/>
  </g>
  <path d="M64.0869 80.8486L64.0869 85.7912" stroke="#AE7878" stroke-width="1.23553" stroke-linecap="round"/>
  <circle cx="64.0854" cy="81.0555" r="2.67723" fill="#5E4E4E"/>
  <ellipse cx="64.2927" cy="96.0856" rx="4.94213" ry="10.2961" fill="#5E4E4E"/>
  <mask id="mask1_163_958" style="mask-type:alpha" maskUnits="userSpaceOnUse" x="59" y="85" width="11" height="22">
    <ellipse cx="64.2937" cy="96.0872" rx="4.94213" ry="10.2961" fill="#5E4E4E"/>
  </mask>
  <g mask="url(#mask1_163_958)">
    <ellipse cx="6.42194" cy="10.122" rx="6.42194" ry="10.122" transform="matrix(0.928279 0.371884 -0.248361 0.968668 64.79 91.9694)" fill="#7F6E6E"/>
  </g>
  <circle cx="86.7982" cy="69.1147" r="14.6205" fill="white"/>
  <circle cx="86.7966" cy="69.1141" r="8.03096" fill="#5E4E4E"/>
  <circle cx="89.4725" cy="66.8499" r="2.05941" fill="#7F6E6E"/>
  <circle cx="41.9056" cy="69.1147" r="14.6205" fill="white"/>
  <circle cx="41.904" cy="69.1133" r="8.03096" fill="#5E4E4E"/>
  <circle cx="44.994" cy="66.8473" r="2.05941" fill="#7F6E6E"/>
  <path d="M40.4043 46.6639C42.0083 45.51 44.9563 44.5866 47.8175 46.6639" stroke="#EA872B" stroke-width="1.64738" stroke-linecap="round"/>
  <path d="M67.585 108.853C66.1592 110.007 63.5388 110.931 60.9955 108.853" stroke="#EA882B" stroke-width="1.64738" stroke-linecap="round"/>
  <path d="M80.7646 46.6639C82.3687 45.51 85.3166 44.5866 88.1778 46.6639" stroke="#EA872B" stroke-width="1.64738" stroke-linecap="round"/>
  <path d="M15.3408 79.6086L28.5198 83.7271" stroke="#EA872B" stroke-width="1.64738" stroke-linecap="round"/>
  <path d="M28.5195 91.9633L15.3405 96.0818" stroke="#EA872B" stroke-width="1.64738" stroke-linecap="round"/>
  <path d="M13.2803 87.8466L28.5185 87.8466" stroke="#EA872B" stroke-width="1.64738" stroke-linecap="round"/>
  <path d="M113.358 79.6086L100.179 83.7271" stroke="#EA872B" stroke-width="1.64738" stroke-linecap="round"/>
  <path d="M100.179 91.9633L113.358 96.0818" stroke="#EA872B" stroke-width="1.64738" stroke-linecap="round"/>
  <path d="M115.418 87.8466L100.18 87.8466" stroke="#EA872B" stroke-width="1.64738" stroke-linecap="round"/>
</svg>