<svg xmlns="http://www.w3.org/2000/svg" width="19" height="17" viewBox="0 0 19 17" fill="none">
  <path fill-rule="evenodd" clip-rule="evenodd" d="M2.16198 2.17785C3.91832 0.421511 6.76591 0.42151 8.52226 2.17785L9.55405 3.20964C9.7492 3.40479 10.0656 3.40479 10.2607 3.20964L11.27 2.20043C13.0263 0.444087 15.8739 0.444088 17.6302 2.20043C19.3866 3.95677 19.3866 6.80436 17.6302 8.5607L9.93423 16.2567C9.9308 16.2601 9.92522 16.2601 9.92179 16.2567C9.91835 16.2533 9.91278 16.2533 9.90934 16.2567L9.90526 16.2608C9.89957 16.2665 9.89034 16.2665 9.88465 16.2608L2.16198 8.53813C0.405641 6.78178 0.405642 3.93419 2.16198 2.17785Z" fill="#FF7913"/>
</svg>