<svg xmlns="http://www.w3.org/2000/svg" width="160" height="66" viewBox="0 0 160 66" fill="none">
  <path fill-rule="evenodd" clip-rule="evenodd" d="M123.304 13.1968C120.261 13.1968 117.794 15.6637 117.794 18.7069V34.1353C117.794 37.1784 120.261 39.6454 123.304 39.6454H126.026C126.224 41.432 125.035 42.91 123.878 44.1456C123.347 44.7124 123.778 45.5245 124.538 45.367C129.564 44.3257 132.264 41.9668 133.845 39.6454H146.998C150.041 39.6454 152.508 37.1784 152.508 34.1353V18.7069C152.508 15.6637 150.041 13.1968 146.998 13.1968H123.304Z" fill="#FF7913"/>
  <path d="M18.0162 33.0331C18.0162 42.1578 22.9753 49.1006 31.7695 49.1006C40.5637 49.1006 45.5228 42.1578 45.5228 33.0331C45.5228 23.9083 40.5637 16.8994 31.7695 16.8994C22.9753 16.8994 18.0162 23.9083 18.0162 33.0331ZM7.04004 33.0331C7.04004 18.3541 16.0987 7.51013 31.7695 7.51013C47.4403 7.51013 56.499 18.3541 56.499 33.0331C56.499 47.7121 47.4403 58.4899 31.7695 58.4899C16.0987 58.4899 7.04004 47.7121 7.04004 33.0331Z" fill="#3E3333"/>
  <path fill-rule="evenodd" clip-rule="evenodd" d="M103.089 21.462C99.894 21.462 97.3037 24.0523 97.3037 27.2476C97.3037 30.4429 99.894 33.0333 103.089 33.0333C106.285 33.0333 108.875 30.4429 108.875 27.2476C108.875 24.0523 106.285 21.462 103.089 21.462ZM103.089 35.2373C99.894 35.2373 97.3037 37.8276 97.3037 41.0229V50.9412C97.3037 54.1365 99.894 56.7268 103.089 56.7268C106.285 56.7268 108.875 54.1365 108.875 50.9412V41.0229C108.875 37.8276 106.285 35.2373 103.089 35.2373Z" fill="#3E3333"/>
  <path fill-rule="evenodd" clip-rule="evenodd" d="M62.0381 17.8804C62.0381 14.685 64.6284 12.0947 67.8237 12.0947C71.019 12.0947 73.6094 14.685 73.6094 17.8804V31.4821L81.4138 25.3834C83.767 23.5445 87.0899 24.0181 88.8357 26.4411C90.5815 28.8641 90.0891 32.319 87.736 34.1578L81.622 38.9355L88.764 47.149C90.5402 49.1916 90.3836 52.3531 88.4143 54.2102C86.4451 56.0674 83.4088 55.917 81.6326 53.8744L73.8938 44.9746L73.6094 45.1969V50.9412C73.6094 54.1365 71.019 56.7268 67.8237 56.7268C64.6284 56.7268 62.0381 54.1365 62.0381 50.9412V17.8804Z" fill="#3E3333"/>
  <mask id="path-5-outside-1_163_809" maskUnits="userSpaceOnUse" x="-0.469727" y="0" width="160" height="66" fill="black">
    <rect fill="white" x="-0.469727" width="160" height="66"/>
    <path fill-rule="evenodd" clip-rule="evenodd" d="M31.7699 43.5905C28.9681 43.5905 27.1239 42.5536 25.8704 41.0121C24.5136 39.3437 23.5267 36.6538 23.5267 33.0331C23.5267 29.4114 24.5143 26.6981 25.8801 25.0089C27.142 23.4484 28.9866 22.4095 31.7699 22.4095C34.5532 22.4095 36.3978 23.4484 37.6596 25.0089C39.0254 26.6981 40.013 29.4114 40.013 33.0331C40.013 36.6538 39.0261 39.3437 37.6693 41.0121C36.4158 42.5536 34.5717 43.5905 31.7699 43.5905ZM31.7699 2C22.5969 2 14.883 5.21382 9.49184 11.0165C4.15103 16.7649 1.53027 24.5744 1.53027 33.0331C1.53027 41.4928 4.15189 49.29 9.49866 55.0239C14.894 60.8099 22.6074 64 31.7699 64C40.9324 64 48.6457 60.8099 54.0411 55.0239C54.9639 54.0343 55.8056 52.9832 56.5666 51.8778C57.0427 57.6781 61.901 62.2369 67.824 62.2369C71.7459 62.2369 75.2009 60.2383 77.2261 57.2039L77.4749 57.49C81.3051 61.8949 87.9484 62.2239 92.1951 58.2189C92.6579 57.7825 93.0728 57.3127 93.4395 56.8165C95.4229 60.067 99.0025 62.2369 103.089 62.2369C109.327 62.2369 114.385 57.1796 114.385 50.9412V41.0229C114.385 40.8806 114.382 40.7389 114.377 40.5979C115.372 41.9696 116.675 43.1031 118.184 43.8966C118.02 45.1369 118.227 46.4376 118.869 47.6342C120.213 50.1373 123 51.3129 125.656 50.7625C130.578 49.7427 134.027 47.6394 136.437 45.1555H146.998C153.084 45.1555 158.018 40.2216 158.018 34.1353V18.7069C158.018 12.6206 153.084 7.68663 146.998 7.68663H123.304C117.218 7.68663 112.284 12.6206 112.284 18.7069V20.6852C110.235 17.8196 106.88 15.9518 103.089 15.9518C98.5177 15.9518 94.5808 18.6671 92.8029 22.5727C89.3996 18.5201 83.6084 17.5824 79.1198 20.2854V17.8804C79.1198 11.6419 74.0625 6.5846 67.824 6.5846C62.668 6.5846 58.3188 10.0391 56.9648 14.7599C56.104 13.4351 55.132 12.1833 54.0479 11.0165C48.6567 5.21382 40.9429 2 31.7699 2ZM18.0166 33.0331C18.0166 42.1578 22.9757 49.1006 31.7699 49.1006C40.564 49.1006 45.5232 42.1578 45.5232 33.0331C45.5232 23.9083 40.564 16.8994 31.7699 16.8994C22.9757 16.8994 18.0166 23.9083 18.0166 33.0331ZM7.0404 33.0331C7.0404 18.3541 16.0991 7.51013 31.7699 7.51013C47.4407 7.51013 56.4993 18.3541 56.4993 33.0331C56.4993 47.7121 47.4407 58.4899 31.7699 58.4899C16.0991 58.4899 7.0404 47.7121 7.0404 33.0331ZM91.1291 38.4995C91.594 38.1362 92.0223 37.7421 92.4133 37.322C92.0114 38.4815 91.7931 39.7267 91.7931 41.0229V42.2347L89.5906 39.7018L91.1291 38.4995ZM73.33 52.7233C72.5786 55.0466 70.3975 56.7268 67.824 56.7268C64.6287 56.7268 62.0384 54.1365 62.0384 50.9412V17.8804C62.0384 14.6851 64.6287 12.0947 67.824 12.0947C71.0194 12.0947 73.6097 14.6851 73.6097 17.8804V31.4821L81.4142 25.3834C83.7673 23.5445 87.0902 24.0181 88.836 26.4411C90.5818 28.8641 90.0894 32.319 87.7363 34.1578L81.6223 38.9355L88.7643 47.149C90.5405 49.1916 90.3839 52.3531 88.4147 54.2102C86.4454 56.0674 83.4091 55.917 81.6329 53.8744L73.8941 44.9746L73.6097 45.1969V50.9412C73.6097 51.563 73.5116 52.1619 73.33 52.7233ZM129.073 43.8164C129.891 43.3968 130.607 42.9322 131.236 42.4395C132.352 41.565 133.194 40.602 133.845 39.6454H146.998C150.041 39.6454 152.508 37.1784 152.508 34.1353V18.7069C152.508 15.6637 150.041 13.1968 146.998 13.1968H123.304C120.261 13.1968 117.794 15.6637 117.794 18.7069V34.1353C117.794 37.1784 120.261 39.6454 123.304 39.6454H126.027C126.047 39.8308 126.053 40.0129 126.045 40.1917C126.041 40.2711 126.035 40.3499 126.027 40.428C125.886 41.7069 125.078 42.8158 124.21 43.7833C124.1 43.9063 123.989 44.027 123.878 44.1455C123.565 44.48 123.586 44.8998 123.813 45.1555C123.97 45.3331 124.227 45.4315 124.538 45.3669C124.715 45.3303 124.889 45.2921 125.06 45.2523C125.194 45.221 125.327 45.1887 125.458 45.1555C125.651 45.1065 125.841 45.0555 126.027 45.0025C127.176 44.6747 128.185 44.2721 129.073 43.8164ZM112.284 33.81C112.205 33.9199 112.125 34.0284 112.042 34.1353C112.127 34.2444 112.209 34.3551 112.289 34.4674C112.286 34.3571 112.284 34.2463 112.284 34.1353V33.81ZM97.3032 27.2476C97.3032 28.5491 97.733 29.7502 98.4583 30.7168C99.5138 32.1233 101.195 33.0332 103.089 33.0332C104.983 33.0332 106.664 32.1233 107.719 30.7168C108.445 29.7502 108.875 28.5491 108.875 27.2476C108.875 24.0523 106.284 21.462 103.089 21.462C99.8936 21.462 97.3032 24.0523 97.3032 27.2476ZM97.3032 41.0229C97.3032 39.7214 97.733 38.5203 98.4583 37.5537C99.5138 36.1472 101.195 35.2373 103.089 35.2373C104.983 35.2373 106.664 36.1472 107.719 37.5537C108.445 38.5203 108.875 39.7214 108.875 41.0229V50.9412C108.875 54.1365 106.284 56.7268 103.089 56.7268C99.8936 56.7268 97.3032 54.1365 97.3032 50.9412V41.0229Z"/>
  </mask>
  <path fill-rule="evenodd" clip-rule="evenodd" d="M31.7699 43.5905C28.9681 43.5905 27.1239 42.5536 25.8704 41.0121C24.5136 39.3437 23.5267 36.6538 23.5267 33.0331C23.5267 29.4114 24.5143 26.6981 25.8801 25.0089C27.142 23.4484 28.9866 22.4095 31.7699 22.4095C34.5532 22.4095 36.3978 23.4484 37.6596 25.0089C39.0254 26.6981 40.013 29.4114 40.013 33.0331C40.013 36.6538 39.0261 39.3437 37.6693 41.0121C36.4158 42.5536 34.5717 43.5905 31.7699 43.5905ZM31.7699 2C22.5969 2 14.883 5.21382 9.49184 11.0165C4.15103 16.7649 1.53027 24.5744 1.53027 33.0331C1.53027 41.4928 4.15189 49.29 9.49866 55.0239C14.894 60.8099 22.6074 64 31.7699 64C40.9324 64 48.6457 60.8099 54.0411 55.0239C54.9639 54.0343 55.8056 52.9832 56.5666 51.8778C57.0427 57.6781 61.901 62.2369 67.824 62.2369C71.7459 62.2369 75.2009 60.2383 77.2261 57.2039L77.4749 57.49C81.3051 61.8949 87.9484 62.2239 92.1951 58.2189C92.6579 57.7825 93.0728 57.3127 93.4395 56.8165C95.4229 60.067 99.0025 62.2369 103.089 62.2369C109.327 62.2369 114.385 57.1796 114.385 50.9412V41.0229C114.385 40.8806 114.382 40.7389 114.377 40.5979C115.372 41.9696 116.675 43.1031 118.184 43.8966C118.02 45.1369 118.227 46.4376 118.869 47.6342C120.213 50.1373 123 51.3129 125.656 50.7625C130.578 49.7427 134.027 47.6394 136.437 45.1555H146.998C153.084 45.1555 158.018 40.2216 158.018 34.1353V18.7069C158.018 12.6206 153.084 7.68663 146.998 7.68663H123.304C117.218 7.68663 112.284 12.6206 112.284 18.7069V20.6852C110.235 17.8196 106.88 15.9518 103.089 15.9518C98.5177 15.9518 94.5808 18.6671 92.8029 22.5727C89.3996 18.5201 83.6084 17.5824 79.1198 20.2854V17.8804C79.1198 11.6419 74.0625 6.5846 67.824 6.5846C62.668 6.5846 58.3188 10.0391 56.9648 14.7599C56.104 13.4351 55.132 12.1833 54.0479 11.0165C48.6567 5.21382 40.9429 2 31.7699 2ZM18.0166 33.0331C18.0166 42.1578 22.9757 49.1006 31.7699 49.1006C40.564 49.1006 45.5232 42.1578 45.5232 33.0331C45.5232 23.9083 40.564 16.8994 31.7699 16.8994C22.9757 16.8994 18.0166 23.9083 18.0166 33.0331ZM7.0404 33.0331C7.0404 18.3541 16.0991 7.51013 31.7699 7.51013C47.4407 7.51013 56.4993 18.3541 56.4993 33.0331C56.4993 47.7121 47.4407 58.4899 31.7699 58.4899C16.0991 58.4899 7.0404 47.7121 7.0404 33.0331ZM91.1291 38.4995C91.594 38.1362 92.0223 37.7421 92.4133 37.322C92.0114 38.4815 91.7931 39.7267 91.7931 41.0229V42.2347L89.5906 39.7018L91.1291 38.4995ZM73.33 52.7233C72.5786 55.0466 70.3975 56.7268 67.824 56.7268C64.6287 56.7268 62.0384 54.1365 62.0384 50.9412V17.8804C62.0384 14.6851 64.6287 12.0947 67.824 12.0947C71.0194 12.0947 73.6097 14.6851 73.6097 17.8804V31.4821L81.4142 25.3834C83.7673 23.5445 87.0902 24.0181 88.836 26.4411C90.5818 28.8641 90.0894 32.319 87.7363 34.1578L81.6223 38.9355L88.7643 47.149C90.5405 49.1916 90.3839 52.3531 88.4147 54.2102C86.4454 56.0674 83.4091 55.917 81.6329 53.8744L73.8941 44.9746L73.6097 45.1969V50.9412C73.6097 51.563 73.5116 52.1619 73.33 52.7233ZM129.073 43.8164C129.891 43.3968 130.607 42.9322 131.236 42.4395C132.352 41.565 133.194 40.602 133.845 39.6454H146.998C150.041 39.6454 152.508 37.1784 152.508 34.1353V18.7069C152.508 15.6637 150.041 13.1968 146.998 13.1968H123.304C120.261 13.1968 117.794 15.6637 117.794 18.7069V34.1353C117.794 37.1784 120.261 39.6454 123.304 39.6454H126.027C126.047 39.8308 126.053 40.0129 126.045 40.1917C126.041 40.2711 126.035 40.3499 126.027 40.428C125.886 41.7069 125.078 42.8158 124.21 43.7833C124.1 43.9063 123.989 44.027 123.878 44.1455C123.565 44.48 123.586 44.8998 123.813 45.1555C123.97 45.3331 124.227 45.4315 124.538 45.3669C124.715 45.3303 124.889 45.2921 125.06 45.2523C125.194 45.221 125.327 45.1887 125.458 45.1555C125.651 45.1065 125.841 45.0555 126.027 45.0025C127.176 44.6747 128.185 44.2721 129.073 43.8164ZM112.284 33.81C112.205 33.9199 112.125 34.0284 112.042 34.1353C112.127 34.2444 112.209 34.3551 112.289 34.4674C112.286 34.3571 112.284 34.2463 112.284 34.1353V33.81ZM97.3032 27.2476C97.3032 28.5491 97.733 29.7502 98.4583 30.7168C99.5138 32.1233 101.195 33.0332 103.089 33.0332C104.983 33.0332 106.664 32.1233 107.719 30.7168C108.445 29.7502 108.875 28.5491 108.875 27.2476C108.875 24.0523 106.284 21.462 103.089 21.462C99.8936 21.462 97.3032 24.0523 97.3032 27.2476ZM97.3032 41.0229C97.3032 39.7214 97.733 38.5203 98.4583 37.5537C99.5138 36.1472 101.195 35.2373 103.089 35.2373C104.983 35.2373 106.664 36.1472 107.719 37.5537C108.445 38.5203 108.875 39.7214 108.875 41.0229V50.9412C108.875 54.1365 106.284 56.7268 103.089 56.7268C99.8936 56.7268 97.3032 54.1365 97.3032 50.9412V41.0229Z" fill="white"/>
  <path d="M25.8704 41.0121L26.7254 40.3168H26.7254L25.8704 41.0121ZM25.8801 25.0089L26.7371 25.7018L25.8801 25.0089ZM37.6596 25.0089L36.8027 25.7018L37.6596 25.0089ZM37.6693 41.0121L38.5243 41.7074L37.6693 41.0121ZM9.49184 11.0165L10.2992 11.7666L9.49184 11.0165ZM9.49866 55.0239L10.3046 54.2724V54.2723L9.49866 55.0239ZM54.0411 55.0239L53.2351 54.2723V54.2724L54.0411 55.0239ZM56.5666 51.8778L57.6649 51.7876C57.6268 51.3232 57.3007 50.933 56.8504 50.813C56.4002 50.6929 55.9231 50.8691 55.6588 51.2529L56.5666 51.8778ZM77.2261 57.2039L78.0577 56.4808C77.8323 56.2216 77.4989 56.0823 77.1561 56.1041C76.8133 56.1259 76.5002 56.3064 76.3095 56.5921L77.2261 57.2039ZM77.4749 57.49L76.6433 58.2131L77.4749 57.49ZM92.1951 58.2189L92.9512 59.0207L92.1951 58.2189ZM93.4395 56.8165L94.3802 56.2425C94.1891 55.9294 93.8547 55.7318 93.4883 55.7156C93.1218 55.6994 92.7712 55.8666 92.5532 56.1616L93.4395 56.8165ZM114.377 40.5979L115.269 39.9509C114.984 39.5582 114.476 39.3979 114.017 39.5561C113.559 39.7143 113.258 40.1538 113.276 40.6386L114.377 40.5979ZM118.184 43.8966L119.277 44.0414C119.338 43.5834 119.106 43.1361 118.697 42.9211L118.184 43.8966ZM118.869 47.6342L119.84 47.1129V47.1129L118.869 47.6342ZM125.656 50.7625L125.88 51.8416L125.656 50.7625ZM136.437 45.1555V44.0535C136.139 44.0535 135.854 44.1742 135.647 44.388L136.437 45.1555ZM112.284 20.6852L111.387 21.3261C111.666 21.7157 112.164 21.8808 112.62 21.7345C113.077 21.5883 113.386 21.1641 113.386 20.6852H112.284ZM92.8029 22.5727L91.9589 23.2814C92.2022 23.5711 92.5771 23.7158 92.9519 23.6646C93.3267 23.6135 93.6491 23.3736 93.8058 23.0293L92.8029 22.5727ZM79.1198 20.2854H78.0178C78.0178 20.6827 78.2317 21.0493 78.5776 21.2448C78.9236 21.4403 79.3479 21.4344 79.6883 21.2295L79.1198 20.2854ZM56.9648 14.7599L56.0407 15.3603C56.2759 15.7223 56.7008 15.9137 57.1278 15.8498C57.5547 15.786 57.9051 15.4787 58.0241 15.0638L56.9648 14.7599ZM54.0479 11.0165L54.8553 10.2664L54.8553 10.2664L54.0479 11.0165ZM92.4133 37.322L93.4546 37.6829C93.6252 37.1907 93.4278 36.6463 92.9815 36.3777C92.5351 36.1092 91.9617 36.1898 91.6067 36.5711L92.4133 37.322ZM91.1291 38.4995L90.4505 37.6312L90.4505 37.6312L91.1291 38.4995ZM91.7931 42.2347L90.9615 42.9579C91.2632 43.3048 91.7485 43.428 92.1791 43.267C92.6097 43.1059 92.8951 42.6945 92.8951 42.2347H91.7931ZM89.5906 39.7018L88.912 38.8334C88.6738 39.0196 88.5225 39.2954 88.4936 39.5963C88.4647 39.8972 88.5606 40.1968 88.759 40.4249L89.5906 39.7018ZM73.33 52.7233L72.2815 52.3841L73.33 52.7233ZM73.6097 31.4821H72.5077C72.5077 31.9035 72.7479 32.2879 73.1266 32.4726C73.5053 32.6573 73.9562 32.6099 74.2882 32.3505L73.6097 31.4821ZM81.4142 25.3834L80.7356 24.515V24.515L81.4142 25.3834ZM87.7363 34.1578L87.0577 33.2895L87.7363 34.1578ZM81.6223 38.9355L80.9438 38.0671C80.7056 38.2533 80.5543 38.5291 80.5254 38.83C80.4964 39.1309 80.5924 39.4305 80.7907 39.6586L81.6223 38.9355ZM88.7643 47.149L87.9327 47.8721V47.8721L88.7643 47.149ZM88.4147 54.2102L87.6586 53.4085L88.4147 54.2102ZM81.6329 53.8744L80.8013 54.5975V54.5975L81.6329 53.8744ZM73.8941 44.9746L74.7257 44.2515C74.3411 43.8091 73.6775 43.7453 73.2156 44.1062L73.8941 44.9746ZM73.6097 45.1969L72.9311 44.3285C72.6639 44.5374 72.5077 44.8577 72.5077 45.1969H73.6097ZM131.236 42.4395L131.916 43.307L131.236 42.4395ZM129.073 43.8164L128.57 42.8358L129.073 43.8164ZM133.845 39.6454V38.5434C133.481 38.5434 133.14 38.7237 132.934 39.0251L133.845 39.6454ZM126.027 39.6454L127.122 39.5246C127.06 38.9661 126.588 38.5434 126.027 38.5434V39.6454ZM126.045 40.1917L127.146 40.2399V40.2399L126.045 40.1917ZM126.027 40.428L127.122 40.5485L127.122 40.5484L126.027 40.428ZM124.21 43.7833L125.031 44.519L125.031 44.5189L124.21 43.7833ZM123.878 44.1455L124.682 44.8988L124.682 44.8988L123.878 44.1455ZM123.813 45.1555L124.638 44.4245L123.813 45.1555ZM124.538 45.3669L124.315 44.2878H124.315L124.538 45.3669ZM125.06 45.2523L125.31 46.3256L125.31 46.3256L125.06 45.2523ZM125.458 45.1555L125.187 44.0873L125.187 44.0873L125.458 45.1555ZM126.027 45.0025L126.329 46.0622H126.329L126.027 45.0025ZM112.042 34.1353L111.169 33.4627C110.864 33.8591 110.864 34.4114 111.169 34.8078L112.042 34.1353ZM112.284 33.81H113.386C113.386 33.3311 113.077 32.9069 112.62 32.7607C112.164 32.6144 111.666 32.7795 111.387 33.1691L112.284 33.81ZM112.289 34.4674L111.392 35.1076C111.674 35.5025 112.181 35.6666 112.64 35.5118C113.1 35.357 113.405 34.9197 113.39 34.4347L112.289 34.4674ZM98.4583 30.7168L97.5769 31.3783L98.4583 30.7168ZM107.719 30.7168L108.601 31.3783L107.719 30.7168ZM98.4583 37.5537L97.5769 36.8922L98.4583 37.5537ZM107.719 37.5537L108.601 36.8922L107.719 37.5537ZM25.0154 41.7074C26.4856 43.5153 28.6483 44.6925 31.7699 44.6925V42.4884C29.2879 42.4884 27.7623 41.5919 26.7254 40.3168L25.0154 41.7074ZM22.4247 33.0331C22.4247 36.8433 23.4628 39.7982 25.0154 41.7074L26.7254 40.3168C25.5645 38.8893 24.6287 36.4643 24.6287 33.0331H22.4247ZM25.0232 24.316C23.4633 26.2452 22.4247 29.2221 22.4247 33.0331H24.6287C24.6287 29.6007 25.5653 27.151 26.7371 25.7018L25.0232 24.316ZM31.7699 21.3075C28.6632 21.3075 26.5001 22.4895 25.0232 24.316L26.7371 25.7018C27.7839 24.4072 29.3099 23.5116 31.7699 23.5116V21.3075ZM38.5166 24.316C37.0397 22.4895 34.8765 21.3075 31.7699 21.3075V23.5116C34.2298 23.5116 35.7559 24.4072 36.8027 25.7018L38.5166 24.316ZM41.1151 33.0331C41.1151 29.2221 40.0764 26.2452 38.5166 24.316L36.8027 25.7018C37.9744 27.151 38.911 29.6007 38.911 33.0331H41.1151ZM38.5243 41.7074C40.077 39.7982 41.1151 36.8433 41.1151 33.0331H38.911C38.911 36.4643 37.9753 38.8893 36.8144 40.3168L38.5243 41.7074ZM31.7699 44.6925C34.8915 44.6925 37.0542 43.5153 38.5243 41.7074L36.8144 40.3168C35.7775 41.5919 34.2518 42.4884 31.7699 42.4884V44.6925ZM10.2992 11.7666C15.4566 6.21559 22.8639 3.10203 31.7699 3.10203V0.897974C22.3299 0.897974 14.3095 4.21204 8.68449 10.2664L10.2992 11.7666ZM2.6323 33.0331C2.6323 24.7977 5.18213 17.2742 10.2992 11.7666L8.68449 10.2664C3.11994 16.2556 0.428247 24.351 0.428247 33.0331H2.6323ZM10.3046 54.2723C5.18282 48.7797 2.6323 41.2693 2.6323 33.0331H0.428247C0.428247 41.7164 3.12096 49.8003 8.69268 55.7755L10.3046 54.2723ZM31.7699 62.898C22.8723 62.898 15.4653 59.8067 10.3046 54.2724L8.69268 55.7755C14.3227 61.8131 22.3424 65.102 31.7699 65.102V62.898ZM53.2351 54.2724C48.0744 59.8067 40.6675 62.898 31.7699 62.898V65.102C41.1973 65.102 49.2171 61.8131 54.8471 55.7755L53.2351 54.2724ZM55.6588 51.2529C54.9281 52.3143 54.1203 53.323 53.2351 54.2723L54.8471 55.7755C55.8075 54.7455 56.683 53.652 57.4743 52.5027L55.6588 51.2529ZM55.4682 51.968C55.9909 58.3353 61.3226 63.339 67.824 63.339V61.1349C62.4794 61.1349 58.0944 57.0209 57.6649 51.7876L55.4682 51.968ZM67.824 63.339C72.1296 63.339 75.9218 61.1433 78.1428 57.8157L76.3095 56.5921C74.48 59.3332 71.3622 61.1349 67.824 61.1349V63.339ZM76.3945 57.927L76.6433 58.2131L78.3065 56.7669L78.0577 56.4808L76.3945 57.927ZM76.6433 58.2131C80.8843 63.0904 88.249 63.4551 92.9512 59.0207L91.439 57.4172C87.6478 60.9926 81.7259 60.6993 78.3065 56.7669L76.6433 58.2131ZM92.9512 59.0207C93.4621 58.5389 93.9205 58.0199 94.3258 57.4715L92.5532 56.1616C92.2252 56.6055 91.8538 57.0261 91.439 57.4172L92.9512 59.0207ZM92.4987 57.3906C94.6739 60.9553 98.6025 63.339 103.089 63.339V61.1349C99.4024 61.1349 96.1718 59.1787 94.3802 56.2425L92.4987 57.3906ZM103.089 63.339C109.936 63.339 115.487 57.7883 115.487 50.9412H113.283C113.283 56.571 108.719 61.1349 103.089 61.1349V63.339ZM115.487 50.9412V41.0229H113.283V50.9412H115.487ZM115.487 41.0229C115.487 40.867 115.484 40.7118 115.478 40.5571L113.276 40.6386C113.28 40.7661 113.283 40.8942 113.283 41.0229H115.487ZM113.485 41.2449C114.578 42.7529 116.011 43.9992 117.672 44.8721L118.697 42.9211C117.338 42.207 116.165 41.1864 115.269 39.9509L113.485 41.2449ZM117.092 43.7518C116.898 45.2131 117.143 46.7479 117.898 48.1554L119.84 47.1129C119.311 46.1273 119.142 45.0607 119.277 44.0414L117.092 43.7518ZM117.898 48.1554C119.485 51.1116 122.772 52.4856 125.88 51.8416L125.433 49.6834C123.228 50.1402 120.941 49.1631 119.84 47.1129L117.898 48.1554ZM125.88 51.8416C131.009 50.7788 134.658 48.5716 137.228 45.923L135.647 44.388C133.396 46.7073 130.147 48.7065 125.433 49.6834L125.88 51.8416ZM136.437 46.2575H146.998V44.0535H136.437V46.2575ZM146.998 46.2575C153.693 46.2575 159.12 40.8302 159.12 34.1353H156.916C156.916 39.6129 152.475 44.0535 146.998 44.0535V46.2575ZM159.12 34.1353V18.7069H156.916V34.1353H159.12ZM159.12 18.7069C159.12 12.0119 153.693 6.5846 146.998 6.5846V8.78865C152.475 8.78865 156.916 13.2292 156.916 18.7069H159.12ZM146.998 6.5846H123.304V8.78865H146.998V6.5846ZM123.304 6.5846C116.609 6.5846 111.182 12.0119 111.182 18.7069H113.386C113.386 13.2292 117.826 8.78865 123.304 8.78865V6.5846ZM111.182 18.7069V20.6852H113.386V18.7069H111.182ZM113.18 20.0442C110.934 16.9017 107.251 14.8498 103.089 14.8498V17.0539C106.509 17.0539 109.537 18.7375 111.387 21.3261L113.18 20.0442ZM103.089 14.8498C98.0701 14.8498 93.7501 17.8319 91.7999 22.1162L93.8058 23.0293C95.4114 19.5023 98.9654 17.0539 103.089 17.0539V14.8498ZM93.6468 21.864C89.8935 17.3947 83.5028 16.3595 78.5513 19.3413L79.6883 21.2295C83.7139 18.8052 88.9057 19.6456 91.9589 23.2814L93.6468 21.864ZM80.2218 20.2854V17.8804H78.0178V20.2854H80.2218ZM80.2218 17.8804C80.2218 11.0333 74.6712 5.48258 67.824 5.48258V7.68663C73.4539 7.68663 78.0178 12.2505 78.0178 17.8804H80.2218ZM67.824 5.48258C62.1634 5.48258 57.3915 9.27537 55.9055 14.4561L58.0241 15.0638C59.2462 10.8029 63.1726 7.68663 67.824 7.68663V5.48258ZM53.2406 11.7666C54.2806 12.886 55.2137 14.0875 56.0407 15.3603L57.8889 14.1595C56.9943 12.7826 55.9834 11.4806 54.8553 10.2664L53.2406 11.7666ZM31.7699 3.10203C40.6758 3.10203 48.0832 6.2156 53.2406 11.7666L54.8553 10.2664C49.2302 4.21204 41.2099 0.897974 31.7699 0.897974V3.10203ZM31.7699 47.9986C27.6919 47.9986 24.5724 46.4026 22.4504 43.7933C20.3078 41.1586 19.1186 37.4071 19.1186 33.0331H16.9146C16.9146 37.7838 18.2049 42.0661 20.7404 45.1839C23.2966 48.3272 27.0537 50.2026 31.7699 50.2026V47.9986ZM44.4211 33.0331C44.4211 37.4071 43.2319 41.1586 41.0893 43.7933C38.9674 46.4026 35.8479 47.9986 31.7699 47.9986V50.2026C36.486 50.2026 40.2432 48.3272 42.7993 45.1839C45.3348 42.0661 46.6252 37.7838 46.6252 33.0331H44.4211ZM31.7699 18.0014C35.8442 18.0014 38.9638 19.611 41.0874 22.2373C43.2318 24.8894 44.4211 28.6588 44.4211 33.0331H46.6252C46.6252 28.2825 45.335 23.9851 42.8013 20.8515C40.2468 17.6923 36.4897 15.7974 31.7699 15.7974V18.0014ZM19.1186 33.0331C19.1186 28.6588 20.308 24.8894 22.4524 22.2373C24.576 19.611 27.6955 18.0014 31.7699 18.0014V15.7974C27.05 15.7974 23.293 17.6923 20.7385 20.8515C18.2048 23.9851 16.9146 28.2825 16.9146 33.0331H19.1186ZM31.7699 6.4081C23.667 6.4081 17.1783 9.21966 12.7212 14.0169C8.27426 18.8032 5.93838 25.4697 5.93838 33.0331H8.14243C8.14243 25.9174 10.3359 19.8224 14.3359 15.5171C18.3259 11.2226 24.202 8.61216 31.7699 8.61216V6.4081ZM57.6014 33.0331C57.6014 25.4697 55.2655 18.8032 50.8185 14.0169C46.3615 9.21966 39.8728 6.4081 31.7699 6.4081V8.61216C39.3378 8.61216 45.2138 11.2226 49.2038 15.5171C53.2039 19.8224 55.3973 25.9174 55.3973 33.0331H57.6014ZM31.7699 59.5919C39.8707 59.5919 46.3593 56.7983 50.8172 52.0177C55.2653 47.2474 57.6014 40.5966 57.6014 33.0331H55.3973C55.3973 40.1485 53.204 46.2261 49.2052 50.5145C45.216 54.7925 39.3399 57.3878 31.7699 57.3878V59.5919ZM5.93838 33.0331C5.93838 40.5966 8.27443 47.2474 12.7226 52.0177C17.1805 56.7983 23.669 59.5919 31.7699 59.5919V57.3878C24.1999 57.3878 18.3237 54.7925 14.3346 50.5145C10.3357 46.2261 8.14243 40.1485 8.14243 33.0331H5.93838ZM91.6067 36.5711C91.255 36.949 90.8694 37.3038 90.4505 37.6312L91.8076 39.3679C92.3186 38.9686 92.7897 38.5351 93.22 38.0729L91.6067 36.5711ZM92.8951 41.0229C92.8951 39.8512 93.0924 38.7279 93.4546 37.6829L91.3721 36.9611C90.9305 38.2351 90.6911 39.6022 90.6911 41.0229H92.8951ZM92.8951 42.2347V41.0229H90.6911V42.2347H92.8951ZM88.759 40.4249L90.9615 42.9579L92.6247 41.5116L90.4222 38.9786L88.759 40.4249ZM90.4505 37.6312L88.912 38.8334L90.2691 40.5701L91.8076 39.3679L90.4505 37.6312ZM67.824 57.8288C70.8894 57.8288 73.4844 55.8271 74.3786 53.0624L72.2815 52.3841C71.6728 54.266 69.9057 55.6248 67.824 55.6248V57.8288ZM60.9364 50.9412C60.9364 54.7451 64.0201 57.8288 67.824 57.8288V55.6248C65.2374 55.6248 63.1404 53.5278 63.1404 50.9412H60.9364ZM60.9364 17.8804V50.9412H63.1404V17.8804H60.9364ZM67.824 10.9927C64.0201 10.9927 60.9364 14.0764 60.9364 17.8804H63.1404C63.1404 15.2937 65.2374 13.1968 67.824 13.1968V10.9927ZM74.7117 17.8804C74.7117 14.0764 71.628 10.9927 67.824 10.9927V13.1968C70.4107 13.1968 72.5077 15.2937 72.5077 17.8804H74.7117ZM74.7117 31.4821V17.8804H72.5077V31.4821H74.7117ZM80.7356 24.515L72.9311 30.6138L74.2882 32.3505L82.0927 26.2517L80.7356 24.515ZM89.7301 25.7969C87.6187 22.8664 83.5816 22.2911 80.7356 24.515L82.0927 26.2517C83.953 24.798 86.5617 25.1698 87.9419 27.0853L89.7301 25.7969ZM88.4148 35.0262C91.2344 32.8228 91.8219 28.7001 89.7301 25.7969L87.9419 27.0853C89.3416 29.028 88.9445 31.8151 87.0577 33.2895L88.4148 35.0262ZM82.3009 39.8038L88.4148 35.0262L87.0577 33.2895L80.9438 38.0671L82.3009 39.8038ZM89.5959 46.4259L82.4539 38.2124L80.7907 39.6586L87.9327 47.8721L89.5959 46.4259ZM89.1708 55.012C91.5702 52.7491 91.7601 48.9147 89.5959 46.4259L87.9327 47.8721C89.3209 49.4685 89.1976 51.957 87.6586 53.4085L89.1708 55.012ZM80.8013 54.5975C82.9883 57.1126 86.746 57.2987 89.1708 55.012L87.6586 53.4085C86.1448 54.8361 83.8299 54.7215 82.4645 53.1513L80.8013 54.5975ZM73.0625 45.6977L80.8013 54.5975L82.4645 53.1513L74.7257 44.2515L73.0625 45.6977ZM74.2882 46.0652L74.5727 45.8429L73.2156 44.1062L72.9311 44.3285L74.2882 46.0652ZM74.7117 50.9412V45.1969H72.5077V50.9412H74.7117ZM74.3786 53.0624C74.5951 52.3928 74.7117 51.6795 74.7117 50.9412H72.5077C72.5077 51.4464 72.428 51.931 72.2815 52.3841L74.3786 53.0624ZM130.556 41.5721C129.983 42.0214 129.326 42.4481 128.57 42.8358L129.576 44.797C130.456 44.3455 131.232 43.8431 131.916 43.307L130.556 41.5721ZM132.934 39.0251C132.339 39.8994 131.573 40.7756 130.556 41.5721L131.916 43.307C133.132 42.3544 134.049 41.3046 134.756 40.2657L132.934 39.0251ZM146.998 38.5434H133.845V40.7474H146.998V38.5434ZM151.406 34.1353C151.406 36.5698 149.432 38.5434 146.998 38.5434V40.7474C150.65 40.7474 153.61 37.7871 153.61 34.1353H151.406ZM151.406 18.7069V34.1353H153.61V18.7069H151.406ZM146.998 14.2988C149.432 14.2988 151.406 16.2724 151.406 18.7069H153.61C153.61 15.0551 150.65 12.0947 146.998 12.0947V14.2988ZM123.304 14.2988H146.998V12.0947H123.304V14.2988ZM118.896 18.7069C118.896 16.2724 120.87 14.2988 123.304 14.2988V12.0947C119.652 12.0947 116.692 15.0551 116.692 18.7069H118.896ZM118.896 34.1353V18.7069H116.692V34.1353H118.896ZM123.304 38.5434C120.87 38.5434 118.896 36.5698 118.896 34.1353H116.692C116.692 37.787 119.652 40.7474 123.304 40.7474V38.5434ZM126.027 38.5434H123.304V40.7474H126.027V38.5434ZM127.146 40.2399C127.156 40.0055 127.149 39.7669 127.122 39.5246L124.931 39.7662C124.945 39.8947 124.949 40.0203 124.944 40.1436L127.146 40.2399ZM127.122 40.5484C127.133 40.4467 127.141 40.3438 127.146 40.2399L124.944 40.1436C124.941 40.1984 124.937 40.2531 124.931 40.3076L127.122 40.5484ZM125.031 44.5189C125.918 43.5298 126.941 42.1969 127.122 40.5485L124.931 40.3075C124.831 41.2169 124.238 42.1018 123.39 43.0476L125.031 44.5189ZM124.682 44.8988C124.797 44.776 124.914 44.6493 125.031 44.519L123.39 43.0476C123.286 43.1633 123.18 43.278 123.073 43.3923L124.682 44.8988ZM124.638 44.4245C124.712 44.509 124.747 44.6142 124.744 44.7133C124.741 44.8197 124.697 44.8829 124.682 44.8988L123.073 43.3923C122.394 44.1179 122.363 45.1807 122.988 45.8865L124.638 44.4245ZM124.315 44.2878C124.329 44.2848 124.379 44.279 124.449 44.3011C124.518 44.3229 124.585 44.3651 124.638 44.4245L122.988 45.8865C123.424 46.3784 124.089 46.5855 124.762 46.446L124.315 44.2878ZM124.81 44.179C124.648 44.2167 124.483 44.253 124.315 44.2878L124.762 46.446C124.947 46.4076 125.13 46.3675 125.31 46.3256L124.81 44.179ZM125.187 44.0873C125.063 44.1187 124.937 44.1493 124.81 44.179L125.31 46.3256C125.451 46.2927 125.591 46.2587 125.729 46.2237L125.187 44.0873ZM125.724 43.9427C125.549 43.9927 125.37 44.0409 125.187 44.0873L125.729 46.2237C125.932 46.1721 126.132 46.1182 126.329 46.0622L125.724 43.9427ZM128.57 42.8358C127.749 43.257 126.808 43.6337 125.724 43.9427L126.329 46.0622C127.543 45.7158 128.62 45.2873 129.576 44.797L128.57 42.8358ZM112.916 34.8078C113.006 34.6905 113.094 34.5716 113.18 34.451L111.387 33.1691C111.317 33.2683 111.244 33.3662 111.169 33.4627L112.916 34.8078ZM113.186 33.8271C113.098 33.7039 113.008 33.5824 112.915 33.4627L111.169 34.8078C111.245 34.9063 111.32 35.0063 111.392 35.1076L113.186 33.8271ZM111.182 34.1353C111.182 34.2572 111.184 34.3788 111.187 34.5L113.39 34.4347C113.387 34.3353 113.386 34.2355 113.386 34.1353H111.182ZM111.182 33.81V34.1353H113.386V33.81H111.182ZM99.3398 30.0554C98.7527 29.273 98.4053 28.3025 98.4053 27.2476H96.2012C96.2012 28.7957 96.7133 30.2275 97.5769 31.3783L99.3398 30.0554ZM103.089 31.9312C101.557 31.9312 100.196 31.1965 99.3398 30.0554L97.5769 31.3783C98.8315 33.0502 100.834 34.1353 103.089 34.1353V31.9312ZM106.838 30.0554C105.982 31.1965 104.621 31.9312 103.089 31.9312V34.1353C105.344 34.1353 107.346 33.0502 108.601 31.3783L106.838 30.0554ZM107.772 27.2476C107.772 28.3025 107.425 29.273 106.838 30.0554L108.601 31.3783C109.464 30.2275 109.977 28.7957 109.977 27.2476H107.772ZM103.089 22.564C105.676 22.564 107.772 24.6609 107.772 27.2476H109.977C109.977 23.4436 106.893 20.3599 103.089 20.3599V22.564ZM98.4053 27.2476C98.4053 24.6609 100.502 22.564 103.089 22.564V20.3599C99.2849 20.3599 96.2012 23.4436 96.2012 27.2476H98.4053ZM97.5769 36.8922C96.7133 38.0431 96.2012 39.4748 96.2012 41.0229H98.4053C98.4053 39.9681 98.7527 38.9975 99.3398 38.2151L97.5769 36.8922ZM103.089 34.1353C100.834 34.1353 98.8315 35.2203 97.5769 36.8922L99.3398 38.2151C100.196 37.0741 101.557 36.3393 103.089 36.3393V34.1353ZM108.601 36.8922C107.346 35.2203 105.344 34.1353 103.089 34.1353V36.3393C104.621 36.3393 105.982 37.0741 106.838 38.2151L108.601 36.8922ZM109.977 41.0229C109.977 39.4748 109.464 38.0431 108.601 36.8922L106.838 38.2151C107.425 38.9975 107.772 39.9681 107.772 41.0229H109.977ZM109.977 50.9412V41.0229H107.772V50.9412H109.977ZM103.089 57.8288C106.893 57.8288 109.977 54.7451 109.977 50.9412H107.772C107.772 53.5278 105.676 55.6248 103.089 55.6248V57.8288ZM96.2012 50.9412C96.2012 54.7451 99.2849 57.8288 103.089 57.8288V55.6248C100.502 55.6248 98.4053 53.5278 98.4053 50.9412H96.2012ZM96.2012 41.0229V50.9412H98.4053V41.0229H96.2012Z" fill="#E4E4E4" mask="url(#path-5-outside-1_163_809)"/>
  <path d="M18.0162 33.0331C18.0162 42.1578 22.9753 49.1006 31.7695 49.1006C40.5637 49.1006 45.5228 42.1578 45.5228 33.0331C45.5228 23.9083 40.5637 16.8994 31.7695 16.8994C22.9753 16.8994 18.0162 23.9083 18.0162 33.0331ZM7.04004 33.0331C7.04004 18.3541 16.0987 7.51013 31.7695 7.51013C47.4403 7.51013 56.499 18.3541 56.499 33.0331C56.499 47.7121 47.4403 58.4899 31.7695 58.4899C16.0987 58.4899 7.04004 47.7121 7.04004 33.0331Z" fill="#3E3333"/>
  <path fill-rule="evenodd" clip-rule="evenodd" d="M103.088 21.462C99.8931 21.462 97.3027 24.0523 97.3027 27.2476C97.3027 30.4429 99.8931 33.0333 103.088 33.0333C106.284 33.0333 108.874 30.4429 108.874 27.2476C108.874 24.0523 106.284 21.462 103.088 21.462ZM103.088 35.2373C99.8931 35.2373 97.3027 37.8276 97.3027 41.0229V50.9412C97.3027 54.1365 99.8931 56.7268 103.088 56.7268C106.284 56.7268 108.874 54.1365 108.874 50.9412V41.0229C108.874 37.8276 106.284 35.2373 103.088 35.2373Z" fill="#3E3333"/>
  <path fill-rule="evenodd" clip-rule="evenodd" d="M62.0391 17.8804C62.0391 14.685 64.6294 12.0947 67.8247 12.0947C71.02 12.0947 73.6103 14.685 73.6103 17.8804V31.4821L81.4148 25.3834C83.768 23.5445 87.0908 24.0181 88.8366 26.4411C90.5824 28.8641 90.0901 32.319 87.7369 34.1578L81.623 38.9355L88.765 47.149C90.5412 49.1916 90.3846 52.3531 88.4153 54.2102C86.446 56.0674 83.4097 55.917 81.6336 53.8744L73.8948 44.9746L73.6103 45.1969V50.9412C73.6103 54.1365 71.02 56.7268 67.8247 56.7268C64.6294 56.7268 62.0391 54.1365 62.0391 50.9412V17.8804Z" fill="#3E3333"/>
  <path fill-rule="evenodd" clip-rule="evenodd" d="M123.304 13.1972C120.261 13.1972 117.794 15.6642 117.794 18.7073V34.1357C117.794 37.1789 120.261 39.6458 123.304 39.6458H126.026C126.224 41.4325 125.035 42.9104 123.878 44.146C123.347 44.7128 123.778 45.5249 124.538 45.3674C129.564 44.3262 132.264 41.9672 133.845 39.6458H146.998C150.041 39.6458 152.508 37.1789 152.508 34.1357V18.7073C152.508 15.6642 150.041 13.1972 146.998 13.1972H123.304Z" fill="#FF7913"/>
  <path d="M139.915 22.5907C140.305 22.5907 140.629 22.742 140.91 23.0014C141.169 23.2825 141.321 23.6068 141.321 23.9959C141.321 24.3851 141.169 24.731 140.91 24.9904C140.629 25.2498 140.305 25.3795 139.915 25.3795H139.353L138.921 27.9955H139.245C139.634 27.9955 139.959 28.1468 140.218 28.4062C140.477 28.6657 140.629 28.9899 140.629 29.3791C140.629 29.7682 140.477 30.1141 140.218 30.3736C139.959 30.6546 139.634 30.7843 139.245 30.7843H138.445L138.078 32.9679C137.991 33.3138 137.84 33.5948 137.58 33.811C137.321 34.0272 137.04 34.1353 136.694 34.1353C136.608 34.1353 136.543 34.1353 136.478 34.1137C135.635 33.8975 135.246 33.3786 135.332 32.5139L135.613 30.7843H133.689L133.322 32.9679C133.235 33.3138 133.084 33.5948 132.824 33.811C132.565 34.0272 132.284 34.1353 131.938 34.1353C131.851 34.1353 131.787 34.1353 131.722 34.1137C130.879 33.8975 130.489 33.3786 130.576 32.5139L130.857 30.7843H130.77C130.381 30.7843 130.035 30.6546 129.776 30.3736C129.495 30.1141 129.365 29.7682 129.365 29.3791C129.365 28.9899 129.495 28.6657 129.776 28.4062C130.035 28.1468 130.381 27.9955 130.77 27.9955H131.333L131.765 25.3795H131.441C131.052 25.3795 130.706 25.2498 130.446 24.9904C130.165 24.731 130.035 24.3851 130.035 23.9959C130.035 23.6068 130.165 23.2825 130.446 23.0014C130.706 22.742 131.052 22.5907 131.441 22.5907H132.241L132.608 20.4072C132.824 19.5856 133.343 19.2181 134.208 19.2613C135.029 19.4775 135.419 20.018 135.354 20.8612L135.073 22.5907H136.997L137.364 20.4072C137.58 19.5856 138.099 19.2181 138.964 19.2613C139.786 19.4775 140.175 20.018 140.11 20.8612L139.829 22.5907H139.915ZM136.521 27.9955L136.954 25.3795H135.029L134.597 27.9955H136.521Z" fill="white"/>
  <path d="M87.6937 38.0228L90.6802 35.99C91.781 35.2408 93.2706 36.034 93.2633 37.3655L93.2366 42.2695C93.2287 43.7258 91.4779 44.461 90.4326 43.447L87.4728 40.5758C86.7214 39.8469 86.8282 38.6119 87.6937 38.0228Z" fill="white"/>
  <path d="M109.183 31.9488L112.169 29.916C113.27 29.1667 114.76 29.9599 114.753 31.2915L114.726 36.1955C114.718 37.6517 112.967 38.3869 111.922 37.373L108.962 34.5018C108.211 33.7728 108.317 32.5378 109.183 31.9488Z" fill="white"/>
</svg>