<svg xmlns="http://www.w3.org/2000/svg" width="94" height="90" viewBox="0 0 94 90" fill="none">
  <ellipse cx="14.8603" cy="13.8578" rx="11.704" ry="9.86616" transform="rotate(-21.2299 14.8603 13.8578)" fill="#5E4E4E"/>
  <ellipse cx="11.704" cy="9.86616" rx="11.704" ry="9.86616" transform="matrix(-0.932135 -0.362112 -0.362112 0.932135 93.5498 8.89935)" fill="#5E4E4E"/>
  <mask id="path-3-inside-1_163_901" fill="white">
    <path fill-rule="evenodd" clip-rule="evenodd" d="M19.4481 12.3846C13.3304 12.3846 8.37109 17.3439 8.37109 23.4615V65.2772C8.37109 71.3948 13.3304 76.3541 19.4481 76.3541H54.8144C56.8719 80.9302 60.9688 86.9156 71.7016 89.1395C72.9165 89.3912 73.6053 88.0935 72.7572 87.1878C70.1741 84.4291 67.4911 80.9142 70.89 76.3541H74.5561C80.6737 76.3541 85.6331 71.3948 85.6331 65.2772V23.4615C85.6331 17.3439 80.6737 12.3846 74.5561 12.3846H19.4481Z"/>
  </mask>
  <path fill-rule="evenodd" clip-rule="evenodd" d="M19.4481 12.3846C13.3304 12.3846 8.37109 17.3439 8.37109 23.4615V65.2772C8.37109 71.3948 13.3304 76.3541 19.4481 76.3541H54.8144C56.8719 80.9302 60.9688 86.9156 71.7016 89.1395C72.9165 89.3912 73.6053 88.0935 72.7572 87.1878C70.1741 84.4291 67.4911 80.9142 70.89 76.3541H74.5561C80.6737 76.3541 85.6331 71.3948 85.6331 65.2772V23.4615C85.6331 17.3439 80.6737 12.3846 74.5561 12.3846H19.4481Z" fill="white"/>
  <path d="M54.8144 76.3541L56.4561 75.616L55.9786 74.5541H54.8144V76.3541ZM71.7016 89.1395L71.3364 90.902H71.3364L71.7016 89.1395ZM72.7572 87.1878L74.0712 85.9575L72.7572 87.1878ZM70.89 76.3541V74.5541H69.9866L69.4468 75.2785L70.89 76.3541ZM10.1711 23.4615C10.1711 18.338 14.3245 14.1846 19.4481 14.1846V10.5846C12.3363 10.5846 6.57109 16.3498 6.57109 23.4615H10.1711ZM10.1711 65.2772V23.4615H6.57109V65.2772H10.1711ZM19.4481 74.5541C14.3245 74.5541 10.1711 70.4007 10.1711 65.2772H6.57109C6.57109 72.3889 12.3363 78.1542 19.4481 78.1542V74.5541ZM54.8144 74.5541H19.4481V78.1542H54.8144V74.5541ZM72.0668 87.3769C66.9845 86.3238 63.5722 84.4049 61.2049 82.2873C58.8292 80.1622 57.4202 77.7603 56.4561 75.616L53.1727 77.0923C54.2661 79.5241 55.9344 82.4029 58.8047 84.9705C61.6834 87.5455 65.6859 89.7313 71.3364 90.902L72.0668 87.3769ZM71.4433 88.4181C71.4202 88.3934 71.3603 88.311 71.3397 88.1697C71.32 88.0344 71.3432 87.8841 71.4171 87.7463C71.4916 87.6076 71.6116 87.4935 71.757 87.4278C71.9081 87.3595 72.0277 87.3688 72.0668 87.3769L71.3364 90.902C72.6875 91.182 73.9765 90.5899 74.589 89.4491C75.1927 88.3245 74.993 86.942 74.0712 85.9575L71.4433 88.4181ZM69.4468 75.2785C67.4252 77.9906 67.1087 80.6072 67.8646 82.9906C68.5676 85.2075 70.1473 87.0339 71.4433 88.4181L74.0712 85.9575C72.7841 84.583 71.7307 83.2726 71.2962 81.9024C70.9144 80.6986 70.9559 79.2777 72.3332 77.4298L69.4468 75.2785ZM74.5561 74.5541H70.89V78.1542H74.5561V74.5541ZM83.8331 65.2772C83.8331 70.4007 79.6796 74.5541 74.5561 74.5541V78.1542C81.6678 78.1542 87.4331 72.3889 87.4331 65.2772H83.8331ZM83.8331 23.4615V65.2772H87.4331V23.4615H83.8331ZM74.5561 14.1846C79.6796 14.1846 83.8331 18.338 83.8331 23.4615H87.4331C87.4331 16.3498 81.6678 10.5846 74.5561 10.5846V14.1846ZM19.4481 14.1846H74.5561V10.5846H19.4481V14.1846Z" fill="#EDEDED" mask="url(#path-3-inside-1_163_901)"/>
  <mask id="mask0_163_901" style="mask-type:alpha" maskUnits="userSpaceOnUse" x="8" y="12" width="78" height="65">
    <rect x="8.37109" y="12.3846" width="77.262" height="63.9696" rx="11.077" fill="#FFD4D4"/>
  </mask>
  <g mask="url(#mask0_163_901)">
    <ellipse cx="16.5835" cy="52.5952" rx="16.1216" ry="16.1447" fill="#FFC4C4"/>
    <ellipse cx="76.2036" cy="52.5952" rx="16.1216" ry="16.1447" fill="#FFC4C4"/>
  </g>
  <ellipse cx="15.0951" cy="17.4748" rx="15.0951" ry="17.4748" transform="matrix(-0.920288 -0.391242 -0.391242 0.920288 50.1387 27.942)" fill="#5E4E4E"/>
  <ellipse cx="64.8205" cy="38.1179" rx="15.0951" ry="17.4748" transform="rotate(-23.0318 64.8205 38.1179)" fill="#5E4E4E"/>
  <path d="M47.002 44.5107L47.002 47.8338" stroke="#AE7878" stroke-width="0.830774" stroke-linecap="round"/>
  <circle cx="47.0022" cy="42.708" r="1.80001" fill="#5E4E4E"/>
  <ellipse cx="47.1395" cy="54.7543" rx="3.3231" ry="6.92312" fill="#5E4E4E"/>
  <mask id="mask1_163_901" style="mask-type:alpha" maskUnits="userSpaceOnUse" x="43" y="47" width="8" height="15">
    <ellipse cx="47.1385" cy="54.7517" rx="3.3231" ry="6.92312" fill="#5E4E4E"/>
  </mask>
  <g mask="url(#mask1_163_901)">
    <ellipse cx="4.31812" cy="6.80605" rx="4.31812" ry="6.80605" transform="matrix(0.928279 0.371884 -0.248361 0.968668 47.4736 51.9828)" fill="#7F6E6E"/>
  </g>
  <circle cx="61.9548" cy="36.6144" r="9.83082" fill="white"/>
  <circle cx="61.9537" cy="36.6139" r="5.40003" fill="#5E4E4E"/>
  <circle cx="63.7518" cy="35.0915" r="1.38462" fill="#7F6E6E"/>
  <circle cx="31.7742" cy="36.6145" r="9.83082" fill="white"/>
  <circle cx="31.7741" cy="36.6139" r="5.40003" fill="#5E4E4E"/>
  <circle cx="33.8504" cy="35.0915" r="1.38462" fill="#7F6E6E"/>
  <path d="M31.0771 18.7539C32.1557 17.978 34.1379 17.3571 36.0618 18.7539" stroke="#AE7878" stroke-width="1.1077" stroke-linecap="round"/>
  <path d="M49.3555 63.3391C48.3968 64.115 46.6348 64.7358 44.9247 63.3391" stroke="#E1C0C0" stroke-width="1.1077" stroke-linecap="round"/>
  <path d="M58.2168 18.7539C59.2953 17.978 61.2775 17.3571 63.2014 18.7539" stroke="#AE7878" stroke-width="1.1077" stroke-linecap="round"/>
</svg>