<svg xmlns="http://www.w3.org/2000/svg" width="90" height="93" viewBox="0 0 90 93" fill="none">
  <path d="M72.2247 92.1989C59.7328 89.6106 55.3365 82.4332 53.1581 77.2791C52.7495 76.3126 53.4577 75.2577 54.5062 75.218L70.1939 74.6241C71.6823 74.5677 72.448 76.5647 71.5275 77.7357C67.4453 82.929 70.4785 86.9151 73.3969 90.0318C74.3386 91.0375 73.5738 92.4785 72.2247 92.1989Z" fill="#FFE5D3"/>
  <rect x="1.2832" y="16.9821" width="87.022" height="64.5746" rx="12.2999" fill="#FFE5D3"/>
  <mask id="mask0_163_1001" style="mask-type:alpha" maskUnits="userSpaceOnUse" x="1" y="16" width="88" height="66">
    <rect x="1.28516" y="16.983" width="87.022" height="64.5746" rx="12.2999" fill="#FFCAB2"/>
  </mask>
  <g mask="url(#mask0_163_1001)">
    <ellipse cx="10.5351" cy="57.5722" rx="18.1581" ry="16.2974" fill="#FFCAB2"/>
    <ellipse cx="77.6865" cy="57.5722" rx="18.1581" ry="16.2974" fill="#FFCAB2"/>
  </g>
  <circle cx="29.7267" cy="41.4274" r="10.9162" fill="white"/>
  <circle cx="29.7277" cy="41.4283" r="5.99621" fill="#5E4E4E"/>
  <circle cx="59.8625" cy="41.4274" r="10.9162" fill="white"/>
  <circle cx="59.8634" cy="41.4283" r="5.99621" fill="#5E4E4E"/>
  <ellipse cx="44.9488" cy="61.5712" rx="3.68998" ry="7.68746" fill="#5E4E4E"/>
  <mask id="mask1_163_1001" style="mask-type:alpha" maskUnits="userSpaceOnUse" x="41" y="53" width="8" height="17">
    <ellipse cx="44.9488" cy="61.5708" rx="3.68998" ry="7.68746" fill="#5E4E4E"/>
  </mask>
  <g mask="url(#mask1_163_1001)">
    <ellipse cx="4.79486" cy="7.55746" rx="4.79486" ry="7.55746" transform="matrix(0.928279 0.371884 -0.248361 0.968668 44.5215 60.3403)" fill="#7F6E6E"/>
  </g>
  <circle cx="61.8617" cy="39.7365" r="1.53749" fill="#7F6E6E"/>
  <circle cx="32.0355" cy="39.7365" r="1.53749" fill="#7F6E6E"/>
  <path d="M47.4092 71.1017C46.3446 71.9633 44.3881 72.6527 42.4892 71.1017" stroke="#FFA362" stroke-width="1.22999" stroke-linecap="round"/>
  <path d="M27.1143 25.2846C28.3119 24.423 30.5129 23.7336 32.6492 25.2846" stroke="#FFA362" stroke-width="1.22999" stroke-linecap="round"/>
  <path d="M57.25 25.2846C58.4476 24.423 60.6487 23.7336 62.785 25.2846" stroke="#FFA362" stroke-width="1.22999" stroke-linecap="round"/>
  <ellipse cx="44.9487" cy="49.1152" rx="8.91745" ry="5.99621" fill="#FFBE8F"/>
  <path d="M14.9619 28.0532C16.7945 30.7482 20.9086 30.2355 22.0237 27.1732L26.5123 14.8464C27.5348 12.0384 25.2272 9.14231 22.2618 9.51186L10.3965 10.9905C7.43108 11.3601 5.90484 14.734 7.58521 17.2051L14.9619 28.0532Z" fill="#FFC9A3"/>
  <path d="M75.0625 28.0532C73.2299 30.7482 69.1158 30.2355 68.0007 27.1732L63.5121 14.8464C62.4896 12.0384 64.7972 9.14231 67.7626 9.51186L79.6279 10.9905C82.5933 11.3601 84.1196 14.734 82.4392 17.2051L75.0625 28.0532Z" fill="#FFC9A3"/>
  <circle cx="42.0272" cy="49.1155" r="1.69124" fill="#5E4E4E"/>
  <circle cx="47.5633" cy="49.1155" r="1.69124" fill="#5E4E4E"/>
</svg>