<svg xmlns="http://www.w3.org/2000/svg" width="38" height="37" viewBox="0 0 38 37" fill="none">
  <path fill-rule="evenodd" clip-rule="evenodd" d="M8.67171 6.38891C12.0509 3.32884 16.6475 1.63283 21.5467 2.06686C30.8704 2.89287 37.7591 11.1208 36.9331 20.4445C36.1071 29.7682 27.8791 36.657 18.5554 35.831C9.23174 35.005 2.34299 26.777 3.169 17.4533C3.2517 16.5199 3.40857 15.6109 3.63331 14.7316C2.26621 11.8833 1.43867 8.15952 2.12332 3.2363C2.36695 1.48438 4.34143 1.35195 5.18244 2.908C5.99418 4.40991 7.05838 5.774 8.67171 6.38891Z" fill="white"/>
  <path d="M8.67171 6.38891L9.34256 7.12972C9.06386 7.3821 8.6671 7.45671 8.31576 7.3228L8.67171 6.38891ZM3.63331 14.7316L4.53432 14.2991C4.63593 14.5108 4.65975 14.7515 4.60161 14.9791L3.63331 14.7316ZM2.12332 3.2363L3.11322 3.37396L3.11322 3.37396L2.12332 3.2363ZM5.18244 2.908L6.06166 2.4328L6.06166 2.4328L5.18244 2.908ZM21.4585 3.06238C16.8482 2.65395 12.524 4.24878 9.34256 7.12972L8.00086 5.6481C11.5779 2.4089 16.4468 0.611718 21.6349 1.07134L21.4585 3.06238ZM35.9376 20.3563C36.7149 11.5825 30.2324 3.83968 21.4585 3.06238L21.6349 1.07134C31.5084 1.94606 38.8034 10.6592 37.9286 20.5327L35.9376 20.3563ZM18.6436 34.8355C27.4175 35.6128 35.1603 29.1302 35.9376 20.3563L37.9286 20.5327C37.0539 30.4063 28.3408 37.7012 18.4672 36.8265L18.6436 34.8355ZM4.16452 17.5415C3.38722 26.3154 9.86974 34.0582 18.6436 34.8355L18.4672 36.8265C8.59373 35.9518 1.29876 27.2386 2.17348 17.3651L4.16452 17.5415ZM4.60161 14.9791C4.39018 15.8063 4.24244 16.662 4.16452 17.5415L2.17348 17.3651C2.26095 16.3777 2.42697 15.4155 2.66501 14.4841L4.60161 14.9791ZM3.11322 3.37396C2.4552 8.10566 3.25361 11.6308 4.53432 14.2991L2.7323 15.164C1.2788 12.1357 0.422146 8.21338 1.13343 3.09864L3.11322 3.37396ZM4.30322 3.3832C4.04511 2.90564 3.6956 2.81085 3.51996 2.82692C3.42996 2.83516 3.35593 2.86986 3.29548 2.93083C3.23519 2.99162 3.14854 3.11994 3.11322 3.37396L1.13343 3.09864C1.31262 1.81009 2.20011 0.940535 3.33777 0.836403C4.42052 0.737298 5.47876 1.35431 6.06166 2.4328L4.30322 3.3832ZM8.31576 7.3228C6.36718 6.58011 5.15506 4.9593 4.30322 3.3832L6.06166 2.4328C6.8333 3.86052 7.74959 4.9679 9.02765 5.45502L8.31576 7.3228Z" fill="#E4E4E4"/>
</svg>