<svg xmlns="http://www.w3.org/2000/svg" width="106" height="94" viewBox="0 0 106 94" fill="none">
  <rect y="0.426605" width="105.414" height="74.2879" rx="16.6006" fill="#C6F692"/>
  <mask id="mask0_163_1029" style="mask-type:alpha" maskUnits="userSpaceOnUse" x="0" y="0" width="106" height="75">
    <rect y="0.427094" width="105.414" height="74.2879" rx="16.6006" fill="#FFD4D4"/>
  </mask>
  <g mask="url(#mask0_163_1029)">
    <ellipse cx="11.2058" cy="47.1225" rx="21.9958" ry="18.7488" fill="#B7EE84"/>
    <ellipse cx="92.5457" cy="47.1225" rx="21.9958" ry="18.7488" fill="#B7EE84"/>
  </g>
  <circle cx="32.1657" cy="33.4233" r="14.7331" fill="white"/>
  <circle cx="32.167" cy="33.4239" r="8.09281" fill="#5E4E4E"/>
  <circle cx="72.8366" cy="33.4232" r="14.7331" fill="white"/>
  <circle cx="72.837" cy="33.4239" r="8.09281" fill="#5E4E4E"/>
  <ellipse cx="52.7048" cy="54.7935" rx="4.98019" ry="10.3754" fill="#5E4E4E"/>
  <mask id="mask1_163_1029" style="mask-type:alpha" maskUnits="userSpaceOnUse" x="47" y="44" width="11" height="22">
    <ellipse cx="52.7068" cy="54.7883" rx="4.98019" ry="10.3754" fill="#5E4E4E"/>
  </mask>
  <g mask="url(#mask1_163_1029)">
    <ellipse cx="6.4714" cy="10.2" rx="6.4714" ry="10.2" transform="matrix(0.928279 0.371884 -0.248361 0.968668 53.209 50.6397)" fill="#7F6E6E"/>
  </g>
  <path d="M89.5195 92.2145C72.6597 88.7212 66.7262 79.0341 63.7861 72.0779C63.2347 70.7735 64.1905 69.3498 65.6057 69.2962L86.7785 68.4946C88.7873 68.4185 89.8208 71.1137 88.5785 72.6941C83.0689 79.7034 87.1627 85.0831 91.1016 89.2897C92.3725 90.647 91.3403 92.5918 89.5195 92.2145Z" fill="#C6F692"/>
  <circle cx="75.5311" cy="31.1393" r="2.07508" fill="#7F6E6E"/>
  <circle cx="35.2763" cy="31.1393" r="2.07508" fill="#7F6E6E"/>
  <path d="M28.6377 11.6305C30.2541 10.4676 33.2247 9.53715 36.108 11.6305" stroke="#8AD539" stroke-width="1.66006" stroke-linecap="round"/>
  <path d="M69.3066 11.6305C70.923 10.4676 73.8937 9.53715 76.7769 11.6305" stroke="#8AD539" stroke-width="1.66006" stroke-linecap="round"/>
  <path d="M56.0244 67.6636C54.5876 68.8265 51.9471 69.757 49.3842 67.6636" stroke="#A0E555" stroke-width="1.66006" stroke-linecap="round"/>
  <mask id="mask2_163_1029" style="mask-type:alpha" maskUnits="userSpaceOnUse" x="0" y="0" width="106" height="75">
    <rect y="0.427094" width="105.414" height="74.2879" rx="16.6006" fill="#C6F692"/>
  </mask>
  <g mask="url(#mask2_163_1029)">
    <path d="M94.364 -0.125118C95.9684 -2.85442 99.9151 -2.85442 101.52 -0.125116L104.329 4.65473C105.956 7.42138 103.961 10.9081 100.752 10.9081H95.1319C91.9227 10.9081 89.9278 7.42138 91.5541 4.65473L94.364 -0.125118Z" fill="#B4EB79"/>
    <path d="M96.5024 12.7444C98.6009 12.8857 99.5899 15.4039 98.1485 16.9355L95.4578 19.7944C94.2056 21.1248 91.9947 20.6987 91.3268 18.9981L90.1004 15.8756C89.4325 14.1751 90.7624 12.3581 92.5853 12.4808L96.5024 12.7444Z" fill="#B4EB79"/>
    <path d="M85.3482 6.68135C86.2359 5.1064 88.573 5.34094 89.1301 7.06088L89.818 9.18503C90.2793 10.6094 89.1264 12.0386 87.6367 11.8891L85.8524 11.71C84.3627 11.5605 83.5168 9.93071 84.2519 8.62644L85.3482 6.68135Z" fill="#B4EB79"/>
    <path d="M104.001 12.0707C105.366 11.4761 106.764 12.8418 106.2 14.2207L105.52 15.8858C105.074 16.9767 103.665 17.2688 102.823 16.4451L101.854 15.498C101.011 14.6743 101.271 13.2593 102.352 12.7889L104.001 12.0707Z" fill="#B4EB79"/>
    <path d="M11.0032 -0.125118C9.3988 -2.85442 5.45209 -2.85442 3.84768 -0.125116L1.03786 4.65473C-0.588509 7.42138 1.40636 10.9081 4.61563 10.9081H10.2353C13.4445 10.9081 15.4394 7.42138 13.813 4.65473L11.0032 -0.125118Z" fill="#B4EB79"/>
    <path d="M8.86482 12.7444C6.76633 12.8857 5.77724 15.4039 7.21871 16.9355L9.90939 19.7944C11.1615 21.1248 13.3725 20.6987 14.0404 18.9981L15.2668 15.8756C15.9347 14.1751 14.6048 12.3581 12.7819 12.4808L8.86482 12.7444Z" fill="#B4EB79"/>
    <path d="M20.019 6.68135C19.1313 5.1064 16.7942 5.34094 16.2371 7.06088L15.5492 9.18503C15.0879 10.6094 16.2408 12.0386 17.7305 11.8891L19.5148 11.71C21.0045 11.5605 21.8504 9.93071 21.1153 8.62644L20.019 6.68135Z" fill="#B4EB79"/>
    <path d="M1.36641 12.0707C0.000736939 11.4761 -1.39645 12.8418 -0.833065 14.2207L-0.152702 15.8858C0.293018 16.9767 1.70173 17.2688 2.54443 16.4451L3.51329 15.498C4.35599 14.6743 4.09606 13.2593 3.01563 12.7889L1.36641 12.0707Z" fill="#B4EB79"/>
  </g>
</svg>