<svg xmlns="http://www.w3.org/2000/svg" width="217" height="166" viewBox="0 0 217 166" fill="none">
  <path d="M196.268 113.207C180.867 110.015 175.446 101.166 172.761 94.812C172.257 93.6204 173.13 92.3199 174.423 92.2709L193.764 91.5386C195.599 91.4692 196.543 93.9312 195.408 95.3749C190.375 101.778 194.115 106.692 197.713 110.535C198.874 111.775 197.931 113.551 196.268 113.207Z" fill="#FFE5D3"/>
  <rect x="108.806" y="20.473" width="107.289" height="79.6138" rx="15.1645" fill="#FFE5D3"/>
  <rect x="0.000488281" y="75.8229" width="96.2948" height="67.8613" rx="15.1645" fill="#FFEF92"/>
  <mask id="mask0_166_2101" style="mask-type:alpha" maskUnits="userSpaceOnUse" x="0" y="75" width="97" height="69">
    <rect x="0.000488281" y="75.8229" width="96.2948" height="67.8613" rx="15.1645" fill="#FFD4D4"/>
  </mask>
  <g mask="url(#mask0_166_2101)">
    <ellipse cx="10.237" cy="118.478" rx="20.093" ry="17.1269" fill="#FFDD77"/>
    <ellipse cx="84.5427" cy="118.478" rx="20.093" ry="17.1269" fill="#FFDD77"/>
  </g>
  <circle cx="29.3819" cy="106.721" r="13.4585" fill="white"/>
  <circle cx="29.382" cy="106.721" r="7.39271" fill="#5E4E4E"/>
  <circle cx="66.5342" cy="106.721" r="13.4585" fill="white"/>
  <circle cx="66.5343" cy="106.721" r="7.39271" fill="#5E4E4E"/>
  <mask id="mask1_166_2101" style="mask-type:alpha" maskUnits="userSpaceOnUse" x="108" y="20" width="109" height="81">
    <rect x="108.805" y="20.472" width="107.289" height="79.6138" rx="15.1645" fill="#FFCAB2"/>
  </mask>
  <g mask="url(#mask1_166_2101)">
    <ellipse cx="120.21" cy="70.5149" rx="22.3871" ry="20.093" fill="#FFCAB2"/>
    <ellipse cx="202.999" cy="70.5149" rx="22.3871" ry="20.093" fill="#FFCAB2"/>
  </g>
  <circle cx="143.874" cy="53.2665" r="13.4585" fill="white"/>
  <circle cx="143.874" cy="53.2665" r="7.39271" fill="#5E4E4E"/>
  <path d="M81.7756 159.671C66.3743 156.48 60.9542 147.63 58.2683 141.276C57.7647 140.084 58.6378 138.784 59.9305 138.735L79.2717 138.003C81.1068 137.933 82.0508 140.395 80.916 141.839C75.883 148.242 79.6227 153.156 83.2208 156.999C84.3818 158.239 83.4389 160.015 81.7756 159.671Z" fill="#FFEF92"/>
  <circle cx="68.9996" cy="104.636" r="1.89557" fill="#7F6E6E"/>
  <circle cx="32.2252" cy="104.636" r="1.89557" fill="#7F6E6E"/>
  <circle cx="181.026" cy="53.2665" r="13.4585" fill="white"/>
  <circle cx="181.026" cy="53.2665" r="7.39271" fill="#5E4E4E"/>
  <path d="M26.3745 89.8444C27.5743 88.4773 30.0271 87.0386 33.0236 88.3093" stroke="#FFBA1A" stroke-width="1.51645" stroke-linecap="round"/>
  <path d="M63.2725 88.31C64.9501 87.6071 67.7854 87.3894 69.9216 89.845" stroke="#FFBA1A" stroke-width="1.51645" stroke-linecap="round"/>
  <circle cx="183.491" cy="51.181" r="1.89557" fill="#7F6E6E"/>
  <circle cx="146.718" cy="51.181" r="1.89557" fill="#7F6E6E"/>
  <path d="M153.92 78.4772C157.612 73.8743 164.396 70.191 170.981 78.4772" stroke="#FFBE8F" stroke-width="2.27468" stroke-linecap="round"/>
  <path d="M140.867 35.7438C142.067 34.3767 144.52 32.938 147.516 34.2087" stroke="#FFA362" stroke-width="1.51645" stroke-linecap="round"/>
  <path d="M177.764 34.2085C179.441 33.5056 182.277 33.2879 184.413 35.7435" stroke="#FFA362" stroke-width="1.51645" stroke-linecap="round"/>
  <path d="M53.8348 120.546C53.8348 122.039 51.2888 122.833 48.1481 122.833C45.0074 122.833 42.4614 122.039 42.4614 120.546C42.4614 119.053 45.0074 116.388 48.1481 116.388C51.2888 116.388 53.8348 119.053 53.8348 120.546Z" fill="#FFBA1A"/>
  <path d="M52.6973 122.857C52.6973 123.799 50.6605 124.35 48.148 124.35C45.6354 124.35 43.5986 123.799 43.5986 122.857C43.5986 121.915 45.6354 120.938 48.148 120.938C50.6605 120.938 52.6973 121.915 52.6973 122.857Z" fill="#FFBA1A"/>
  <ellipse cx="43.7181" cy="71.6529" rx="5.6867" ry="10.9943" transform="rotate(-11.1295 43.7181 71.6529)" fill="#FFEF92"/>
  <ellipse cx="52.0594" cy="66.8096" rx="6.77591" ry="12.9908" transform="rotate(7.15205 52.0594 66.8096)" fill="#FFEF92"/>
  <path d="M47.3896 65.5871C48.0847 67.1667 49.0957 72.032 48.527 75.2545" stroke="#FFDD77" stroke-width="1.51645" stroke-linecap="round"/>
  <ellipse cx="162.64" cy="62.744" rx="10.9943" ry="7.39271" fill="#FFBE8F"/>
  <path d="M125.665 34.1209C127.925 37.4436 132.997 36.8115 134.372 33.0359L139.906 17.8383C141.166 14.3764 138.321 10.8057 134.665 11.2614L120.037 13.0844C116.381 13.54 114.499 17.6997 116.571 20.7463L125.665 34.1209Z" fill="#FFC9A3"/>
  <path d="M199.762 34.1209C197.503 37.4436 192.43 36.8115 191.056 33.0359L185.522 17.8383C184.261 14.3764 187.106 10.8057 190.762 11.2614L205.391 13.0844C209.047 13.54 210.928 17.6997 208.857 20.7463L199.762 34.1209Z" fill="#FFC9A3"/>
  <circle cx="159.039" cy="62.7439" r="2.08512" fill="#5E4E4E"/>
  <circle cx="165.862" cy="62.7439" r="2.08512" fill="#5E4E4E"/>
  <path fill-rule="evenodd" clip-rule="evenodd" d="M86.5689 45.2595C90.6859 41.4506 93.2635 36.0015 93.2635 29.9505C93.2635 18.4347 83.9281 9.09924 72.4123 9.09924C60.8964 9.09924 51.561 18.4347 51.561 29.9505C51.561 41.4663 60.8964 50.8017 72.4123 50.8017C73.5649 50.8017 74.6957 50.7082 75.7975 50.5283C79.5405 52.7511 84.7027 54.2638 91.9904 53.4412C93.3238 53.2907 93.5946 51.7251 92.4179 51.0799C89.9715 49.7385 87.3586 48.0506 86.5689 45.2595Z" fill="white"/>
  <path d="M86.5689 45.2595L86.054 44.703C85.8446 44.8967 85.7616 45.1915 85.8393 45.466L86.5689 45.2595ZM75.7975 50.5283L76.1847 49.8763C76.0315 49.7854 75.8512 49.7513 75.6753 49.78L75.7975 50.5283ZM91.9904 53.4412L91.9053 52.6878L91.9904 53.4412ZM92.4179 51.0799L92.0534 51.7447V51.7447L92.4179 51.0799ZM92.5053 29.9505C92.5053 35.7815 90.0224 41.0315 86.054 44.703L87.0838 45.8161C91.3495 41.8697 94.0217 36.2216 94.0217 29.9505H92.5053ZM72.4123 9.85747C83.5093 9.85747 92.5053 18.8534 92.5053 29.9505H94.0217C94.0217 18.0159 84.3468 8.34102 72.4123 8.34102V9.85747ZM52.3193 29.9505C52.3193 18.8534 61.3152 9.85747 72.4123 9.85747V8.34102C60.4777 8.34102 50.8028 18.0159 50.8028 29.9505H52.3193ZM72.4123 50.0435C61.3152 50.0435 52.3193 41.0475 52.3193 29.9505H50.8028C50.8028 41.885 60.4777 51.5599 72.4123 51.5599V50.0435ZM75.6753 49.78C74.6138 49.9533 73.5238 50.0435 72.4123 50.0435V51.5599C73.606 51.5599 74.7777 51.4631 75.9197 51.2766L75.6753 49.78ZM91.9053 52.6878C84.774 53.4927 79.7788 52.0108 76.1847 49.8763L75.4104 51.1802C79.3022 53.4914 84.6315 55.0349 92.0754 54.1947L91.9053 52.6878ZM92.0534 51.7447C92.3727 51.9198 92.4261 52.1606 92.3989 52.3133C92.3731 52.4584 92.2542 52.6484 91.9053 52.6878L92.0754 54.1947C93.06 54.0835 93.7431 53.4155 93.8919 52.5788C94.0394 51.7498 93.6398 50.8851 92.7825 50.415L92.0534 51.7447ZM85.8393 45.466C86.725 48.5963 89.6279 50.4148 92.0534 51.7447L92.7825 50.415C90.3152 49.0622 87.9922 47.5049 87.2985 45.0531L85.8393 45.466Z" fill="#E4E4E4"/>
  <path fill-rule="evenodd" clip-rule="evenodd" d="M112.156 139.073C110.745 133.644 111.515 127.666 114.779 122.571C120.992 112.875 133.889 110.052 143.585 116.265C153.281 122.478 156.104 135.375 149.891 145.071C143.678 154.767 130.782 157.59 121.086 151.377C120.115 150.755 119.213 150.066 118.383 149.32C114.032 149.172 108.869 147.661 103.177 143.036C102.136 142.19 102.752 140.726 104.091 140.818C106.875 141.008 109.985 140.997 112.156 139.073Z" fill="white"/>
  <path d="M112.156 139.073L112.89 138.882C112.962 139.158 112.873 139.451 112.659 139.64L112.156 139.073ZM118.383 149.32L118.408 148.562C118.586 148.568 118.757 148.637 118.889 148.756L118.383 149.32ZM103.177 143.036L103.655 142.448L103.655 142.448L103.177 143.036ZM104.091 140.818L104.143 140.061L104.091 140.818ZM115.418 122.98C112.272 127.89 111.53 133.65 112.89 138.882L111.422 139.263C109.96 133.639 110.757 127.442 114.141 122.162L115.418 122.98ZM143.176 116.903C133.832 110.916 121.405 113.637 115.418 122.98L114.141 122.162C120.58 112.114 133.945 109.187 143.994 115.626L143.176 116.903ZM149.253 144.662C155.24 135.318 152.519 122.89 143.176 116.903L143.994 115.626C154.043 122.065 156.969 135.431 150.53 145.48L149.253 144.662ZM121.495 150.739C130.838 156.726 143.266 154.005 149.253 144.662L150.53 145.48C144.091 155.528 130.725 158.454 120.677 152.016L121.495 150.739ZM118.889 148.756C119.69 149.475 120.559 150.139 121.495 150.739L120.677 152.016C119.671 151.371 118.737 150.658 117.876 149.884L118.889 148.756ZM103.655 142.448C109.225 146.973 114.231 148.42 118.408 148.562L118.357 150.078C113.833 149.924 108.513 148.348 102.699 143.625L103.655 142.448ZM104.039 141.574C103.676 141.549 103.501 141.723 103.442 141.866C103.385 142.002 103.383 142.227 103.655 142.448L102.699 143.625C101.93 143 101.715 142.069 102.041 141.284C102.365 140.507 103.167 139.994 104.143 140.061L104.039 141.574ZM112.659 139.64C110.224 141.798 106.799 141.763 104.039 141.574L104.143 140.061C106.95 140.253 109.746 140.195 111.653 138.505L112.659 139.64Z" fill="#E4E4E4"/>
  <path d="M46.063 122.265C46.9476 122.454 49.058 122.72 50.4228 122.265" stroke="#F2AE10" stroke-width="0.758226" stroke-linecap="round" stroke-linejoin="round"/>
  <path d="M126.912 129.938C127.001 127.53 127.773 123.212 132.293 123.212C136.813 123.212 137.674 127.447 137.674 129.938" stroke="#B8B8B8" stroke-width="3.3631" stroke-linecap="round" stroke-linejoin="round"/>
  <rect x="123.212" y="129.938" width="18.1607" height="14.125" rx="2.01786" fill="#D9D9D9"/>
  <circle cx="132.293" cy="134.983" r="2.35417" fill="#A2A2A2"/>
  <rect x="131.284" y="134.647" width="2.01786" height="6.7262" rx="1.00893" fill="#A1A1A1"/>
  <path d="M67.3921 25.6823C67.4818 23.2741 68.253 18.9561 72.7731 18.9561C77.2931 18.9561 78.154 23.1911 78.154 25.6823" stroke="#B8B8B8" stroke-width="3.3631" stroke-linecap="round" stroke-linejoin="round"/>
  <rect x="63.6924" y="25.6824" width="18.1607" height="14.125" rx="2.01786" fill="#D9D9D9"/>
  <circle cx="72.7731" cy="30.7271" r="2.35417" fill="#A2A2A2"/>
  <rect x="71.7642" y="30.3909" width="2.01786" height="6.7262" rx="1.00893" fill="#A1A1A1"/>
</svg>