<svg xmlns="http://www.w3.org/2000/svg" width="217" height="179" viewBox="0 0 217 179" fill="none">
  <rect x="121.477" y="34.6017" width="95.5309" height="78.9823" rx="15.0442" fill="#FFD4D4"/>
  <rect x="137.273" width="31.969" height="58.2964" rx="15.9845" fill="#FFD4D4"/>
  <rect x="169.243" width="32.3451" height="58.2964" rx="16.1726" fill="#FFD4D4"/>
  <path d="M169.243 19.5575L169.243 36.1062" stroke="#FFBABA" stroke-width="1.50442" stroke-linecap="round"/>
  <path d="M141.485 57.8135C139.693 58.0262 136.93 57.4603 135.562 54.5352" stroke="#5E4E4E" stroke-width="1.50442" stroke-linecap="round"/>
  <path d="M139.981 60.6459C138.309 61.3243 135.494 61.5086 133.402 59.0486" stroke="#5E4E4E" stroke-width="1.50442" stroke-linecap="round"/>
  <path d="M196.698 57.8135C198.49 58.0262 201.253 57.4603 202.621 54.5352" stroke="#5E4E4E" stroke-width="1.50442" stroke-linecap="round"/>
  <path d="M198.203 60.6459C199.875 61.3243 202.69 61.5086 204.781 59.0486" stroke="#5E4E4E" stroke-width="1.50442" stroke-linecap="round"/>
  <mask id="mask0_166_1820" style="mask-type:alpha" maskUnits="userSpaceOnUse" x="121" y="34" width="97" height="80">
    <rect x="121.477" y="34.6017" width="95.5309" height="78.9823" rx="15.0442" fill="#FFD4D4"/>
  </mask>
  <g mask="url(#mask0_166_1820)">
    <circle cx="131.631" cy="84.248" r="19.9336" fill="#FFA4A4"/>
    <circle cx="205.348" cy="84.248" r="19.9336" fill="#FFA4A4"/>
  </g>
  <circle cx="150.625" cy="64.5022" r="13.3518" fill="white"/>
  <circle cx="150.625" cy="64.5022" r="7.33407" fill="#5E4E4E"/>
  <path d="M169.054 76.7256V79.7345" stroke="#AE7878" stroke-width="1.12832" stroke-linecap="round"/>
  <circle cx="187.484" cy="64.5022" r="13.3518" fill="white"/>
  <circle cx="187.483" cy="64.5022" r="7.33407" fill="#5E4E4E"/>
  <circle cx="169.054" cy="75.4093" r="2.44469" fill="#5E4E4E"/>
  <path d="M202.603 126.601C187.324 123.435 181.947 114.656 179.282 108.352C178.783 107.17 179.649 105.88 180.931 105.831L200.119 105.105C201.939 105.036 202.876 107.478 201.75 108.91C196.757 115.262 200.467 120.138 204.037 123.95C205.189 125.18 204.253 126.943 202.603 126.601Z" fill="#FFD4D4"/>
  <circle cx="189.928" cy="62.4336" r="1.88053" fill="#7F6E6E"/>
  <circle cx="153.445" cy="62.4336" r="1.88053" fill="#7F6E6E"/>
  <path d="M186.543 35.6426C187.044 35.9321 187.044 36.6559 186.543 36.9454L180.055 40.6912C179.553 40.9807 178.926 40.6188 178.926 40.0397L178.926 32.5483C178.926 31.9692 179.553 31.6073 180.055 31.8968L186.543 35.6426Z" fill="#FF9090"/>
  <path d="M186.543 35.6426C186.041 35.9321 186.041 36.6559 186.543 36.9454L193.031 40.6912C193.532 40.9807 194.159 40.6188 194.159 40.0397L194.159 32.5483C194.159 31.9692 193.532 31.6073 193.031 31.8968L186.543 35.6426Z" fill="#FF9090"/>
  <path d="M147.428 44.7566C148.893 43.7028 151.585 42.8596 154.198 44.7566" stroke="#FF9090" stroke-width="1.50442" stroke-linecap="round"/>
  <path d="M172.25 100.796C170.948 101.85 168.555 102.693 166.233 100.796" stroke="#FFA0A0" stroke-width="1.50442" stroke-linecap="round"/>
  <path d="M184.286 44.7566C185.751 43.7028 188.443 42.8596 191.056 44.7566" stroke="#FF9090" stroke-width="1.50442" stroke-linecap="round"/>
  <path fill-rule="evenodd" clip-rule="evenodd" d="M164.399 79.7349C164.218 79.7349 164.063 79.8639 164.032 80.0423C163.753 81.6388 163.6 83.3951 163.6 85.239C163.6 92.5852 166.041 98.5404 169.053 98.5404C172.065 98.5404 174.507 92.5852 174.507 85.239C174.507 83.3951 174.353 81.6388 174.075 80.0423C174.044 79.8639 173.888 79.7349 173.707 79.7349H164.399Z" fill="#5E4E4E"/>
  <mask id="mask1_166_1820" style="mask-type:alpha" maskUnits="userSpaceOnUse" x="163" y="71" width="12" height="28">
    <ellipse cx="169.053" cy="85.1887" rx="5.45354" ry="13.3518" fill="#5E4E4E"/>
  </mask>
  <g mask="url(#mask1_166_1820)">
    <ellipse cx="7.27079" cy="13.0138" rx="7.27079" ry="13.0138" transform="matrix(0.904747 0.425949 -0.213162 0.977017 169.603 79.8479)" fill="#7F6E6E"/>
  </g>
  <path d="M19.6636 178.127C34.9427 174.961 40.3199 166.182 42.9844 159.878C43.484 158.696 42.6179 157.406 41.3354 157.357L22.1476 156.631C20.3271 156.562 19.3906 159.004 20.5164 160.437C25.5094 166.789 21.7994 171.664 18.2299 175.476C17.0781 176.706 18.0135 178.469 19.6636 178.127Z" fill="#DFA573"/>
  <rect width="106.438" height="78.9823" rx="15.0442" transform="matrix(-1 0 0 1 106.432 86.128)" fill="#DFA573"/>
  <mask id="mask2_166_1820" style="mask-type:alpha" maskUnits="userSpaceOnUse" x="-1" y="86" width="108" height="80">
    <rect width="106.438" height="78.9823" rx="15.0442" transform="matrix(-1 0 0 1 106.431 86.1284)" fill="#FFD4D4"/>
  </mask>
  <g mask="url(#mask2_166_1820)">
    <ellipse cx="22.2095" cy="19.9336" rx="22.2095" ry="19.9336" transform="matrix(-1 0 0 1 117.327 115.841)" fill="#F3BC8D"/>
    <ellipse cx="22.2095" cy="19.9336" rx="22.2095" ry="19.9336" transform="matrix(-1 0 0 1 35.1934 115.841)" fill="#F3BC8D"/>
  </g>
  <circle cx="13.3518" cy="13.3518" r="13.3518" transform="matrix(-1 0 0 1 84.9937 102.677)" fill="white"/>
  <path d="M53.0244 128.252V131.261" stroke="#AE7878" stroke-width="1.12832" stroke-linecap="round"/>
  <circle cx="13.3518" cy="13.3518" r="13.3518" transform="matrix(-1 0 0 1 48.1353 102.677)" fill="white"/>
  <circle cx="3.76106" cy="3.76106" r="3.76106" transform="matrix(-1 0 0 1 56.7856 121.106)" fill="#5E4E4E"/>
  <ellipse cx="4.51327" cy="9.40265" rx="4.51327" ry="9.40265" transform="matrix(-1 0 0 1 57.5381 131.261)" fill="#5E4E4E"/>
  <mask id="mask3_166_1820" style="mask-type:alpha" maskUnits="userSpaceOnUse" x="48" y="131" width="10" height="20">
    <ellipse cx="4.51327" cy="9.40265" rx="4.51327" ry="9.40265" transform="matrix(-1 0 0 1 57.5381 131.261)" fill="#5E4E4E"/>
  </mask>
  <g mask="url(#mask3_166_1820)">
    <ellipse cx="5.86467" cy="9.24366" rx="5.86467" ry="9.24366" transform="matrix(-0.928279 0.371884 0.248361 0.968668 53.5483 139.159)" fill="#7F6E6E"/>
  </g>
  <circle cx="1.12832" cy="1.12832" r="1.12832" transform="matrix(-1 0 0 1 53.0244 122.61)" fill="#7F6E6E"/>
  <path d="M50.0156 152.323C51.3177 153.376 53.7107 154.22 56.0333 152.323" stroke="#D28E52" stroke-width="1.50442" stroke-linecap="round"/>
  <path d="M74.8389 96.2829C73.374 95.2291 70.6819 94.3858 68.069 96.2829" stroke="#BE7B40" stroke-width="1.50442" stroke-linecap="round"/>
  <path d="M37.9805 96.2829C36.5156 95.2291 33.8235 94.3858 31.2106 96.2829" stroke="#BE7B40" stroke-width="1.50442" stroke-linecap="round"/>
  <rect width="21.8142" height="21.0619" rx="10.531" transform="matrix(-1 0 0 1 89.8828 72.9643)" fill="#DFA573"/>
  <rect width="21.8142" height="21.0619" rx="10.531" transform="matrix(-1 0 0 1 36.0996 72.9643)" fill="#DFA573"/>
  <path d="M78.7881 80.6744V85.9399" stroke="#CD894D" stroke-width="1.50442" stroke-linecap="round"/>
  <path d="M25.1929 80.6744V85.9399" stroke="#CD894D" stroke-width="1.50442" stroke-linecap="round"/>
  <path fill-rule="evenodd" clip-rule="evenodd" d="M79.5373 110.765C77.7792 109.007 74.9287 109.007 73.1705 110.765L72.0493 111.886C71.9024 112.033 71.6643 112.033 71.5174 111.886L70.4193 110.788C68.6612 109.03 65.8107 109.03 64.0525 110.788C62.2944 112.546 62.2944 115.397 64.0525 117.155L71.7562 124.858C71.7598 124.862 71.7656 124.862 71.7692 124.858C71.7728 124.855 71.7787 124.855 71.7823 124.858L71.7861 124.862C71.7918 124.868 71.8011 124.868 71.8068 124.862L79.5373 117.132C81.2955 115.373 81.2955 112.523 79.5373 110.765Z" fill="#FF8181"/>
  <circle cx="1.12832" cy="1.12832" r="1.12832" transform="matrix(-1 0 0 1 68.0688 111.703)" fill="#FFA5A5"/>
  <path fill-rule="evenodd" clip-rule="evenodd" d="M42.6794 110.765C40.9213 109.007 38.0708 109.007 36.3126 110.765L35.1914 111.886C35.0445 112.033 34.8064 112.033 34.6595 111.886L33.5614 110.788C31.8033 109.03 28.9528 109.03 27.1946 110.788C25.4365 112.546 25.4365 115.397 27.1946 117.155L34.8982 124.858C34.9018 124.862 34.9077 124.862 34.9113 124.858C34.9149 124.855 34.9207 124.855 34.9244 124.858L34.9282 124.862C34.9339 124.868 34.9431 124.868 34.9489 124.862L42.6794 117.132C44.4376 115.373 44.4376 112.523 42.6794 110.765Z" fill="#FF8181"/>
  <circle cx="1.12832" cy="1.12832" r="1.12832" transform="matrix(-1 0 0 1 31.2104 111.703)" fill="#FFA5A5"/>
  <path fill-rule="evenodd" clip-rule="evenodd" d="M99.7909 55.4308C103.875 51.6521 106.432 46.2463 106.432 40.2433C106.432 28.8189 97.1708 19.5575 85.7464 19.5575C74.3219 19.5575 65.0605 28.8189 65.0605 40.2433C65.0605 51.6678 74.3219 60.9292 85.7464 60.9292C86.89 60.9292 88.0119 60.8364 89.105 60.6579C92.8183 62.8631 97.9396 64.3637 105.169 63.5477C106.492 63.3984 106.761 61.8452 105.594 61.2051C103.166 59.8743 100.574 58.1998 99.7909 55.4308Z" fill="white"/>
  <path d="M99.7909 55.4308L99.28 54.8787C99.0723 55.0709 98.99 55.3633 99.0671 55.6356L99.7909 55.4308ZM89.105 60.6579L89.4891 60.0111C89.3371 59.9209 89.1582 59.887 88.9838 59.9155L89.105 60.6579ZM105.169 63.5477L105.254 64.2952L105.169 63.5477ZM105.594 61.2051L105.955 60.5455H105.955L105.594 61.2051ZM105.68 40.2433C105.68 46.028 103.217 51.2363 99.28 54.8787L100.302 55.983C104.533 52.0678 107.184 46.4646 107.184 40.2433H105.68ZM85.7464 20.3097C96.7554 20.3097 105.68 29.2343 105.68 40.2433H107.184C107.184 28.4034 97.5863 18.8053 85.7464 18.8053V20.3097ZM65.8128 40.2433C65.8128 29.2343 74.7373 20.3097 85.7464 20.3097V18.8053C73.9065 18.8053 64.3083 28.4034 64.3083 40.2433H65.8128ZM85.7464 60.1769C74.7373 60.1769 65.8128 51.2524 65.8128 40.2433H64.3083C64.3083 52.0832 73.9065 61.6814 85.7464 61.6814V60.1769ZM88.9838 59.9155C87.9306 60.0875 86.8492 60.1769 85.7464 60.1769V61.6814C86.9307 61.6814 88.0932 61.5853 89.2262 61.4003L88.9838 59.9155ZM105.085 62.8003C98.0103 63.5988 93.0547 62.1286 89.4891 60.0111L88.7209 61.3046C92.5819 63.5975 97.8688 65.1287 105.254 64.2952L105.085 62.8003ZM105.232 61.8647C105.549 62.0384 105.602 62.2772 105.575 62.4287C105.549 62.5726 105.431 62.7612 105.085 62.8003L105.254 64.2952C106.23 64.1849 106.908 63.5222 107.056 62.6921C107.202 61.8697 106.806 61.0119 105.955 60.5455L105.232 61.8647ZM99.0671 55.6356C99.9457 58.7412 102.826 60.5453 105.232 61.8647L105.955 60.5455C103.507 59.2034 101.203 57.6584 100.515 55.2261L99.0671 55.6356Z" fill="#E4E4E4"/>
  <path d="M92.0231 34.7103C92.5802 34.7103 93.0444 34.9269 93.4467 35.2983C93.8181 35.7006 94.0347 36.1648 94.0347 36.7219C94.0347 37.279 93.8181 37.7742 93.4467 38.1455C93.0444 38.5169 92.5802 38.7026 92.0231 38.7026H91.2185L90.5995 42.4473H91.0637C91.6208 42.4473 92.085 42.664 92.4564 43.0353C92.8278 43.4067 93.0444 43.8709 93.0444 44.428C93.0444 44.9851 92.8278 45.4802 92.4564 45.8516C92.085 46.2539 91.6208 46.4396 91.0637 46.4396H89.9186L89.3925 49.5654C89.2687 50.0606 89.0521 50.4629 88.6807 50.7724C88.3093 51.0819 87.907 51.2366 87.4118 51.2366C87.288 51.2366 87.1952 51.2366 87.1024 51.2057C85.8954 50.8962 85.3383 50.1534 85.4621 48.9155L85.8644 46.4396H83.11L82.5839 49.5654C82.4601 50.0606 82.2435 50.4629 81.8721 50.7724C81.5007 51.0819 81.0984 51.2366 80.6032 51.2366C80.4794 51.2366 80.3866 51.2366 80.2938 51.2057C79.0868 50.8962 78.5297 50.1534 78.6535 48.9155L79.0558 46.4396H78.932C78.375 46.4396 77.8798 46.2539 77.5084 45.8516C77.1061 45.4802 76.9204 44.9851 76.9204 44.428C76.9204 43.8709 77.1061 43.4067 77.5084 43.0353C77.8798 42.664 78.375 42.4473 78.932 42.4473H79.7367L80.3557 38.7026H79.8914C79.3344 38.7026 78.8392 38.5169 78.4678 38.1455C78.0655 37.7742 77.8798 37.279 77.8798 36.7219C77.8798 36.1648 78.0655 35.7006 78.4678 35.2983C78.8392 34.9269 79.3344 34.7103 79.8914 34.7103H81.0365L81.5626 31.5845C81.8721 30.4085 82.6149 29.8824 83.8528 29.9443C85.0288 30.2538 85.5859 31.0275 85.493 32.2344L85.0907 34.7103H87.8451L88.3712 31.5845C88.6807 30.4085 89.4235 29.8824 90.6614 29.9443C91.8374 30.2538 92.3945 31.0275 92.3016 32.2344L91.8993 34.7103H92.0231ZM87.1642 42.4473L87.7832 38.7026H85.0288L84.4099 42.4473H87.1642Z" fill="#FF7913"/>
  <path fill-rule="evenodd" clip-rule="evenodd" d="M123.662 152.117C122.262 146.731 123.026 140.8 126.265 135.746C132.428 126.127 145.223 123.326 154.842 129.489C164.461 135.653 167.262 148.448 161.098 158.067C154.935 167.686 142.14 170.487 132.521 164.323C131.558 163.706 130.664 163.023 129.84 162.283C125.524 162.137 120.402 160.637 114.755 156.049C113.721 155.21 114.333 153.757 115.661 153.848C118.423 154.037 121.509 154.026 123.662 152.117Z" fill="white"/>
  <path d="M123.662 152.117L124.39 151.927C124.462 152.201 124.373 152.492 124.161 152.68L123.662 152.117ZM129.84 162.283L129.866 161.531C130.042 161.537 130.211 161.605 130.343 161.723L129.84 162.283ZM114.755 156.049L114.28 156.633L114.755 156.049ZM115.661 153.848L115.713 153.097L115.713 153.097L115.661 153.848ZM126.898 136.152C123.777 141.022 123.041 146.737 124.39 151.927L122.934 152.306C121.484 146.726 122.275 140.578 125.631 135.34L126.898 136.152ZM154.436 130.123C145.167 124.183 132.837 126.882 126.898 136.152L125.631 135.34C132.019 125.371 145.279 122.468 155.248 128.856L154.436 130.123ZM160.465 157.661C166.405 148.391 163.705 136.062 154.436 130.123L155.248 128.856C165.217 135.244 168.12 148.504 161.732 158.472L160.465 157.661ZM132.927 163.69C142.196 169.629 154.525 166.93 160.465 157.661L161.732 158.472C155.344 168.441 142.084 171.344 132.115 164.956L132.927 163.69ZM130.343 161.723C131.136 162.436 131.999 163.095 132.927 163.69L132.115 164.956C131.118 164.318 130.192 163.61 129.338 162.843L130.343 161.723ZM115.229 155.465C120.755 159.955 125.721 161.391 129.866 161.531L129.815 163.035C125.327 162.883 120.049 161.319 114.28 156.633L115.229 155.465ZM115.61 154.598C115.249 154.574 115.076 154.746 115.017 154.888C114.961 155.023 114.958 155.246 115.229 155.465L114.28 156.633C113.517 156.013 113.304 155.09 113.628 154.311C113.948 153.54 114.745 153.031 115.713 153.097L115.61 154.598ZM124.161 152.68C121.746 154.821 118.348 154.786 115.61 154.598L115.713 153.097C118.498 153.288 121.272 153.231 123.164 151.554L124.161 152.68Z" fill="#E4E4E4"/>
  <path d="M149.944 141.148C150.501 141.148 150.965 141.365 151.367 141.736C151.739 142.139 151.955 142.603 151.955 143.16C151.955 143.717 151.739 144.212 151.367 144.584C150.965 144.955 150.501 145.141 149.944 145.141H149.139L148.52 148.885H148.984C149.541 148.885 150.005 149.102 150.377 149.473C150.748 149.845 150.965 150.309 150.965 150.866C150.965 151.423 150.748 151.918 150.377 152.29C150.005 152.692 149.541 152.878 148.984 152.878H147.839L147.313 156.003C147.189 156.499 146.972 156.901 146.601 157.21C146.23 157.52 145.827 157.675 145.332 157.675C145.208 157.675 145.116 157.675 145.023 157.644C143.816 157.334 143.259 156.591 143.383 155.353L143.785 152.878H141.03L140.504 156.003C140.381 156.499 140.164 156.901 139.793 157.21C139.421 157.52 139.019 157.675 138.524 157.675C138.4 157.675 138.307 157.675 138.214 157.644C137.007 157.334 136.45 156.591 136.574 155.353L136.976 152.878H136.852C136.295 152.878 135.8 152.692 135.429 152.29C135.027 151.918 134.841 151.423 134.841 150.866C134.841 150.309 135.027 149.845 135.429 149.473C135.8 149.102 136.295 148.885 136.852 148.885H137.657L138.276 145.141H137.812C137.255 145.141 136.76 144.955 136.388 144.584C135.986 144.212 135.8 143.717 135.8 143.16C135.8 142.603 135.986 142.139 136.388 141.736C136.76 141.365 137.255 141.148 137.812 141.148H138.957L139.483 138.023C139.793 136.846 140.535 136.32 141.773 136.382C142.949 136.692 143.506 137.465 143.413 138.672L143.011 141.148H145.766L146.292 138.023C146.601 136.846 147.344 136.32 148.582 136.382C149.758 136.692 150.315 137.465 150.222 138.672L149.82 141.148H149.944ZM145.085 148.885L145.704 145.141H142.949L142.33 148.885H145.085Z" fill="#93E53A"/>
</svg>