<svg width="62" height="62" viewBox="0 0 62 62" fill="none" xmlns="http://www.w3.org/2000/svg">
<path d="M50.4156 60.5582C41.708 58.754 38.6436 53.751 37.1251 50.1583C36.8404 49.4846 37.334 48.7493 38.0649 48.7216L48.9999 48.3076C50.0374 48.2683 50.5712 49.6603 49.9296 50.4766C47.084 54.0966 49.1984 56.8751 51.2326 59.0476C51.8891 59.7486 51.356 60.7531 50.4156 60.5582Z" fill="#DFA573"/>
<rect x="0.967285" y="8.12793" width="60.6588" height="45.0118" rx="8.57368" fill="#DFA573"/>
<mask id="mask0_606_1226" style="mask-type:alpha" maskUnits="userSpaceOnUse" x="0" y="8" width="62" height="46">
<rect x="0.966797" y="8.13037" width="60.6588" height="45.0118" rx="8.57368" fill="#FFD4D4"/>
</mask>
<g mask="url(#mask0_606_1226)">
<ellipse cx="7.41496" cy="36.4226" rx="12.6572" ry="11.3601" fill="#F3BC8D"/>
<ellipse cx="54.2216" cy="36.4226" rx="12.6572" ry="11.3601" fill="#F3BC8D"/>
</g>
<circle cx="20.7932" cy="25.1712" r="7.60914" fill="white"/>
<circle cx="20.7929" cy="25.1719" r="4.17967" fill="#5E4E4E"/>
<path d="M31.4038 32.1357V33.8505" stroke="#AE7878" stroke-width="0.643026" stroke-linecap="round"/>
<circle cx="41.8015" cy="25.1712" r="7.60914" fill="white"/>
<circle cx="41.8013" cy="25.1719" r="4.17967" fill="#5E4E4E"/>
<circle cx="31.4032" cy="30.2045" r="2.14342" fill="#5E4E4E"/>
<ellipse cx="31.4041" cy="39.2072" rx="2.5721" ry="5.35855" fill="#5E4E4E"/>
<mask id="mask1_606_1226" style="mask-type:alpha" maskUnits="userSpaceOnUse" x="28" y="33" width="6" height="12">
<ellipse cx="31.4032" cy="39.2091" rx="2.5721" ry="5.35855" fill="#5E4E4E"/>
</mask>
<g mask="url(#mask1_606_1226)">
<ellipse cx="3.34226" cy="5.26794" rx="3.34226" ry="5.26794" transform="matrix(0.928279 0.371884 -0.248361 0.968668 31.1035 38.3506)" fill="#7F6E6E"/>
</g>
<circle cx="43.1923" cy="23.9892" r="1.07171" fill="#7F6E6E"/>
<circle cx="32.0468" cy="29.5629" r="0.643026" fill="#7F6E6E"/>
<circle cx="22.4023" cy="23.9892" r="1.07171" fill="#7F6E6E"/>
<path d="M33.1187 45.8521C32.3766 46.4526 31.0128 46.9332 29.6892 45.8521" stroke="#D28E52" stroke-width="0.857368" stroke-linecap="round"/>
<path d="M18.9717 13.914C19.8065 13.3135 21.3407 12.8329 22.8298 13.914" stroke="#BE7B40" stroke-width="0.857368" stroke-linecap="round"/>
<path d="M39.9785 13.914C40.8133 13.3135 42.3476 12.8329 43.8367 13.914" stroke="#BE7B40" stroke-width="0.857368" stroke-linecap="round"/>
<rect x="9.85547" y="0.626953" width="12.4318" height="12.0032" rx="6.00158" fill="#DFA573"/>
<path d="M16.1792 5.02002V8.02081" stroke="#CD894D" stroke-width="0.857368" stroke-linecap="round"/>
<rect x="40.5068" y="0.626953" width="12.4318" height="12.0032" rx="6.00158" fill="#DFA573"/>
<path d="M46.7217 5.02002V8.02081" stroke="#CD894D" stroke-width="0.857368" stroke-linecap="round"/>
</svg>
