<svg width="83" height="87" viewBox="0 0 83 87" fill="none" xmlns="http://www.w3.org/2000/svg">
<path d="M71.3975 9.12273C70.6775 6.60174 67.5247 5.7659 65.6503 7.59906L46.2849 26.5382C44.1617 28.6145 45.4681 32.2249 48.4283 32.4619L73.7834 34.4924C76.191 34.6852 78.0506 32.4147 77.3872 30.0923L71.3975 9.12273Z" fill="#DF7009"/>
<path d="M68.5641 19.1804C67.6138 17.2906 65.2053 16.6879 63.477 17.9076L53.3411 25.0601C50.7647 26.8782 51.7637 30.9135 54.8908 31.3195L69.5826 33.2272C72.3346 33.5845 74.3667 30.7199 73.12 28.2406L68.5641 19.1804Z" fill="#EF790B"/>
<path d="M12.1322 9.12273C12.8523 6.60174 16.0051 5.7659 17.8795 7.59906L37.2449 26.5382C39.368 28.6145 38.0617 32.2249 35.1015 32.4619L9.74643 34.4924C7.3388 34.6852 5.47921 32.4147 6.14259 30.0923L12.1322 9.12273Z" fill="#DF7009"/>
<path d="M14.9657 19.1804C15.916 17.2906 18.3245 16.6879 20.0528 17.9076L30.1887 25.0601C32.7651 26.8782 31.7661 30.9135 28.639 31.3195L13.9472 33.2272C11.1952 33.5845 9.16309 30.7199 10.4098 28.2406L14.9657 19.1804Z" fill="#EF790B"/>
<path d="M65.7175 86.384C54.903 84.1432 51.0971 77.9296 49.2112 73.4676C48.8575 72.6309 49.4706 71.7177 50.3783 71.6833L63.9593 71.1691C65.2479 71.1203 65.9107 72.8491 65.1139 73.8629C61.5798 78.3588 64.2058 81.8096 66.7323 84.5078C67.5475 85.3785 66.8854 86.6259 65.7175 86.384Z" fill="#FFA047"/>
<rect x="4.60742" y="24.5801" width="74.2714" height="49.7805" rx="10.6482" fill="#FFAA5A"/>
<mask id="mask0_606_1351" style="mask-type:alpha" maskUnits="userSpaceOnUse" x="4" y="24" width="75" height="51">
<rect x="4.64453" y="24.5776" width="74.2714" height="49.7805" rx="10.6482" fill="#FFD4D4"/>
</mask>
<g mask="url(#mask0_606_1351)">
<ellipse cx="12.5396" cy="55.8683" rx="15.4976" ry="12.5636" fill="#FFC085"/>
<ellipse cx="69.8531" cy="55.8683" rx="15.4976" ry="12.5636" fill="#FFC085"/>
</g>
<path d="M41.7456 51.9971L41.7456 55.1918" stroke="#AE7878" stroke-width="0.798617" stroke-linecap="round"/>
<circle cx="41.7442" cy="52.1338" r="1.7305" fill="#5E4E4E"/>
<ellipse cx="41.8776" cy="61.8475" rx="3.19447" ry="6.65515" fill="#5E4E4E"/>
<mask id="mask1_606_1351" style="mask-type:alpha" maskUnits="userSpaceOnUse" x="38" y="55" width="8" height="14">
<ellipse cx="41.8786" cy="61.8475" rx="3.19447" ry="6.65515" fill="#5E4E4E"/>
</mask>
<g mask="url(#mask1_606_1351)">
<ellipse cx="4.15098" cy="6.54261" rx="4.15098" ry="6.54261" transform="matrix(0.928279 0.371884 -0.248361 0.968668 42.1987 59.1855)" fill="#7F6E6E"/>
</g>
<circle cx="56.4264" cy="44.4122" r="9.45031" fill="white"/>
<circle cx="56.4254" cy="44.4112" r="5.19101" fill="#5E4E4E"/>
<circle cx="58.1544" cy="42.9493" r="1.33115" fill="#7F6E6E"/>
<circle cx="27.4059" cy="44.4122" r="9.45031" fill="white"/>
<circle cx="27.4049" cy="44.4112" r="5.19101" fill="#5E4E4E"/>
<circle cx="29.4034" cy="42.9474" r="1.33115" fill="#7F6E6E"/>
<path d="M26.4365 29.9026C27.4733 29.1568 29.3788 28.5599 31.2282 29.9026" stroke="#EA872B" stroke-width="1.06482" stroke-linecap="round"/>
<path d="M44.0059 70.0988C43.0843 70.8447 41.3905 71.4416 39.7466 70.0988" stroke="#EA882B" stroke-width="1.06482" stroke-linecap="round"/>
<path d="M52.5244 29.9026C53.5612 29.1568 55.4667 28.5599 57.3161 29.9026" stroke="#EA872B" stroke-width="1.06482" stroke-linecap="round"/>
<path d="M10.2344 51.1958L18.753 53.8579" stroke="#EA872B" stroke-width="1.06482" stroke-linecap="round"/>
<path d="M18.7534 59.1802L10.2348 61.8422" stroke="#EA872B" stroke-width="1.06482" stroke-linecap="round"/>
<path d="M8.90234 56.521L18.752 56.521" stroke="#EA872B" stroke-width="1.06482" stroke-linecap="round"/>
<path d="M73.5908 51.1958L65.0722 53.8579" stroke="#EA872B" stroke-width="1.06482" stroke-linecap="round"/>
<path d="M65.0723 59.1802L73.5909 61.8422" stroke="#EA872B" stroke-width="1.06482" stroke-linecap="round"/>
<path d="M74.9233 56.521L65.0737 56.521" stroke="#EA872B" stroke-width="1.06482" stroke-linecap="round"/>
</svg>
