<svg width="54" height="58" viewBox="0 0 54 58" fill="none" xmlns="http://www.w3.org/2000/svg">
<path d="M29.8779 0.0523555C31.8955 0.305547 33.1376 3.64611 32.6523 7.51427C32.4211 9.35744 31.8382 10.9873 31.0742 12.1617H44.7959C49.3467 12.1618 53.036 15.8512 53.0361 20.402V40.7975C53.0359 45.3482 49.3467 49.0376 44.7959 49.0377H44.0078C42.3453 52.0332 44.1698 54.3885 45.9326 56.2711C46.5634 56.9448 46.0511 57.9102 45.1475 57.7233C37.795 56.1998 34.6288 52.3032 32.9785 49.0377H8.9502C4.39937 49.0377 0.710185 45.3483 0.709961 40.7975V20.402C0.710116 15.8511 4.39933 12.1618 8.9502 12.1617H21.9746C21.7501 11.5839 21.5652 10.9527 21.4336 10.2838C20.7967 7.04637 21.638 4.15424 23.3125 3.82482C24.0996 3.67012 24.9303 4.10982 25.6562 4.9547C26.4294 1.9343 28.1578 -0.163485 29.8779 0.0523555Z" fill="#FFEF92"/>
<mask id="mask0_606_1324" style="mask-type:alpha" maskUnits="userSpaceOnUse" x="0" y="12" width="54" height="38">
<rect x="0.709961" y="12.1577" width="52.3261" height="36.8755" rx="8.24032" fill="#FFD4D4"/>
</mask>
<g mask="url(#mask0_606_1324)">
<ellipse cx="6.27146" cy="35.3374" rx="10.9184" ry="9.30666" fill="#FFDD77"/>
<ellipse cx="46.6499" cy="35.3374" rx="10.9184" ry="9.30666" fill="#FFDD77"/>
</g>
<circle cx="16.6761" cy="28.5379" r="7.31329" fill="white"/>
<circle cx="16.6763" cy="28.5372" r="4.01716" fill="#5E4E4E"/>
<circle cx="36.8641" cy="28.5374" r="7.31329" fill="white"/>
<circle cx="36.8643" cy="28.5367" r="4.01716" fill="#5E4E4E"/>
<ellipse cx="26.8735" cy="39.1468" rx="2.4721" ry="5.1502" fill="#5E4E4E"/>
<mask id="mask1_606_1324" style="mask-type:alpha" maskUnits="userSpaceOnUse" x="24" y="33" width="6" height="12">
<ellipse cx="26.8749" cy="39.1473" rx="2.4721" ry="5.1502" fill="#5E4E4E"/>
</mask>
<g mask="url(#mask1_606_1324)">
<ellipse cx="3.21231" cy="5.06311" rx="3.21231" ry="5.06311" transform="matrix(0.928279 0.371884 -0.248361 0.968668 27.124 37.0884)" fill="#7F6E6E"/>
</g>
<circle cx="38.2034" cy="27.4031" r="1.03004" fill="#7F6E6E"/>
<circle cx="18.221" cy="27.4031" r="1.03004" fill="#7F6E6E"/>
<path d="M14.9248 17.722C15.7272 17.1448 17.2017 16.6829 18.633 17.722" stroke="#FFBA1A" stroke-width="0.824032" stroke-linecap="round"/>
<path d="M35.1147 17.722C35.9171 17.1448 37.3917 16.6829 38.8229 17.722" stroke="#FFBA1A" stroke-width="0.824032" stroke-linecap="round"/>
<path d="M29.758 34.9239C29.758 35.6634 28.4667 36.0569 26.8739 36.0569C25.281 36.0569 23.9897 35.6634 23.9897 34.9239C23.9897 34.1843 25.281 32.8638 26.8739 32.8638C28.4667 32.8638 29.758 34.1843 29.758 34.9239Z" fill="#FFBA1A"/>
<path d="M28.7282 43.6795C28.7282 44.1346 27.8981 44.7096 26.8741 44.7096C25.8501 44.7096 25.02 44.1346 25.02 43.6795C25.02 43.2244 25.8501 43.0615 26.8741 43.0615C27.8981 43.0615 28.7282 43.2244 28.7282 43.6795Z" fill="#FFBA1A"/>
<path d="M26.4619 6.39209C26.8396 7.25046 27.389 9.89423 27.0799 11.6453" stroke="#FFDD77" stroke-width="0.824032" stroke-linecap="round"/>
</svg>
