<svg width="62" height="59" viewBox="0 0 62 59" fill="none" xmlns="http://www.w3.org/2000/svg">
<ellipse cx="10.3444" cy="9.21721" rx="7.56518" ry="6.37724" transform="rotate(-21.2299 10.3444 9.21721)" fill="#5E4E4E"/>
<ellipse cx="7.56518" cy="6.37724" rx="7.56518" ry="6.37724" transform="matrix(-0.932135 -0.362112 -0.362112 0.932135 61.207 6.01221)" fill="#5E4E4E"/>
<path d="M48.9307 8.2666C52.885 8.2666 56.0908 11.4725 56.0908 15.4268V42.4551C56.0908 46.4093 52.8849 49.6152 48.9307 49.6152H46.5625C44.3653 52.5629 46.0989 54.834 47.7686 56.6172C48.3163 57.2025 47.871 58.0414 47.0859 57.8789C40.1498 56.4417 37.503 52.5729 36.1729 49.6152H13.3105C9.35629 49.6152 6.15046 46.4093 6.15039 42.4551V15.4268C6.15039 11.4725 9.35625 8.2666 13.3105 8.2666H48.9307Z" fill="white"/>
<path d="M56.0908 42.4551L56.3646 42.4551V42.4551H56.0908ZM46.5625 49.6152V49.3415H46.4251L46.343 49.4516L46.5625 49.6152ZM47.7686 56.6172L47.9684 56.4302L47.9684 56.4301L47.7686 56.6172ZM47.0859 57.8789L47.0304 58.147L47.0305 58.147L47.0859 57.8789ZM36.1729 49.6152L36.4225 49.503L36.3499 49.3415H36.1729V49.6152ZM6.15039 42.4551H5.87664V42.4551L6.15039 42.4551ZM48.9307 8.2666V8.54035C52.7338 8.54035 55.8171 11.6236 55.8171 15.4268H56.0908H56.3646C56.3646 11.3213 53.0361 7.99285 48.9307 7.99285V8.2666ZM56.0908 15.4268H55.8171V42.4551H56.0908H56.3646V15.4268H56.0908ZM56.0908 42.4551L55.8171 42.4551C55.817 46.2581 52.7337 49.3415 48.9307 49.3415V49.6152V49.889C53.0361 49.889 56.3645 46.5605 56.3646 42.4551L56.0908 42.4551ZM48.9307 49.6152V49.3415H46.5625V49.6152V49.889H48.9307V49.6152ZM46.5625 49.6152L46.343 49.4516C45.1955 50.9911 45.0586 52.3867 45.4545 53.6356C45.8424 54.8591 46.7332 55.912 47.5687 56.8043L47.7686 56.6172L47.9684 56.4301C47.1342 55.5392 46.3234 54.5649 45.9764 53.4702C45.6374 52.4007 45.7324 51.187 46.782 49.7788L46.5625 49.6152ZM47.7686 56.6172L47.5687 56.8042C47.7668 57.016 47.7682 57.2455 47.6858 57.399C47.6048 57.5499 47.4208 57.6686 47.1414 57.6108L47.0859 57.8789L47.0305 58.147C47.5361 58.2516 47.9673 58.0322 48.1682 57.658C48.3678 57.2863 48.318 56.8037 47.9684 56.4302L47.7686 56.6172ZM47.0859 57.8789L47.1415 57.6109C43.7166 56.9012 41.3658 55.595 39.7097 54.1133C38.0523 52.6303 37.0778 50.96 36.4225 49.503L36.1729 49.6152L35.9232 49.7275C36.5981 51.2282 37.612 52.9711 39.3446 54.5213C41.0785 56.0726 43.5191 57.4194 47.0304 58.147L47.0859 57.8789ZM36.1729 49.6152V49.3415H13.3105V49.6152V49.889H36.1729V49.6152ZM13.3105 49.6152V49.3415C9.50748 49.3415 6.42421 46.2581 6.42414 42.4551L6.15039 42.4551L5.87664 42.4551C5.87671 46.5605 9.2051 49.889 13.3105 49.889V49.6152ZM6.15039 42.4551H6.42414V15.4268H6.15039H5.87664V42.4551H6.15039ZM6.15039 15.4268H6.42414C6.42414 11.6236 9.50744 8.54035 13.3105 8.54035V8.2666V7.99285C9.20506 7.99285 5.87664 11.3213 5.87664 15.4268H6.15039ZM13.3105 8.2666V8.54035H48.9307V8.2666V7.99285H13.3105V8.2666Z" fill="#EEEEEE"/>
<mask id="mask0_606_1293" style="mask-type:alpha" maskUnits="userSpaceOnUse" x="6" y="8" width="51" height="42">
<rect x="6.14941" y="8.2666" width="49.9402" height="41.3484" rx="7.15989" fill="#FFD4D4"/>
</mask>
<g mask="url(#mask0_606_1293)">
<ellipse cx="11.4587" cy="34.2573" rx="10.4206" ry="10.4355" fill="#FFC4C4"/>
<ellipse cx="49.9953" cy="34.2573" rx="10.4206" ry="10.4355" fill="#FFC4C4"/>
</g>
<ellipse cx="9.75708" cy="11.2953" rx="9.75708" ry="11.2953" transform="matrix(-0.920288 -0.391242 -0.391242 0.920288 33.1475 18.3213)" fill="#5E4E4E"/>
<ellipse cx="42.6373" cy="24.8988" rx="9.75708" ry="11.2953" transform="rotate(-23.0318 42.6373 24.8988)" fill="#5E4E4E"/>
<path d="M31.1206 29.0298L31.1206 31.1778" stroke="#AE7878" stroke-width="0.536992" stroke-linecap="round"/>
<circle cx="31.12" cy="27.8656" r="1.16348" fill="#5E4E4E"/>
<ellipse cx="31.2095" cy="35.6517" rx="2.14797" ry="4.47493" fill="#5E4E4E"/>
<mask id="mask1_606_1293" style="mask-type:alpha" maskUnits="userSpaceOnUse" x="29" y="31" width="5" height="10">
<ellipse cx="31.2075" cy="35.6507" rx="2.14797" ry="4.47493" fill="#5E4E4E"/>
</mask>
<g mask="url(#mask1_606_1293)">
<ellipse cx="2.79113" cy="4.39926" rx="2.79113" ry="4.39926" transform="matrix(0.928279 0.371884 -0.248361 0.968668 31.4243 33.8604)" fill="#7F6E6E"/>
</g>
<circle cx="40.7841" cy="23.9267" r="6.3544" fill="white"/>
<circle cx="40.7834" cy="23.926" r="3.49045" fill="#5E4E4E"/>
<circle cx="41.9467" cy="22.9423" r="0.894986" fill="#7F6E6E"/>
<circle cx="21.2777" cy="23.9267" r="6.3544" fill="white"/>
<circle cx="21.2771" cy="23.926" r="3.49045" fill="#5E4E4E"/>
<circle cx="22.6201" cy="22.9438" r="0.894986" fill="#7F6E6E"/>
<path d="M20.8271 12.3832C21.5243 11.8817 22.8055 11.4803 24.0491 12.3832" stroke="#AE7878" stroke-width="0.715989" stroke-linecap="round"/>
<path d="M32.6416 41.2018C32.0219 41.7033 30.883 42.1046 29.7776 41.2018" stroke="#E1C0C0" stroke-width="0.715989" stroke-linecap="round"/>
<path d="M38.3691 12.3832C39.0663 11.8817 40.3475 11.4803 41.5911 12.3832" stroke="#AE7878" stroke-width="0.715989" stroke-linecap="round"/>
</svg>
