<svg width="58" height="61" viewBox="0 0 58 61" fill="none" xmlns="http://www.w3.org/2000/svg">
<path d="M46.538 59.981C38.4636 58.308 35.6219 53.6686 34.2138 50.3372C33.9498 49.7124 34.4075 49.0306 35.0852 49.0049L45.2253 48.621C46.1874 48.5846 46.6823 49.8754 46.0874 50.6323C43.4487 53.9891 45.4093 56.5656 47.2957 58.5802C47.9044 59.2303 47.4101 60.1617 46.538 59.981Z" fill="#FFE5D3"/>
<rect x="0.683594" y="11.3613" width="56.2489" height="41.7394" rx="7.95037" fill="#FFE5D3"/>
<mask id="mask0_606_1394" style="mask-type:alpha" maskUnits="userSpaceOnUse" x="0" y="11" width="57" height="43">
<rect x="0.685547" y="11.3613" width="56.2489" height="41.7394" rx="7.95037" fill="#FFCAB2"/>
</mask>
<g mask="url(#mask0_606_1394)">
<ellipse cx="6.6647" cy="37.5958" rx="11.737" ry="10.5342" fill="#FFCAB2"/>
<ellipse cx="50.0705" cy="37.5958" rx="11.737" ry="10.5342" fill="#FFCAB2"/>
</g>
<circle cx="19.0672" cy="27.1595" r="7.05595" fill="white"/>
<circle cx="19.0677" cy="27.161" r="3.8758" fill="#5E4E4E"/>
<circle cx="38.5481" cy="27.1595" r="7.05595" fill="white"/>
<circle cx="38.5487" cy="27.161" r="3.8758" fill="#5E4E4E"/>
<ellipse cx="28.9076" cy="40.1833" rx="2.38511" ry="4.96898" fill="#5E4E4E"/>
<mask id="mask1_606_1394" style="mask-type:alpha" maskUnits="userSpaceOnUse" x="26" y="35" width="6" height="11">
<ellipse cx="28.9076" cy="40.1828" rx="2.38511" ry="4.96898" fill="#5E4E4E"/>
</mask>
<g mask="url(#mask1_606_1394)">
<ellipse cx="3.09928" cy="4.88496" rx="3.09928" ry="4.88496" transform="matrix(0.928279 0.371884 -0.248361 0.968668 28.6313 39.3872)" fill="#7F6E6E"/>
</g>
<circle cx="39.839" cy="26.07" r="0.993796" fill="#7F6E6E"/>
<circle cx="20.5612" cy="26.07" r="0.993796" fill="#7F6E6E"/>
<path d="M30.4985 46.3437C29.8104 46.9006 28.5458 47.3462 27.3184 46.3437" stroke="#FFA362" stroke-width="0.795037" stroke-linecap="round"/>
<path d="M17.3799 16.7281C18.154 16.1712 19.5767 15.7256 20.9575 16.7281" stroke="#FFA362" stroke-width="0.795037" stroke-linecap="round"/>
<path d="M36.8589 16.7281C37.633 16.1712 39.0557 15.7256 40.4366 16.7281" stroke="#FFA362" stroke-width="0.795037" stroke-linecap="round"/>
<ellipse cx="28.9076" cy="32.1317" rx="5.76402" ry="3.8758" fill="#FFBE8F"/>
<path d="M9.52299 18.5177C10.7075 20.2597 13.3668 19.9283 14.0876 17.9489L16.9889 9.98115C17.6498 8.16614 16.1582 6.29415 14.2415 6.53302L6.57204 7.48878C4.65527 7.72765 3.66874 9.90846 4.75489 11.5057L9.52299 18.5177Z" fill="#FFC9A3"/>
<path d="M48.3696 18.5177C47.185 20.2597 44.5258 19.9283 43.805 17.9489L40.9037 9.98115C40.2427 8.16614 41.7343 6.29415 43.6511 6.53302L51.3205 7.48878C53.2373 7.72765 54.2238 9.90846 53.1377 11.5057L48.3696 18.5177Z" fill="#FFC9A3"/>
<circle cx="27.0185" cy="32.1322" r="1.09318" fill="#5E4E4E"/>
<circle cx="30.5981" cy="32.1322" r="1.09318" fill="#5E4E4E"/>
</svg>
