<svg width="66" height="86" viewBox="0 0 66 86" fill="none" xmlns="http://www.w3.org/2000/svg">
<path d="M43.9443 0C50.004 0.000194303 54.916 4.91295 54.916 10.9727V23.4746H55.1699C60.8069 23.4747 65.377 28.0446 65.377 33.6816V66.8535C65.3769 72.4905 60.8069 77.0605 55.1699 77.0605H53.4775C52.9469 79.875 54.7865 82.1814 56.5771 84.0938C57.3586 84.9283 56.724 86.1236 55.6045 85.8916C47.9119 84.2976 43.9195 80.6064 41.6328 77.0605H10.7705C5.13347 77.0605 0.563503 72.4905 0.563477 66.8535V33.6816C0.563477 28.0446 5.13346 23.4746 10.7705 23.4746H11.2822V10.8447C11.2822 4.85536 16.1376 0 22.127 0C28.1163 7.73108e-06 32.9717 4.85536 32.9717 10.8447V10.9727C32.9717 4.91283 37.8845 0 43.9443 0Z" fill="#FFD4D4"/>
<path d="M32.9712 13.2705L32.9712 24.498" stroke="#FFBABA" stroke-width="1.02068" stroke-linecap="round"/>
<path d="M14.1402 39.2238C12.9245 39.3681 11.0494 38.9841 10.1216 36.9996" stroke="#5E4E4E" stroke-width="1.02068" stroke-linecap="round"/>
<path d="M13.1196 41.1453C11.9851 41.6055 10.0752 41.7306 8.65619 40.0616" stroke="#5E4E4E" stroke-width="1.02068" stroke-linecap="round"/>
<path d="M51.5976 39.2238C52.8133 39.3681 54.6884 38.9841 55.6162 36.9996" stroke="#5E4E4E" stroke-width="1.02068" stroke-linecap="round"/>
<path d="M52.6187 41.1453C53.7531 41.6055 55.663 41.7306 57.0821 40.0616" stroke="#5E4E4E" stroke-width="1.02068" stroke-linecap="round"/>
<mask id="mask0_606_991" style="mask-type:alpha" maskUnits="userSpaceOnUse" x="0" y="23" width="66" height="55">
<rect x="0.563477" y="23.4761" width="64.8131" height="53.5856" rx="10.2068" fill="#FFD4D4"/>
</mask>
<g mask="url(#mask0_606_991)">
<circle cx="7.45319" cy="57.1592" r="13.524" fill="#FFA4A4"/>
<circle cx="57.4669" cy="57.1592" r="13.524" fill="#FFA4A4"/>
</g>
<circle cx="20.3407" cy="43.7621" r="9.05852" fill="white"/>
<circle cx="20.3406" cy="43.7629" r="4.97581" fill="#5E4E4E"/>
<path d="M32.8423 52.0547V54.096" stroke="#AE7878" stroke-width="0.765509" stroke-linecap="round"/>
<circle cx="45.3456" cy="43.7621" r="9.05852" fill="white"/>
<circle cx="45.3464" cy="43.7629" r="4.97581" fill="#5E4E4E"/>
<circle cx="32.8437" cy="51.163" r="1.6586" fill="#5E4E4E"/>
<ellipse cx="32.9688" cy="60.4754" rx="3.06204" ry="6.37924" fill="#5E4E4E"/>
<mask id="mask1_606_991" style="mask-type:alpha" maskUnits="userSpaceOnUse" x="29" y="54" width="8" height="13">
<ellipse cx="32.9722" cy="60.4779" rx="3.06204" ry="6.37924" fill="#5E4E4E"/>
</mask>
<g mask="url(#mask1_606_991)">
<ellipse cx="3.97889" cy="6.27137" rx="3.97889" ry="6.27137" transform="matrix(0.928279 0.371884 -0.248361 0.968668 33.2808 57.9248)" fill="#7F6E6E"/>
</g>
<circle cx="47.0053" cy="42.3603" r="1.27585" fill="#7F6E6E"/>
<circle cx="22.2539" cy="42.3603" r="1.27585" fill="#7F6E6E"/>
<path d="M44.7071 24.1826C45.0474 24.379 45.0474 24.8701 44.7071 25.0665L40.3055 27.6078C39.9652 27.8043 39.54 27.5587 39.54 27.1659L39.54 22.0833C39.54 21.6904 39.9652 21.4449 40.3055 21.6413L44.7071 24.1826Z" fill="#FF9090"/>
<path d="M44.7079 24.1826C44.3677 24.379 44.3677 24.8701 44.7079 25.0665L49.1096 27.6078C49.4498 27.8043 49.8751 27.5587 49.8751 27.1659L49.8751 22.0833C49.8751 21.6904 49.4498 21.4449 49.1096 21.6413L44.7079 24.1826Z" fill="#FF9090"/>
<path d="M18.1699 30.3656C19.1637 29.6507 20.9902 29.0786 22.763 30.3656" stroke="#FF9090" stroke-width="1.02068" stroke-linecap="round"/>
<path d="M35.0117 68.3863C34.1283 69.1013 32.5048 69.6734 30.929 68.3863" stroke="#FFA0A0" stroke-width="1.02068" stroke-linecap="round"/>
<path d="M43.1792 30.3656C44.173 29.6507 45.9995 29.0786 47.7723 30.3656" stroke="#FF9090" stroke-width="1.02068" stroke-linecap="round"/>
</svg>
