<svg width="180" height="143" viewBox="0 0 180 143" fill="none" xmlns="http://www.w3.org/2000/svg">
<rect x="64.27" width="115.807" height="81.6122" rx="18.2374" transform="rotate(5.72899 64.27 0)" fill="#C6F692"/>
<mask id="mask0_181_1674" style="mask-type:alpha" maskUnits="userSpaceOnUse" x="57" y="1" width="121" height="91">
<rect x="64.2715" y="0.000488281" width="115.807" height="81.6122" rx="18.2374" transform="rotate(5.72899 64.2715 0.000488281)" fill="#FFD4D4"/>
</mask>
<g mask="url(#mask0_181_1674)">
<ellipse cx="71.3996" cy="52.2724" rx="24.1645" ry="20.5974" transform="rotate(5.72899 71.3996 52.2724)" fill="#B7EE84"/>
<ellipse cx="160.316" cy="61.1925" rx="24.1645" ry="20.5974" transform="rotate(5.72899 160.316 61.1925)" fill="#B7EE84"/>
</g>
<circle cx="95.8109" cy="39.5925" r="16.1857" transform="rotate(5.72899 95.8109 39.5925)" fill="white"/>
<circle cx="91.137" cy="45.0804" r="8.89071" transform="rotate(5.72899 91.137 45.0804)" fill="#5E4E4E"/>
<circle cx="140.269" cy="44.0527" r="16.1857" transform="rotate(5.72899 140.269 44.0527)" fill="white"/>
<circle cx="135.594" cy="49.5406" r="8.89071" transform="rotate(5.72899 135.594 49.5406)" fill="#5E4E4E"/>
<ellipse cx="115.923" cy="65.2094" rx="5.47121" ry="11.3983" transform="rotate(5.72899 115.923 65.2094)" fill="#5E4E4E"/>
<mask id="mask1_181_1674" style="mask-type:alpha" maskUnits="userSpaceOnUse" x="110" y="53" width="12" height="24">
<ellipse cx="115.923" cy="65.209" rx="5.47121" ry="11.3983" transform="rotate(5.72899 115.923 65.209)" fill="#5E4E4E"/>
</mask>
<g mask="url(#mask1_181_1674)">
<ellipse cx="7.10943" cy="11.2056" rx="7.10943" ry="11.2056" transform="matrix(0.88652 0.46269 -0.343816 0.939037 116.926 60.7271)" fill="#7F6E6E"/>
</g>
<path d="M152.059 110.151C134.012 104.484 128.589 93.2439 126.138 85.3176C125.678 83.8312 126.879 82.3798 128.432 82.4764L151.664 83.922C153.868 84.0592 154.702 87.1187 153.171 88.71C146.379 95.7676 150.265 102.097 154.109 107.127C155.349 108.75 154.008 110.763 152.059 110.151Z" fill="#C6F692"/>
<circle cx="138.793" cy="47.3415" r="2.27967" transform="rotate(5.72899 138.793 47.3415)" fill="#7F6E6E"/>
<circle cx="94.7885" cy="42.9268" r="2.27967" transform="rotate(5.72899 94.7885 42.9268)" fill="#7F6E6E"/>
<path d="M94.6036 16.5903C96.0956 14.9906 99.0966 13.3506 102.652 14.9873" stroke="#8AD539" stroke-width="1.82374" stroke-linecap="round"/>
<path d="M138.904 18.624C141.035 18.1319 144.44 18.4499 146.473 21.7949" stroke="#8AD539" stroke-width="1.82374" stroke-linecap="round"/>
<path d="M118.14 79.6361C116.442 80.7496 113.454 81.4772 110.882 78.9079" stroke="#A0E555" stroke-width="1.82374" stroke-linecap="round"/>
<mask id="mask2_181_1674" style="mask-type:alpha" maskUnits="userSpaceOnUse" x="57" y="1" width="121" height="91">
<rect x="64.2715" y="0.000488281" width="115.807" height="81.6122" rx="18.2374" transform="rotate(5.72899 64.2715 0.000488281)" fill="#C6F692"/>
</mask>
<g mask="url(#mask2_181_1674)">
<path d="M167.483 9.7443C169.536 6.93683 173.85 7.36965 175.305 10.529L177.852 16.062C179.327 19.2646 176.764 22.8572 173.256 22.5052L167.113 21.889C163.605 21.537 161.806 17.5069 163.888 14.661L167.483 9.7443Z" fill="#B4EB79"/>
<path d="M168.406 24.0444C170.684 24.4289 171.489 27.2901 169.746 28.8062L166.491 31.6362C164.976 32.9532 162.606 32.2449 162.063 30.3128L161.065 26.7651C160.521 24.8329 162.174 22.9927 164.153 23.3267L168.406 24.0444Z" fill="#B4EB79"/>
<path d="M156.881 16.1952C158.024 14.571 160.553 15.0837 160.973 17.0248L161.492 19.4222C161.84 21.0297 160.423 22.4656 158.811 22.1388L156.881 21.7474C155.269 21.4206 154.523 19.5463 155.469 18.2012L156.881 16.1952Z" fill="#B4EB79"/>
<path d="M176.682 24.1285C178.24 23.6283 179.617 25.2744 178.85 26.7198L177.924 28.4654C177.317 29.609 175.745 29.7738 174.915 28.7809L173.959 27.6395C173.128 26.6466 173.568 25.1284 174.8 24.7326L176.682 24.1285Z" fill="#B4EB79"/>
<path d="M76.356 0.601027C74.9015 -2.55834 70.5873 -2.99116 68.5342 -0.183688L64.9386 4.73305C62.8574 7.57894 64.6557 11.609 68.1637 11.961L74.3066 12.5773C77.8147 12.9292 80.3776 9.33664 78.9032 6.13405L76.356 0.601027Z" fill="#B4EB79"/>
<path d="M72.6106 14.4332C70.3012 14.3575 68.9439 17.0017 70.3516 18.834L72.9793 22.2541C74.2021 23.8458 76.6657 23.6224 77.5823 21.8367L79.2653 18.558C80.1819 16.7724 78.9273 14.6404 76.9213 14.5746L72.6106 14.4332Z" fill="#B4EB79"/>
<path d="M85.4648 9.0305C84.6672 7.21156 82.0867 7.21163 81.2892 9.03063L80.3043 11.2771C79.6438 12.7835 80.7474 14.4722 82.3922 14.4721L84.3622 14.4721C86.007 14.472 87.1104 12.7832 86.4499 11.2769L85.4648 9.0305Z" fill="#B4EB79"/>
<path d="M64.4822 12.872C63.0546 12.0722 61.3776 13.4119 61.8422 14.9809L62.4033 16.8757C62.7709 18.117 64.2787 18.5908 65.2902 17.7828L66.4531 16.8538C67.4646 16.0458 67.3357 14.4706 66.2062 13.8378L64.4822 12.872Z" fill="#B4EB79"/>
</g>
<ellipse cx="24.7977" cy="24.8073" rx="24.7977" ry="24.8073" transform="matrix(-1 0 0 1 91.8621 87.6922)" fill="#E6E6E6"/>
<ellipse cx="20.564" cy="20.5719" rx="20.564" ry="20.5719" transform="matrix(-1 0 0 1 100.625 70.5518)" fill="#E6E6E6"/>
<ellipse cx="28.1243" cy="28.1351" rx="28.1243" ry="28.1351" transform="matrix(-1 0 0 1 77.5613 45.1394)" fill="#E6E6E6"/>
<ellipse cx="25.1001" cy="25.1098" rx="25.1001" ry="25.1098" transform="matrix(-1 0 0 1 58.1885 86.2836)" fill="#E6E6E6"/>
<circle cx="18.7733" cy="18.7733" r="18.7733" transform="matrix(-1 0 0 1 38.0464 65.1647)" fill="#E6E6E6"/>
<circle cx="13.1413" cy="13.1413" r="13.1413" transform="matrix(-1 0 0 1 89.3611 56.4034)" fill="#E6E6E6"/>
<circle cx="3.44482" cy="3.44482" r="3.44482" transform="matrix(-1 0 0 1 21.3533 54.915)" fill="#E6E6E6"/>
<circle cx="4.88767" cy="4.88767" r="4.88767" transform="matrix(-1 0 0 1 102.442 63.2936)" fill="#E6E6E6"/>
<circle cx="9.0771" cy="9.0771" r="9.0771" transform="matrix(-1 0 0 1 56.3574 124.739)" fill="#E6E6E6"/>
<path d="M71.1344 100.876C70.858 99.2637 71.9485 97.7219 73.5609 97.4454C75.1732 97.169 76.7151 98.2596 76.9915 99.8719C77.2679 101.484 76.1774 103.026 74.565 103.303C72.9527 103.579 71.4108 102.488 71.1344 100.876Z" fill="#C1C1C1"/>
<path d="M60.3527 102.725C60.0762 101.113 61.1668 99.5707 62.7791 99.2943C64.3915 99.0178 65.9333 100.108 66.2098 101.721C66.4862 103.333 65.3956 104.875 63.7833 105.151C62.1709 105.428 60.6291 104.337 60.3527 102.725Z" fill="#C1C1C1"/>
<path d="M26.345 91.2125C25.4819 86.178 28.3746 82.7013 33.4091 81.8382C38.4436 80.9751 42.3293 83.2897 43.1924 88.3242C44.0555 93.3587 41.1627 96.8354 36.1282 97.6985C31.0937 98.5616 27.2081 96.247 26.345 91.2125ZM42.6115 97.9757C44.2567 97.6937 45.3633 98.4185 45.6172 99.8993L45.8146 101.051C46.2208 103.42 51.2477 104.489 54.1143 104.81C55.5311 104.974 56.365 106.084 56.0914 107.452C55.8179 108.82 54.6399 109.259 53.2287 109.129C49.8902 108.82 46.6204 107.924 44.0162 106.169C42.1453 108.692 39.3888 110.79 36.3437 112.193C35.0566 112.786 33.7996 112.764 33.0861 111.566C32.3725 110.367 32.7889 109.042 34.0704 108.416C36.6661 107.158 41.0218 104.311 40.6156 101.942L40.4181 100.791C40.1643 99.3098 40.9662 98.2578 42.6115 97.9757ZM47.6676 95.8557L45.2644 81.8381C44.9993 80.2915 45.9441 79.2827 47.4906 79.0176C49.0372 78.7525 50.2641 79.3889 50.5292 80.9355L51.24 85.0815L53.5105 84.6923C54.8925 84.4553 55.9981 84.9771 56.252 86.4578C56.5058 87.9386 55.6371 88.7988 54.2551 89.0357L51.9847 89.425L52.9324 94.9531C53.1975 96.4996 52.2583 97.5413 50.7118 97.8064C49.1652 98.0716 47.9327 97.4022 47.6676 95.8557ZM31.4123 90.3438C31.8129 92.68 33.2137 94.1335 35.4513 93.7499C37.6888 93.3663 38.5255 91.5292 38.125 89.1929C37.7245 86.8567 36.3236 85.4032 34.0861 85.7868C31.8485 86.1704 31.0062 87.9746 31.4123 90.3438Z" fill="#C1C1C1"/>
</svg>
