<svg xmlns="http://www.w3.org/2000/svg" viewBox="0 0 300 360">
  <g id="Bubble" transform="translate(6,55)">
    <svg xmlns="http://www.w3.org/2000/svg" width="57" height="62" viewBox="0 0 57 62" fill="none">
  <path fill-rule="evenodd" clip-rule="evenodd" d="M47.1376 49.6304C52.564 44.6098 55.9613 37.4276 55.9613 29.4519C55.9613 14.2729 43.6563 1.96783 28.4772 1.96783C13.2982 1.96783 0.993164 14.2729 0.993164 29.4519C0.993164 44.6309 13.2982 56.936 28.4772 56.936C29.9967 56.936 31.4874 56.8127 32.9399 56.5755C37.8735 59.5054 44.6779 61.4993 54.2838 60.4151C56.0414 60.2168 56.3983 58.153 54.8474 57.3026C51.6226 55.5344 48.1784 53.3096 47.1376 49.6304Z" fill="white"/>
  <path d="M47.1376 49.6304L46.4589 48.8968C46.1829 49.1521 46.0736 49.5407 46.1759 49.9024L47.1376 49.6304ZM32.9399 56.5755L33.4502 55.7162C33.2483 55.5963 33.0106 55.5513 32.7788 55.5891L32.9399 56.5755ZM54.2838 60.4151L54.1717 59.422L54.2838 60.4151ZM54.8474 57.3026L55.3279 56.4263L54.8474 57.3026ZM54.9619 29.4519C54.9619 37.1376 51.6894 44.0574 46.4589 48.8968L47.8163 50.364C53.4386 45.1622 56.9607 37.7176 56.9607 29.4519H54.9619ZM28.4772 2.96726C43.1043 2.96726 54.9619 14.8248 54.9619 29.4519H56.9607C56.9607 13.7209 44.2082 0.968414 28.4772 0.968414V2.96726ZM1.99258 29.4519C1.99258 14.8248 13.8502 2.96726 28.4772 2.96726V0.968414C12.7462 0.968414 -0.0062567 13.7209 -0.0062567 29.4519H1.99258ZM28.4772 55.9366C13.8502 55.9366 1.99258 44.079 1.99258 29.4519H-0.0062567C-0.0062567 45.1829 12.7462 57.9354 28.4772 57.9354V55.9366ZM32.7788 55.5891C31.3794 55.8176 29.9426 55.9366 28.4772 55.9366V57.9354C30.0509 57.9354 31.5954 57.8077 33.1009 57.5619L32.7788 55.5891ZM54.1717 59.422C44.7719 60.483 38.1877 58.5296 33.4502 55.7162L32.4295 57.4348C37.5594 60.4813 44.5839 62.5157 54.3959 61.4082L54.1717 59.422ZM54.3669 58.179C54.7878 58.4098 54.8581 58.7271 54.8223 58.9284C54.7883 59.1196 54.6315 59.3701 54.1717 59.422L54.3959 61.4082C55.6937 61.2618 56.5942 60.3812 56.7903 59.2784C56.9846 58.1856 56.4579 57.0459 55.3279 56.4263L54.3669 58.179ZM46.1759 49.9024C47.3432 54.0288 51.1697 56.4259 54.3669 58.179L55.3279 56.4263C52.0756 54.643 49.0135 52.5903 48.0993 49.3584L46.1759 49.9024Z" fill="#E4E4E4"/>
</svg>
  </g>
    
  <g id='Exclamation' transform='translate(24,65)'>
    <svg xmlns="http://www.w3.org/2000/svg" width="20" height="37" viewBox="0 0 20 37" fill="none" >
  <rect x="1.15918" y="4.09924" width="8.99479" height="20.9878" rx="3.49797" transform="rotate(-16.1227 1.15918 4.09924)" fill="#FF7913"/>
  <circle cx="13.3897" cy="30.2139" r="4.49739" transform="rotate(-16.1227 13.3897 30.2139)" fill="#FF7913"/>
</svg>
  </g>

  <!--Rabbit아이콘-->
  <g id="rabbit" transform="translate(81, 0)">
    <svg xmlns="http://www.w3.org/2000/svg" width="101" height="134" viewBox="0 0 101 134" fill="none">
  <rect x="0.320312" y="36.3199" width="100.272" height="82.9018" rx="15.7908" fill="#FFD4D4"/>
  <rect x="16.9043" width="33.5555" height="61.1894" rx="16.7777" fill="#FFD4D4"/>
  <rect x="50.459" width="33.9502" height="61.1894" rx="16.9751" fill="#FFD4D4"/>
  <path d="M50.459 20.5292L50.459 37.8991" stroke="#FFBABA" stroke-width="1.57908" stroke-linecap="round"/>
  <path d="M21.3245 60.6843C19.4436 60.9075 16.5427 60.3135 15.1073 57.2433" stroke="#5E4E4E" stroke-width="1.57908" stroke-linecap="round"/>
  <path d="M19.7462 63.6548C17.9911 64.3669 15.0364 64.5603 12.841 61.9783" stroke="#5E4E4E" stroke-width="1.57908" stroke-linecap="round"/>
  <path d="M79.2751 60.6843C81.156 60.9075 84.0569 60.3135 85.4923 57.2433" stroke="#5E4E4E" stroke-width="1.57908" stroke-linecap="round"/>
  <path d="M80.8544 63.6548C82.6095 64.3669 85.5642 64.5603 87.7596 61.9783" stroke="#5E4E4E" stroke-width="1.57908" stroke-linecap="round"/>
  <mask id="mask0_163_866" style="mask-type:alpha" maskUnits="userSpaceOnUse" x="0" y="36" width="101" height="84">
    <rect x="0.321289" y="36.3171" width="100.272" height="82.9018" rx="15.7908" fill="#FFD4D4"/>
  </mask>
  <g mask="url(#mask0_163_866)">
    <circle cx="10.9795" cy="88.428" r="20.9228" fill="#FFA4A4"/>
    <circle cx="88.3564" cy="88.428" r="20.9228" fill="#FFA4A4"/>
  </g>
  <circle cx="30.9186" cy="67.7049" r="14.0143" fill="white"/>
  <circle cx="30.9187" cy="67.7049" r="7.69802" fill="#5E4E4E"/>
  <path d="M50.2588 80.533V83.6911" stroke="#AE7878" stroke-width="1.18431" stroke-linecap="round"/>
  <circle cx="69.6052" cy="67.7049" r="14.0143" fill="white"/>
  <circle cx="69.6052" cy="67.7057" r="7.69802" fill="#5E4E4E"/>
  <circle cx="50.2613" cy="79.1533" r="2.56601" fill="#5E4E4E"/>
  <ellipse cx="50.454" cy="93.5604" rx="4.73724" ry="9.86926" fill="#5E4E4E"/>
  <mask id="mask1_163_866" style="mask-type:alpha" maskUnits="userSpaceOnUse" x="45" y="83" width="11" height="21">
    <ellipse cx="50.4589" cy="93.5641" rx="4.73724" ry="9.86926" fill="#5E4E4E"/>
  </mask>
  <g mask="url(#mask1_163_866)">
    <ellipse cx="6.1557" cy="9.70237" rx="6.1557" ry="9.70237" transform="matrix(0.928279 0.371884 -0.248361 0.968668 50.9365 89.616)" fill="#7F6E6E"/>
  </g>
  <path d="M85.4746 132.883C69.4373 129.56 63.7932 120.345 60.9965 113.728C60.4721 112.488 61.3812 111.133 62.7273 111.082L82.8673 110.32C84.7781 110.248 85.7612 112.811 84.5795 114.315C79.3386 120.982 83.2328 126.099 86.9795 130.101C88.1884 131.392 87.2066 133.242 85.4746 132.883Z" fill="#FFD4D4"/>
  <circle cx="72.1701" cy="65.5335" r="1.97385" fill="#7F6E6E"/>
  <circle cx="33.8781" cy="65.5335" r="1.97385" fill="#7F6E6E"/>
  <path d="M68.6135 37.4131C69.1399 37.717 69.1399 38.4767 68.6135 38.7806L61.8038 42.7122C61.2774 43.0161 60.6194 42.6363 60.6194 42.0285L60.6194 34.1652C60.6194 33.5574 61.2774 33.1776 61.8038 33.4814L68.6135 37.4131Z" fill="#FF9090"/>
  <path d="M68.615 37.4131C68.0886 37.717 68.0886 38.4767 68.615 38.7806L75.4248 42.7122C75.9511 43.0161 76.6091 42.6363 76.6091 42.0285L76.6091 34.1652C76.6091 33.5574 75.9511 33.1776 75.4248 33.4814L68.615 37.4131Z" fill="#FF9090"/>
  <path d="M27.5596 46.9778C29.0971 45.8717 31.9228 44.9866 34.6654 46.9778" stroke="#FF9090" stroke-width="1.57908" stroke-linecap="round"/>
  <path d="M53.6152 105.8C52.2485 106.906 49.7368 107.791 47.2989 105.8" stroke="#FFA0A0" stroke-width="1.57908" stroke-linecap="round"/>
  <path d="M66.25 46.9778C67.7875 45.8717 70.6133 44.9866 73.3559 46.9778" stroke="#FF9090" stroke-width="1.57908" stroke-linecap="round"/>
</svg>
  </g>

  <!-- Chick 아이콘 -->
  <g id="chick" transform="translate(191, 52)">
    <svg xmlns="http://www.w3.org/2000/svg" width="82" height="92" viewBox="0 0 82 92" fill="none">
  <rect x="0.389648" y="20.4122" width="80.9531" height="57.0496" rx="12.7485" fill="#FFEF92"/>
  <mask id="mask0_163_932" style="mask-type:alpha" maskUnits="userSpaceOnUse" x="0" y="20" width="82" height="58">
    <rect x="0.389648" y="20.4104" width="80.9531" height="57.0496" rx="12.7485" fill="#FFD4D4"/>
  </mask>
  <g mask="url(#mask0_163_932)">
    <ellipse cx="8.99432" cy="56.2704" rx="16.8918" ry="14.3982" fill="#FFDD77"/>
    <ellipse cx="71.4631" cy="56.2704" rx="16.8918" ry="14.3982" fill="#FFDD77"/>
  </g>
  <circle cx="25.0907" cy="45.7492" r="11.3143" fill="white"/>
  <circle cx="25.0899" cy="45.7489" r="6.2149" fill="#5E4E4E"/>
  <circle cx="56.3231" cy="45.7492" r="11.3143" fill="white"/>
  <circle cx="56.3223" cy="45.7489" r="6.2149" fill="#5E4E4E"/>
  <ellipse cx="40.8665" cy="62.1635" rx="3.82455" ry="7.96782" fill="#5E4E4E"/>
  <mask id="mask1_163_932" style="mask-type:alpha" maskUnits="userSpaceOnUse" x="37" y="54" width="8" height="17">
    <ellipse cx="40.8695" cy="62.1636" rx="3.82455" ry="7.96782" fill="#5E4E4E"/>
  </mask>
  <g mask="url(#mask1_163_932)">
    <ellipse cx="4.96973" cy="7.83309" rx="4.96973" ry="7.83309" transform="matrix(0.928279 0.371884 -0.248361 0.968668 41.2549 58.9769)" fill="#7F6E6E"/>
  </g>
  <path d="M69.1375 90.9011C56.19 88.2184 51.6334 80.7791 49.3755 75.4371C48.9521 74.4353 49.6861 73.342 50.7728 73.3009L67.0326 72.6852C68.5753 72.6268 69.3689 74.6966 68.4149 75.9103C64.1838 81.2931 67.3277 85.4245 70.3525 88.6549C71.3285 89.6973 70.5358 91.1908 69.1375 90.9011Z" fill="#FFEF92"/>
  <circle cx="58.3943" cy="43.9946" r="1.59356" fill="#7F6E6E"/>
  <circle cx="27.4803" cy="43.9946" r="1.59356" fill="#7F6E6E"/>
  <path d="M22.3809 29.0166C23.6222 28.1236 25.9035 27.4091 28.1177 29.0166" stroke="#FFBA1A" stroke-width="1.27485" stroke-linecap="round"/>
  <path d="M53.6162 29.0166C54.8575 28.1236 57.1388 27.4091 59.353 29.0166" stroke="#FFBA1A" stroke-width="1.27485" stroke-linecap="round"/>
  <path d="M45.3292 55.6288C45.3292 56.7729 43.3315 57.3817 40.8673 57.3817C38.403 57.3817 36.4053 56.7729 36.4053 55.6288C36.4053 54.4846 38.403 52.4417 40.8673 52.4417C43.3315 52.4417 45.3292 54.4846 45.3292 55.6288Z" fill="#FFBA1A"/>
  <path d="M43.7359 69.1755C43.7359 69.8795 42.4516 70.769 40.8674 70.769C39.2833 70.769 37.999 69.8795 37.999 69.1755C37.999 68.4714 39.2833 68.2193 40.8674 68.2193C42.4516 68.2193 43.7359 68.4714 43.7359 69.1755Z" fill="#FFBA1A"/>
  <ellipse cx="37.1419" cy="16.5883" rx="4.78069" ry="9.24267" transform="rotate(-11.1295 37.1419 16.5883)" fill="#FFEF92"/>
  <ellipse cx="44.1537" cy="12.5155" rx="5.69637" ry="10.9211" transform="rotate(7.15205 44.1537 12.5155)" fill="#FFEF92"/>
  <path d="M40.2285 11.4874C40.8128 12.8154 41.6627 16.9055 41.1847 19.6146" stroke="#FFDD77" stroke-width="1.27485" stroke-linecap="round"/>
</svg>
  </g>

  <!--Turtle아이콘-->
  <g id= 'turtle' transform="translate(0, 127)">
    <svg xmlns="http://www.w3.org/2000/svg" width="106" height="94" viewBox="0 0 106 94" fill="none">
  <rect y="0.426605" width="105.414" height="74.2879" rx="16.6006" fill="#C6F692"/>
  <mask id="mask0_163_1029" style="mask-type:alpha" maskUnits="userSpaceOnUse" x="0" y="0" width="106" height="75">
    <rect y="0.427094" width="105.414" height="74.2879" rx="16.6006" fill="#FFD4D4"/>
  </mask>
  <g mask="url(#mask0_163_1029)">
    <ellipse cx="11.2058" cy="47.1225" rx="21.9958" ry="18.7488" fill="#B7EE84"/>
    <ellipse cx="92.5457" cy="47.1225" rx="21.9958" ry="18.7488" fill="#B7EE84"/>
  </g>
  <circle cx="32.1657" cy="33.4233" r="14.7331" fill="white"/>
  <circle cx="32.167" cy="33.4239" r="8.09281" fill="#5E4E4E"/>
  <circle cx="72.8366" cy="33.4232" r="14.7331" fill="white"/>
  <circle cx="72.837" cy="33.4239" r="8.09281" fill="#5E4E4E"/>
  <ellipse cx="52.7048" cy="54.7935" rx="4.98019" ry="10.3754" fill="#5E4E4E"/>
  <mask id="mask1_163_1029" style="mask-type:alpha" maskUnits="userSpaceOnUse" x="47" y="44" width="11" height="22">
    <ellipse cx="52.7068" cy="54.7883" rx="4.98019" ry="10.3754" fill="#5E4E4E"/>
  </mask>
  <g mask="url(#mask1_163_1029)">
    <ellipse cx="6.4714" cy="10.2" rx="6.4714" ry="10.2" transform="matrix(0.928279 0.371884 -0.248361 0.968668 53.209 50.6397)" fill="#7F6E6E"/>
  </g>
  <path d="M89.5195 92.2145C72.6597 88.7212 66.7262 79.0341 63.7861 72.0779C63.2347 70.7735 64.1905 69.3498 65.6057 69.2962L86.7785 68.4946C88.7873 68.4185 89.8208 71.1137 88.5785 72.6941C83.0689 79.7034 87.1627 85.0831 91.1016 89.2897C92.3725 90.647 91.3403 92.5918 89.5195 92.2145Z" fill="#C6F692"/>
  <circle cx="75.5311" cy="31.1393" r="2.07508" fill="#7F6E6E"/>
  <circle cx="35.2763" cy="31.1393" r="2.07508" fill="#7F6E6E"/>
  <path d="M28.6377 11.6305C30.2541 10.4676 33.2247 9.53715 36.108 11.6305" stroke="#8AD539" stroke-width="1.66006" stroke-linecap="round"/>
  <path d="M69.3066 11.6305C70.923 10.4676 73.8937 9.53715 76.7769 11.6305" stroke="#8AD539" stroke-width="1.66006" stroke-linecap="round"/>
  <path d="M56.0244 67.6636C54.5876 68.8265 51.9471 69.757 49.3842 67.6636" stroke="#A0E555" stroke-width="1.66006" stroke-linecap="round"/>
  <mask id="mask2_163_1029" style="mask-type:alpha" maskUnits="userSpaceOnUse" x="0" y="0" width="106" height="75">
    <rect y="0.427094" width="105.414" height="74.2879" rx="16.6006" fill="#C6F692"/>
  </mask>
  <g mask="url(#mask2_163_1029)">
    <path d="M94.364 -0.125118C95.9684 -2.85442 99.9151 -2.85442 101.52 -0.125116L104.329 4.65473C105.956 7.42138 103.961 10.9081 100.752 10.9081H95.1319C91.9227 10.9081 89.9278 7.42138 91.5541 4.65473L94.364 -0.125118Z" fill="#B4EB79"/>
    <path d="M96.5024 12.7444C98.6009 12.8857 99.5899 15.4039 98.1485 16.9355L95.4578 19.7944C94.2056 21.1248 91.9947 20.6987 91.3268 18.9981L90.1004 15.8756C89.4325 14.1751 90.7624 12.3581 92.5853 12.4808L96.5024 12.7444Z" fill="#B4EB79"/>
    <path d="M85.3482 6.68135C86.2359 5.1064 88.573 5.34094 89.1301 7.06088L89.818 9.18503C90.2793 10.6094 89.1264 12.0386 87.6367 11.8891L85.8524 11.71C84.3627 11.5605 83.5168 9.93071 84.2519 8.62644L85.3482 6.68135Z" fill="#B4EB79"/>
    <path d="M104.001 12.0707C105.366 11.4761 106.764 12.8418 106.2 14.2207L105.52 15.8858C105.074 16.9767 103.665 17.2688 102.823 16.4451L101.854 15.498C101.011 14.6743 101.271 13.2593 102.352 12.7889L104.001 12.0707Z" fill="#B4EB79"/>
    <path d="M11.0032 -0.125118C9.3988 -2.85442 5.45209 -2.85442 3.84768 -0.125116L1.03786 4.65473C-0.588509 7.42138 1.40636 10.9081 4.61563 10.9081H10.2353C13.4445 10.9081 15.4394 7.42138 13.813 4.65473L11.0032 -0.125118Z" fill="#B4EB79"/>
    <path d="M8.86482 12.7444C6.76633 12.8857 5.77724 15.4039 7.21871 16.9355L9.90939 19.7944C11.1615 21.1248 13.3725 20.6987 14.0404 18.9981L15.2668 15.8756C15.9347 14.1751 14.6048 12.3581 12.7819 12.4808L8.86482 12.7444Z" fill="#B4EB79"/>
    <path d="M20.019 6.68135C19.1313 5.1064 16.7942 5.34094 16.2371 7.06088L15.5492 9.18503C15.0879 10.6094 16.2408 12.0386 17.7305 11.8891L19.5148 11.71C21.0045 11.5605 21.8504 9.93071 21.1153 8.62644L20.019 6.68135Z" fill="#B4EB79"/>
    <path d="M1.36641 12.0707C0.000736939 11.4761 -1.39645 12.8418 -0.833065 14.2207L-0.152702 15.8858C0.293018 16.9767 1.70173 17.2688 2.54443 16.4451L3.51329 15.498C4.35599 14.6743 4.09606 13.2593 3.01563 12.7889L1.36641 12.0707Z" fill="#B4EB79"/>
  </g>
</svg>
  </g>

  <!--Bear아이콘-->
  <g id='bear' transform='translate(114, 131)'>
    <svg xmlns="http://www.w3.org/2000/svg" width="95" height="95" viewBox="0 0 95 95" fill="none">
  <path d="M76.9348 93.6444C63.4634 90.8532 58.7225 83.113 56.3732 77.5549C55.9327 76.5126 56.6964 75.375 57.8271 75.3322L74.7447 74.6917C76.3497 74.6309 77.1755 76.7844 76.1829 78.0472C71.7806 83.6478 75.0517 87.9463 78.1989 91.3074C79.2144 92.392 78.3896 93.9459 76.9348 93.6444Z" fill="#DFA573"/>
  <rect x="0.433594" y="12.5283" width="93.8446" height="69.6373" rx="13.2642" fill="#DFA573"/>
  <mask id="mask0_163_835" style="mask-type:alpha" maskUnits="userSpaceOnUse" x="0" y="12" width="95" height="71">
    <rect x="0.433594" y="12.5332" width="93.8446" height="69.6373" rx="13.2642" fill="#FFD4D4"/>
  </mask>
  <g mask="url(#mask0_163_835)">
    <ellipse cx="10.4089" cy="56.3043" rx="19.5817" ry="17.5751" fill="#F3BC8D"/>
    <ellipse cx="82.8249" cy="56.3043" rx="19.5817" ry="17.5751" fill="#F3BC8D"/>
  </g>
  <circle cx="31.106" cy="38.8944" r="11.772" fill="white"/>
  <circle cx="31.104" cy="38.8923" r="6.46632" fill="#5E4E4E"/>
  <path d="M47.5205 49.6705V52.3234" stroke="#AE7878" stroke-width="0.994819" stroke-linecap="round"/>
  <circle cx="63.608" cy="38.8942" r="11.772" fill="white"/>
  <circle cx="63.606" cy="38.8923" r="6.46632" fill="#5E4E4E"/>
  <circle cx="47.5211" cy="46.6851" r="3.31606" fill="#5E4E4E"/>
  <ellipse cx="47.5213" cy="60.6117" rx="3.97927" ry="8.29016" fill="#5E4E4E"/>
  <mask id="mask1_163_835" style="mask-type:alpha" maskUnits="userSpaceOnUse" x="43" y="52" width="9" height="17">
    <ellipse cx="47.5213" cy="60.6162" rx="3.97927" ry="8.29016" fill="#5E4E4E"/>
  </mask>
  <g mask="url(#mask1_163_835)">
    <ellipse cx="5.17078" cy="8.14997" rx="5.17078" ry="8.14997" transform="matrix(0.928279 0.371884 -0.248361 0.968668 47.0576 59.2901)" fill="#7F6E6E"/>
  </g>
  <circle cx="65.7586" cy="37.0696" r="1.65803" fill="#7F6E6E"/>
  <circle cx="48.5153" cy="45.6898" r="0.994818" fill="#7F6E6E"/>
  <circle cx="33.5955" cy="37.0696" r="1.65803" fill="#7F6E6E"/>
  <path d="M50.1748 70.8938C49.0268 71.8229 46.9169 72.5664 44.8691 70.8938" stroke="#D28E52" stroke-width="1.32642" stroke-linecap="round"/>
  <path d="M28.2891 21.4814C29.5806 20.5523 31.9542 19.8088 34.258 21.4814" stroke="#BE7B40" stroke-width="1.32642" stroke-linecap="round"/>
  <path d="M60.7871 21.4814C62.0786 20.5523 64.4522 19.8088 66.756 21.4814" stroke="#BE7B40" stroke-width="1.32642" stroke-linecap="round"/>
  <rect x="14.1855" y="0.922546" width="19.2332" height="18.5699" rx="9.28497" fill="#DFA573"/>
  <path d="M23.9688 7.71902V12.3615" stroke="#CD894D" stroke-width="1.32642" stroke-linecap="round"/>
  <rect x="61.6055" y="0.922546" width="19.2332" height="18.5699" rx="9.28497" fill="#DFA573"/>
  <path d="M71.2207 7.71902V12.3615" stroke="#CD894D" stroke-width="1.32642" stroke-linecap="round"/>
</svg>
  </g>

  <!--Panda아이콘-->
  <g id = 'panda' transform = 'translate(210, 135)'>
    <svg xmlns="http://www.w3.org/2000/svg" width="94" height="90" viewBox="0 0 94 90" fill="none">
  <ellipse cx="14.8603" cy="13.8578" rx="11.704" ry="9.86616" transform="rotate(-21.2299 14.8603 13.8578)" fill="#5E4E4E"/>
  <ellipse cx="11.704" cy="9.86616" rx="11.704" ry="9.86616" transform="matrix(-0.932135 -0.362112 -0.362112 0.932135 93.5498 8.89935)" fill="#5E4E4E"/>
  <mask id="path-3-inside-1_163_901" fill="white">
    <path fill-rule="evenodd" clip-rule="evenodd" d="M19.4481 12.3846C13.3304 12.3846 8.37109 17.3439 8.37109 23.4615V65.2772C8.37109 71.3948 13.3304 76.3541 19.4481 76.3541H54.8144C56.8719 80.9302 60.9688 86.9156 71.7016 89.1395C72.9165 89.3912 73.6053 88.0935 72.7572 87.1878C70.1741 84.4291 67.4911 80.9142 70.89 76.3541H74.5561C80.6737 76.3541 85.6331 71.3948 85.6331 65.2772V23.4615C85.6331 17.3439 80.6737 12.3846 74.5561 12.3846H19.4481Z"/>
  </mask>
  <path fill-rule="evenodd" clip-rule="evenodd" d="M19.4481 12.3846C13.3304 12.3846 8.37109 17.3439 8.37109 23.4615V65.2772C8.37109 71.3948 13.3304 76.3541 19.4481 76.3541H54.8144C56.8719 80.9302 60.9688 86.9156 71.7016 89.1395C72.9165 89.3912 73.6053 88.0935 72.7572 87.1878C70.1741 84.4291 67.4911 80.9142 70.89 76.3541H74.5561C80.6737 76.3541 85.6331 71.3948 85.6331 65.2772V23.4615C85.6331 17.3439 80.6737 12.3846 74.5561 12.3846H19.4481Z" fill="white"/>
  <path d="M54.8144 76.3541L56.4561 75.616L55.9786 74.5541H54.8144V76.3541ZM71.7016 89.1395L71.3364 90.902H71.3364L71.7016 89.1395ZM72.7572 87.1878L74.0712 85.9575L72.7572 87.1878ZM70.89 76.3541V74.5541H69.9866L69.4468 75.2785L70.89 76.3541ZM10.1711 23.4615C10.1711 18.338 14.3245 14.1846 19.4481 14.1846V10.5846C12.3363 10.5846 6.57109 16.3498 6.57109 23.4615H10.1711ZM10.1711 65.2772V23.4615H6.57109V65.2772H10.1711ZM19.4481 74.5541C14.3245 74.5541 10.1711 70.4007 10.1711 65.2772H6.57109C6.57109 72.3889 12.3363 78.1542 19.4481 78.1542V74.5541ZM54.8144 74.5541H19.4481V78.1542H54.8144V74.5541ZM72.0668 87.3769C66.9845 86.3238 63.5722 84.4049 61.2049 82.2873C58.8292 80.1622 57.4202 77.7603 56.4561 75.616L53.1727 77.0923C54.2661 79.5241 55.9344 82.4029 58.8047 84.9705C61.6834 87.5455 65.6859 89.7313 71.3364 90.902L72.0668 87.3769ZM71.4433 88.4181C71.4202 88.3934 71.3603 88.311 71.3397 88.1697C71.32 88.0344 71.3432 87.8841 71.4171 87.7463C71.4916 87.6076 71.6116 87.4935 71.757 87.4278C71.9081 87.3595 72.0277 87.3688 72.0668 87.3769L71.3364 90.902C72.6875 91.182 73.9765 90.5899 74.589 89.4491C75.1927 88.3245 74.993 86.942 74.0712 85.9575L71.4433 88.4181ZM69.4468 75.2785C67.4252 77.9906 67.1087 80.6072 67.8646 82.9906C68.5676 85.2075 70.1473 87.0339 71.4433 88.4181L74.0712 85.9575C72.7841 84.583 71.7307 83.2726 71.2962 81.9024C70.9144 80.6986 70.9559 79.2777 72.3332 77.4298L69.4468 75.2785ZM74.5561 74.5541H70.89V78.1542H74.5561V74.5541ZM83.8331 65.2772C83.8331 70.4007 79.6796 74.5541 74.5561 74.5541V78.1542C81.6678 78.1542 87.4331 72.3889 87.4331 65.2772H83.8331ZM83.8331 23.4615V65.2772H87.4331V23.4615H83.8331ZM74.5561 14.1846C79.6796 14.1846 83.8331 18.338 83.8331 23.4615H87.4331C87.4331 16.3498 81.6678 10.5846 74.5561 10.5846V14.1846ZM19.4481 14.1846H74.5561V10.5846H19.4481V14.1846Z" fill="#EDEDED" mask="url(#path-3-inside-1_163_901)"/>
  <mask id="mask0_163_901" style="mask-type:alpha" maskUnits="userSpaceOnUse" x="8" y="12" width="78" height="65">
    <rect x="8.37109" y="12.3846" width="77.262" height="63.9696" rx="11.077" fill="#FFD4D4"/>
  </mask>
  <g mask="url(#mask0_163_901)">
    <ellipse cx="16.5835" cy="52.5952" rx="16.1216" ry="16.1447" fill="#FFC4C4"/>
    <ellipse cx="76.2036" cy="52.5952" rx="16.1216" ry="16.1447" fill="#FFC4C4"/>
  </g>
  <ellipse cx="15.0951" cy="17.4748" rx="15.0951" ry="17.4748" transform="matrix(-0.920288 -0.391242 -0.391242 0.920288 50.1387 27.942)" fill="#5E4E4E"/>
  <ellipse cx="64.8205" cy="38.1179" rx="15.0951" ry="17.4748" transform="rotate(-23.0318 64.8205 38.1179)" fill="#5E4E4E"/>
  <path d="M47.002 44.5107L47.002 47.8338" stroke="#AE7878" stroke-width="0.830774" stroke-linecap="round"/>
  <circle cx="47.0022" cy="42.708" r="1.80001" fill="#5E4E4E"/>
  <ellipse cx="47.1395" cy="54.7543" rx="3.3231" ry="6.92312" fill="#5E4E4E"/>
  <mask id="mask1_163_901" style="mask-type:alpha" maskUnits="userSpaceOnUse" x="43" y="47" width="8" height="15">
    <ellipse cx="47.1385" cy="54.7517" rx="3.3231" ry="6.92312" fill="#5E4E4E"/>
  </mask>
  <g mask="url(#mask1_163_901)">
    <ellipse cx="4.31812" cy="6.80605" rx="4.31812" ry="6.80605" transform="matrix(0.928279 0.371884 -0.248361 0.968668 47.4736 51.9828)" fill="#7F6E6E"/>
  </g>
  <circle cx="61.9548" cy="36.6144" r="9.83082" fill="white"/>
  <circle cx="61.9537" cy="36.6139" r="5.40003" fill="#5E4E4E"/>
  <circle cx="63.7518" cy="35.0915" r="1.38462" fill="#7F6E6E"/>
  <circle cx="31.7742" cy="36.6145" r="9.83082" fill="white"/>
  <circle cx="31.7741" cy="36.6139" r="5.40003" fill="#5E4E4E"/>
  <circle cx="33.8504" cy="35.0915" r="1.38462" fill="#7F6E6E"/>
  <path d="M31.0771 18.7539C32.1557 17.978 34.1379 17.3571 36.0618 18.7539" stroke="#AE7878" stroke-width="1.1077" stroke-linecap="round"/>
  <path d="M49.3555 63.3391C48.3968 64.115 46.6348 64.7358 44.9247 63.3391" stroke="#E1C0C0" stroke-width="1.1077" stroke-linecap="round"/>
  <path d="M58.2168 18.7539C59.2953 17.978 61.2775 17.3571 63.2014 18.7539" stroke="#AE7878" stroke-width="1.1077" stroke-linecap="round"/>
</svg>
  </g>

  <!--Pig아이콘-->
  <g id='pig' transform='translate(41,211)'>
    <svg xmlns="http://www.w3.org/2000/svg" width="90" height="93" viewBox="0 0 90 93" fill="none">
  <path d="M72.2247 92.1989C59.7328 89.6106 55.3365 82.4332 53.1581 77.2791C52.7495 76.3126 53.4577 75.2577 54.5062 75.218L70.1939 74.6241C71.6823 74.5677 72.448 76.5647 71.5275 77.7357C67.4453 82.929 70.4785 86.9151 73.3969 90.0318C74.3386 91.0375 73.5738 92.4785 72.2247 92.1989Z" fill="#FFE5D3"/>
  <rect x="1.2832" y="16.9821" width="87.022" height="64.5746" rx="12.2999" fill="#FFE5D3"/>
  <mask id="mask0_163_1001" style="mask-type:alpha" maskUnits="userSpaceOnUse" x="1" y="16" width="88" height="66">
    <rect x="1.28516" y="16.983" width="87.022" height="64.5746" rx="12.2999" fill="#FFCAB2"/>
  </mask>
  <g mask="url(#mask0_163_1001)">
    <ellipse cx="10.5351" cy="57.5722" rx="18.1581" ry="16.2974" fill="#FFCAB2"/>
    <ellipse cx="77.6865" cy="57.5722" rx="18.1581" ry="16.2974" fill="#FFCAB2"/>
  </g>
  <circle cx="29.7267" cy="41.4274" r="10.9162" fill="white"/>
  <circle cx="29.7277" cy="41.4283" r="5.99621" fill="#5E4E4E"/>
  <circle cx="59.8625" cy="41.4274" r="10.9162" fill="white"/>
  <circle cx="59.8634" cy="41.4283" r="5.99621" fill="#5E4E4E"/>
  <ellipse cx="44.9488" cy="61.5712" rx="3.68998" ry="7.68746" fill="#5E4E4E"/>
  <mask id="mask1_163_1001" style="mask-type:alpha" maskUnits="userSpaceOnUse" x="41" y="53" width="8" height="17">
    <ellipse cx="44.9488" cy="61.5708" rx="3.68998" ry="7.68746" fill="#5E4E4E"/>
  </mask>
  <g mask="url(#mask1_163_1001)">
    <ellipse cx="4.79486" cy="7.55746" rx="4.79486" ry="7.55746" transform="matrix(0.928279 0.371884 -0.248361 0.968668 44.5215 60.3403)" fill="#7F6E6E"/>
  </g>
  <circle cx="61.8617" cy="39.7365" r="1.53749" fill="#7F6E6E"/>
  <circle cx="32.0355" cy="39.7365" r="1.53749" fill="#7F6E6E"/>
  <path d="M47.4092 71.1017C46.3446 71.9633 44.3881 72.6527 42.4892 71.1017" stroke="#FFA362" stroke-width="1.22999" stroke-linecap="round"/>
  <path d="M27.1143 25.2846C28.3119 24.423 30.5129 23.7336 32.6492 25.2846" stroke="#FFA362" stroke-width="1.22999" stroke-linecap="round"/>
  <path d="M57.25 25.2846C58.4476 24.423 60.6487 23.7336 62.785 25.2846" stroke="#FFA362" stroke-width="1.22999" stroke-linecap="round"/>
  <ellipse cx="44.9487" cy="49.1152" rx="8.91745" ry="5.99621" fill="#FFBE8F"/>
  <path d="M14.9619 28.0532C16.7945 30.7482 20.9086 30.2355 22.0237 27.1732L26.5123 14.8464C27.5348 12.0384 25.2272 9.14231 22.2618 9.51186L10.3965 10.9905C7.43108 11.3601 5.90484 14.734 7.58521 17.2051L14.9619 28.0532Z" fill="#FFC9A3"/>
  <path d="M75.0625 28.0532C73.2299 30.7482 69.1158 30.2355 68.0007 27.1732L63.5121 14.8464C62.4896 12.0384 64.7972 9.14231 67.7626 9.51186L79.6279 10.9905C82.5933 11.3601 84.1196 14.734 82.4392 17.2051L75.0625 28.0532Z" fill="#FFC9A3"/>
  <circle cx="42.0272" cy="49.1155" r="1.69124" fill="#5E4E4E"/>
  <circle cx="47.5633" cy="49.1155" r="1.69124" fill="#5E4E4E"/>
</svg>
  </g>
 
  <!--Fox아이콘-->
  <g id= 'fox' transform='translate(133,211)'>
    <svg xmlns="http://www.w3.org/2000/svg" width="128" height="135" viewBox="0 0 128 135" fill="none">
  <path d="M109.963 14.5109C108.849 10.6107 103.972 9.3176 101.072 12.1537L71.1119 41.4541C67.8273 44.6665 69.8483 50.252 74.428 50.6188L113.655 53.7601C117.379 54.0583 120.256 50.5457 119.23 46.9527L109.963 14.5109Z" fill="#DF7009"/>
  <path d="M105.58 30.0724C104.11 27.1487 100.383 26.2164 97.7095 28.1032L82.0284 39.1688C78.0424 41.9816 79.5881 48.2246 84.4259 48.8527L107.155 51.804C111.413 52.3569 114.557 47.925 112.628 44.0894L105.58 30.0724Z" fill="#EF790B"/>
  <path d="M18.2748 14.5109C19.3889 10.6107 24.2665 9.3176 27.1664 12.1537L57.1264 41.4541C60.411 44.6665 58.39 50.252 53.8103 50.6188L14.5837 53.7601C10.8589 54.0583 7.98199 50.5457 9.00829 46.9527L18.2748 14.5109Z" fill="#DF7009"/>
  <path d="M22.6586 30.0724C24.1288 27.1487 27.8548 26.2164 30.5287 28.1032L46.2099 39.1688C50.1958 41.9816 48.6502 48.2246 43.8124 48.8527L21.0828 51.804C16.8253 52.3569 13.6814 47.925 15.6102 44.0894L22.6586 30.0724Z" fill="#EF790B"/>
  <path d="M101.174 134.045C84.4433 130.579 78.5551 120.966 75.6375 114.063C75.0903 112.768 76.0388 111.355 77.4431 111.302L98.4542 110.507C100.448 110.431 101.473 113.106 100.24 114.674C94.7729 121.63 98.8355 126.968 102.744 131.143C104.005 132.49 102.981 134.42 101.174 134.045Z" fill="#FFA047"/>
  <rect x="6.63281" y="38.4304" width="114.905" height="77.0148" rx="16.4738" fill="#FFAA5A"/>
  <mask id="mask0_163_958" style="mask-type:alpha" maskUnits="userSpaceOnUse" x="6" y="38" width="116" height="78">
    <rect x="6.69043" y="38.4284" width="114.905" height="77.0148" rx="16.4738" fill="#FFD4D4"/>
  </mask>
  <g mask="url(#mask0_163_958)">
    <ellipse cx="18.9048" cy="86.8384" rx="23.9761" ry="19.4371" fill="#FFC085"/>
    <ellipse cx="107.574" cy="86.8384" rx="23.9761" ry="19.4371" fill="#FFC085"/>
  </g>
  <path d="M64.0869 80.8486L64.0869 85.7912" stroke="#AE7878" stroke-width="1.23553" stroke-linecap="round"/>
  <circle cx="64.0854" cy="81.0555" r="2.67723" fill="#5E4E4E"/>
  <ellipse cx="64.2927" cy="96.0856" rx="4.94213" ry="10.2961" fill="#5E4E4E"/>
  <mask id="mask1_163_958" style="mask-type:alpha" maskUnits="userSpaceOnUse" x="59" y="85" width="11" height="22">
    <ellipse cx="64.2937" cy="96.0872" rx="4.94213" ry="10.2961" fill="#5E4E4E"/>
  </mask>
  <g mask="url(#mask1_163_958)">
    <ellipse cx="6.42194" cy="10.122" rx="6.42194" ry="10.122" transform="matrix(0.928279 0.371884 -0.248361 0.968668 64.79 91.9694)" fill="#7F6E6E"/>
  </g>
  <circle cx="86.7982" cy="69.1147" r="14.6205" fill="white"/>
  <circle cx="86.7966" cy="69.1141" r="8.03096" fill="#5E4E4E"/>
  <circle cx="89.4725" cy="66.8499" r="2.05941" fill="#7F6E6E"/>
  <circle cx="41.9056" cy="69.1147" r="14.6205" fill="white"/>
  <circle cx="41.904" cy="69.1133" r="8.03096" fill="#5E4E4E"/>
  <circle cx="44.994" cy="66.8473" r="2.05941" fill="#7F6E6E"/>
  <path d="M40.4043 46.6639C42.0083 45.51 44.9563 44.5866 47.8175 46.6639" stroke="#EA872B" stroke-width="1.64738" stroke-linecap="round"/>
  <path d="M67.585 108.853C66.1592 110.007 63.5388 110.931 60.9955 108.853" stroke="#EA882B" stroke-width="1.64738" stroke-linecap="round"/>
  <path d="M80.7646 46.6639C82.3687 45.51 85.3166 44.5866 88.1778 46.6639" stroke="#EA872B" stroke-width="1.64738" stroke-linecap="round"/>
  <path d="M15.3408 79.6086L28.5198 83.7271" stroke="#EA872B" stroke-width="1.64738" stroke-linecap="round"/>
  <path d="M28.5195 91.9633L15.3405 96.0818" stroke="#EA872B" stroke-width="1.64738" stroke-linecap="round"/>
  <path d="M13.2803 87.8466L28.5185 87.8466" stroke="#EA872B" stroke-width="1.64738" stroke-linecap="round"/>
  <path d="M113.358 79.6086L100.179 83.7271" stroke="#EA872B" stroke-width="1.64738" stroke-linecap="round"/>
  <path d="M100.179 91.9633L113.358 96.0818" stroke="#EA872B" stroke-width="1.64738" stroke-linecap="round"/>
  <path d="M115.418 87.8466L100.18 87.8466" stroke="#EA872B" stroke-width="1.64738" stroke-linecap="round"/>
</svg>
  </g>

  <g id='reverseBubble' transform ='translate(254,228)'>
<svg xmlns="http://www.w3.org/2000/svg" width="38" height="37" viewBox="0 0 38 37" fill="none">
  <path fill-rule="evenodd" clip-rule="evenodd" d="M8.67171 6.38891C12.0509 3.32884 16.6475 1.63283 21.5467 2.06686C30.8704 2.89287 37.7591 11.1208 36.9331 20.4445C36.1071 29.7682 27.8791 36.657 18.5554 35.831C9.23174 35.005 2.34299 26.777 3.169 17.4533C3.2517 16.5199 3.40857 15.6109 3.63331 14.7316C2.26621 11.8833 1.43867 8.15952 2.12332 3.2363C2.36695 1.48438 4.34143 1.35195 5.18244 2.908C5.99418 4.40991 7.05838 5.774 8.67171 6.38891Z" fill="white"/>
  <path d="M8.67171 6.38891L9.34256 7.12972C9.06386 7.3821 8.6671 7.45671 8.31576 7.3228L8.67171 6.38891ZM3.63331 14.7316L4.53432 14.2991C4.63593 14.5108 4.65975 14.7515 4.60161 14.9791L3.63331 14.7316ZM2.12332 3.2363L3.11322 3.37396L3.11322 3.37396L2.12332 3.2363ZM5.18244 2.908L6.06166 2.4328L6.06166 2.4328L5.18244 2.908ZM21.4585 3.06238C16.8482 2.65395 12.524 4.24878 9.34256 7.12972L8.00086 5.6481C11.5779 2.4089 16.4468 0.611718 21.6349 1.07134L21.4585 3.06238ZM35.9376 20.3563C36.7149 11.5825 30.2324 3.83968 21.4585 3.06238L21.6349 1.07134C31.5084 1.94606 38.8034 10.6592 37.9286 20.5327L35.9376 20.3563ZM18.6436 34.8355C27.4175 35.6128 35.1603 29.1302 35.9376 20.3563L37.9286 20.5327C37.0539 30.4063 28.3408 37.7012 18.4672 36.8265L18.6436 34.8355ZM4.16452 17.5415C3.38722 26.3154 9.86974 34.0582 18.6436 34.8355L18.4672 36.8265C8.59373 35.9518 1.29876 27.2386 2.17348 17.3651L4.16452 17.5415ZM4.60161 14.9791C4.39018 15.8063 4.24244 16.662 4.16452 17.5415L2.17348 17.3651C2.26095 16.3777 2.42697 15.4155 2.66501 14.4841L4.60161 14.9791ZM3.11322 3.37396C2.4552 8.10566 3.25361 11.6308 4.53432 14.2991L2.7323 15.164C1.2788 12.1357 0.422146 8.21338 1.13343 3.09864L3.11322 3.37396ZM4.30322 3.3832C4.04511 2.90564 3.6956 2.81085 3.51996 2.82692C3.42996 2.83516 3.35593 2.86986 3.29548 2.93083C3.23519 2.99162 3.14854 3.11994 3.11322 3.37396L1.13343 3.09864C1.31262 1.81009 2.20011 0.940535 3.33777 0.836403C4.42052 0.737298 5.47876 1.35431 6.06166 2.4328L4.30322 3.3832ZM8.31576 7.3228C6.36718 6.58011 5.15506 4.9593 4.30322 3.3832L6.06166 2.4328C6.8333 3.86052 7.74959 4.9679 9.02765 5.45502L8.31576 7.3228Z" fill="#E4E4E4"/>
</svg>
  </g>

  <g id='heart' transform='translate(264.5,239)'>
    <svg xmlns="http://www.w3.org/2000/svg" width="19" height="17" viewBox="0 0 19 17" fill="none">
  <path fill-rule="evenodd" clip-rule="evenodd" d="M2.16198 2.17785C3.91832 0.421511 6.76591 0.42151 8.52226 2.17785L9.55405 3.20964C9.7492 3.40479 10.0656 3.40479 10.2607 3.20964L11.27 2.20043C13.0263 0.444087 15.8739 0.444088 17.6302 2.20043C19.3866 3.95677 19.3866 6.80436 17.6302 8.5607L9.93423 16.2567C9.9308 16.2601 9.92522 16.2601 9.92179 16.2567C9.91835 16.2533 9.91278 16.2533 9.90934 16.2567L9.90526 16.2608C9.89957 16.2665 9.89034 16.2665 9.88465 16.2608L2.16198 8.53813C0.405641 6.78178 0.405642 3.93419 2.16198 2.17785Z" fill="#FF7913"/>
</svg>
  </g>

  
</svg>