<svg xmlns="http://www.w3.org/2000/svg" width="187" height="68" viewBox="0 0 187 68" fill="none">
  <mask id="path-1-outside-1_1411_1594" maskUnits="userSpaceOnUse" x="0" y="-0.71875" width="187" height="69" fill="black">
    <rect fill="white" y="-0.71875" width="187" height="69"/>
    <path d="M33.7012 1.28125C43.3176 1.28125 51.4048 4.65025 57.0566 10.7334C58.1942 11.9578 59.2122 13.2726 60.1152 14.6631C61.533 9.71162 66.0901 6.08711 71.4971 6.08691C78.0371 6.08691 83.3389 11.3887 83.3389 17.9287V20.4502C88.0453 17.6157 94.118 18.5996 97.6855 22.8506C99.5488 18.7546 103.675 15.9053 108.468 15.9053C112.41 15.9053 115.9 17.8339 118.053 20.7969C120.205 17.8336 123.696 15.9054 127.639 15.9053C131.547 15.9053 135.012 17.7995 137.169 20.7188V17.6396C137.169 11.2591 142.342 6.08691 148.723 6.08691H173.562C179.942 6.08714 185.114 11.2593 185.114 17.6396V33.8135C185.114 40.0942 180.102 45.204 173.859 45.3623L173.562 45.3662H162.487C160.064 47.8628 156.642 49.9942 151.814 51.1074L151.188 51.2441C148.403 51.8212 145.482 50.5891 144.073 47.9658C143.4 46.7112 143.183 45.3466 143.355 44.0459C141.777 43.216 140.414 42.0308 139.372 40.5977C139.429 41.0195 139.466 41.4481 139.477 41.8828L139.48 42.1885V52.5859C139.48 59.126 134.179 64.4277 127.639 64.4277C123.696 64.4276 120.205 62.4997 118.053 59.5361C115.9 62.4994 112.41 64.4277 108.468 64.4277C104.182 64.4277 100.428 62.1517 98.3496 58.7422C97.9649 59.2631 97.5327 59.7587 97.0469 60.2168H97.0459C92.6637 64.3491 85.8468 64.0803 81.8047 59.666L81.6152 59.4521L81.3535 59.1514C79.2305 62.3326 75.6087 64.4287 71.4971 64.4287C65.2863 64.4285 60.1932 59.6471 59.6963 53.5645C58.898 54.7244 58.0171 55.8288 57.0488 56.8672C51.3927 62.9329 43.3066 66.2773 33.7012 66.2773C24.0958 66.2773 16.0096 62.9328 10.3535 56.8672C4.74861 50.8562 2.0001 42.6828 2 33.8145C2 24.9469 4.74779 16.7597 10.3467 10.7334C15.9984 4.65036 24.0849 1.28129 33.7012 1.28125ZM12.3135 50.0684C16.5303 56.3509 23.5688 60.2901 32.9365 60.4932L33.7012 60.501C42.9281 60.501 49.9659 56.935 54.3652 51.084C49.9659 56.9342 42.9271 60.4979 33.7012 60.498C23.9524 60.498 16.6444 56.5195 12.3135 50.0684ZM67.3213 56.9844C67.4102 57.0689 67.5018 57.1505 67.5957 57.2295C67.5018 57.1504 67.4102 57.0689 67.3213 56.9844ZM71.4971 11.8633C68.1475 11.8635 65.4326 14.5791 65.4326 17.9287V52.5869C65.4326 53.9486 65.8811 55.2055 66.6387 56.2178C65.8819 55.2059 65.4336 53.9497 65.4336 52.5889V17.9297C65.4337 14.58 68.1493 11.8643 71.499 11.8643C72.9647 11.8643 74.3089 12.3845 75.3574 13.25C74.3087 12.3837 72.9636 11.8633 71.4971 11.8633ZM85.9736 55.6621C86.0319 55.7291 86.0915 55.7943 86.1523 55.8574C86.0922 55.7949 86.0333 55.7304 85.9756 55.6641L77.8623 46.333H77.8613L85.9736 55.6621ZM133.567 53.8672C133.529 54.0443 133.485 54.2187 133.432 54.3896C133.485 54.2187 133.529 54.0442 133.567 53.8672ZM102.484 53.5762C102.502 53.6843 102.523 53.7914 102.546 53.8975C102.523 53.7914 102.502 53.6843 102.484 53.5762ZM133.662 53.2842C133.646 53.4254 133.625 53.565 133.6 53.7031C133.625 53.565 133.646 53.4254 133.662 53.2842ZM102.41 52.8984C102.418 53.0521 102.434 53.204 102.453 53.3545C102.421 53.1033 102.402 52.8477 102.402 52.5879L102.41 52.8984ZM54.4072 51.0283C54.5184 50.8795 54.6286 50.7298 54.7363 50.5781C54.6286 50.7298 54.5184 50.8795 54.4072 51.0283ZM54.7744 50.5244C54.8793 50.3759 54.9814 50.2254 55.083 50.0742C54.9814 50.2254 54.8793 50.376 54.7744 50.5244ZM11.9795 49.5576C12.0773 49.7118 12.1773 49.8642 12.2783 50.0156C12.1772 49.8642 12.0773 49.7117 11.9795 49.5576ZM55.1279 50.0068C55.2244 49.8622 55.3196 49.7165 55.4131 49.5693C55.3196 49.7165 55.2244 49.8622 55.1279 50.0068ZM55.4639 49.4893C55.5591 49.3381 55.6531 49.1859 55.7451 49.0322C55.6531 49.1859 55.5591 49.3381 55.4639 49.4893ZM11.6602 49.0391C11.7226 49.1433 11.7867 49.2465 11.8506 49.3496C11.7866 49.2465 11.7226 49.1433 11.6602 49.0391ZM58.0938 43.8643C57.492 45.6897 56.7159 47.4019 55.7744 48.9824C56.6348 47.5379 57.3585 45.9844 57.9355 44.334L58.0938 43.8643ZM11.3604 48.5244C11.4244 48.6375 11.49 48.7495 11.5557 48.8613C11.49 48.7495 11.4244 48.6375 11.3604 48.5244ZM11.0703 47.9971C11.1378 48.1233 11.2069 48.2484 11.2764 48.373C11.2069 48.2484 11.1378 48.1233 11.0703 47.9971ZM10.7549 47.3867C10.8233 47.5237 10.8932 47.6596 10.9639 47.7949C10.8932 47.6597 10.8233 47.5237 10.7549 47.3867ZM10.502 46.8652C10.5751 47.0206 10.6496 47.1749 10.7256 47.3281C10.6496 47.1749 10.5751 47.0206 10.502 46.8652ZM10.251 46.3154C10.3115 46.4522 10.3729 46.5884 10.4355 46.7236C10.3728 46.5884 10.3115 46.4522 10.251 46.3154ZM9.99023 45.7051C10.0533 45.8581 10.1179 46.01 10.1836 46.1611C10.1179 46.01 10.0533 45.858 9.99023 45.7051ZM9.75293 45.1094C9.81789 45.2784 9.88407 45.4464 9.95215 45.6133C9.88406 45.4464 9.8179 45.2784 9.75293 45.1094ZM151.596 39.9385C151.624 41.6564 150.46 43.0935 149.323 44.3076C149.097 44.549 149.04 44.8324 149.103 45.0732C149.041 44.8327 149.099 44.5504 149.324 44.3096C150.461 43.0951 151.625 41.657 151.596 39.9385ZM9.5293 44.5068C9.58942 44.6751 9.65073 44.8425 9.71387 45.0088C9.65071 44.8425 9.58943 44.6751 9.5293 44.5068ZM33.7012 22.6768C30.7834 22.6768 28.8502 23.7664 27.5273 25.4023C26.0955 27.1732 25.0596 30.0177 25.0596 33.8145C25.0597 37.6098 26.0944 40.4297 27.5166 42.1787C28.8307 43.7945 30.7641 44.8818 33.7012 44.8818C36.6383 44.8818 38.5716 43.7946 39.8857 42.1787C41.308 40.4297 42.3427 37.6099 42.3428 33.8145C42.3428 30.0179 41.3077 27.1732 39.876 25.4023C38.5531 23.7663 36.619 22.6768 33.7012 22.6768ZM9.33594 43.9482C9.38347 44.091 9.43276 44.2327 9.48242 44.374C9.43275 44.2327 9.38349 44.0909 9.33594 43.9482ZM59.5977 32.3809C59.6161 32.8536 59.626 33.3307 59.626 33.8115C59.6259 37.4109 59.1049 40.7861 58.0986 43.8457C59.0373 40.991 59.5545 37.8621 59.6191 34.5322L59.626 33.8145C59.626 33.1043 59.6056 32.4023 59.5654 31.71L59.5977 32.3809ZM9.12402 43.2832C9.17192 43.4399 9.2211 43.5958 9.27148 43.751C9.22108 43.5959 9.17193 43.4399 9.12402 43.2832ZM97.2783 38.3027C96.8671 38.7451 96.4181 39.1615 95.9287 39.5439L94.3154 40.8037L96.626 43.4609V42.1885C96.626 40.8273 96.8554 39.5198 97.2783 38.3027ZM8.96973 42.7588C9.00264 42.8744 9.03606 42.9897 9.07031 43.1045C9.03605 42.9897 9.00265 42.8744 8.96973 42.7588ZM8.78906 42.0938C8.82554 42.2346 8.86198 42.375 8.90039 42.5146C8.86196 42.375 8.82555 42.2346 8.78906 42.0938ZM108.468 36.123C105.118 36.123 102.402 38.8388 102.402 42.1885V42.1904C102.402 38.8408 105.118 36.1252 108.468 36.125C110.52 36.125 112.333 37.1445 113.431 38.7041C112.333 37.1439 110.52 36.1231 108.468 36.123ZM8.64062 41.4961C8.67105 41.6245 8.70237 41.7524 8.73438 41.8799C8.70236 41.7524 8.67106 41.6245 8.64062 41.4961ZM127.639 36.123C125.478 36.1232 123.582 37.2545 122.508 38.9561C123.582 37.2552 125.478 36.125 127.639 36.125C130.778 36.1251 133.362 38.5107 133.673 41.5684C133.362 38.51 130.779 36.123 127.639 36.123ZM8.47656 40.7656C8.50923 40.9206 8.54321 41.0749 8.57812 41.2285C8.5432 41.0749 8.50924 40.9206 8.47656 40.7656ZM8.36914 40.2285C8.39714 40.3742 8.42512 40.5195 8.45508 40.6641C8.42511 40.5195 8.39715 40.3742 8.36914 40.2285ZM114.057 39.8291C114.141 40.0288 114.214 40.2343 114.277 40.4443C114.214 40.234 114.141 40.0282 114.057 39.8281V39.8291ZM8.26074 39.6318C8.27786 39.7313 8.29448 39.8307 8.3125 39.9297C8.29447 39.8307 8.27787 39.7313 8.26074 39.6318ZM8.13574 38.8516C8.15658 38.9936 8.17756 39.1353 8.2002 39.2764C8.17755 39.1353 8.15659 38.9936 8.13574 38.8516ZM113.554 38.8867C113.591 38.944 113.629 39.001 113.664 39.0596C113.629 39.001 113.591 38.944 113.554 38.8867ZM8.02832 38.0537C8.05233 38.2512 8.07806 38.4478 8.10547 38.6436C8.07804 38.4478 8.05234 38.2512 8.02832 38.0537ZM7.97656 37.5967C7.99014 37.723 8.0036 37.849 8.01855 37.9746C8.00358 37.849 7.99015 37.723 7.97656 37.5967ZM33.7012 16.8975C24.4819 16.8975 19.2822 24.2457 19.2822 33.8115C19.2822 35.1281 19.3813 36.4013 19.5752 37.6182C19.4036 36.5403 19.3069 35.418 19.2871 34.2607L19.2832 33.8145C19.2832 24.2487 24.482 16.9005 33.7012 16.9004L34.1309 16.9053C38.4565 17.014 41.8684 18.7675 44.2393 21.6133C41.7905 18.673 38.2317 16.8976 33.7012 16.8975ZM143.205 35.5312C143.268 35.7337 143.343 35.9309 143.427 36.123C143.343 35.9315 143.269 35.7349 143.206 35.5332L143.205 35.5312ZM137.024 34.9678C137.107 35.0745 137.186 35.1835 137.265 35.293C137.241 35.1042 137.22 34.9142 137.205 34.7227C137.145 34.8047 137.086 34.8874 137.024 34.9678ZM117.853 34.9678C117.921 35.0565 117.987 35.1476 118.053 35.2383C118.119 35.1474 118.185 35.0567 118.254 34.9678C118.185 34.8786 118.119 34.7875 118.053 34.6963C117.987 34.7873 117.921 34.8787 117.853 34.9678ZM48.0879 35.0684C48.1008 34.8044 48.1096 34.5384 48.1143 34.2705C48.1096 34.5384 48.1008 34.8044 48.0879 35.0684ZM148.723 11.8633C145.532 11.8633 142.945 14.4494 142.945 17.6396V33.8135C142.945 34.0055 142.955 34.1956 142.974 34.3828C142.955 34.1961 142.946 34.0069 142.946 33.8154V17.6406C142.946 14.4505 145.533 11.8643 148.723 11.8643H173.562C175.506 11.8643 177.226 12.8265 178.272 14.2998C177.226 12.826 175.507 11.8634 173.562 11.8633H148.723ZM48.1025 32.9053C48.0929 32.6304 48.0789 32.3576 48.0605 32.0869C48.079 32.3576 48.0929 32.6304 48.1025 32.9053ZM93.3115 26.627C91.4344 24.33 88.1196 23.9388 85.7451 25.7939L77.5645 32.1855V32.1885L85.7461 25.7959C88.12 23.9408 91.4341 24.3313 93.3115 26.627ZM48.0586 32.0576C48.0498 31.9302 48.04 31.8032 48.0293 31.6768C48.0401 31.8032 48.0498 31.9302 48.0586 32.0576ZM59.5322 31.2266C59.5264 31.1457 59.521 31.065 59.5146 30.9844C59.521 31.065 59.5264 31.1457 59.5322 31.2266ZM59.4844 30.6367C59.4743 30.5239 59.4653 30.4111 59.4541 30.2988C59.4652 30.4111 59.4743 30.5239 59.4844 30.6367ZM59.2881 28.9189C59.34 29.2853 59.3848 29.6549 59.4248 30.0273C59.3848 29.6549 59.3401 29.2853 59.2881 28.9189ZM133.555 29.0801C133.522 29.2249 133.486 29.3681 133.443 29.5088C133.486 29.3681 133.522 29.2249 133.555 29.0801ZM102.487 28.7559C102.507 28.8733 102.53 28.9894 102.557 29.1045C102.53 28.9894 102.507 28.8733 102.487 28.7559ZM47.583 28.7236C47.5618 28.6282 47.54 28.5331 47.5176 28.4385C47.54 28.5331 47.5618 28.6282 47.583 28.7236ZM133.69 28.1436C133.678 28.3319 133.658 28.5179 133.629 28.7012C133.658 28.5179 133.678 28.3319 133.69 28.1436ZM108.468 21.6826C105.118 21.6826 102.403 24.3975 102.402 27.7471C102.402 28.0346 102.423 28.3178 102.462 28.5947C102.423 28.3183 102.402 28.036 102.402 27.749C102.402 24.3994 105.118 21.6838 108.468 21.6836C110.699 21.6836 112.648 22.8886 113.701 24.6826C112.648 22.8879 110.699 21.6827 108.468 21.6826ZM59.1152 27.8408C59.1028 27.7704 59.091 27.7 59.0781 27.6299C59.091 27.7 59.1028 27.7704 59.1152 27.8408ZM127.639 21.6826C125.507 21.6828 123.633 22.7836 122.552 24.4473C123.633 22.7843 125.507 21.6836 127.639 21.6836C130.866 21.6837 133.504 24.2052 133.692 27.3857C133.505 24.2044 130.867 21.6826 127.639 21.6826ZM58.9814 27.1328C58.9716 27.084 58.9622 27.0351 58.9521 26.9863C58.9622 27.0351 58.9716 27.084 58.9814 27.1328ZM58.8535 26.5264C58.8372 26.4527 58.8216 26.379 58.8047 26.3057C58.8216 26.379 58.8372 26.4527 58.8535 26.5264ZM46.5469 25.4482C46.6835 25.7712 46.8115 26.101 46.9307 26.4375C46.8115 26.101 46.6835 25.7712 46.5469 25.4482ZM58.7344 26.0127C58.7051 25.8913 58.6762 25.77 58.6455 25.6494C58.6761 25.77 58.7052 25.8913 58.7344 26.0127ZM114.057 25.3877C114.142 25.5905 114.217 25.7993 114.28 26.0127C114.217 25.799 114.143 25.5898 114.057 25.3867V25.3877ZM58.5811 25.4023C58.5507 25.2871 58.5199 25.1721 58.4883 25.0576C58.5199 25.1721 58.5507 25.2871 58.5811 25.4023ZM58.3926 24.7217C58.3655 24.628 58.3385 24.5345 58.3105 24.4414C58.3385 24.5345 58.3655 24.628 58.3926 24.7217ZM44.2715 21.6523C44.9447 22.4665 45.5332 23.3692 46.0342 24.3477C45.5333 23.369 44.9446 22.4666 44.2715 21.6523ZM57.9736 23.3994C57.9565 23.3496 57.9402 23.2996 57.9229 23.25C57.9402 23.2996 57.9565 23.3496 57.9736 23.3994ZM57.7559 22.7881C57.7389 22.7425 57.7222 22.6968 57.7051 22.6514C57.7222 22.6968 57.739 22.7425 57.7559 22.7881ZM57.5654 22.292C57.5321 22.2073 57.4999 22.1222 57.4658 22.0381C57.4999 22.1223 57.5321 22.2073 57.5654 22.292ZM57.2969 21.6328C57.275 21.5814 57.2536 21.5298 57.2314 21.4785C57.2536 21.5298 57.275 21.5814 57.2969 21.6328ZM57.0566 21.085C57.032 21.0305 57.0074 20.9761 56.9824 20.9219C57.0074 20.9761 57.032 21.0305 57.0566 21.085ZM56.7988 20.5332C56.7671 20.4673 56.7354 20.4015 56.7031 20.3359C56.7354 20.4015 56.7671 20.4673 56.7988 20.5332ZM56.498 19.9287C56.4817 19.8969 56.4657 19.8648 56.4492 19.833C56.4657 19.8648 56.4817 19.8969 56.498 19.9287ZM55.916 18.8604C55.8918 18.8185 55.8672 18.777 55.8428 18.7354C55.8672 18.777 55.8918 18.8185 55.916 18.8604ZM55.2793 17.8223C55.2514 17.7792 55.2235 17.7362 55.1953 17.6934C55.2235 17.7362 55.2514 17.7792 55.2793 17.8223ZM179.33 17.3438C179.335 17.4363 179.338 17.5294 179.338 17.623C179.338 17.5287 179.335 17.435 179.33 17.3418V17.3438ZM54.5723 16.791C54.5558 16.7684 54.539 16.7462 54.5225 16.7236C54.539 16.7462 54.5558 16.7684 54.5723 16.791ZM54.2334 16.3369C54.2025 16.2965 54.1718 16.256 54.1406 16.2158C54.1718 16.256 54.2025 16.2965 54.2334 16.3369ZM178.538 14.71C178.762 15.0887 178.945 15.4941 179.078 15.9219C178.945 15.4941 178.762 15.0887 178.538 14.71ZM53.8643 15.8682C53.8327 15.8291 53.8013 15.7899 53.7695 15.751C53.8013 15.7899 53.8327 15.8291 53.8643 15.8682ZM50.8955 12.8223C50.8767 12.8063 50.8578 12.7903 50.8389 12.7744C50.8578 12.7903 50.8767 12.8063 50.8955 12.8223ZM48.4482 11.0176C48.4285 11.005 48.4084 10.993 48.3887 10.9805C48.4084 10.993 48.4285 11.005 48.4482 11.0176Z"/>
  </mask>
  <path d="M33.7012 1.28125C43.3176 1.28125 51.4048 4.65025 57.0566 10.7334C58.1942 11.9578 59.2122 13.2726 60.1152 14.6631C61.533 9.71162 66.0901 6.08711 71.4971 6.08691C78.0371 6.08691 83.3389 11.3887 83.3389 17.9287V20.4502C88.0453 17.6157 94.118 18.5996 97.6855 22.8506C99.5488 18.7546 103.675 15.9053 108.468 15.9053C112.41 15.9053 115.9 17.8339 118.053 20.7969C120.205 17.8336 123.696 15.9054 127.639 15.9053C131.547 15.9053 135.012 17.7995 137.169 20.7188V17.6396C137.169 11.2591 142.342 6.08691 148.723 6.08691H173.562C179.942 6.08714 185.114 11.2593 185.114 17.6396V33.8135C185.114 40.0942 180.102 45.204 173.859 45.3623L173.562 45.3662H162.487C160.064 47.8628 156.642 49.9942 151.814 51.1074L151.188 51.2441C148.403 51.8212 145.482 50.5891 144.073 47.9658C143.4 46.7112 143.183 45.3466 143.355 44.0459C141.777 43.216 140.414 42.0308 139.372 40.5977C139.429 41.0195 139.466 41.4481 139.477 41.8828L139.48 42.1885V52.5859C139.48 59.126 134.179 64.4277 127.639 64.4277C123.696 64.4276 120.205 62.4997 118.053 59.5361C115.9 62.4994 112.41 64.4277 108.468 64.4277C104.182 64.4277 100.428 62.1517 98.3496 58.7422C97.9649 59.2631 97.5327 59.7587 97.0469 60.2168H97.0459C92.6637 64.3491 85.8468 64.0803 81.8047 59.666L81.6152 59.4521L81.3535 59.1514C79.2305 62.3326 75.6087 64.4287 71.4971 64.4287C65.2863 64.4285 60.1932 59.6471 59.6963 53.5645C58.898 54.7244 58.0171 55.8288 57.0488 56.8672C51.3927 62.9329 43.3066 66.2773 33.7012 66.2773C24.0958 66.2773 16.0096 62.9328 10.3535 56.8672C4.74861 50.8562 2.0001 42.6828 2 33.8145C2 24.9469 4.74779 16.7597 10.3467 10.7334C15.9984 4.65036 24.0849 1.28129 33.7012 1.28125ZM12.3135 50.0684C16.5303 56.3509 23.5688 60.2901 32.9365 60.4932L33.7012 60.501C42.9281 60.501 49.9659 56.935 54.3652 51.084C49.9659 56.9342 42.9271 60.4979 33.7012 60.498C23.9524 60.498 16.6444 56.5195 12.3135 50.0684ZM67.3213 56.9844C67.4102 57.0689 67.5018 57.1505 67.5957 57.2295C67.5018 57.1504 67.4102 57.0689 67.3213 56.9844ZM71.4971 11.8633C68.1475 11.8635 65.4326 14.5791 65.4326 17.9287V52.5869C65.4326 53.9486 65.8811 55.2055 66.6387 56.2178C65.8819 55.2059 65.4336 53.9497 65.4336 52.5889V17.9297C65.4337 14.58 68.1493 11.8643 71.499 11.8643C72.9647 11.8643 74.3089 12.3845 75.3574 13.25C74.3087 12.3837 72.9636 11.8633 71.4971 11.8633ZM85.9736 55.6621C86.0319 55.7291 86.0915 55.7943 86.1523 55.8574C86.0922 55.7949 86.0333 55.7304 85.9756 55.6641L77.8623 46.333H77.8613L85.9736 55.6621ZM133.567 53.8672C133.529 54.0443 133.485 54.2187 133.432 54.3896C133.485 54.2187 133.529 54.0442 133.567 53.8672ZM102.484 53.5762C102.502 53.6843 102.523 53.7914 102.546 53.8975C102.523 53.7914 102.502 53.6843 102.484 53.5762ZM133.662 53.2842C133.646 53.4254 133.625 53.565 133.6 53.7031C133.625 53.565 133.646 53.4254 133.662 53.2842ZM102.41 52.8984C102.418 53.0521 102.434 53.204 102.453 53.3545C102.421 53.1033 102.402 52.8477 102.402 52.5879L102.41 52.8984ZM54.4072 51.0283C54.5184 50.8795 54.6286 50.7298 54.7363 50.5781C54.6286 50.7298 54.5184 50.8795 54.4072 51.0283ZM54.7744 50.5244C54.8793 50.3759 54.9814 50.2254 55.083 50.0742C54.9814 50.2254 54.8793 50.376 54.7744 50.5244ZM11.9795 49.5576C12.0773 49.7118 12.1773 49.8642 12.2783 50.0156C12.1772 49.8642 12.0773 49.7117 11.9795 49.5576ZM55.1279 50.0068C55.2244 49.8622 55.3196 49.7165 55.4131 49.5693C55.3196 49.7165 55.2244 49.8622 55.1279 50.0068ZM55.4639 49.4893C55.5591 49.3381 55.6531 49.1859 55.7451 49.0322C55.6531 49.1859 55.5591 49.3381 55.4639 49.4893ZM11.6602 49.0391C11.7226 49.1433 11.7867 49.2465 11.8506 49.3496C11.7866 49.2465 11.7226 49.1433 11.6602 49.0391ZM58.0938 43.8643C57.492 45.6897 56.7159 47.4019 55.7744 48.9824C56.6348 47.5379 57.3585 45.9844 57.9355 44.334L58.0938 43.8643ZM11.3604 48.5244C11.4244 48.6375 11.49 48.7495 11.5557 48.8613C11.49 48.7495 11.4244 48.6375 11.3604 48.5244ZM11.0703 47.9971C11.1378 48.1233 11.2069 48.2484 11.2764 48.373C11.2069 48.2484 11.1378 48.1233 11.0703 47.9971ZM10.7549 47.3867C10.8233 47.5237 10.8932 47.6596 10.9639 47.7949C10.8932 47.6597 10.8233 47.5237 10.7549 47.3867ZM10.502 46.8652C10.5751 47.0206 10.6496 47.1749 10.7256 47.3281C10.6496 47.1749 10.5751 47.0206 10.502 46.8652ZM10.251 46.3154C10.3115 46.4522 10.3729 46.5884 10.4355 46.7236C10.3728 46.5884 10.3115 46.4522 10.251 46.3154ZM9.99023 45.7051C10.0533 45.8581 10.1179 46.01 10.1836 46.1611C10.1179 46.01 10.0533 45.858 9.99023 45.7051ZM9.75293 45.1094C9.81789 45.2784 9.88407 45.4464 9.95215 45.6133C9.88406 45.4464 9.8179 45.2784 9.75293 45.1094ZM151.596 39.9385C151.624 41.6564 150.46 43.0935 149.323 44.3076C149.097 44.549 149.04 44.8324 149.103 45.0732C149.041 44.8327 149.099 44.5504 149.324 44.3096C150.461 43.0951 151.625 41.657 151.596 39.9385ZM9.5293 44.5068C9.58942 44.6751 9.65073 44.8425 9.71387 45.0088C9.65071 44.8425 9.58943 44.6751 9.5293 44.5068ZM33.7012 22.6768C30.7834 22.6768 28.8502 23.7664 27.5273 25.4023C26.0955 27.1732 25.0596 30.0177 25.0596 33.8145C25.0597 37.6098 26.0944 40.4297 27.5166 42.1787C28.8307 43.7945 30.7641 44.8818 33.7012 44.8818C36.6383 44.8818 38.5716 43.7946 39.8857 42.1787C41.308 40.4297 42.3427 37.6099 42.3428 33.8145C42.3428 30.0179 41.3077 27.1732 39.876 25.4023C38.5531 23.7663 36.619 22.6768 33.7012 22.6768ZM9.33594 43.9482C9.38347 44.091 9.43276 44.2327 9.48242 44.374C9.43275 44.2327 9.38349 44.0909 9.33594 43.9482ZM59.5977 32.3809C59.6161 32.8536 59.626 33.3307 59.626 33.8115C59.6259 37.4109 59.1049 40.7861 58.0986 43.8457C59.0373 40.991 59.5545 37.8621 59.6191 34.5322L59.626 33.8145C59.626 33.1043 59.6056 32.4023 59.5654 31.71L59.5977 32.3809ZM9.12402 43.2832C9.17192 43.4399 9.2211 43.5958 9.27148 43.751C9.22108 43.5959 9.17193 43.4399 9.12402 43.2832ZM97.2783 38.3027C96.8671 38.7451 96.4181 39.1615 95.9287 39.5439L94.3154 40.8037L96.626 43.4609V42.1885C96.626 40.8273 96.8554 39.5198 97.2783 38.3027ZM8.96973 42.7588C9.00264 42.8744 9.03606 42.9897 9.07031 43.1045C9.03605 42.9897 9.00265 42.8744 8.96973 42.7588ZM8.78906 42.0938C8.82554 42.2346 8.86198 42.375 8.90039 42.5146C8.86196 42.375 8.82555 42.2346 8.78906 42.0938ZM108.468 36.123C105.118 36.123 102.402 38.8388 102.402 42.1885V42.1904C102.402 38.8408 105.118 36.1252 108.468 36.125C110.52 36.125 112.333 37.1445 113.431 38.7041C112.333 37.1439 110.52 36.1231 108.468 36.123ZM8.64062 41.4961C8.67105 41.6245 8.70237 41.7524 8.73438 41.8799C8.70236 41.7524 8.67106 41.6245 8.64062 41.4961ZM127.639 36.123C125.478 36.1232 123.582 37.2545 122.508 38.9561C123.582 37.2552 125.478 36.125 127.639 36.125C130.778 36.1251 133.362 38.5107 133.673 41.5684C133.362 38.51 130.779 36.123 127.639 36.123ZM8.47656 40.7656C8.50923 40.9206 8.54321 41.0749 8.57812 41.2285C8.5432 41.0749 8.50924 40.9206 8.47656 40.7656ZM8.36914 40.2285C8.39714 40.3742 8.42512 40.5195 8.45508 40.6641C8.42511 40.5195 8.39715 40.3742 8.36914 40.2285ZM114.057 39.8291C114.141 40.0288 114.214 40.2343 114.277 40.4443C114.214 40.234 114.141 40.0282 114.057 39.8281V39.8291ZM8.26074 39.6318C8.27786 39.7313 8.29448 39.8307 8.3125 39.9297C8.29447 39.8307 8.27787 39.7313 8.26074 39.6318ZM8.13574 38.8516C8.15658 38.9936 8.17756 39.1353 8.2002 39.2764C8.17755 39.1353 8.15659 38.9936 8.13574 38.8516ZM113.554 38.8867C113.591 38.944 113.629 39.001 113.664 39.0596C113.629 39.001 113.591 38.944 113.554 38.8867ZM8.02832 38.0537C8.05233 38.2512 8.07806 38.4478 8.10547 38.6436C8.07804 38.4478 8.05234 38.2512 8.02832 38.0537ZM7.97656 37.5967C7.99014 37.723 8.0036 37.849 8.01855 37.9746C8.00358 37.849 7.99015 37.723 7.97656 37.5967ZM33.7012 16.8975C24.4819 16.8975 19.2822 24.2457 19.2822 33.8115C19.2822 35.1281 19.3813 36.4013 19.5752 37.6182C19.4036 36.5403 19.3069 35.418 19.2871 34.2607L19.2832 33.8145C19.2832 24.2487 24.482 16.9005 33.7012 16.9004L34.1309 16.9053C38.4565 17.014 41.8684 18.7675 44.2393 21.6133C41.7905 18.673 38.2317 16.8976 33.7012 16.8975ZM143.205 35.5312C143.268 35.7337 143.343 35.9309 143.427 36.123C143.343 35.9315 143.269 35.7349 143.206 35.5332L143.205 35.5312ZM137.024 34.9678C137.107 35.0745 137.186 35.1835 137.265 35.293C137.241 35.1042 137.22 34.9142 137.205 34.7227C137.145 34.8047 137.086 34.8874 137.024 34.9678ZM117.853 34.9678C117.921 35.0565 117.987 35.1476 118.053 35.2383C118.119 35.1474 118.185 35.0567 118.254 34.9678C118.185 34.8786 118.119 34.7875 118.053 34.6963C117.987 34.7873 117.921 34.8787 117.853 34.9678ZM48.0879 35.0684C48.1008 34.8044 48.1096 34.5384 48.1143 34.2705C48.1096 34.5384 48.1008 34.8044 48.0879 35.0684ZM148.723 11.8633C145.532 11.8633 142.945 14.4494 142.945 17.6396V33.8135C142.945 34.0055 142.955 34.1956 142.974 34.3828C142.955 34.1961 142.946 34.0069 142.946 33.8154V17.6406C142.946 14.4505 145.533 11.8643 148.723 11.8643H173.562C175.506 11.8643 177.226 12.8265 178.272 14.2998C177.226 12.826 175.507 11.8634 173.562 11.8633H148.723ZM48.1025 32.9053C48.0929 32.6304 48.0789 32.3576 48.0605 32.0869C48.079 32.3576 48.0929 32.6304 48.1025 32.9053ZM93.3115 26.627C91.4344 24.33 88.1196 23.9388 85.7451 25.7939L77.5645 32.1855V32.1885L85.7461 25.7959C88.12 23.9408 91.4341 24.3313 93.3115 26.627ZM48.0586 32.0576C48.0498 31.9302 48.04 31.8032 48.0293 31.6768C48.0401 31.8032 48.0498 31.9302 48.0586 32.0576ZM59.5322 31.2266C59.5264 31.1457 59.521 31.065 59.5146 30.9844C59.521 31.065 59.5264 31.1457 59.5322 31.2266ZM59.4844 30.6367C59.4743 30.5239 59.4653 30.4111 59.4541 30.2988C59.4652 30.4111 59.4743 30.5239 59.4844 30.6367ZM59.2881 28.9189C59.34 29.2853 59.3848 29.6549 59.4248 30.0273C59.3848 29.6549 59.3401 29.2853 59.2881 28.9189ZM133.555 29.0801C133.522 29.2249 133.486 29.3681 133.443 29.5088C133.486 29.3681 133.522 29.2249 133.555 29.0801ZM102.487 28.7559C102.507 28.8733 102.53 28.9894 102.557 29.1045C102.53 28.9894 102.507 28.8733 102.487 28.7559ZM47.583 28.7236C47.5618 28.6282 47.54 28.5331 47.5176 28.4385C47.54 28.5331 47.5618 28.6282 47.583 28.7236ZM133.69 28.1436C133.678 28.3319 133.658 28.5179 133.629 28.7012C133.658 28.5179 133.678 28.3319 133.69 28.1436ZM108.468 21.6826C105.118 21.6826 102.403 24.3975 102.402 27.7471C102.402 28.0346 102.423 28.3178 102.462 28.5947C102.423 28.3183 102.402 28.036 102.402 27.749C102.402 24.3994 105.118 21.6838 108.468 21.6836C110.699 21.6836 112.648 22.8886 113.701 24.6826C112.648 22.8879 110.699 21.6827 108.468 21.6826ZM59.1152 27.8408C59.1028 27.7704 59.091 27.7 59.0781 27.6299C59.091 27.7 59.1028 27.7704 59.1152 27.8408ZM127.639 21.6826C125.507 21.6828 123.633 22.7836 122.552 24.4473C123.633 22.7843 125.507 21.6836 127.639 21.6836C130.866 21.6837 133.504 24.2052 133.692 27.3857C133.505 24.2044 130.867 21.6826 127.639 21.6826ZM58.9814 27.1328C58.9716 27.084 58.9622 27.0351 58.9521 26.9863C58.9622 27.0351 58.9716 27.084 58.9814 27.1328ZM58.8535 26.5264C58.8372 26.4527 58.8216 26.379 58.8047 26.3057C58.8216 26.379 58.8372 26.4527 58.8535 26.5264ZM46.5469 25.4482C46.6835 25.7712 46.8115 26.101 46.9307 26.4375C46.8115 26.101 46.6835 25.7712 46.5469 25.4482ZM58.7344 26.0127C58.7051 25.8913 58.6762 25.77 58.6455 25.6494C58.6761 25.77 58.7052 25.8913 58.7344 26.0127ZM114.057 25.3877C114.142 25.5905 114.217 25.7993 114.28 26.0127C114.217 25.799 114.143 25.5898 114.057 25.3867V25.3877ZM58.5811 25.4023C58.5507 25.2871 58.5199 25.1721 58.4883 25.0576C58.5199 25.1721 58.5507 25.2871 58.5811 25.4023ZM58.3926 24.7217C58.3655 24.628 58.3385 24.5345 58.3105 24.4414C58.3385 24.5345 58.3655 24.628 58.3926 24.7217ZM44.2715 21.6523C44.9447 22.4665 45.5332 23.3692 46.0342 24.3477C45.5333 23.369 44.9446 22.4666 44.2715 21.6523ZM57.9736 23.3994C57.9565 23.3496 57.9402 23.2996 57.9229 23.25C57.9402 23.2996 57.9565 23.3496 57.9736 23.3994ZM57.7559 22.7881C57.7389 22.7425 57.7222 22.6968 57.7051 22.6514C57.7222 22.6968 57.739 22.7425 57.7559 22.7881ZM57.5654 22.292C57.5321 22.2073 57.4999 22.1222 57.4658 22.0381C57.4999 22.1223 57.5321 22.2073 57.5654 22.292ZM57.2969 21.6328C57.275 21.5814 57.2536 21.5298 57.2314 21.4785C57.2536 21.5298 57.275 21.5814 57.2969 21.6328ZM57.0566 21.085C57.032 21.0305 57.0074 20.9761 56.9824 20.9219C57.0074 20.9761 57.032 21.0305 57.0566 21.085ZM56.7988 20.5332C56.7671 20.4673 56.7354 20.4015 56.7031 20.3359C56.7354 20.4015 56.7671 20.4673 56.7988 20.5332ZM56.498 19.9287C56.4817 19.8969 56.4657 19.8648 56.4492 19.833C56.4657 19.8648 56.4817 19.8969 56.498 19.9287ZM55.916 18.8604C55.8918 18.8185 55.8672 18.777 55.8428 18.7354C55.8672 18.777 55.8918 18.8185 55.916 18.8604ZM55.2793 17.8223C55.2514 17.7792 55.2235 17.7362 55.1953 17.6934C55.2235 17.7362 55.2514 17.7792 55.2793 17.8223ZM179.33 17.3438C179.335 17.4363 179.338 17.5294 179.338 17.623C179.338 17.5287 179.335 17.435 179.33 17.3418V17.3438ZM54.5723 16.791C54.5558 16.7684 54.539 16.7462 54.5225 16.7236C54.539 16.7462 54.5558 16.7684 54.5723 16.791ZM54.2334 16.3369C54.2025 16.2965 54.1718 16.256 54.1406 16.2158C54.1718 16.256 54.2025 16.2965 54.2334 16.3369ZM178.538 14.71C178.762 15.0887 178.945 15.4941 179.078 15.9219C178.945 15.4941 178.762 15.0887 178.538 14.71ZM53.8643 15.8682C53.8327 15.8291 53.8013 15.7899 53.7695 15.751C53.8013 15.7899 53.8327 15.8291 53.8643 15.8682ZM50.8955 12.8223C50.8767 12.8063 50.8578 12.7903 50.8389 12.7744C50.8578 12.7903 50.8767 12.8063 50.8955 12.8223ZM48.4482 11.0176C48.4285 11.005 48.4084 10.993 48.3887 10.9805C48.4084 10.993 48.4285 11.005 48.4482 11.0176Z" fill="white"/>
  <path d="M33.7012 1.28125L33.7012 0.125954L33.7012 0.125954L33.7012 1.28125ZM57.0566 10.7334L57.903 9.94705L57.903 9.94704L57.0566 10.7334ZM60.1152 14.6631L59.1463 15.2923L60.5277 17.4194L61.2259 14.9811L60.1152 14.6631ZM71.4971 6.08691L71.4971 4.93162L71.497 4.93162L71.4971 6.08691ZM83.3389 20.4502H82.1836V22.4946L83.9349 21.4399L83.3389 20.4502ZM97.6855 22.8506L96.8006 23.5933L97.9785 24.9968L98.7372 23.329L97.6855 22.8506ZM108.468 15.9053L108.468 14.75H108.468V15.9053ZM118.053 20.7969L117.118 21.4759L118.053 22.7627L118.987 21.4758L118.053 20.7969ZM127.639 15.9053L127.639 14.75L127.639 14.75L127.639 15.9053ZM137.169 20.7188L136.24 21.4052L138.324 24.2268V20.7188H137.169ZM148.723 6.08691L148.723 4.93162L148.723 4.93162L148.723 6.08691ZM173.562 6.08691L173.562 4.93162H173.562V6.08691ZM173.859 45.3623L173.875 46.5176L173.889 46.5172L173.859 45.3623ZM173.562 45.3662V46.5215H173.569L173.577 46.5214L173.562 45.3662ZM162.487 45.3662V44.2109H161.999L161.658 44.5616L162.487 45.3662ZM151.814 51.1074L152.061 52.2362L152.074 52.2332L151.814 51.1074ZM151.188 51.2441L151.423 52.3755L151.435 52.3728L151.188 51.2441ZM144.073 47.9658L143.055 48.5123L143.055 48.5124L144.073 47.9658ZM143.355 44.0459L144.501 44.1979L144.607 43.3984L143.893 43.0232L143.355 44.0459ZM139.372 40.5977L140.307 39.9183L138.227 40.7516L139.372 40.5977ZM139.477 41.8828L140.632 41.868L140.632 41.8608L140.631 41.8535L139.477 41.8828ZM139.48 42.1885H140.636V42.1811L140.636 42.1737L139.48 42.1885ZM127.639 64.4277L127.639 65.583H127.639V64.4277ZM118.053 59.5361L118.988 58.8573L118.053 57.5701L117.118 58.8572L118.053 59.5361ZM108.468 64.4277L108.468 65.583L108.468 65.583L108.468 64.4277ZM98.3496 58.7422L99.336 58.1408L98.4414 56.6734L97.4203 58.0558L98.3496 58.7422ZM97.0469 60.2168V61.3721H97.5057L97.8395 61.0573L97.0469 60.2168ZM97.0459 60.2168V59.0615H96.5871L96.2533 59.3763L97.0459 60.2168ZM81.8047 59.666L80.9399 60.4321L80.9462 60.4392L80.9526 60.4462L81.8047 59.666ZM81.6152 59.4521L80.7437 60.2105L80.7504 60.2182L81.6152 59.4521ZM81.3535 59.1514L82.2251 58.393L81.2322 57.2519L80.3926 58.5101L81.3535 59.1514ZM71.4971 64.4287L71.497 65.584H71.4971V64.4287ZM59.6963 53.5645L60.8477 53.4704L60.5836 50.2374L58.7446 52.9095L59.6963 53.5645ZM57.0488 56.8672L57.8938 57.6551L57.8938 57.6551L57.0488 56.8672ZM33.7012 66.2773L33.7012 67.4326H33.7012V66.2773ZM10.3535 56.8672L9.50856 57.6551L9.50857 57.6551L10.3535 56.8672ZM2 33.8145L0.844704 33.8145L0.844704 33.8145L2 33.8145ZM10.3467 10.7334L9.50031 9.94703L9.5003 9.94705L10.3467 10.7334ZM12.3135 50.0684L13.2727 49.4244L11.3542 50.7122L12.3135 50.0684ZM32.9365 60.4932L32.9115 61.6483L32.9247 61.6484L32.9365 60.4932ZM33.7012 60.501L33.6894 61.6563H33.7012V60.501ZM54.3652 51.084L55.2886 51.7783L53.4419 50.3896L54.3652 51.084ZM33.7012 60.498L33.7012 61.6533L33.7012 61.6533L33.7012 60.498ZM67.3213 56.9844L68.117 56.1468L66.5253 57.8217L67.3213 56.9844ZM67.5957 57.2295L66.8519 58.1135L68.3398 56.3457L67.5957 57.2295ZM71.4971 11.8633L71.4971 10.708L71.497 10.708L71.4971 11.8633ZM66.6387 56.2178L65.7137 56.91L67.5639 55.5259L66.6387 56.2178ZM65.4336 52.5889L64.2783 52.5889L64.2783 52.5889L65.4336 52.5889ZM65.4336 17.9297L64.2783 17.9297V17.9297H65.4336ZM71.499 11.8643L71.499 10.709H71.499V11.8643ZM75.3574 13.25L74.622 14.141L76.0932 12.3593L75.3574 13.25ZM85.9736 55.6621L86.8454 54.904L86.8454 54.904L85.9736 55.6621ZM86.1523 55.8574L85.3202 56.6588L86.9849 55.0564L86.1523 55.8574ZM85.9756 55.6641L85.1038 56.4221L85.1039 56.4222L85.9756 55.6641ZM77.8623 46.333L78.7341 45.575L78.3887 45.1777H77.8623V46.333ZM77.8613 46.333V45.1777H75.3257L76.9895 47.0911L77.8613 46.333ZM133.567 53.8672L134.697 54.1098L132.438 53.6243L133.567 53.8672ZM133.432 54.3896L132.328 54.0469L134.535 54.7327L133.432 54.3896ZM102.484 53.5762L103.624 53.389L101.344 53.7631L102.484 53.5762ZM102.546 53.8975L101.418 54.1461L103.674 53.6491L102.546 53.8975ZM133.662 53.2842L134.81 53.4154L132.514 53.1526L133.662 53.2842ZM133.6 53.7031L132.464 53.492L134.735 53.9146L133.6 53.7031ZM102.41 52.8984L101.255 52.9275L101.256 52.9422L101.256 52.9569L102.41 52.8984ZM102.453 53.3545L101.307 53.4994L103.599 53.2099L102.453 53.3545ZM102.402 52.5879L103.557 52.5588L101.247 52.5879L102.402 52.5879ZM54.4072 51.0283L53.4817 50.3368L55.3327 51.7199L54.4072 51.0283ZM54.7363 50.5781L55.6782 51.2472L53.7945 49.909L54.7363 50.5781ZM54.7744 50.5244L53.8307 49.858L55.7181 51.1909L54.7744 50.5244ZM55.083 50.0742L56.042 50.7184L54.124 49.43L55.083 50.0742ZM11.9795 49.5576L12.955 48.9386L11.0039 50.1765L11.9795 49.5576ZM12.2783 50.0156L11.3174 50.657L13.2393 49.3744L12.2783 50.0156ZM55.1279 50.0068L54.1667 49.366L56.0891 50.6478L55.1279 50.0068ZM55.4131 49.5693L56.3882 50.1889L54.438 48.9497L55.4131 49.5693ZM55.4639 49.4893L54.4863 48.8736L56.4414 50.105L55.4639 49.4893ZM55.7451 49.0322L56.7363 49.6258L54.754 48.4386L55.7451 49.0322ZM11.6602 49.0391L12.6511 48.4451L10.6692 49.6329L11.6602 49.0391ZM11.8506 49.3496L10.8688 49.9586L12.8324 48.7408L11.8506 49.3496ZM58.0938 43.8643L59.191 44.226L56.9989 43.4955L58.0938 43.8643ZM55.7744 48.9824L54.7818 48.3912L56.7669 49.5737L55.7744 48.9824ZM57.9355 44.334L59.0262 44.7153L59.0304 44.7027L57.9355 44.334ZM11.3604 48.5244L12.3656 47.955L10.3551 49.0937L11.3604 48.5244ZM11.5557 48.8613L10.5597 49.4468L12.5517 48.276L11.5557 48.8613ZM11.0703 47.9971L12.0892 47.4525L10.0514 48.5415L11.0703 47.9971ZM11.2764 48.373L10.2671 48.9353L12.2857 47.8109L11.2764 48.373ZM10.7549 47.3867L11.7884 46.8705L9.72129 47.9029L10.7549 47.3867ZM10.9639 47.7949L9.93999 48.3301L11.9878 47.2599L10.9639 47.7949ZM10.502 46.8652L11.5471 46.3728L9.45679 47.3575L10.502 46.8652ZM10.7256 47.3281L9.69071 47.8417L11.7605 46.8147L10.7256 47.3281ZM10.251 46.3154L11.3074 45.8478L9.1945 46.7829L10.251 46.3154ZM10.4355 46.7236L9.38744 47.2096L11.4837 46.2378L10.4355 46.7236ZM9.99023 45.7051L11.0582 45.2645L8.92219 46.1455L9.99023 45.7051ZM10.1836 46.1611L9.12415 46.6219L11.2431 45.7005L10.1836 46.1611ZM9.75293 45.1094L10.8313 44.6948L8.67454 45.5239L9.75293 45.1094ZM9.95215 45.6133L8.88249 46.0498L11.0218 45.1769L9.95215 45.6133ZM151.596 39.9385L152.751 39.9187L150.441 39.9578L151.596 39.9385ZM149.323 44.3076L148.48 43.518L148.48 43.5181L149.323 44.3076ZM149.103 45.0732L147.984 45.3625L150.222 44.7863L149.103 45.0732ZM149.324 44.3096L148.481 43.5199L148.481 43.52L149.324 44.3096ZM9.5293 44.5068L10.6172 44.1181L8.44134 44.8955L9.5293 44.5068ZM9.71387 45.0088L8.63386 45.419L10.7939 44.5987L9.71387 45.0088ZM33.7012 22.6768L33.7012 21.5215L33.7012 21.5215L33.7012 22.6768ZM27.5273 25.4023L26.629 24.676L26.629 24.676L27.5273 25.4023ZM25.0596 33.8145L23.9043 33.8145L23.9043 33.8145L25.0596 33.8145ZM27.5166 42.1787L26.6203 42.9076L26.6203 42.9076L27.5166 42.1787ZM33.7012 44.8818L33.7012 46.0371H33.7012V44.8818ZM39.8857 42.1787L40.782 42.9076L40.7821 42.9076L39.8857 42.1787ZM42.3428 33.8145L43.4981 33.8145V33.8145H42.3428ZM39.876 25.4023L40.7744 24.676L40.7743 24.676L39.876 25.4023ZM9.33594 43.9482L10.432 43.583L8.23985 44.3134L9.33594 43.9482ZM9.48242 44.374L8.39251 44.7572L10.5724 43.991L9.48242 44.374ZM59.5977 32.3809L60.7521 32.3358L60.7516 32.3254L59.5977 32.3809ZM59.626 33.8115L60.7813 33.8115V33.8115H59.626ZM58.0986 43.8457L57.0011 43.4848L59.1961 44.2067L58.0986 43.8457ZM59.6191 34.5322L60.7743 34.5546L60.7744 34.5432L59.6191 34.5322ZM59.626 33.8145L60.7813 33.8255V33.8145H59.626ZM59.5654 31.71L60.7188 31.643L58.4115 31.7654L59.5654 31.71ZM9.12402 43.2832L10.2289 42.9455L8.01916 43.6208L9.12402 43.2832ZM9.27148 43.751L8.17273 44.108L10.3703 43.3941L9.27148 43.751ZM97.2783 38.3027L98.3696 38.6819L96.4322 37.5161L97.2783 38.3027ZM95.9287 39.5439L96.6397 40.4545L96.6401 40.4543L95.9287 39.5439ZM94.3154 40.8037L93.6044 39.8931L92.6445 40.6427L93.4436 41.5618L94.3154 40.8037ZM96.626 43.4609L95.7542 44.219L97.7813 46.5503V43.4609H96.626ZM96.626 42.1885L95.4707 42.1885V42.1885H96.626ZM8.96973 42.7588L10.0809 42.4424L7.85857 43.0751L8.96973 42.7588ZM9.07031 43.1045L7.96327 43.4349L10.1774 42.7742L9.07031 43.1045ZM8.78906 42.0938L9.90741 41.8039L7.67069 42.3835L8.78906 42.0938ZM8.90039 42.5146L7.78651 42.8212L10.0143 42.2082L8.90039 42.5146ZM108.468 36.123L108.468 34.9678H108.468V36.123ZM102.402 42.1885L101.247 42.1884V42.1885H102.402ZM108.468 36.125L108.468 34.9697L108.468 34.9697L108.468 36.125ZM113.431 38.7041L112.486 39.369L114.376 38.0394L113.431 38.7041ZM8.64062 41.4961L9.76478 41.2297L7.51645 41.7624L8.64062 41.4961ZM8.73438 41.8799L7.61388 42.1613L9.8549 41.5986L8.73438 41.8799ZM127.639 36.123L127.639 34.9678L127.639 34.9678L127.639 36.123ZM122.508 38.9561L121.531 38.3393L123.485 39.573L122.508 38.9561ZM127.639 36.125L127.639 34.9697H127.639V36.125ZM133.673 41.5684L132.523 41.6854L134.822 41.4516L133.673 41.5684ZM8.47656 40.7656L9.607 40.5273L7.3461 41.0039L8.47656 40.7656ZM8.57812 41.2285L7.45157 41.4846L9.70471 40.9725L8.57812 41.2285ZM8.36914 40.2285L9.50365 40.0104L7.23461 40.4466L8.36914 40.2285ZM8.45508 40.6641L7.32384 40.8986L9.58634 40.4296L8.45508 40.6641ZM114.057 39.8291H112.901V40.0634L112.993 40.2792L114.057 39.8291ZM114.277 40.4443L113.171 40.7764L115.384 40.1125L114.277 40.4443ZM114.057 39.8281L115.121 39.3782L112.901 39.8281H114.057ZM8.26074 39.6318L9.39928 39.4358L7.12219 39.8278L8.26074 39.6318ZM8.3125 39.9297L7.17591 40.1367L9.44911 39.7228L8.3125 39.9297ZM8.13574 38.8516L9.27879 38.6838L6.99268 39.0192L8.13574 38.8516ZM8.2002 39.2764L7.0595 39.4594L9.34091 39.0934L8.2002 39.2764ZM113.554 38.8867L114.522 38.2565L112.585 39.5167L113.554 38.8867ZM113.664 39.0596L112.675 39.6567L114.653 38.4627L113.664 39.0596ZM8.02832 38.0537L9.17516 37.9142L6.88147 38.1931L8.02832 38.0537ZM8.10547 38.6436L6.96135 38.8039L9.2496 38.4833L8.10547 38.6436ZM7.97656 37.5967L9.12523 37.4731L6.82789 37.7202L7.97656 37.5967ZM8.01855 37.9746L6.87138 38.1113L9.16574 37.838L8.01855 37.9746ZM33.7012 16.8975L33.7012 15.7422H33.7012V16.8975ZM19.2822 33.8115L18.1269 33.8115L18.1269 33.8115L19.2822 33.8115ZM19.5752 37.6182L18.4343 37.8L20.7161 37.4365L19.5752 37.6182ZM19.2871 34.2607L18.1318 34.2709L18.132 34.2805L19.2871 34.2607ZM19.2832 33.8145L18.1279 33.8145L18.128 33.8246L19.2832 33.8145ZM33.7012 16.9004L33.7143 15.7451L33.7012 15.7451L33.7012 16.9004ZM34.1309 16.9053L34.1599 15.7503L34.1519 15.7501L34.144 15.7501L34.1309 16.9053ZM44.2393 21.6133L43.3516 22.3528L45.127 20.8739L44.2393 21.6133ZM143.205 35.5312L144.238 35.0146L142.102 35.8743L143.205 35.5312ZM143.427 36.123L142.368 36.5854L144.486 35.661L143.427 36.123ZM143.206 35.5332L144.309 35.19L144.281 35.1004L144.239 35.0165L143.206 35.5332ZM137.024 34.9678L136.109 34.2627L135.566 34.9678L136.109 35.6729L137.024 34.9678ZM137.265 35.293L136.326 35.9666L138.411 35.1464L137.265 35.293ZM137.205 34.7227L138.357 34.633L138.114 31.5191L136.272 34.0412L137.205 34.7227ZM117.853 34.9678L116.937 34.2626L116.394 34.9678L116.937 35.6729L117.853 34.9678ZM118.053 35.2383L117.118 35.9173L118.053 37.2041L118.987 35.9172L118.053 35.2383ZM118.254 34.9678L119.169 35.6729L119.712 34.9678L119.169 34.2627L118.254 34.9678ZM118.053 34.6963L118.988 34.0174L118.053 32.7302L117.118 34.0174L118.053 34.6963ZM48.0879 35.0684L46.934 35.012L49.2418 35.1249L48.0879 35.0684ZM48.1143 34.2705L49.2694 34.2907L46.9591 34.2502L48.1143 34.2705ZM148.723 11.8633L148.723 10.708L148.723 10.708L148.723 11.8633ZM142.974 34.3828L141.824 34.4953L144.123 34.2707L142.974 34.3828ZM142.946 33.8154L141.791 33.8154L141.791 33.8155L142.946 33.8154ZM142.946 17.6406L141.791 17.6406V17.6406H142.946ZM148.723 11.8643L148.723 10.709L148.723 10.709L148.723 11.8643ZM178.272 14.2998L177.331 14.969L179.214 13.6309L178.272 14.2998ZM173.562 11.8633L173.562 10.708H173.562V11.8633ZM48.1025 32.9053L46.948 32.9458L49.2571 32.8649L48.1025 32.9053ZM48.0605 32.0869L49.2132 32.0085L46.9079 32.1652L48.0605 32.0869ZM93.3115 26.627L92.4172 27.3583L94.2061 25.8959L93.3115 26.627ZM85.7451 25.7939L85.0338 24.8836L85.0338 24.8836L85.7451 25.7939ZM77.5645 32.1855L76.8532 31.2752L76.4092 31.6221V32.1855H77.5645ZM77.5645 32.1885H76.4092V34.5573L78.2758 33.0988L77.5645 32.1885ZM85.7461 25.7959L86.4574 26.7063L86.4575 26.7062L85.7461 25.7959ZM48.0586 32.0576L46.9061 32.1374L49.2111 31.978L48.0586 32.0576ZM48.0293 31.6768L49.1804 31.5789L46.8781 31.7745L48.0293 31.6768ZM59.5322 31.2266L58.3799 31.3095L60.6845 31.1437L59.5322 31.2266ZM59.5146 30.9844L60.6664 30.8934L58.3629 31.0753L59.5146 30.9844ZM59.4844 30.6367L58.3337 30.7394L60.6351 30.5341L59.4844 30.6367ZM59.4541 30.2988L60.6037 30.1846L58.3045 30.4129L59.4541 30.2988ZM59.2881 28.9189L60.4319 28.7566L58.1442 29.0812L59.2881 28.9189ZM59.4248 30.0273L58.2761 30.1509L60.5735 29.9039L59.4248 30.0273ZM133.555 29.0801L134.682 29.3326L132.427 28.8272L133.555 29.0801ZM133.443 29.5088L132.338 29.174L134.549 29.8439L133.443 29.5088ZM102.487 28.7559L103.627 28.5651L101.348 28.9463L102.487 28.7559ZM102.557 29.1045L101.43 29.362L103.683 28.8473L102.557 29.1045ZM47.583 28.7236L46.4551 28.9739L48.7109 28.4735L47.583 28.7236ZM47.5176 28.4385L48.6418 28.1722L46.3933 28.7046L47.5176 28.4385ZM133.69 28.1436L134.843 28.2176L132.538 28.0692L133.69 28.1436ZM133.629 28.7012L132.488 28.5212L134.77 28.8814L133.629 28.7012ZM108.468 21.6826L108.468 20.5273H108.468V21.6826ZM102.402 27.7471L101.247 27.747V27.7471H102.402ZM102.462 28.5947L101.318 28.7547L103.606 28.4351L102.462 28.5947ZM102.402 27.749L101.247 27.749L101.247 27.749L102.402 27.749ZM108.468 21.6836L108.468 20.5283L108.468 20.5283L108.468 21.6836ZM113.701 24.6826L112.705 25.2676L114.698 24.0979L113.701 24.6826ZM59.1152 27.8408L57.9776 28.0421L60.2529 27.6396L59.1152 27.8408ZM59.0781 27.6299L60.2143 27.4208L57.9419 27.8389L59.0781 27.6299ZM127.639 21.6826L127.639 20.5273L127.639 20.5273L127.639 21.6826ZM122.552 24.4473L121.583 23.8176L123.52 25.0772L122.552 24.4473ZM127.639 21.6836L127.639 20.5283H127.639V21.6836ZM133.692 27.3857L132.539 27.4539L134.846 27.3179L133.692 27.3857ZM58.9814 27.1328L57.8488 27.3604L60.1141 26.9053L58.9814 27.1328ZM58.9521 26.9863L60.0837 26.7532L57.8206 27.2193L58.9521 26.9863ZM58.8535 26.5264L57.7257 26.7769L59.9813 26.2759L58.8535 26.5264ZM58.8047 26.3057L59.9306 26.0466L57.6788 26.5646L58.8047 26.3057ZM46.5469 25.4482L47.6108 24.998L45.4828 25.8983L46.5469 25.4482ZM46.9307 26.4375L45.8417 26.8233L48.0197 26.0519L46.9307 26.4375ZM58.7344 26.0127L57.6112 26.283L59.8576 25.7425L58.7344 26.0127ZM58.6455 25.6494L59.7652 25.3649L57.5258 25.9338L58.6455 25.6494ZM114.057 25.3877H112.901V25.622L112.993 25.8378L114.057 25.3877ZM114.28 26.0127L113.173 26.3429L115.387 25.6827L114.28 26.0127ZM114.057 25.3867L115.121 24.9367L112.901 25.3867H114.057ZM58.5811 25.4023L57.4639 25.6966L59.6983 25.1082L58.5811 25.4023ZM58.4883 25.0576L59.6018 24.7497L57.3747 25.3654L58.4883 25.0576ZM58.3926 24.7217L57.2829 25.0431L59.5023 24.4004L58.3926 24.7217ZM58.3105 24.4414L59.4169 24.1086L57.2042 24.7741L58.3105 24.4414ZM44.2715 21.6523L45.1618 20.9161L43.381 22.3884L44.2715 21.6523ZM46.0342 24.3477L45.0058 24.8742L47.0626 23.8213L46.0342 24.3477ZM57.9736 23.3994L56.8812 23.7752L59.0661 23.0237L57.9736 23.3994ZM57.9229 23.25L59.0131 22.8679L56.8325 23.6319L57.9229 23.25ZM57.7559 22.7881L56.6726 23.1897L58.8391 22.3866L57.7559 22.7881ZM57.7051 22.6514L58.7861 22.2439L56.624 23.0587L57.7051 22.6514ZM57.5654 22.292L56.4903 22.715L58.6406 21.8691L57.5654 22.292ZM57.4658 22.0381L58.5365 21.6041L56.3951 22.4719L57.4658 22.0381ZM57.2969 21.6328L56.2336 22.0846L58.3602 21.1812L57.2969 21.6328ZM57.2314 21.4785L58.2918 21.02L56.171 21.9369L57.2314 21.4785ZM57.0566 21.085L56.004 21.561L58.1093 20.609L57.0566 21.085ZM56.9824 20.9219L58.0317 20.4385L55.9331 21.4052L56.9824 20.9219ZM56.7988 20.5332L55.7578 21.0342L57.8399 20.0324L56.7988 20.5332ZM56.7031 20.3359L57.7398 19.826L55.6664 20.8458L56.7031 20.3359ZM56.498 19.9287L55.4708 20.4574L57.5254 19.4002L56.498 19.9287ZM56.4492 19.833L57.4742 19.3L55.4242 20.366L56.4492 19.833ZM55.916 18.8604L54.9161 19.439L56.916 18.2819L55.916 18.8604ZM55.8428 18.7354L56.8393 18.1508L54.8462 19.3198L55.8428 18.7354ZM55.2793 17.8223L54.3099 18.4507L56.2488 17.1939L55.2793 17.8223ZM55.1953 17.6934L56.1606 17.0587L54.2299 18.328L55.1953 17.6934ZM179.33 17.3438H178.175V17.373L178.176 17.4022L179.33 17.3438ZM179.338 17.623L178.183 17.6266L180.493 17.6198L179.338 17.623ZM179.33 17.3418L180.484 17.2832L178.175 17.3418H179.33ZM54.5723 16.791L53.6376 17.4701L55.507 16.1121L54.5723 16.791ZM54.5225 16.7236L55.4547 16.0412L53.5902 17.4059L54.5225 16.7236ZM54.2334 16.3369L53.3156 17.0386L55.1513 15.6353L54.2334 16.3369ZM54.1406 16.2158L55.0538 15.5081L53.2274 16.9234L54.1406 16.2158ZM178.538 14.71L179.533 14.1227L177.543 15.2969L178.538 14.71ZM179.078 15.9219L177.975 16.2653L180.181 15.5788L179.078 15.9219ZM53.8643 15.8682L52.965 16.5934L54.7636 15.143L53.8643 15.8682ZM53.7695 15.751L54.664 15.0198L52.8749 16.482L53.7695 15.751ZM50.8955 12.8223L50.1486 13.7036L51.6426 11.941L50.8955 12.8223ZM50.8389 12.7744L51.5829 11.8906L50.0948 13.6582L50.8389 12.7744ZM48.4482 11.0176L47.8269 11.9916L49.0696 10.0436L48.4482 11.0176ZM48.3887 10.9805L49.007 10.0046L47.7703 11.9563L48.3887 10.9805ZM33.7012 1.28125V2.43655C43.0377 2.43655 50.8036 5.70048 56.2103 11.5198L57.0566 10.7334L57.903 9.94704C52.0061 3.60002 43.5975 0.125954 33.7012 0.125954V1.28125ZM57.0566 10.7334L56.2103 11.5197C57.3009 12.6937 58.2783 13.9556 59.1463 15.2923L60.1152 14.6631L61.0841 14.0339C60.1462 12.5896 59.0875 11.222 57.903 9.94705L57.0566 10.7334ZM60.1152 14.6631L61.2259 14.9811C62.5057 10.5116 66.6198 7.24239 71.4971 7.24221L71.4971 6.08691L71.497 4.93162C65.5605 4.93183 60.5604 8.91165 59.0046 14.3451L60.1152 14.6631ZM71.4971 6.08691V7.24221C77.3991 7.24221 82.1836 12.0267 82.1836 17.9287H83.3389H84.4942C84.4942 10.7506 78.6752 4.93162 71.4971 4.93162V6.08691ZM83.3389 17.9287H82.1836V20.4502H83.3389H84.4942V17.9287H83.3389ZM83.3389 20.4502L83.9349 21.4399C88.1559 18.8977 93.5999 19.7795 96.8006 23.5933L97.6855 22.8506L98.5705 22.1079C94.636 17.4197 87.9347 16.3337 82.7428 19.4605L83.3389 20.4502ZM97.6855 22.8506L98.7372 23.329C100.42 19.6296 104.144 17.0606 108.468 17.0606V15.9053V14.75C103.205 14.75 98.6776 17.8797 96.6339 22.3722L97.6855 22.8506ZM108.468 15.9053L108.468 17.0606C112.024 17.0606 115.173 18.7987 117.118 21.4759L118.053 20.7969L118.987 20.1179C116.627 16.8691 112.796 14.75 108.468 14.75L108.468 15.9053ZM118.053 20.7969L118.987 21.4758C120.932 18.7986 124.082 17.0607 127.639 17.0606L127.639 15.9053L127.639 14.75C123.31 14.7501 119.478 16.8686 117.118 20.118L118.053 20.7969ZM127.639 15.9053V17.0606C131.164 17.0606 134.291 18.7679 136.24 21.4052L137.169 20.7188L138.098 20.0323C135.733 16.8311 131.929 14.75 127.639 14.75V15.9053ZM137.169 20.7188H138.324V17.6396H137.169H136.014V20.7188H137.169ZM137.169 17.6396H138.324C138.324 11.8973 142.98 7.24221 148.723 7.24221L148.723 6.08691L148.723 4.93162C141.704 4.93162 136.014 10.6209 136.014 17.6396H137.169ZM148.723 6.08691V7.24221H173.562V6.08691V4.93162H148.723V6.08691ZM173.562 6.08691L173.561 7.24221C179.304 7.24241 183.959 11.8974 183.959 17.6396H185.114H186.27C186.27 10.6212 180.58 4.93187 173.562 4.93162L173.562 6.08691ZM185.114 17.6396H183.959V33.8135H185.114H186.27V17.6396H185.114ZM185.114 33.8135H183.959C183.959 39.4659 179.448 44.0649 173.83 44.2074L173.859 45.3623L173.889 46.5172C180.756 46.3431 186.27 40.7226 186.27 33.8135H185.114ZM173.859 45.3623L173.844 44.2071L173.546 44.211L173.562 45.3662L173.577 46.5214L173.875 46.5175L173.859 45.3623ZM173.562 45.3662V44.2109H162.487V45.3662V46.5215H173.562V45.3662ZM162.487 45.3662L161.658 44.5616C159.395 46.8938 156.172 48.9169 151.555 49.9817L151.814 51.1074L152.074 52.2332C157.111 51.0714 160.734 48.8318 163.316 46.1708L162.487 45.3662ZM151.814 51.1074L151.568 49.9787L150.942 50.1155L151.188 51.2441L151.435 52.3728L152.061 52.2361L151.814 51.1074ZM151.188 51.2441L150.954 50.1129C148.642 50.5919 146.245 49.5677 145.091 47.4192L144.073 47.9658L143.055 48.5124C144.719 51.6106 148.165 53.0505 151.423 52.3754L151.188 51.2441ZM144.073 47.9658L145.091 47.4193C144.536 46.3859 144.359 45.2669 144.501 44.1979L143.355 44.0459L142.21 43.8939C142.007 45.4263 142.263 47.0364 143.055 48.5123L144.073 47.9658ZM143.355 44.0459L143.893 43.0232C142.472 42.2766 141.245 41.2095 140.307 39.9183L139.372 40.5977L138.438 41.277C139.583 42.8522 141.081 44.1554 142.818 45.0686L143.355 44.0459ZM139.372 40.5977L138.227 40.7516C138.279 41.1364 138.312 41.5232 138.322 41.9121L139.477 41.8828L140.631 41.8535C140.619 41.3729 140.579 40.9026 140.517 40.4438L139.372 40.5977ZM139.477 41.8828L138.321 41.8976L138.325 42.2032L139.48 42.1885L140.636 42.1737L140.632 41.868L139.477 41.8828ZM139.48 42.1885H138.325V52.5859H139.48H140.636V42.1885H139.48ZM139.48 52.5859H138.325C138.325 58.4879 133.541 63.2724 127.639 63.2724V64.4277V65.583C134.817 65.583 140.636 59.764 140.636 52.5859H139.48ZM127.639 64.4277L127.639 63.2724C124.082 63.2723 120.932 61.5347 118.988 58.8573L118.053 59.5361L117.118 60.215C119.478 63.4647 123.31 65.5829 127.639 65.583L127.639 64.4277ZM118.053 59.5361L117.118 58.8572C115.173 61.5346 112.024 63.2724 108.468 63.2724L108.468 64.4277L108.468 65.583C112.796 65.583 116.628 63.4643 118.987 60.2151L118.053 59.5361ZM108.468 64.4277V63.2724C104.602 63.2724 101.214 61.2206 99.336 58.1408L98.3496 58.7422L97.3632 59.3436C99.643 63.0829 103.763 65.583 108.468 65.583V64.4277ZM98.3496 58.7422L97.4203 58.0558C97.0733 58.5257 96.6862 58.9689 96.2542 59.3763L97.0469 60.2168L97.8395 61.0573C98.3791 60.5484 98.8565 60.0004 99.2789 59.4286L98.3496 58.7422ZM97.0469 60.2168V59.0615H97.0459V60.2168V61.3721H97.0469V60.2168ZM97.0459 60.2168L96.2533 59.3763C92.3408 63.0656 86.2642 62.8254 82.6567 58.8858L81.8047 59.666L80.9526 60.4462C85.4294 65.3352 92.9865 65.6326 97.8385 61.0573L97.0459 60.2168ZM81.8047 59.666L82.6695 58.9L82.48 58.6861L81.6152 59.4521L80.7504 60.2182L80.9399 60.4321L81.8047 59.666ZM81.6152 59.4521L82.4868 58.6938L82.2251 58.393L81.3535 59.1514L80.482 59.9097L80.7437 60.2105L81.6152 59.4521ZM81.3535 59.1514L80.3926 58.5101C78.4746 61.384 75.2063 63.2734 71.4971 63.2734V64.4287V65.584C76.0111 65.584 79.9863 63.2812 82.3145 59.7927L81.3535 59.1514ZM71.4971 64.4287L71.4971 63.2734C65.8929 63.2732 61.2961 58.9585 60.8477 53.4704L59.6963 53.5645L58.5448 53.6585C59.0903 60.3358 64.6797 65.5838 71.497 65.584L71.4971 64.4287ZM59.6963 53.5645L58.7446 52.9095C57.9772 54.0245 57.1318 55.0842 56.2039 56.0793L57.0488 56.8672L57.8938 57.6551C58.9025 56.5733 59.8187 55.4243 60.648 54.2194L59.6963 53.5645ZM57.0488 56.8672L56.2039 56.0793C50.7937 61.8812 43.0288 65.122 33.7012 65.122V66.2773V67.4326C43.5843 67.4326 51.9916 63.9846 57.8938 57.6551L57.0488 56.8672ZM33.7012 66.2773L33.7012 65.122C24.3736 65.122 16.6086 61.8811 11.1985 56.0793L10.3535 56.8672L9.50857 57.6551C15.4107 63.9846 23.8181 67.4326 33.7012 67.4326L33.7012 66.2773ZM10.3535 56.8672L11.1985 56.0793C5.82935 50.3212 3.1554 42.4484 3.1553 33.8144L2 33.8145L0.844704 33.8145C0.84481 42.9172 3.66787 51.3913 9.50856 57.6551L10.3535 56.8672ZM2 33.8145H3.1553C3.1553 25.1811 5.82872 17.2936 11.1931 11.5198L10.3467 10.7334L9.5003 9.94705C3.66687 16.2258 0.844704 24.7128 0.844704 33.8145H2ZM10.3467 10.7334L11.193 11.5198C16.5997 5.70056 24.3649 2.43658 33.7012 2.43655L33.7012 1.28125L33.7012 0.125954C23.805 0.125991 15.3972 3.60016 9.50031 9.94703L10.3467 10.7334ZM12.3135 50.0684L11.3542 50.7122C15.8012 57.3377 23.2062 61.4379 32.9115 61.6482L32.9365 60.4932L32.9616 59.3381C23.9315 59.1424 17.2593 55.3641 13.2727 49.4245L12.3135 50.0684ZM32.9365 60.4932L32.9247 61.6484L33.6894 61.6562L33.7012 60.501L33.713 59.3457L32.9483 59.3379L32.9365 60.4932ZM33.7012 60.501V61.6563C43.2475 61.6563 50.6461 57.9528 55.2886 51.7783L54.3652 51.084L53.4418 50.3897C49.2857 55.9172 42.6086 59.3457 33.7012 59.3457V60.501ZM54.3652 51.084L53.4419 50.3896C49.286 55.9162 42.6079 59.3426 33.7012 59.3428L33.7012 60.498L33.7012 61.6533C43.2463 61.6532 50.6459 57.9521 55.2886 51.7783L54.3652 51.084ZM33.7012 60.498V59.3428C24.2937 59.3428 17.3658 55.5213 13.2727 49.4244L12.3135 50.0684L11.3543 50.7123C15.923 57.5177 23.6111 61.6533 33.7012 61.6533V60.498ZM67.3213 56.9844L66.5256 57.8219C66.6322 57.9233 66.7412 58.0204 66.8519 58.1135L67.5957 57.2295L68.3395 56.3455C68.2624 56.2806 68.1882 56.2144 68.117 56.1468L67.3213 56.9844ZM67.5957 57.2295L68.3398 56.3457C68.262 56.2803 68.1879 56.2142 68.1173 56.1471L67.3213 56.9844L66.5253 57.8217C66.6325 57.9236 66.7416 58.0206 66.8516 58.1133L67.5957 57.2295ZM71.4971 11.8633L71.497 10.708C67.5093 10.7083 64.2773 13.9412 64.2773 17.9287H65.4326H66.5879C66.5879 15.217 68.7857 13.0188 71.4972 13.0186L71.4971 11.8633ZM65.4326 17.9287H64.2773V52.5869H65.4326H66.5879V17.9287H65.4326ZM65.4326 52.5869H64.2773C64.2773 54.2064 64.8116 55.7047 65.7137 56.91L66.6387 56.2178L67.5636 55.5255C66.9505 54.7063 66.5879 53.6907 66.5879 52.5869H65.4326ZM66.6387 56.2178L67.5639 55.5259C66.9513 54.7068 66.5889 53.6918 66.5889 52.5888L65.4336 52.5889L64.2783 52.5889C64.2783 54.2076 64.8125 55.7049 65.7135 56.9097L66.6387 56.2178ZM65.4336 52.5889H66.5889V17.9297H65.4336H64.2783V52.5889H65.4336ZM65.4336 17.9297L66.5889 17.9297C66.5889 15.218 68.7874 13.0196 71.499 13.0196V11.8643V10.709C67.5112 10.709 64.2784 13.9419 64.2783 17.9297L65.4336 17.9297ZM71.499 11.8643L71.499 13.0196C72.6864 13.0196 73.7727 13.4399 74.622 14.141L75.3574 13.25L76.0929 12.359C74.8452 11.3292 73.2431 10.709 71.499 10.709L71.499 11.8643ZM75.3574 13.25L76.0932 12.3593C74.845 11.3283 73.2418 10.708 71.4971 10.708V11.8633V13.0186C72.6853 13.0186 73.7724 13.4392 74.6217 14.1407L75.3574 13.25ZM85.9736 55.6621L85.1018 56.4202C85.1729 56.5019 85.2457 56.5815 85.3202 56.6588L86.1523 55.8574L86.9845 55.0561C86.9373 55.0071 86.8909 54.9564 86.8454 54.904L85.9736 55.6621ZM86.1523 55.8574L86.9849 55.0564C86.9387 55.0084 86.8928 54.9582 86.8473 54.9059L85.9756 55.6641L85.1039 56.4222C85.1737 56.5026 85.2457 56.5814 85.3198 56.6584L86.1523 55.8574ZM85.9756 55.6641L86.8474 54.906L78.7341 45.575L77.8623 46.333L76.9905 47.0911L85.1038 56.4221L85.9756 55.6641ZM77.8623 46.333V45.1777H77.8613V46.333V47.4883H77.8623V46.333ZM77.8613 46.333L76.9895 47.0911L85.1018 56.4202L85.9736 55.6621L86.8454 54.904L78.7331 45.5749L77.8613 46.333ZM133.567 53.8672L132.438 53.6246C132.406 53.7728 132.37 53.9134 132.328 54.0469L133.432 54.3896L134.535 54.7324C134.6 54.524 134.653 54.3157 134.697 54.1098L133.567 53.8672ZM133.432 54.3896L134.535 54.7327C134.6 54.5237 134.653 54.3153 134.697 54.1101L133.567 53.8672L132.438 53.6243C132.406 53.7732 132.37 53.9137 132.328 54.0466L133.432 54.3896ZM102.484 53.5762L101.344 53.7634C101.365 53.8907 101.39 54.0183 101.418 54.1461L102.546 53.8975L103.674 53.6488C103.656 53.5644 103.639 53.4779 103.624 53.389L102.484 53.5762ZM102.546 53.8975L103.674 53.6491C103.655 53.5641 103.639 53.4776 103.624 53.3893L102.484 53.5762L101.344 53.7631C101.365 53.891 101.39 54.0186 101.418 54.1458L102.546 53.8975ZM133.662 53.2842L132.514 53.1529C132.501 53.2689 132.484 53.3819 132.464 53.492L133.6 53.7031L134.735 53.9143C134.766 53.7482 134.791 53.5818 134.81 53.4154L133.662 53.2842ZM133.6 53.7031L134.735 53.9146C134.766 53.7479 134.791 53.5815 134.81 53.4157L133.662 53.2842L132.514 53.1526C132.501 53.2693 132.484 53.3821 132.464 53.4917L133.6 53.7031ZM102.41 52.8984L101.256 52.9569C101.266 53.1514 101.286 53.3351 101.307 53.4994L102.453 53.3545L103.599 53.2096C103.582 53.0729 103.57 52.9529 103.564 52.84L102.41 52.8984ZM102.453 53.3545L103.599 53.2099C103.573 52.9979 103.558 52.7912 103.558 52.5879L102.402 52.5879L101.247 52.5879C101.247 52.9041 101.27 53.2087 101.307 53.4991L102.453 53.3545ZM102.402 52.5879L101.247 52.6169L101.255 52.9275L102.41 52.8984L103.565 52.8694L103.557 52.5588L102.402 52.5879ZM54.4072 51.0283L55.3327 51.7198C55.447 51.5668 55.5631 51.4091 55.6782 51.2472L54.7363 50.5781L53.7945 49.9091C53.694 50.0506 53.5898 50.1922 53.4817 50.3368L54.4072 51.0283ZM54.7363 50.5781L53.7945 49.909C53.694 50.0506 53.5897 50.1923 53.4818 50.3368L54.4072 51.0283L55.3327 51.7199C55.4471 51.5668 55.5632 51.4091 55.6781 51.2472L54.7363 50.5781ZM54.7744 50.5244L55.7182 51.1908C55.8307 51.0314 55.9387 50.8722 56.042 50.7184L55.083 50.0742L54.124 49.43C54.0241 49.5787 53.9278 49.7205 53.8307 49.858L54.7744 50.5244ZM55.083 50.0742L54.124 49.43C54.024 49.5788 53.9278 49.7206 53.8307 49.858L54.7744 50.5244L55.7181 51.1909C55.8308 51.0314 55.9388 50.872 56.042 50.7185L55.083 50.0742ZM11.9795 49.5576L11.0039 50.1765C11.1079 50.3404 11.213 50.5006 11.3173 50.6569L12.2783 50.0156L13.2393 49.3744C13.1415 49.2278 13.0467 49.0832 12.955 48.9387L11.9795 49.5576ZM12.2783 50.0156L13.2392 49.3743C13.1416 49.2279 13.0467 49.0832 12.955 48.9386L11.9795 49.5576L11.004 50.1766C11.1079 50.3403 11.2129 50.5004 11.3174 50.657L12.2783 50.0156ZM55.1279 50.0068L56.0892 50.6477C56.1895 50.4972 56.2895 50.3443 56.3882 50.1889L55.4131 49.5693L54.4379 48.9498C54.3498 49.0886 54.2593 49.2271 54.1667 49.366L55.1279 50.0068ZM55.4131 49.5693L54.438 48.9497C54.3497 49.0887 54.2592 49.2272 54.1667 49.3659L55.1279 50.0068L56.0891 50.6478C56.1896 50.4972 56.2895 50.3442 56.3882 50.1889L55.4131 49.5693ZM55.4639 49.4893L56.4415 50.1049C56.5401 49.9482 56.6388 49.7885 56.7363 49.6258L55.7451 49.0322L54.754 48.4387C54.6673 48.5833 54.578 48.7279 54.4863 48.8736L55.4639 49.4893ZM55.7451 49.0322L54.754 48.4386C54.6673 48.5834 54.5779 48.7281 54.4863 48.8736L55.4639 49.4893L56.4414 50.105C56.5402 49.9481 56.6388 49.7885 56.7362 49.6259L55.7451 49.0322ZM11.6602 49.0391L10.6692 49.6329C10.737 49.746 10.8057 49.8568 10.8687 49.9584L11.8506 49.3496L12.8324 48.7408C12.7676 48.6362 12.7083 48.5406 12.6511 48.4452L11.6602 49.0391ZM11.8506 49.3496L12.8324 48.7407C12.7677 48.6364 12.7083 48.5406 12.6511 48.4451L11.6602 49.0391L10.6692 49.633C10.737 49.746 10.8056 49.8566 10.8688 49.9586L11.8506 49.3496ZM58.0938 43.8643L56.9965 43.5025C56.42 45.2513 55.6784 46.8862 54.7819 48.3912L55.7744 48.9824L56.7669 49.5737C57.7535 47.9176 58.5639 46.128 59.191 44.226L58.0938 43.8643ZM55.7744 48.9824L56.767 49.5736C57.668 48.0608 58.4242 46.4367 59.0261 44.7153L57.9355 44.334L56.845 43.9527C56.2927 45.5321 55.6015 47.0151 54.7818 48.3912L55.7744 48.9824ZM57.9355 44.334L59.0304 44.7027L59.1886 44.233L58.0938 43.8643L56.9989 43.4955L56.8407 43.9652L57.9355 44.334ZM11.3604 48.5244L10.3551 49.0937C10.4241 49.2155 10.4937 49.3345 10.5596 49.4467L11.5557 48.8613L12.5517 48.276C12.4862 48.1646 12.4247 48.0595 12.3656 47.9551L11.3604 48.5244ZM11.5557 48.8613L12.5516 48.2759C12.4863 48.1648 12.4248 48.0595 12.3656 47.955L11.3604 48.5244L10.3551 49.0938C10.4241 49.2155 10.4936 49.3343 10.5597 49.4468L11.5557 48.8613ZM11.0703 47.9971L10.0514 48.5415C10.1237 48.6769 10.1968 48.8091 10.2671 48.9352L11.2764 48.373L12.2857 47.8109C12.217 47.6876 12.1518 47.5697 12.0893 47.4526L11.0703 47.9971ZM11.2764 48.373L12.2856 47.8108C12.2171 47.6878 12.1519 47.5697 12.0892 47.4525L11.0703 47.9971L10.0514 48.5416C10.1237 48.6769 10.1967 48.8089 10.2671 48.9353L11.2764 48.373ZM10.7549 47.3867L9.72129 47.9029C9.79368 48.0478 9.86694 48.1903 9.93994 48.33L10.9639 47.7949L11.9878 47.2599C11.9194 47.129 11.8529 46.9996 11.7885 46.8706L10.7549 47.3867ZM10.9639 47.7949L11.9877 47.2598C11.9195 47.1292 11.853 46.9997 11.7884 46.8705L10.7549 47.3867L9.72135 47.903C9.79365 48.0477 9.86686 48.1902 9.93999 48.3301L10.9639 47.7949ZM10.502 46.8652L9.45679 47.3575C9.53299 47.5193 9.61085 47.6807 9.69065 47.8416L10.7256 47.3281L11.7605 46.8147C11.6883 46.6691 11.6172 46.5218 11.5471 46.3729L10.502 46.8652ZM10.7256 47.3281L11.7605 46.8146C11.6883 46.6692 11.6173 46.5219 11.5471 46.3728L10.502 46.8652L9.45685 47.3576C9.53295 47.5192 9.61079 47.6806 9.69071 47.8417L10.7256 47.3281ZM10.251 46.3154L9.1945 46.7829C9.25708 46.9243 9.32123 47.0668 9.38739 47.2095L10.4355 46.7236L11.4837 46.2378C11.4245 46.11 11.366 45.9801 11.3075 45.8479L10.251 46.3154ZM10.4355 46.7236L11.4837 46.2377C11.4245 46.1101 11.366 45.9803 11.3074 45.8478L10.251 46.3154L9.19455 46.7831C9.25703 46.9242 9.32118 47.0667 9.38744 47.2096L10.4355 46.7236ZM9.99023 45.7051L8.92219 46.1455C8.98839 46.3061 9.05585 46.4648 9.1241 46.6218L10.1836 46.1611L11.2431 45.7005C11.1799 45.5552 11.1182 45.41 11.0583 45.2646L9.99023 45.7051ZM10.1836 46.1611L11.243 45.7004C11.18 45.5554 11.1183 45.4101 11.0582 45.2645L9.99023 45.7051L8.92224 46.1456C8.98837 46.306 9.05578 46.4647 9.12415 46.6219L10.1836 46.1611ZM9.75293 45.1094L8.67454 45.5239C8.74175 45.6987 8.81086 45.8742 8.88245 46.0497L9.95215 45.6133L11.0218 45.1769C10.9573 45.0186 10.894 44.858 10.8313 44.6949L9.75293 45.1094ZM9.95215 45.6133L11.0218 45.1768C10.9573 45.0187 10.8941 44.8582 10.8313 44.6948L9.75293 45.1094L8.67458 45.524C8.74172 45.6986 8.81081 45.8741 8.88249 46.0498L9.95215 45.6133ZM151.596 39.9385L150.441 39.9578C150.461 41.1571 149.639 42.2802 148.48 43.518L149.323 44.3076L150.167 45.0973C151.281 43.9067 152.788 42.1556 152.751 39.9192L151.596 39.9385ZM149.323 44.3076L148.48 43.5181C147.995 44.0363 147.819 44.7232 147.984 45.3625L149.103 45.0732L150.221 44.7839C150.239 44.8539 150.238 44.9243 150.222 44.9863C150.205 45.05 150.177 45.0862 150.167 45.0972L149.323 44.3076ZM149.103 45.0732L150.222 44.7863C150.24 44.8569 150.238 44.9278 150.222 44.9898C150.205 45.0534 150.177 45.089 150.168 45.0991L149.324 44.3096L148.481 43.52C147.998 44.0355 147.819 44.7197 147.983 45.3602L149.103 45.0732ZM149.324 44.3096L150.168 45.0992C151.283 43.9078 152.789 42.1558 152.751 39.9187L151.596 39.9385L150.441 39.9582C150.461 41.1583 149.64 42.2823 148.481 43.5199L149.324 44.3096ZM9.5293 44.5068L8.44134 44.8955C8.5035 45.0695 8.56747 45.2442 8.63382 45.4189L9.71387 45.0088L10.7939 44.5987C10.734 44.4408 10.6753 44.2808 10.6173 44.1182L9.5293 44.5068ZM9.71387 45.0088L10.7939 44.5986C10.734 44.4409 10.6754 44.2809 10.6172 44.1181L9.5293 44.5068L8.44137 44.8956C8.50347 45.0694 8.56743 45.2441 8.63386 45.419L9.71387 45.0088ZM33.7012 22.6768L33.7012 21.5215C30.4441 21.5215 28.1771 22.7613 26.629 24.676L27.5273 25.4023L28.4257 26.1287C29.5232 24.7714 31.1227 23.8321 33.7012 23.8321L33.7012 22.6768ZM27.5273 25.4023L26.629 24.676C24.9938 26.6983 23.9043 29.8191 23.9043 33.8145H25.0596H26.2149C26.2149 30.2163 27.1973 27.648 28.4257 26.1287L27.5273 25.4023ZM25.0596 33.8145L23.9043 33.8145C23.9044 37.8086 24.9927 40.9062 26.6203 42.9076L27.5166 42.1787L28.4129 41.4498C27.196 39.9533 26.215 37.4111 26.2149 33.8144L25.0596 33.8145ZM27.5166 42.1787L26.6203 42.9076C28.1614 44.8027 30.4288 46.0371 33.7012 46.0371L33.7012 44.8818L33.7012 43.7265C31.0995 43.7265 29.4999 42.7864 28.4129 41.4498L27.5166 42.1787ZM33.7012 44.8818V46.0371C36.9736 46.0371 39.2409 44.8027 40.782 42.9076L39.8857 42.1787L38.9894 41.4498C37.9024 42.7864 36.3029 43.7265 33.7012 43.7265V44.8818ZM39.8857 42.1787L40.7821 42.9076C42.4097 40.9062 43.498 37.8086 43.4981 33.8145L42.3428 33.8145L41.1875 33.8144C41.1874 37.4112 40.2064 39.9533 38.9894 41.4498L39.8857 42.1787ZM42.3428 33.8145H43.4981C43.4981 29.8196 42.4095 26.6985 40.7744 24.676L39.876 25.4023L38.9776 26.1287C40.2058 27.6479 41.1875 30.2163 41.1875 33.8145H42.3428ZM39.876 25.4023L40.7743 24.676C39.2261 22.7612 36.9581 21.5215 33.7012 21.5215V22.6768V23.8321C36.2799 23.8321 37.8802 24.7715 38.9776 26.1287L39.876 25.4023ZM9.33594 43.9482L8.23985 44.3134C8.29039 44.4651 8.34214 44.6138 8.39247 44.757L9.48242 44.374L10.5724 43.991C10.5234 43.8516 10.4766 43.7168 10.432 43.5831L9.33594 43.9482ZM9.48242 44.374L10.5723 43.9909C10.5234 43.8518 10.4766 43.7169 10.432 43.583L9.33594 43.9482L8.23989 44.3135C8.29039 44.465 8.34207 44.6137 8.39251 44.7572L9.48242 44.374ZM59.5977 32.3809L58.4432 32.4259C58.4611 32.8844 58.4707 33.3465 58.4707 33.8115H59.626H60.7813C60.7813 33.315 60.7711 32.8227 60.7521 32.3358L59.5977 32.3809ZM59.626 33.8115L58.4707 33.8115C58.4706 37.2999 57.9657 40.5522 57.0012 43.4848L58.0986 43.8457L59.1961 44.2067C60.2442 41.02 60.7812 37.5218 60.7813 33.8115L59.626 33.8115ZM58.0986 43.8457L59.1961 44.2066C60.1737 41.2336 60.7076 37.9897 60.7742 34.5546L59.6191 34.5322L58.4641 34.5098C58.4015 37.7345 57.9009 40.7485 57.0011 43.4848L58.0986 43.8457ZM59.6191 34.5322L60.7744 34.5432L60.7812 33.8255L59.626 33.8145L58.4707 33.8035L58.4639 34.5212L59.6191 34.5322ZM59.626 33.8145H60.7813C60.7813 33.0822 60.7603 32.3579 60.7188 31.643L59.5654 31.71L58.4121 31.7769C58.451 32.4467 58.4707 33.1263 58.4707 33.8145H59.626ZM59.5654 31.71L58.4115 31.7654L58.4437 32.4363L59.5977 32.3809L60.7516 32.3254L60.7194 31.6545L59.5654 31.71ZM9.12402 43.2832L8.01916 43.6208C8.06907 43.7842 8.12028 43.9465 8.1727 44.1079L9.27148 43.751L10.3703 43.3941C10.3219 43.2452 10.2748 43.0957 10.2289 42.9456L9.12402 43.2832ZM9.27148 43.751L10.3702 43.394C10.3219 43.2453 10.2748 43.0958 10.2289 42.9455L9.12402 43.2832L8.01919 43.6209C8.06905 43.7841 8.12023 43.9464 8.17273 44.108L9.27148 43.751ZM97.2783 38.3027L96.4322 37.5161C96.0603 37.9161 95.6561 38.2908 95.2173 38.6336L95.9287 39.5439L96.6401 40.4543C97.1801 40.0323 97.6738 39.574 98.1244 39.0894L97.2783 38.3027ZM95.9287 39.5439L95.2177 38.6334L93.6044 39.8931L94.3154 40.8037L95.0265 41.7143L96.6397 40.4545L95.9287 39.5439ZM94.3154 40.8037L93.4436 41.5618L95.7542 44.219L96.626 43.4609L97.4978 42.7029L95.1872 40.0456L94.3154 40.8037ZM96.626 43.4609H97.7813V42.1885H96.626H95.4707V43.4609H96.626ZM96.626 42.1885L97.7813 42.1885C97.7813 40.9579 97.9886 39.7785 98.3696 38.6819L97.2783 38.3027L96.187 37.9235C95.7222 39.2611 95.4707 40.6967 95.4707 42.1885L96.626 42.1885ZM8.96973 42.7588L7.85857 43.0751C7.89249 43.1943 7.92729 43.3143 7.96324 43.4348L9.07031 43.1045L10.1774 42.7742C10.1448 42.6651 10.1128 42.5546 10.0809 42.4425L8.96973 42.7588ZM9.07031 43.1045L10.1774 42.7741C10.1448 42.6651 10.1128 42.5547 10.0809 42.4424L8.96973 42.7588L7.8586 43.0752C7.89247 43.1941 7.92726 43.3142 7.96327 43.4349L9.07031 43.1045ZM8.78906 42.0938L7.67069 42.3835C7.70688 42.5232 7.74542 42.6719 7.78649 42.8211L8.90039 42.5146L10.0143 42.2082C9.97853 42.0782 9.9442 41.9459 9.90744 41.804L8.78906 42.0938ZM8.90039 42.5146L10.0143 42.2081C9.97852 42.0782 9.94427 41.9461 9.90741 41.8039L8.78906 42.0938L7.67072 42.3836C7.70684 42.523 7.7454 42.6719 7.78651 42.8212L8.90039 42.5146ZM108.468 36.123V34.9678C104.48 34.9678 101.247 38.2008 101.247 42.1884L102.402 42.1885L103.558 42.1885C103.558 39.4768 105.756 37.2783 108.468 37.2783V36.123ZM102.402 42.1885H101.247V42.1904H102.402H103.558V42.1885H102.402ZM102.402 42.1904L103.558 42.1904C103.558 39.4789 105.756 37.2804 108.468 37.2803L108.468 36.125L108.468 34.9697C104.48 34.9699 101.247 38.2027 101.247 42.1904L102.402 42.1904ZM108.468 36.125V37.2803C110.128 37.2803 111.595 38.1034 112.486 39.369L113.431 38.7041L114.375 38.0392C113.071 36.1857 110.912 34.9697 108.468 34.9697V36.125ZM113.431 38.7041L114.376 38.0394C113.072 36.1855 110.913 34.9678 108.468 34.9678L108.468 36.123L108.468 37.2783C110.128 37.2784 111.595 38.1023 112.486 39.3688L113.431 38.7041ZM8.64062 41.4961L7.51645 41.7624C7.5482 41.8965 7.58077 42.0294 7.61385 42.1612L8.73438 41.8799L9.8549 41.5986C9.82398 41.4754 9.79389 41.3525 9.7648 41.2298L8.64062 41.4961ZM8.73438 41.8799L9.85487 41.5985C9.82399 41.4755 9.79392 41.3526 9.76478 41.2297L8.64062 41.4961L7.51647 41.7625C7.54819 41.8964 7.58073 42.0293 7.61388 42.1613L8.73438 41.8799ZM127.639 36.123L127.639 34.9678C125.064 34.9679 122.807 36.3173 121.531 38.3393L122.508 38.9561L123.485 39.5728C124.357 38.1918 125.891 37.2785 127.639 37.2783L127.639 36.123ZM122.508 38.9561L123.485 39.573C124.356 38.1928 125.891 37.2803 127.639 37.2803V36.125V34.9697C125.065 34.9697 122.808 36.3175 121.531 38.3391L122.508 38.9561ZM127.639 36.125L127.639 37.2803C130.18 37.2804 132.272 39.2116 132.523 41.6854L133.673 41.5684L134.822 41.4513C134.451 37.8099 131.377 34.9698 127.639 34.9697L127.639 36.125ZM133.673 41.5684L134.822 41.4516C134.452 37.8095 131.378 34.9678 127.639 34.9678V36.123V37.2783C130.18 37.2783 132.272 39.2105 132.523 41.6851L133.673 41.5684ZM8.47656 40.7656L7.3461 41.0039C7.3802 41.1657 7.41551 41.3259 7.45154 41.4845L8.57812 41.2285L9.70471 40.9725C9.67091 40.8238 9.63825 40.6755 9.60702 40.5274L8.47656 40.7656ZM8.57812 41.2285L9.70468 40.9724C9.67092 40.8239 9.63828 40.6756 9.607 40.5273L8.47656 40.7656L7.34613 41.004C7.3802 41.1656 7.41547 41.3258 7.45157 41.4846L8.57812 41.2285ZM8.36914 40.2285L7.23461 40.4466C7.26242 40.5913 7.29191 40.7445 7.32382 40.8985L8.45508 40.6641L9.58634 40.4296C9.55833 40.2945 9.53186 40.1571 9.50367 40.0105L8.36914 40.2285ZM8.45508 40.6641L9.58632 40.4295C9.55832 40.2945 9.53191 40.1573 9.50365 40.0104L8.36914 40.2285L7.23463 40.4467C7.26239 40.5911 7.2919 40.7445 7.32384 40.8986L8.45508 40.6641ZM114.057 39.8291L112.993 40.2792C113.06 40.4376 113.119 40.6035 113.171 40.7764L114.277 40.4443L115.384 40.1123C115.31 39.8652 115.223 39.6201 115.121 39.379L114.057 39.8291ZM114.277 40.4443L115.384 40.1125C115.31 39.8658 115.223 39.6202 115.121 39.3782L114.057 39.8281L112.993 40.2781C113.059 40.4361 113.119 40.6022 113.171 40.7761L114.277 40.4443ZM114.057 39.8281H112.901V39.8291H114.057H115.212V39.8281H114.057ZM8.26074 39.6318L7.12219 39.8278C7.13805 39.92 7.15654 40.0303 7.17589 40.1366L8.3125 39.9297L9.44911 39.7228C9.43242 39.6311 9.41767 39.5426 9.3993 39.4359L8.26074 39.6318ZM8.3125 39.9297L9.44909 39.7227C9.4324 39.631 9.41774 39.5429 9.39928 39.4358L8.26074 39.6318L7.1222 39.8279C7.13801 39.9197 7.15654 40.0304 7.17591 40.1367L8.3125 39.9297ZM8.13574 38.8516L6.99268 39.0192C7.01355 39.1616 7.03551 39.3099 7.05948 39.4593L8.2002 39.2764L9.34091 39.0934C9.31961 38.9606 9.2996 38.8257 9.27881 38.6839L8.13574 38.8516ZM8.2002 39.2764L9.34089 39.0933C9.31961 38.9607 9.29964 38.8258 9.27879 38.6838L8.13574 38.8516L6.99269 39.0193C7.01354 39.1614 7.0355 39.3099 7.0595 39.4594L8.2002 39.2764ZM113.554 38.8867L112.585 39.517C112.629 39.5846 112.653 39.6196 112.675 39.6567L113.664 39.0596L114.653 38.4624C114.605 38.3824 114.552 38.3034 114.522 38.2565L113.554 38.8867ZM113.664 39.0596L114.653 38.4627C114.605 38.3825 114.552 38.3028 114.522 38.2567L113.554 38.8867L112.585 39.5167C112.63 39.5852 112.653 39.6194 112.675 39.6565L113.664 39.0596ZM8.02832 38.0537L6.88147 38.1931C6.90632 38.3976 6.93296 38.6012 6.96134 38.8038L8.10547 38.6436L9.2496 38.4833C9.22316 38.2945 9.19833 38.1048 9.17518 37.9143L8.02832 38.0537ZM8.10547 38.6436L9.24959 38.4832C9.22315 38.2946 9.19836 38.1049 9.17516 37.9142L8.02832 38.0537L6.88148 38.1932C6.90633 38.3975 6.93293 38.6011 6.96135 38.8039L8.10547 38.6436ZM7.97656 37.5967L6.82789 37.7202C6.84125 37.8445 6.85546 37.9777 6.87137 38.1112L8.01855 37.9746L9.16574 37.838C9.15173 37.7203 9.13904 37.6015 9.12524 37.4732L7.97656 37.5967ZM8.01855 37.9746L9.16573 37.8379C9.15172 37.7203 9.13907 37.6017 9.12523 37.4731L7.97656 37.5967L6.8279 37.7203C6.84124 37.8442 6.85545 37.9777 6.87138 38.1113L8.01855 37.9746ZM33.7012 16.8975V15.7422C28.7532 15.7422 24.8143 17.7288 22.1361 21.0409C19.4797 24.326 18.1269 28.8313 18.1269 33.8115H19.2822H20.4375C20.4375 29.2259 21.6846 25.2741 23.9328 22.4937C26.1593 19.7402 29.4299 18.0528 33.7012 18.0528V16.8975ZM19.2822 33.8115L18.1269 33.8115C18.1269 35.1859 18.2303 36.52 18.4343 37.8L19.5752 37.6182L20.7161 37.4364C20.5323 36.2826 20.4375 35.0703 20.4375 33.8115L19.2822 33.8115ZM19.5752 37.6182L20.7161 37.4365C20.5535 36.4149 20.4611 35.3468 20.4422 34.241L19.2871 34.2607L18.132 34.2805C18.1526 35.4891 18.2537 36.6656 18.4343 37.7998L19.5752 37.6182ZM19.2871 34.2607L20.4424 34.2506L20.4385 33.8043L19.2832 33.8145L18.128 33.8246L18.1319 34.2709L19.2871 34.2607ZM19.2832 33.8145H20.4385C20.4385 29.2288 21.6853 25.2771 23.9334 22.4966C26.1596 19.7432 29.43 18.0557 33.7012 18.0557L33.7012 16.9004L33.7012 15.7451C28.7532 15.7451 24.8146 17.7318 22.1366 21.0439C19.4805 24.329 18.1279 28.8343 18.1279 33.8145H19.2832ZM33.7012 16.9004L33.688 18.0556L34.1177 18.0605L34.1309 16.9053L34.144 15.7501L33.7143 15.7452L33.7012 16.9004ZM34.1309 16.9053L34.1018 18.0602C38.1031 18.1608 41.199 19.7689 43.3516 22.3528L44.2393 21.6133L45.1269 20.8738C42.5378 17.7661 38.81 15.8672 34.1599 15.7503L34.1309 16.9053ZM44.2393 21.6133L45.127 20.8739C42.4515 17.6615 38.5633 15.7423 33.7012 15.7422L33.7012 16.8975L33.7011 18.0528C37.9001 18.0529 41.1294 19.6846 43.3515 22.3526L44.2393 21.6133ZM143.205 35.5312L142.102 35.8743C142.179 36.1213 142.269 36.3584 142.368 36.5854L143.427 36.123L144.485 35.6607C144.417 35.5033 144.357 35.346 144.308 35.1882L143.205 35.5312ZM143.427 36.123L144.486 35.661C144.417 35.5048 144.358 35.3479 144.309 35.19L143.206 35.5332L142.103 35.8764C142.179 36.1219 142.269 36.3582 142.368 36.5851L143.427 36.123ZM143.206 35.5332L144.239 35.0165L144.238 35.0146L143.205 35.5312L142.172 36.0479L142.173 36.0499L143.206 35.5332ZM137.024 34.9678L136.109 35.6729C136.18 35.7641 136.25 35.8607 136.326 35.9666L137.265 35.293L138.203 34.6193C138.122 34.5062 138.034 34.3848 137.94 34.2626L137.024 34.9678ZM137.265 35.293L138.411 35.1464C138.388 34.9725 138.37 34.8018 138.357 34.633L137.205 34.7227L136.053 34.8123C136.07 35.0265 136.093 35.2359 136.119 35.4395L137.265 35.293ZM137.205 34.7227L136.272 34.0412C136.201 34.139 136.159 34.1979 136.109 34.2627L137.024 34.9678L137.94 35.6729C138.014 35.5769 138.09 35.4703 138.138 35.4041L137.205 34.7227ZM117.853 34.9678L116.937 35.6729C116.994 35.7461 117.049 35.8228 117.118 35.9173L118.053 35.2383L118.987 34.5593C118.924 34.4723 118.848 34.3669 118.768 34.2626L117.853 34.9678ZM118.053 35.2383L118.987 35.9172C119.052 35.8289 119.111 35.7487 119.169 35.6729L118.254 34.9678L117.339 34.2626C117.26 34.3647 117.186 34.4658 117.118 34.5593L118.053 35.2383ZM118.254 34.9678L119.169 34.2627C119.112 34.1885 119.055 34.1103 118.988 34.0174L118.053 34.6963L117.118 35.3751C117.183 35.4646 117.258 35.5687 117.339 35.6729L118.254 34.9678ZM118.053 34.6963L117.118 34.0174C117.045 34.1173 116.993 34.1903 116.937 34.2626L117.853 34.9678L118.768 35.6729C118.849 35.5672 118.928 35.4574 118.988 35.3752L118.053 34.6963ZM48.0879 35.0684L49.2418 35.1249C49.2553 34.8484 49.2645 34.5703 49.2694 34.2908L48.1143 34.2705L46.9591 34.2502C46.9546 34.5064 46.9463 34.7603 46.934 35.0118L48.0879 35.0684ZM48.1143 34.2705L46.9591 34.2503C46.9547 34.5063 46.9463 34.7602 46.934 35.012L48.0879 35.0684L49.2418 35.1248C49.2553 34.8485 49.2645 34.5705 49.2694 34.2907L48.1143 34.2705ZM148.723 11.8633L148.723 10.708C144.895 10.708 141.79 13.8111 141.79 17.6396H142.945H144.101C144.101 15.0877 146.17 13.0186 148.723 13.0186L148.723 11.8633ZM142.945 17.6396H141.79V33.8135H142.945H144.101V17.6396H142.945ZM142.945 33.8135H141.79C141.79 34.0456 141.802 34.2733 141.824 34.4953L142.974 34.3828L144.123 34.2704C144.109 34.1178 144.101 33.9654 144.101 33.8135H142.945ZM142.974 34.3828L144.123 34.2707C144.109 34.122 144.102 33.9701 144.102 33.8154L142.946 33.8154L141.791 33.8155C141.791 34.0436 141.802 34.2703 141.824 34.495L142.974 34.3828ZM142.946 33.8154H144.102V17.6406H142.946H141.791V33.8154H142.946ZM142.946 17.6406L144.102 17.6407C144.102 15.0885 146.171 13.0196 148.723 13.0196L148.723 11.8643L148.723 10.709C144.894 10.709 141.791 13.8125 141.791 17.6406L142.946 17.6406ZM148.723 11.8643V13.0196H173.562V11.8643V10.709H148.723V11.8643ZM173.562 11.8643V13.0196C175.116 13.0196 176.491 13.787 177.331 14.969L178.272 14.2998L179.214 13.6306C177.96 11.8661 175.897 10.709 173.562 10.709V11.8643ZM178.272 14.2998L179.214 13.6309C177.961 11.8657 175.898 10.7082 173.562 10.708L173.562 11.8633L173.561 13.0186C175.116 13.0187 176.491 13.7863 177.331 14.9687L178.272 14.2998ZM173.562 11.8633V10.708H148.723V11.8633V13.0186H173.562V11.8633ZM48.1025 32.9053L49.2571 32.8649C49.2471 32.5776 49.2324 32.2921 49.2132 32.0087L48.0605 32.0869L46.9079 32.1652C46.9254 32.4231 46.9388 32.6833 46.9479 32.9457L48.1025 32.9053ZM48.0605 32.0869L46.9079 32.1653C46.9254 32.4229 46.9387 32.6831 46.948 32.9458L48.1025 32.9053L49.2571 32.8647C49.247 32.5777 49.2325 32.2923 49.2132 32.0085L48.0605 32.0869ZM93.3115 26.627L94.2061 25.8959C91.9326 23.1139 87.9047 22.6406 85.0338 24.8836L85.7451 25.7939L86.4564 26.7043C88.3345 25.237 90.9362 25.5461 92.417 27.358L93.3115 26.627ZM85.7451 25.7939L85.0338 24.8836L76.8532 31.2752L77.5645 32.1855L78.2757 33.0959L86.4564 26.7043L85.7451 25.7939ZM77.5645 32.1855H76.4092V32.1885H77.5645H78.7197V32.1855H77.5645ZM77.5645 32.1885L78.2758 33.0988L86.4574 26.7063L85.7461 25.7959L85.0348 24.8855L76.8532 31.2781L77.5645 32.1885ZM85.7461 25.7959L86.4575 26.7062C88.3351 25.239 90.9362 25.5475 92.4172 27.3583L93.3115 26.627L94.2058 25.8956C91.9319 23.1152 87.905 22.6427 85.0347 24.8856L85.7461 25.7959ZM48.0586 32.0576L49.2111 31.978C49.2019 31.8447 49.1917 31.7117 49.1805 31.579L48.0293 31.6768L46.8781 31.7745C46.8884 31.8948 46.8976 32.0157 46.906 32.1372L48.0586 32.0576ZM48.0293 31.6768L46.8782 31.7746C46.8884 31.8947 46.8976 32.0156 46.9061 32.1374L48.0586 32.0576L49.2111 31.9778C49.2019 31.8448 49.1917 31.7118 49.1804 31.5789L48.0293 31.6768ZM59.5322 31.2266L60.6845 31.1436C60.6793 31.0709 60.6731 30.9792 60.6664 30.8934L59.5146 30.9844L58.3629 31.0754C58.3689 31.1507 58.3735 31.2205 58.3799 31.3095L59.5322 31.2266ZM59.5146 30.9844L58.3629 31.0753C58.3689 31.1506 58.3735 31.2208 58.3799 31.3094L59.5322 31.2266L60.6845 31.1437C60.6793 31.0706 60.6731 30.9793 60.6664 30.8935L59.5146 30.9844ZM59.4844 30.6367L60.6351 30.534C60.6263 30.4356 60.6156 30.304 60.6037 30.1846L59.4541 30.2988L58.3045 30.413C58.3149 30.5183 58.3223 30.6122 58.3337 30.7394L59.4844 30.6367ZM59.4541 30.2988L58.3045 30.4129C58.3149 30.5181 58.3223 30.6125 58.3336 30.7393L59.4844 30.6367L60.6351 30.5341C60.6263 30.4352 60.6156 30.3041 60.6037 30.1847L59.4541 30.2988ZM59.2881 28.9189L58.1442 29.0812C58.194 29.432 58.2372 29.7884 58.2761 30.1508L59.4248 30.0273L60.5735 29.9039C60.5324 29.5214 60.4861 29.1386 60.4319 28.7567L59.2881 28.9189ZM59.4248 30.0273L60.5735 29.9038C60.5324 29.5215 60.4861 29.1387 60.4319 28.7566L59.2881 28.9189L58.1443 29.0813C58.194 29.4319 58.2371 29.7882 58.2761 30.1509L59.4248 30.0273ZM133.555 29.0801L132.427 28.8275C132.399 28.952 132.37 29.0668 132.338 29.174L133.443 29.5088L134.549 29.8436C134.602 29.6693 134.645 29.4978 134.682 29.3326L133.555 29.0801ZM133.443 29.5088L134.549 29.8439C134.602 29.6691 134.645 29.4974 134.682 29.3329L133.555 29.0801L132.427 28.8272C132.399 28.9524 132.37 29.067 132.338 29.1737L133.443 29.5088ZM102.487 28.7559L101.348 28.9466C101.372 29.0888 101.4 29.2273 101.43 29.362L102.557 29.1045L103.683 28.847C103.661 28.7516 103.642 28.6579 103.627 28.5651L102.487 28.7559ZM102.557 29.1045L103.683 28.8473C103.661 28.7513 103.642 28.6576 103.627 28.5654L102.487 28.7559L101.348 28.9463C101.372 29.089 101.4 29.2276 101.43 29.3617L102.557 29.1045ZM47.583 28.7236L48.7109 28.4735C48.6884 28.3722 48.6654 28.2718 48.6418 28.1724L47.5176 28.4385L46.3933 28.7046C46.4146 28.7944 46.4352 28.8841 46.4551 28.9738L47.583 28.7236ZM47.5176 28.4385L46.3934 28.7047C46.4146 28.7943 46.4352 28.884 46.4551 28.9739L47.583 28.7236L48.7109 28.4733C48.6885 28.3724 48.6654 28.272 48.6418 28.1722L47.5176 28.4385ZM133.69 28.1436L132.538 28.0695C132.528 28.223 132.511 28.3736 132.488 28.5212L133.629 28.7012L134.77 28.8811C134.805 28.6622 134.829 28.4408 134.843 28.2176L133.69 28.1436ZM133.629 28.7012L134.77 28.8814C134.805 28.6619 134.829 28.4405 134.843 28.2179L133.69 28.1436L132.538 28.0692C132.528 28.2233 132.511 28.3739 132.488 28.5209L133.629 28.7012ZM108.468 21.6826V20.5273C104.48 20.5273 101.247 23.7592 101.247 27.747L102.402 27.7471L103.558 27.7471C103.558 25.0357 105.756 22.8379 108.468 22.8379V21.6826ZM102.402 27.7471H101.247C101.247 28.0905 101.272 28.4272 101.318 28.7547L102.462 28.5947L103.606 28.4348C103.574 28.2085 103.558 27.9788 103.558 27.7471H102.402ZM102.462 28.5947L103.606 28.4351C103.575 28.2085 103.558 27.9796 103.558 27.749L102.402 27.749L101.247 27.749C101.247 28.0925 101.272 28.4282 101.318 28.7544L102.462 28.5947ZM102.402 27.749H103.558C103.558 25.0375 105.756 22.839 108.468 22.8389L108.468 21.6836L108.468 20.5283C104.48 20.5285 101.247 23.7612 101.247 27.749H102.402ZM108.468 21.6836V22.8389C110.272 22.8389 111.85 23.812 112.705 25.2676L113.701 24.6826L114.697 24.0976C113.445 21.9652 111.125 20.5283 108.468 20.5283V21.6836ZM113.701 24.6826L114.698 24.0979C113.446 21.9646 111.126 20.5274 108.468 20.5273L108.468 21.6826L108.468 22.8379C110.272 22.8379 111.85 23.8112 112.705 25.2674L113.701 24.6826ZM59.1152 27.8408L60.2529 27.6395C60.2435 27.5864 60.2278 27.4938 60.2143 27.4208L59.0781 27.6299L57.9419 27.839C57.9543 27.9062 57.9621 27.9545 57.9776 28.0421L59.1152 27.8408ZM59.0781 27.6299L57.9419 27.8389C57.9542 27.9059 57.9622 27.955 57.9776 28.042L59.1152 27.8408L60.2529 27.6396C60.2434 27.5858 60.2278 27.4941 60.2144 27.4209L59.0781 27.6299ZM127.639 21.6826L127.639 20.5273C125.099 20.5275 122.868 21.8406 121.583 23.8176L122.552 24.4473L123.52 25.0769C124.398 23.7267 125.915 22.838 127.639 22.8379L127.639 21.6826ZM122.552 24.4473L123.52 25.0772C124.398 23.7274 125.915 22.8389 127.639 22.8389V21.6836V20.5283C125.099 20.5283 122.869 21.8411 121.583 23.8174L122.552 24.4473ZM127.639 21.6836L127.639 22.8389C130.251 22.839 132.387 24.88 132.539 27.4539L133.692 27.3857L134.846 27.3176C134.622 23.5304 131.482 20.5284 127.639 20.5283L127.639 21.6836ZM133.692 27.3857L134.846 27.3179C134.623 23.5297 131.482 20.5273 127.639 20.5273V21.6826V22.8379C130.252 22.8379 132.388 24.8791 132.539 27.4536L133.692 27.3857ZM58.9814 27.1328L60.1141 26.9052C60.107 26.8699 60.094 26.8035 60.0837 26.7532L58.9521 26.9863L57.8206 27.2194C57.8303 27.2666 57.8362 27.298 57.8488 27.3604L58.9814 27.1328ZM58.9521 26.9863L57.8206 27.2193C57.8303 27.2663 57.8364 27.2985 57.8488 27.3603L58.9814 27.1328L60.1141 26.9053C60.1069 26.8694 60.0941 26.8039 60.0837 26.7533L58.9521 26.9863ZM58.8535 26.5264L59.9813 26.2758C59.9688 26.2195 59.9483 26.1235 59.9306 26.0466L58.8047 26.3057L57.6788 26.5647C57.6949 26.6345 57.7055 26.6859 57.7257 26.7769L58.8535 26.5264ZM58.8047 26.3057L57.6788 26.5646C57.6948 26.6342 57.7056 26.6864 57.7257 26.7768L58.8535 26.5264L59.9813 26.2759C59.9687 26.219 59.9483 26.1238 59.9306 26.0467L58.8047 26.3057ZM46.5469 25.4482L45.4829 25.8984C45.6104 26.1997 45.73 26.5081 45.8417 26.8233L46.9307 26.4375L48.0196 26.0517C47.8929 25.694 47.7566 25.3426 47.6108 24.998L46.5469 25.4482ZM46.9307 26.4375L48.0197 26.0519C47.8929 25.6938 47.7565 25.3425 47.6109 24.9982L46.5469 25.4482L45.4828 25.8983C45.6104 26.1999 45.7301 26.5082 45.8416 26.8231L46.9307 26.4375ZM58.7344 26.0127L59.8576 25.7423C59.8291 25.6238 59.7981 25.4942 59.7652 25.3649L58.6455 25.6494L57.5258 25.9339C57.5542 26.0458 57.5812 26.1587 57.6112 26.283L58.7344 26.0127ZM58.6455 25.6494L57.5258 25.9338C57.5542 26.0458 57.5813 26.1589 57.6111 26.2829L58.7344 26.0127L59.8576 25.7425C59.829 25.6236 59.7981 25.4943 59.7652 25.365L58.6455 25.6494ZM114.057 25.3877L112.993 25.8378C113.061 25.9987 113.121 26.1672 113.173 26.3429L114.28 26.0127L115.387 25.6825C115.312 25.4313 115.224 25.1823 115.121 24.9376L114.057 25.3877ZM114.28 26.0127L115.387 25.6827C115.313 25.432 115.225 25.1825 115.121 24.9367L114.057 25.3867L112.993 25.8367C113.06 25.9972 113.12 26.166 113.173 26.3426L114.28 26.0127ZM114.057 25.3867H112.901V25.3877H114.057H115.212V25.3867H114.057ZM58.5811 25.4023L59.6983 25.1081C59.6672 24.9901 59.6351 24.8703 59.6018 24.7497L58.4883 25.0576L57.3748 25.3656C57.4048 25.4739 57.4342 25.584 57.4639 25.6966L58.5811 25.4023ZM58.4883 25.0576L57.3747 25.3654C57.4048 25.474 57.4343 25.5841 57.4638 25.6965L58.5811 25.4023L59.6983 25.1082C59.6672 24.99 59.6351 24.8702 59.6018 24.7498L58.4883 25.0576ZM58.3926 24.7217L59.5023 24.4003C59.476 24.3097 59.447 24.2089 59.4169 24.1086L58.3105 24.4414L57.2042 24.7742C57.2301 24.8601 57.2549 24.9464 57.2829 25.0431L58.3926 24.7217ZM58.3105 24.4414L57.2042 24.7741C57.23 24.8601 57.255 24.9466 57.2829 25.043L58.3926 24.7217L59.5023 24.4004C59.476 24.3095 59.447 24.2089 59.4169 24.1088L58.3105 24.4414ZM44.2715 21.6523L43.3811 22.3886C43.9977 23.1342 44.5408 23.9659 45.0058 24.8742L46.0342 24.3477L47.0625 23.8211C46.5256 22.7725 45.8917 21.7987 45.1618 20.9161L44.2715 21.6523ZM46.0342 24.3477L47.0626 23.8213C46.5257 22.7722 45.8914 21.7988 45.1619 20.9163L44.2715 21.6523L43.381 22.3884C43.9977 23.1345 44.541 23.9659 45.0058 24.874L46.0342 24.3477ZM57.9736 23.3994L59.0661 23.0236C59.0616 23.0106 59.0277 22.9095 59.0131 22.8679L57.9229 23.25L56.8326 23.6321C56.8528 23.6898 56.8514 23.6887 56.8812 23.7752L57.9736 23.3994ZM57.9229 23.25L56.8325 23.6319C56.8525 23.6891 56.8517 23.6896 56.8811 23.7751L57.9736 23.3994L59.0661 23.0237C59.0613 23.0097 59.0279 22.9101 59.0132 22.8681L57.9229 23.25ZM57.7559 22.7881L58.8391 22.3865C58.8242 22.3462 58.8047 22.2932 58.7861 22.2439L57.7051 22.6514L56.624 23.0588C56.6397 23.1005 56.6537 23.1387 56.6726 23.1897L57.7559 22.7881ZM57.7051 22.6514L56.624 23.0587C56.6397 23.1003 56.6539 23.1391 56.6726 23.1896L57.7559 22.7881L58.8391 22.3866C58.824 22.3458 58.8048 22.2933 58.7862 22.244L57.7051 22.6514ZM57.5654 22.292L58.6405 21.869C58.6155 21.8054 58.5727 21.6934 58.5365 21.6041L57.4658 22.0381L56.3951 22.4721C56.4272 22.5511 56.4487 22.6092 56.4903 22.715L57.5654 22.292ZM57.4658 22.0381L56.3951 22.4719C56.4271 22.5509 56.4489 22.6097 56.4903 22.7148L57.5654 22.292L58.6406 21.8691C58.6153 21.8049 58.5728 21.6937 58.5366 21.6042L57.4658 22.0381ZM57.2969 21.6328L58.3602 21.1811C58.344 21.1431 58.3153 21.0742 58.2918 21.02L57.2314 21.4785L56.171 21.9371C56.1919 21.9853 56.206 22.0197 56.2336 22.0846L57.2969 21.6328ZM57.2314 21.4785L56.171 21.9369C56.1918 21.985 56.2062 22.0202 56.2335 22.0844L57.2969 21.6328L58.3602 21.1812C58.3438 21.1425 58.3154 21.0745 58.2919 21.0201L57.2314 21.4785ZM57.0566 21.085L58.1093 20.6089C58.0849 20.555 58.0587 20.4969 58.0317 20.4385L56.9824 20.9219L55.9331 21.4053C55.9561 21.4552 55.9791 21.506 56.004 21.561L57.0566 21.085ZM56.9824 20.9219L55.9331 21.4052C55.9561 21.4553 55.9792 21.5063 56.0039 21.5609L57.0566 21.085L58.1093 20.609C58.0848 20.5547 58.0586 20.4969 58.0318 20.4386L56.9824 20.9219ZM56.7988 20.5332L57.8399 20.0322C57.8081 19.9662 57.7744 19.8964 57.7398 19.826L56.7031 20.3359L55.6665 20.8459C55.6963 20.9065 55.7262 20.9684 55.7578 21.0342L56.7988 20.5332ZM56.7031 20.3359L55.6664 20.8458C55.6963 20.9066 55.7263 20.9686 55.7577 21.0341L56.7988 20.5332L57.8399 20.0324C57.808 19.966 57.7744 19.8964 57.7398 19.8261L56.7031 20.3359ZM56.498 19.9287L57.5253 19.4001C57.5192 19.3882 57.5132 19.3764 57.5043 19.3587C57.4961 19.3426 57.4855 19.3218 57.4742 19.3L56.4492 19.833L55.4243 20.3661C55.4459 20.4076 55.4374 20.3925 55.4708 20.4574L56.498 19.9287ZM56.4492 19.833L55.4242 20.366C55.4455 20.4068 55.4379 20.3935 55.4707 20.4572L56.498 19.9287L57.5254 19.4002C57.5192 19.3882 57.5132 19.3763 57.5042 19.3586C57.496 19.3425 57.4855 19.3218 57.4742 19.3001L56.4492 19.833ZM55.916 18.8604L56.916 18.2817C56.8896 18.2361 56.8601 18.1864 56.8393 18.1508L55.8428 18.7354L54.8463 19.3199C54.8742 19.3676 54.8941 19.401 54.9161 19.439L55.916 18.8604ZM55.8428 18.7354L54.8462 19.3198C54.8745 19.368 54.894 19.4008 54.916 19.4388L55.916 18.8604L56.916 18.2819C56.8897 18.2362 56.8599 18.186 56.8393 18.1509L55.8428 18.7354ZM55.2793 17.8223L56.2487 17.1938C56.2209 17.1509 56.1911 17.105 56.1606 17.0587L55.1953 17.6934L54.23 18.3281C54.2558 18.3674 54.2819 18.4075 54.3099 18.4507L55.2793 17.8223ZM55.1953 17.6934L54.2299 18.328C54.2558 18.3674 54.282 18.4077 54.3098 18.4506L55.2793 17.8223L56.2488 17.1939C56.2208 17.1507 56.1911 17.105 56.1607 17.0588L55.1953 17.6934ZM179.33 17.3438L178.176 17.4022C178.18 17.4793 178.182 17.5538 178.183 17.6266L179.338 17.623L180.493 17.6195C180.493 17.505 180.489 17.3933 180.484 17.2853L179.33 17.3438ZM179.338 17.623L180.493 17.6198C180.493 17.5047 180.489 17.3923 180.484 17.2832L179.33 17.3418L178.176 17.4004C178.18 17.4776 178.182 17.5528 178.183 17.6263L179.338 17.623ZM179.33 17.3418H178.175V17.3438H179.33H180.485V17.3418H179.33ZM54.5723 16.791L55.5069 16.112C55.4944 16.0947 55.4825 16.0788 55.4742 16.0676C55.4648 16.055 55.4596 16.048 55.4547 16.0412L54.5225 16.7236L53.5902 17.406C53.6381 17.4714 53.6074 17.4285 53.6376 17.4701L54.5723 16.791ZM54.5225 16.7236L53.5902 17.4059C53.639 17.4726 53.6067 17.4275 53.6375 17.47L54.5723 16.791L55.507 16.1121C55.4944 16.0948 55.4825 16.0787 55.4742 16.0676C55.4648 16.0549 55.4596 16.048 55.4548 16.0413L54.5225 16.7236ZM54.2334 16.3369L55.1512 15.6352C55.1236 15.5992 55.088 15.5523 55.0538 15.5081L54.1406 16.2158L53.2275 16.9235C53.2555 16.9597 53.2814 16.9938 53.3156 17.0386L54.2334 16.3369ZM54.1406 16.2158L53.2274 16.9234C53.2554 16.9596 53.2816 16.9941 53.3155 17.0385L54.2334 16.3369L55.1513 15.6353C55.1234 15.5989 55.0881 15.5524 55.0539 15.5082L54.1406 16.2158ZM178.538 14.71L177.543 15.2972C177.724 15.6032 177.87 15.9272 177.975 16.2653L179.078 15.9219L180.181 15.5785C180.02 15.061 179.799 14.5741 179.533 14.1227L178.538 14.71ZM179.078 15.9219L180.181 15.5788C180.02 15.0607 179.799 14.5739 179.533 14.123L178.538 14.71L177.543 15.2969C177.724 15.6036 177.87 15.9274 177.975 16.265L179.078 15.9219ZM53.8643 15.8682L54.7636 15.1429C54.7351 15.1076 54.699 15.0626 54.664 15.0198L53.7695 15.751L52.875 16.4821C52.9036 16.5171 52.9304 16.5505 52.965 16.5934L53.8643 15.8682ZM53.7695 15.751L52.8749 16.482C52.9035 16.517 52.9306 16.5508 52.9649 16.5933L53.8643 15.8682L54.7636 15.143C54.7348 15.1073 54.6991 15.0627 54.6641 15.0199L53.7695 15.751ZM50.8955 12.8223L51.6425 11.9409C51.6228 11.9243 51.6029 11.9075 51.5829 11.8906L50.8389 12.7744L50.0948 13.6582C50.1126 13.6732 50.1305 13.6883 50.1486 13.7036L50.8955 12.8223ZM50.8389 12.7744L50.0948 13.6582C50.1127 13.6733 50.1306 13.6884 50.1485 13.7035L50.8955 12.8223L51.6426 11.941C51.6227 11.9242 51.6029 11.9074 51.583 11.8907L50.8389 12.7744ZM48.4482 11.0176L49.0696 10.0436C49.0513 10.0319 49.0343 10.0214 49.0248 10.0156C49.0131 10.0084 49.0097 10.0063 49.007 10.0046L48.3887 10.9805L47.7704 11.9564C47.7874 11.9672 47.8039 11.9773 47.8121 11.9824C47.8226 11.9888 47.8255 11.9907 47.8269 11.9916L48.4482 11.0176ZM48.3887 10.9805L47.7703 11.9563C47.7874 11.9672 47.804 11.9774 47.8122 11.9824C47.8226 11.9889 47.8255 11.9907 47.8268 11.9915L48.4482 11.0176L49.0696 10.0436C49.0513 10.0319 49.0342 10.0214 49.0248 10.0156C49.0131 10.0084 49.0097 10.0063 49.0071 10.0046L48.3887 10.9805Z" fill="#E1E1E1" mask="url(#path-1-outside-1_1411_1594)"/>
  <path d="M90.0908 40.4579L97.6002 34.3926V47.1008L90.0908 40.4579Z" fill="white"/>
  <path d="M112.331 35.2567L119.84 29.1914V41.8997L112.331 35.2567Z" fill="white"/>
  <path d="M133.703 35.3116L141.213 30.3491V40.7468L133.703 35.3116Z" fill="white"/>
  <path d="M19.2821 33.9993C19.2821 43.5652 24.481 50.8435 33.7002 50.8435C42.9195 50.8435 48.1183 43.5652 48.1183 33.9993C48.1183 24.4335 42.9195 17.0858 33.7002 17.0858C24.481 17.0858 19.2821 24.4335 19.2821 33.9993ZM7.77539 33.9993C7.77539 18.6108 17.2719 7.24268 33.7002 7.24268C50.1285 7.24268 59.6251 18.6108 59.6251 33.9993C59.6251 49.3879 50.1285 60.6867 33.7002 60.6867C17.2719 60.6867 7.77539 49.3879 7.77539 33.9993Z" fill="#3E3333"/>
  <path d="M108.468 36.3084C111.817 36.3084 114.533 39.0239 114.533 42.3737V52.7714C114.533 56.1211 111.817 58.8367 108.468 58.8367C105.118 58.8367 102.402 56.1211 102.402 52.7714V42.3737C102.402 39.0239 105.118 36.3084 108.468 36.3084ZM108.468 21.8672C111.817 21.8672 114.533 24.5827 114.533 27.9325C114.533 31.2823 111.817 33.9978 108.468 33.9978C105.118 33.9978 102.402 31.2823 102.402 27.9325C102.402 24.5827 105.118 21.8672 108.468 21.8672Z" fill="#3E3333"/>
  <path d="M127.639 36.3084C130.988 36.3084 133.704 39.0239 133.704 42.3737V52.7714C133.704 56.1211 130.988 58.8367 127.639 58.8367C124.289 58.8367 121.573 56.1211 121.573 52.7714V42.3737C121.573 39.0239 124.289 36.3084 127.639 36.3084ZM127.639 21.8672C130.988 21.8672 133.704 24.5827 133.704 27.9325C133.704 31.2823 130.988 33.9978 127.639 33.9978C124.289 33.9978 121.573 31.2823 121.573 27.9325C121.573 24.5827 124.289 21.8672 127.639 21.8672Z" fill="#3E3333"/>
  <path d="M71.4989 12.0483C74.8487 12.0483 77.5642 14.7639 77.5642 18.1136V32.3726L85.746 25.9796C88.2129 24.0519 91.696 24.5481 93.5262 27.0881C95.3564 29.6282 94.8406 33.2502 92.3738 35.178L85.9638 40.1861L93.4512 48.7973C95.3132 50.9386 95.149 54.2526 93.0845 56.1995C91.0201 58.1464 87.8371 57.9888 85.9751 55.8475L77.8621 46.5171L77.5642 46.7501V52.7725C77.5642 56.1223 74.8487 58.8378 71.4989 58.8378C68.1491 58.8378 65.4336 56.1223 65.4336 52.7725V18.1136C65.4336 14.7639 68.1491 12.0483 71.4989 12.0483Z" fill="#3E3333"/>
  <path d="M173.562 12.0483C176.752 12.0483 179.338 14.6346 179.338 17.8248V33.9989C179.338 37.1892 176.752 39.7754 173.562 39.7754H159.773C158.115 42.2089 155.285 44.682 150.017 45.7736C149.22 45.9387 148.768 45.0872 149.324 44.493C150.537 43.1977 151.782 41.6485 151.575 39.7754H148.723C145.533 39.7754 142.946 37.1892 142.946 33.9989V17.8248C142.946 14.6346 145.533 12.0483 148.723 12.0483H173.562Z" fill="#FF7913"/>
  <path d="M166.138 21.8933C166.546 21.8933 166.886 22.0519 167.181 22.3239C167.453 22.6185 167.611 22.9585 167.611 23.3664C167.611 23.7744 167.453 24.137 167.181 24.409C166.886 24.681 166.546 24.8169 166.138 24.8169H165.549L165.096 27.5593H165.436C165.844 27.5593 166.184 27.7179 166.456 27.9899C166.727 28.2619 166.886 28.6018 166.886 29.0098C166.886 29.4178 166.727 29.7804 166.456 30.0524C166.184 30.347 165.844 30.483 165.436 30.483H164.597L164.212 32.772C164.121 33.1347 163.962 33.4293 163.69 33.6559C163.419 33.8826 163.124 33.9959 162.761 33.9959C162.671 33.9959 162.603 33.9959 162.535 33.9732C161.651 33.7466 161.243 33.2027 161.333 32.2961L161.628 30.483H159.611L159.226 32.772C159.135 33.1347 158.976 33.4293 158.704 33.6559C158.432 33.8826 158.138 33.9959 157.775 33.9959C157.685 33.9959 157.617 33.9959 157.549 33.9732C156.665 33.7466 156.257 33.2027 156.347 32.2961L156.642 30.483H156.551C156.143 30.483 155.781 30.347 155.509 30.0524C155.214 29.7804 155.078 29.4178 155.078 29.0098C155.078 28.6018 155.214 28.2619 155.509 27.9899C155.781 27.7179 156.143 27.5593 156.551 27.5593H157.141L157.594 24.8169H157.254C156.846 24.8169 156.483 24.681 156.211 24.409C155.917 24.137 155.781 23.7744 155.781 23.3664C155.781 22.9585 155.917 22.6185 156.211 22.3239C156.483 22.0519 156.846 21.8933 157.254 21.8933H158.092L158.478 19.6042C158.704 18.7429 159.248 18.3577 160.155 18.403C161.016 18.6296 161.424 19.1962 161.356 20.0801L161.061 21.8933H163.079L163.464 19.6042C163.69 18.7429 164.234 18.3577 165.141 18.403C166.002 18.6296 166.41 19.1962 166.342 20.0801L166.048 21.8933H166.138ZM162.58 27.5593L163.033 24.8169H161.016L160.563 27.5593H162.58Z" fill="white"/>
</svg>