<svg width="51" height="51" viewBox="0 0 51 51" fill="none" xmlns="http://www.w3.org/2000/svg">
<rect width="51.0005" height="50.9996" rx="5.17642" fill="#C6F692"/>
<mask id="mask0_181_871" style="mask-type:alpha" maskUnits="userSpaceOnUse" x="0" y="7" width="51" height="44">
<rect y="7.65027" width="51.0005" height="43.3497" rx="5.17545" fill="#FFD4D4"/>
</mask>
<g mask="url(#mask0_181_871)">
<ellipse cx="5.42113" cy="34.8982" rx="10.6418" ry="10.9406" fill="#B7EE84"/>
<ellipse cx="44.7756" cy="34.8982" rx="10.6418" ry="10.9406" fill="#B7EE84"/>
</g>
<ellipse cx="13.7754" cy="22.8292" rx="8.67479" ry="8.67465" fill="white"/>
<ellipse cx="13.7748" cy="22.8299" rx="4.76503" ry="4.76495" fill="#5E4E4E"/>
<ellipse cx="37.7226" cy="22.8294" rx="8.67479" ry="8.67465" fill="white"/>
<ellipse cx="37.723" cy="22.83" rx="4.76503" ry="4.76495" fill="#5E4E4E"/>
<ellipse cx="25.8728" cy="35.4165" rx="2.93232" ry="6.10891" fill="#5E4E4E"/>
<mask id="mask1_181_871" style="mask-type:alpha" maskUnits="userSpaceOnUse" x="22" y="29" width="7" height="13">
<ellipse cx="25.8728" cy="35.4168" rx="2.93232" ry="6.10891" fill="#5E4E4E"/>
</mask>
<g mask="url(#mask1_181_871)">
<ellipse cx="3.81033" cy="6.00561" rx="3.81033" ry="6.00561" transform="matrix(0.928282 0.371878 -0.248365 0.968667 26.1689 32.9723)" fill="#7F6E6E"/>
</g>
<ellipse cx="39.3087" cy="21.4874" rx="1.2218" ry="1.22178" fill="#7F6E6E"/>
<ellipse cx="15.6075" cy="21.4874" rx="1.2218" ry="1.22178" fill="#7F6E6E"/>
<path d="M11.6982 10.0009C12.65 9.31624 14.3991 8.76838 16.0967 10.0009" stroke="#8AD539" stroke-width="0.63245" stroke-linecap="round"/>
<path d="M35.6455 10.0009C36.5972 9.31624 38.3463 8.76838 40.044 10.0009" stroke="#8AD539" stroke-width="0.63245" stroke-linecap="round"/>
<path d="M27.8262 42.9906C26.9802 43.6752 25.4254 44.2231 23.9164 42.9906" stroke="#A0E555" stroke-width="0.63245" stroke-linecap="round"/>
<mask id="mask2_181_871" style="mask-type:alpha" maskUnits="userSpaceOnUse" x="0" y="0" width="51" height="44">
<rect width="51.0005" height="43.7398" rx="5.17545" fill="#C6F692"/>
</mask>
<g mask="url(#mask2_181_871)">
<path d="M45.963 -0.963201C46.5384 -2.15441 48.2351 -2.15441 48.8105 -0.963201L51.1597 3.90021C51.6668 4.9501 50.9019 6.16905 49.736 6.16905H45.0375C43.8716 6.16905 43.1067 4.9501 43.6138 3.90021L45.963 -0.963201Z" fill="#B4EB79"/>
<path d="M47.5991 7.32378C48.3044 7.38155 48.5953 8.2826 48.1107 8.90911L45.9115 11.7528C45.447 12.3534 44.6112 12.2503 44.3901 11.5651L43.3877 8.45919C43.1666 7.77397 43.7213 7.00619 44.3975 7.06157L47.5991 7.32378Z" fill="#B4EB79"/>
<path d="M41.5111 3.21077C41.818 2.54812 42.7944 2.66736 42.987 3.39102L43.6362 5.83078C43.7789 6.36701 43.3553 6.863 42.8112 6.79656L41.1273 6.5909C40.5832 6.52445 40.249 5.9359 40.4764 5.44486L41.5111 3.21077Z" fill="#B4EB79"/>
<path d="M50.8449 6.57254C51.3121 6.32498 51.7921 6.89601 51.5994 7.47005L50.9195 9.49513C50.7674 9.9481 50.2862 10.0678 49.9976 9.72446L49.0294 8.57272C48.7408 8.22938 48.8281 7.64123 49.1968 7.44588L50.8449 6.57254Z" fill="#B4EB79"/>
<path d="M5.01647 -0.963201C4.44107 -2.15441 2.74441 -2.15441 2.16901 -0.963201L-0.180202 3.90021C-0.687341 4.9501 0.0775681 6.16905 1.24353 6.16905H5.94196C7.10792 6.16905 7.87283 4.9501 7.36569 3.90021L5.01647 -0.963201Z" fill="#B4EB79"/>
<path d="M3.3804 7.32378C2.67504 7.38155 2.38424 8.2826 2.86876 8.90911L5.06795 11.7528C5.53245 12.3534 6.36827 12.2503 6.58942 11.5651L7.5918 8.45919C7.81294 7.77397 7.25819 7.00619 6.58197 7.06157L3.3804 7.32378Z" fill="#B4EB79"/>
<path d="M9.46839 3.21077C9.16149 2.54812 8.18511 2.66736 7.99253 3.39102L7.34325 5.83078C7.20054 6.36701 7.62423 6.863 8.16825 6.79656L9.85223 6.5909C10.3962 6.52445 10.7305 5.9359 10.5031 5.44486L9.46839 3.21077Z" fill="#B4EB79"/>
<path d="M0.13168 6.57254C-0.335496 6.32498 -0.815533 6.89601 -0.622806 7.47005L0.0570979 9.49513C0.209178 9.9481 0.690351 10.0678 0.978976 9.72446L1.94718 8.57272C2.2358 8.22938 2.14843 7.64123 1.77979 7.44588L0.13168 6.57254Z" fill="#B4EB79"/>
</g>
</svg>
