<svg width="51" height="51" viewBox="0 0 51 51" fill="none" xmlns="http://www.w3.org/2000/svg">
<rect width="51" height="51" rx="5.17642" fill="#FFD4D4"/>
<path d="M7.97804 16.0162C6.81381 16.1544 5.01818 15.7867 4.1297 13.8863" stroke="#5E4E4E" stroke-width="0.63245" stroke-linecap="round"/>
<path d="M6.99913 17.8559C5.91275 18.2966 4.08378 18.4164 2.72486 16.8181" stroke="#5E4E4E" stroke-width="0.63245" stroke-linecap="round"/>
<path d="M43.8481 16.0162C45.0124 16.1544 46.808 15.7867 47.6965 13.8863" stroke="#5E4E4E" stroke-width="0.63245" stroke-linecap="round"/>
<path d="M44.827 17.8559C45.9134 18.2966 47.7424 18.4164 49.1013 16.8181" stroke="#5E4E4E" stroke-width="0.63245" stroke-linecap="round"/>
<path d="M25.8877 28.3029V30.2577" stroke="#AE7878" stroke-width="0.474338" stroke-linecap="round"/>
<mask id="mask0_181_697" style="mask-type:alpha" maskUnits="userSpaceOnUse" x="0" y="7" width="51" height="45">
<rect y="7.65039" width="51" height="43.35" rx="5.18198" fill="#FFD4D4"/>
</mask>
<g mask="url(#mask0_181_697)">
<ellipse cx="5.42005" cy="34.8985" rx="10.6417" ry="10.9407" fill="#FFA4A4"/>
<ellipse cx="44.7745" cy="34.8985" rx="10.6417" ry="10.9407" fill="#FFA4A4"/>
</g>
<circle cx="25.8891" cy="27.4493" r="1.58833" fill="#5E4E4E"/>
<ellipse cx="26.0114" cy="36.369" rx="2.9323" ry="6.10895" fill="#5E4E4E"/>
<mask id="mask1_181_697" style="mask-type:alpha" maskUnits="userSpaceOnUse" x="23" y="30" width="6" height="13">
<ellipse cx="26.0094" cy="36.3686" rx="2.9323" ry="6.10895" fill="#5E4E4E"/>
</mask>
<g mask="url(#mask1_181_697)">
<ellipse cx="3.81031" cy="6.00565" rx="3.81031" ry="6.00565" transform="matrix(0.928279 0.371884 -0.248361 0.968668 26.3057 33.9257)" fill="#7F6E6E"/>
</g>
<circle cx="37.8612" cy="20.3632" r="8.67471" fill="white"/>
<circle cx="37.8617" cy="20.3624" r="4.76498" fill="#5E4E4E"/>
<circle cx="39.4484" cy="19.0171" r="1.22179" fill="#7F6E6E"/>
<circle cx="13.9169" cy="20.3632" r="8.67471" fill="white"/>
<circle cx="13.9163" cy="20.3624" r="4.76498" fill="#5E4E4E"/>
<circle cx="15.7482" cy="19.0171" r="1.22179" fill="#7F6E6E"/>
<path d="M27.9629 43.9437C27.1169 44.6283 25.5622 45.1762 24.0532 43.9437" stroke="#FFA0A0" stroke-width="0.63245" stroke-linecap="round"/>
<path d="M11.8369 7.53373C12.7886 6.84908 14.5377 6.30121 16.2354 7.53373" stroke="#FF9090" stroke-width="0.63245" stroke-linecap="round"/>
<path d="M35.7861 7.53373C36.7378 6.84908 38.4869 6.30121 40.1846 7.53373" stroke="#FF9090" stroke-width="0.63245" stroke-linecap="round"/>
</svg>
