<svg width="51" height="51" viewBox="0 0 51 51" fill="none" xmlns="http://www.w3.org/2000/svg">
<rect width="51.0005" height="51" rx="5.17642" fill="#FFEF92"/>
<mask id="mask0_181_781" style="mask-type:alpha" maskUnits="userSpaceOnUse" x="0" y="10" width="51" height="38">
<rect y="10.1997" width="51.0005" height="37.7901" fill="#FFD4D4"/>
</mask>
<g mask="url(#mask0_181_781)">
<ellipse cx="5.42113" cy="33.9528" rx="10.6418" ry="9.5375" fill="#FFDD77"/>
<ellipse cx="44.7756" cy="33.9528" rx="10.6418" ry="9.5375" fill="#FFDD77"/>
</g>
<ellipse cx="13.7754" cy="22.8296" rx="8.67479" ry="8.67471" fill="white"/>
<ellipse cx="13.7758" cy="22.8303" rx="4.76503" ry="4.76498" fill="#5E4E4E"/>
<ellipse cx="37.7217" cy="22.8296" rx="8.67479" ry="8.67471" fill="white"/>
<ellipse cx="37.7211" cy="22.8303" rx="4.76503" ry="4.76498" fill="#5E4E4E"/>
<ellipse cx="39.3107" cy="21.4878" rx="1.2218" ry="1.22179" fill="#7F6E6E"/>
<ellipse cx="15.6095" cy="21.4878" rx="1.2218" ry="1.22179" fill="#7F6E6E"/>
<path d="M11.6982 10.0011C12.65 9.31649 14.3991 8.76862 16.0967 10.0011" stroke="#FFBA1A" stroke-width="0.63245" stroke-linecap="round"/>
<path d="M35.6455 10.0011C36.5972 9.31649 38.3463 8.76862 40.044 10.0011" stroke="#FFBA1A" stroke-width="0.63245" stroke-linecap="round"/>
<ellipse cx="25.8698" cy="35.4177" rx="2.93232" ry="6.10895" fill="#5E4E4E"/>
<mask id="mask1_181_781" style="mask-type:alpha" maskUnits="userSpaceOnUse" x="22" y="29" width="7" height="13">
<ellipse cx="25.8698" cy="35.4182" rx="2.93232" ry="6.10895" fill="#5E4E4E"/>
</mask>
<g mask="url(#mask1_181_781)">
<ellipse cx="3.81034" cy="6.00565" rx="3.81034" ry="6.00565" transform="matrix(0.928281 0.371881 -0.248363 0.968667 26.166 32.9752)" fill="#7F6E6E"/>
</g>
<path d="M29.2903 30.4071C29.2903 31.2843 27.7587 31.7511 25.8693 31.7511C23.9799 31.7511 22.4482 31.2843 22.4482 30.4071C22.4482 29.5299 23.9799 27.9635 25.8693 27.9635C27.7587 27.9635 29.2903 29.5299 29.2903 30.4071Z" fill="#FFBA1A"/>
<path d="M28.0694 40.7931C28.0694 41.333 27.0847 42.0149 25.8701 42.0149C24.6555 42.0149 23.6709 41.333 23.6709 40.7931C23.6709 40.2533 24.6555 40.0601 25.8701 40.0601C27.0847 40.0601 28.0694 40.2533 28.0694 40.7931Z" fill="#FFBA1A"/>
</svg>
