<svg width="193" height="147" viewBox="0 0 193 147" fill="none" xmlns="http://www.w3.org/2000/svg">
<path d="M136.085 14.0131C134.94 10.0039 129.926 8.67467 126.945 11.59L96.1481 41.7092C92.7717 45.0113 94.8492 50.7529 99.5569 51.1299L139.88 54.359C143.708 54.6656 146.666 51.0548 145.611 47.3614L136.085 14.0131Z" fill="#DF7009"/>
<path d="M131.579 30.0068C130.068 27.0014 126.238 26.043 123.489 27.9826L107.37 39.3574C103.272 42.2488 104.861 48.6662 109.834 49.3119L133.199 52.3457C137.575 52.914 140.807 48.3583 138.824 44.4155L131.579 30.0068Z" fill="#EF790B"/>
<path d="M41.8353 14.0131C42.9805 10.0039 47.9944 8.67467 50.9754 11.59L81.7725 41.7092C85.1489 45.0113 83.0714 50.7529 78.3638 51.1299L38.0411 54.359C34.2122 54.6656 31.2549 51.0548 32.3099 47.3614L41.8353 14.0131Z" fill="#DF7009"/>
<path d="M46.3416 30.0068C47.8529 27.0014 51.6831 26.043 54.4317 27.9826L70.5511 39.3574C74.6484 42.2488 73.0596 48.6662 68.0866 49.3119L44.7219 52.3457C40.3454 52.914 37.1136 48.3583 39.0963 44.4155L46.3416 30.0068Z" fill="#EF790B"/>
<path d="M127.051 136.883C109.852 133.32 103.8 123.438 100.801 116.342C100.238 115.012 101.213 113.559 102.657 113.505L124.255 112.687C126.304 112.609 127.358 115.359 126.091 116.971C120.471 124.121 124.647 129.609 128.665 133.9C129.961 135.284 128.908 137.268 127.051 136.883Z" fill="#FFA047"/>
<rect x="29.8684" y="38.5952" width="118.115" height="79.1669" rx="16.9341" fill="#FFAA5A"/>
<mask id="mask0_1281_704" style="mask-type:alpha" maskUnits="userSpaceOnUse" x="29" y="38" width="120" height="80">
<rect x="29.9255" y="38.5947" width="118.115" height="79.1669" rx="16.9341" fill="#FFD4D4"/>
</mask>
<g mask="url(#mask0_1281_704)">
<ellipse cx="42.4813" cy="88.3567" rx="24.6461" ry="19.9802" fill="#FFC085"/>
<ellipse cx="133.625" cy="88.3567" rx="24.6461" ry="19.9802" fill="#FFC085"/>
</g>
<path d="M88.926 82.2007L88.926 87.2809" stroke="#AE7878" stroke-width="1.27006" stroke-linecap="round"/>
<circle cx="88.9261" cy="82.4119" r="2.75179" fill="#5E4E4E"/>
<circle cx="66.1245" cy="70.1364" r="15.029" fill="white"/>
<circle cx="66.1245" cy="70.1362" r="8.25537" fill="#5E4E4E"/>
<circle cx="69.2989" cy="67.8072" r="2.11676" fill="#7F6E6E"/>
<path d="M64.5835 47.062C66.2323 45.8759 69.2627 44.9267 72.2038 47.062" stroke="#EA872B" stroke-width="1.69341" stroke-linecap="round"/>
<path d="M92.5247 110.988C91.059 112.174 88.3654 113.124 85.751 110.988" stroke="#EA882B" stroke-width="1.69341" stroke-linecap="round"/>
<path d="M106.072 47.062C107.721 45.8759 110.751 44.9267 113.692 47.062" stroke="#EA872B" stroke-width="1.69341" stroke-linecap="round"/>
<path d="M38.8154 80.9321L52.3627 85.1657" stroke="#EA872B" stroke-width="1.69341" stroke-linecap="round"/>
<path d="M52.3628 93.6328L38.8155 97.8663" stroke="#EA872B" stroke-width="1.69341" stroke-linecap="round"/>
<path d="M36.6987 89.3989L52.3628 89.3989" stroke="#EA872B" stroke-width="1.69341" stroke-linecap="round"/>
<path d="M139.574 80.9321L126.027 85.1657" stroke="#EA872B" stroke-width="1.69341" stroke-linecap="round"/>
<path d="M126.027 93.6328L139.574 97.8663" stroke="#EA872B" stroke-width="1.69341" stroke-linecap="round"/>
<path d="M141.691 89.3989L126.027 89.3989" stroke="#EA872B" stroke-width="1.69341" stroke-linecap="round"/>
<path d="M117.137 60.9609L103.67 69.191C102.859 69.6862 102.859 70.8632 103.67 71.3584L117.137 79.5884" stroke="#5E4E4E" stroke-width="5.08023" stroke-linecap="round" stroke-linejoin="round"/>
<path d="M93.7987 87.209C94.0026 87.209 94.1778 87.3542 94.2128 87.555C94.5261 89.3522 94.7012 91.3294 94.7012 93.4053C94.7011 101.674 91.9526 108.377 88.5625 108.377C85.1723 108.377 82.4239 101.674 82.4238 93.4053C82.4238 91.3294 82.5989 89.3523 82.9122 87.555C82.9472 87.3542 83.1224 87.209 83.3263 87.209H93.7987Z" fill="#5E4E4E"/>
<mask id="mask1_1281_704" style="mask-type:alpha" maskUnits="userSpaceOnUse" x="82" y="78" width="13" height="31">
<ellipse cx="88.5622" cy="93.3479" rx="6.13861" ry="15.029" fill="#5E4E4E"/>
</mask>
<g mask="url(#mask1_1281_704)">
<ellipse cx="8.18414" cy="14.6486" rx="8.18414" ry="14.6486" transform="matrix(0.904747 0.425949 -0.213162 0.977017 89.1807 87.3364)" fill="#7F6E6E"/>
</g>
<path d="M170.873 36.7007C170.964 35.4737 172.572 35.0795 173.22 36.1254L176.448 41.3359C176.737 41.8036 177.295 42.0316 177.83 41.9006L183.783 40.4408C184.978 40.1478 185.849 41.555 185.055 42.4944L181.097 47.1745C180.742 47.5946 180.697 48.1958 180.987 48.6635L184.215 53.874C184.863 54.9199 183.794 56.1839 182.655 55.7186L176.981 53.4005C176.471 53.1924 175.886 53.336 175.531 53.7561L171.573 58.4362C170.778 59.3756 169.246 58.7495 169.336 57.5225L169.788 51.4098C169.828 50.8611 169.511 50.3487 169.001 50.1406L163.327 47.8225C162.188 47.3572 162.31 45.7063 163.505 45.4132L169.458 43.9535C169.992 43.8224 170.382 43.3622 170.422 42.8134L170.873 36.7007Z" fill="#FFDD77"/>
<path d="M155.026 59.2686L163.705 54.1876" stroke="#FFBB77" stroke-width="2.54011" stroke-linecap="round"/>
<path d="M36.8233 95.4144C25.3631 91.4169 12.832 97.4675 8.83454 108.928C6.73455 114.948 7.40882 121.264 10.1826 126.483C8.89764 128.318 6.84468 129.225 4.69765 129.769C2.47447 130.333 2.0148 132.857 4.14008 133.719C10.1137 136.142 15.0583 136.282 19.0736 135.466C20.1078 136.028 21.1997 136.516 22.347 136.916C33.8071 140.913 46.3378 134.864 50.3354 123.404C54.3329 111.944 48.2834 99.4119 36.8233 95.4144Z" fill="white"/>
<path d="M36.8233 95.4144L37.2501 94.1907L37.2501 94.1907L36.8233 95.4144ZM8.83454 108.928L7.61088 108.501L7.61089 108.501L8.83454 108.928ZM10.1826 126.483L11.327 125.875C11.5556 126.305 11.5236 126.827 11.2442 127.226L10.1826 126.483ZM4.69765 129.769L4.37919 128.513L4.37922 128.513L4.69765 129.769ZM4.14008 133.719L3.65287 134.92L3.65285 134.92L4.14008 133.719ZM19.0736 135.466L18.8156 134.196C19.1141 134.136 19.4244 134.182 19.692 134.327L19.0736 135.466ZM22.347 136.916L21.9202 138.14L21.9202 138.14L22.347 136.916ZM50.3354 123.404L51.5591 123.831L51.5591 123.831L50.3354 123.404ZM36.8233 95.4144L36.3965 96.638C25.6121 92.8763 13.8199 98.5701 10.0582 109.355L8.83454 108.928L7.61089 108.501C11.844 96.365 25.114 89.9575 37.2501 94.1907L36.8233 95.4144ZM8.83454 108.928L10.0582 109.355C8.08209 115.02 8.71546 120.961 11.327 125.875L10.1826 126.483L9.03823 127.091C6.10218 121.567 5.38701 114.877 7.61088 108.501L8.83454 108.928ZM10.1826 126.483L11.2442 127.226C9.69237 129.443 7.26978 130.454 5.01607 131.025L4.69765 129.769L4.37922 128.513C6.41957 127.996 8.1029 127.194 9.12102 125.74L10.1826 126.483ZM4.69765 129.769L5.0161 131.025C4.33374 131.198 4.10389 131.607 4.06843 131.833C4.05026 131.949 4.07038 132.053 4.12786 132.148C4.18519 132.243 4.31909 132.393 4.6273 132.518L4.14008 133.719L3.65285 134.92C2.0899 134.286 1.27801 132.894 1.50795 131.431C1.7268 130.038 2.83837 128.903 4.37919 128.513L4.69765 129.769ZM4.14008 133.719L4.62729 132.518C10.3682 134.847 15.0538 134.96 18.8156 134.196L19.0736 135.466L19.3315 136.736C15.0627 137.603 9.85916 137.438 3.65287 134.92L4.14008 133.719ZM19.0736 135.466L19.692 134.327C20.6667 134.857 21.6947 135.316 22.7738 135.693L22.347 136.916L21.9202 138.14C20.7047 137.716 19.5488 137.199 18.4551 136.605L19.0736 135.466ZM22.347 136.916L22.7738 135.693C33.5581 139.454 45.3499 133.761 49.1118 122.977L50.3354 123.404L51.5591 123.831C47.3257 135.966 34.056 142.373 21.9202 138.14L22.347 136.916ZM50.3354 123.404L49.1118 122.977C52.8735 112.192 47.1807 100.4 36.3965 96.638L36.8233 95.4144L37.2501 94.1907C49.3861 98.424 55.7922 111.695 51.5591 123.831L50.3354 123.404Z" fill="#E4E4E4"/>
<path d="M20.0688 108.593C22.3463 106.315 26.0385 106.315 28.3159 108.593L29.6547 109.931C29.9078 110.184 30.3178 110.184 30.5709 109.931L31.8794 108.623C34.1568 106.346 37.849 106.346 40.1265 108.623C42.4039 110.901 42.4038 114.593 40.1265 116.87L30.1475 126.849C30.1429 126.854 30.1354 126.854 30.1309 126.849C30.1263 126.845 30.1188 126.845 30.1143 126.849L30.1094 126.854C30.1021 126.861 30.0903 126.861 30.083 126.854L20.0688 116.84C17.7915 114.562 17.7915 110.87 20.0688 108.593Z" fill="#FF7913"/>
</svg>
