<svg width="177" height="142" viewBox="0 0 177 142" fill="none" xmlns="http://www.w3.org/2000/svg">
<ellipse cx="35.52" cy="21.6145" rx="18.2415" ry="15.3771" transform="rotate(-21.2299 35.52 21.6145)" fill="#5E4E4E"/>
<ellipse cx="18.2415" cy="15.3771" rx="18.2415" ry="15.3771" transform="matrix(-0.932135 -0.362112 -0.362112 0.932135 158.167 13.8865)" fill="#5E4E4E"/>
<mask id="path-3-outside-1_1387_704" maskUnits="userSpaceOnUse" x="22.4059" y="16.3208" width="126" height="125" fill="black">
<rect fill="white" x="22.4059" y="16.3208" width="126" height="125"/>
<path d="M128.561 19.3208C138.096 19.3209 145.826 27.0507 145.826 36.5854V101.759C145.826 111.294 138.096 119.024 128.561 119.024H122.85C117.554 126.13 121.736 131.607 125.761 135.907C127.083 137.318 126.009 139.341 124.116 138.949C107.39 135.483 101.006 126.156 97.7985 119.024H42.6696C33.1349 119.024 25.4059 111.294 25.4059 101.759V36.5854C25.406 27.0508 33.1349 19.3211 42.6696 19.3208H128.561Z"/>
</mask>
<path d="M128.561 19.3208C138.096 19.3209 145.826 27.0507 145.826 36.5854V101.759C145.826 111.294 138.096 119.024 128.561 119.024H122.85C117.554 126.13 121.736 131.607 125.761 135.907C127.083 137.318 126.009 139.341 124.116 138.949C107.39 135.483 101.006 126.156 97.7985 119.024H42.6696C33.1349 119.024 25.4059 111.294 25.4059 101.759V36.5854C25.406 27.0508 33.1349 19.3211 42.6696 19.3208H128.561Z" fill="white"/>
<path d="M128.561 19.3208L128.561 17.1627H128.561V19.3208ZM145.826 36.5854H147.984V36.5854L145.826 36.5854ZM145.826 101.759L147.984 101.759V101.759H145.826ZM128.561 119.024V121.182H128.561L128.561 119.024ZM122.85 119.024V116.866H121.767L121.12 117.734L122.85 119.024ZM125.761 135.907L127.337 134.432L127.337 134.432L125.761 135.907ZM124.116 138.949L123.678 141.062L123.678 141.062L124.116 138.949ZM97.7985 119.024L99.7667 118.139L99.1942 116.866H97.7985V119.024ZM42.6696 119.024L42.6695 121.182H42.6696V119.024ZM25.4059 101.759H23.2478V101.759L25.4059 101.759ZM25.4059 36.5854L23.2478 36.5854V36.5854H25.4059ZM42.6696 19.3208V17.1627H42.6695L42.6696 19.3208ZM128.561 19.3208L128.561 21.4789C136.904 21.479 143.668 28.2426 143.668 36.5855L145.826 36.5854L147.984 36.5854C147.984 25.8588 139.288 17.1629 128.561 17.1627L128.561 19.3208ZM145.826 36.5854H143.668V101.759H145.826H147.984V36.5854H145.826ZM145.826 101.759L143.668 101.759C143.668 110.102 136.904 116.866 128.561 116.866L128.561 119.024L128.561 121.182C139.288 121.182 147.984 112.486 147.984 101.759L145.826 101.759ZM128.561 119.024V116.866H122.85V119.024V121.182H128.561V119.024ZM122.85 119.024L121.12 117.734C118.086 121.806 117.642 125.668 118.753 129.171C119.801 132.473 122.168 135.226 124.186 137.382L125.761 135.907L127.337 134.432C125.329 132.288 123.593 130.153 122.867 127.866C122.205 125.778 122.319 123.349 124.581 120.313L122.85 119.024ZM125.761 135.907L124.186 137.382C124.235 137.434 124.204 137.425 124.193 137.344C124.182 137.269 124.194 137.175 124.243 137.083C124.293 136.99 124.374 136.914 124.469 136.871C124.57 136.825 124.616 136.848 124.553 136.836L124.116 138.949L123.678 141.062C125.517 141.443 127.233 140.639 128.046 139.125C128.848 137.631 128.594 135.775 127.337 134.432L125.761 135.907ZM124.116 138.949L124.554 136.836C116.531 135.173 111.108 132.135 107.326 128.753C103.535 125.361 101.293 121.533 99.7667 118.139L97.7985 119.024L95.8303 119.909C97.5113 123.647 100.065 128.048 104.449 131.97C108.843 135.9 114.975 139.259 123.678 141.062L124.116 138.949ZM97.7985 119.024V116.866H42.6696V119.024V121.182H97.7985V119.024ZM42.6696 119.024L42.6696 116.866C34.3269 116.866 27.564 110.102 27.5639 101.759L25.4059 101.759L23.2478 101.759C23.2479 112.486 31.9429 121.182 42.6695 121.182L42.6696 119.024ZM25.4059 101.759H27.5639V36.5854H25.4059H23.2478V101.759H25.4059ZM25.4059 36.5854L27.5639 36.5855C27.5641 28.2425 34.327 21.4791 42.6696 21.4789L42.6696 19.3208L42.6695 17.1627C31.9429 17.163 23.248 25.8591 23.2478 36.5854L25.4059 36.5854ZM42.6696 19.3208V21.4789H128.561V19.3208V17.1627H42.6696V19.3208Z" fill="#E8E8E8" mask="url(#path-3-outside-1_1387_704)"/>
<mask id="mask0_1387_704" style="mask-type:alpha" maskUnits="userSpaceOnUse" x="25" y="19" width="121" height="101">
<rect x="25.4055" y="19.3213" width="120.42" height="99.7025" rx="17.2645" fill="#FFD4D4"/>
</mask>
<g mask="url(#mask0_1387_704)">
<ellipse cx="38.206" cy="81.9901" rx="25.1267" ry="25.1627" fill="#FFC4C4"/>
<ellipse cx="131.128" cy="81.9901" rx="25.1267" ry="25.1627" fill="#FFC4C4"/>
</g>
<ellipse cx="23.5267" cy="27.2357" rx="23.5267" ry="27.2357" transform="matrix(-0.920288 -0.391242 -0.391242 0.920288 90.5043 43.5688)" fill="#5E4E4E"/>
<ellipse cx="113.391" cy="59.4289" rx="23.5267" ry="27.2357" transform="rotate(-23.0318 113.391 59.4289)" fill="#5E4E4E"/>
<path d="M85.6166 69.3887L85.6166 74.568" stroke="#AE7878" stroke-width="1.29484" stroke-linecap="round"/>
<circle cx="85.6155" cy="66.583" r="2.80545" fill="#5E4E4E"/>
<ellipse cx="85.8316" cy="85.3583" rx="5.17928" ry="10.7902" fill="#5E4E4E"/>
<mask id="mask1_1387_704" style="mask-type:alpha" maskUnits="userSpaceOnUse" x="80" y="74" width="12" height="23">
<ellipse cx="85.8316" cy="85.358" rx="5.17928" ry="10.7902" fill="#5E4E4E"/>
</mask>
<g mask="url(#mask1_1387_704)">
<ellipse cx="6.7301" cy="10.6077" rx="6.7301" ry="10.6077" transform="matrix(0.928279 0.371884 -0.248361 0.968668 86.3541 81.041)" fill="#7F6E6E"/>
</g>
<circle cx="108.925" cy="57.0899" r="15.322" fill="white"/>
<circle cx="105.099" cy="60.8878" r="8.41634" fill="#5E4E4E"/>
<circle cx="107.904" cy="58.5123" r="2.15803" fill="#7F6E6E"/>
<circle cx="61.8775" cy="57.0899" r="15.322" fill="white"/>
<circle cx="58.9158" cy="60.8878" r="8.41634" fill="#5E4E4E"/>
<circle cx="62.1521" cy="58.5123" r="2.15803" fill="#7F6E6E"/>
<path d="M60.799 29.2492C62.4799 28.0399 65.5693 27.0722 68.5679 29.2492" stroke="#AE7878" stroke-width="1.72645" stroke-linecap="round"/>
<path d="M89.285 98.7396C87.7908 99.9489 85.0447 100.917 82.3793 98.7396" stroke="#E1C0C0" stroke-width="1.72645" stroke-linecap="round"/>
<path d="M103.095 29.2492C104.776 28.0399 107.866 27.0722 110.864 29.2492" stroke="#AE7878" stroke-width="1.72645" stroke-linecap="round"/>
<path d="M163.222 47.6423C163.228 47.6397 163.233 47.635 163.239 47.6327C163.26 47.6247 163.283 47.621 163.304 47.62C163.308 47.6198 163.311 47.6202 163.315 47.6202C163.335 47.6203 163.356 47.6235 163.375 47.6293C163.378 47.63 163.382 47.63 163.384 47.6308L163.394 47.6351C163.4 47.6376 163.406 47.6414 163.412 47.6444L163.424 47.6496L170.69 51.9893L170.692 51.9909C171.85 52.7077 173.723 53.9377 174.783 55.4356C175.315 56.1883 175.658 57.0311 175.581 57.9228C175.508 58.7626 175.066 59.6089 174.14 60.4374L173.948 60.6023L173.948 60.603L173.947 60.6029L173.948 60.6037L173.946 60.6035L173.75 60.7618C172.768 61.5231 171.855 61.8047 171.016 61.7245C170.125 61.639 169.358 61.1496 168.714 60.4898C167.433 59.1763 166.562 57.1117 166.066 55.8439L166.065 55.841L163.111 47.9103L163.109 47.9059C163.105 47.8958 163.103 47.8851 163.101 47.8746L163.1 47.8676C163.1 47.8661 163.1 47.8642 163.1 47.8627C163.094 47.8166 163.102 47.7677 163.128 47.7246C163.151 47.6865 163.185 47.6601 163.222 47.6423Z" fill="#B1CCFF"/>
<path d="M160.169 39.037C160.177 39.0292 160.186 39.0218 160.196 39.0156C160.204 39.0102 160.212 39.0049 160.221 39.0008C160.237 38.9932 160.254 38.9882 160.271 38.9848C160.275 38.9841 160.278 38.982 160.281 38.9815L160.296 38.9814C160.301 38.981 160.305 38.981 160.31 38.9809L160.325 38.98L167.275 39.3995L167.278 39.3997C168.394 39.4852 170.235 39.6744 171.584 40.3714C172.262 40.722 172.839 41.2137 173.125 41.9056C173.377 42.5146 173.39 43.2488 173.093 44.1267L172.951 44.4992L172.948 44.5117L172.775 44.885C172.355 45.7111 171.821 46.2145 171.21 46.4606C170.515 46.7401 169.76 46.6713 169.035 46.4314C167.594 45.9543 166.171 44.7704 165.33 44.0322L165.328 44.0301L160.169 39.3548L160.168 39.3544C160.121 39.3118 160.093 39.2496 160.097 39.1818C160.101 39.1233 160.129 39.0734 160.169 39.037Z" fill="#B1CCFF"/>
<path d="M151.494 39.4155C151.505 39.405 151.516 39.3931 151.53 39.385C151.596 39.347 151.674 39.3486 151.737 39.3808L156.775 41.3339L156.777 41.335C157.585 41.6634 158.914 42.2452 159.757 43.0907C160.182 43.5166 160.502 44.0279 160.551 44.6243C160.594 45.1501 160.424 45.7096 159.99 46.2974L159.788 46.5513L159.778 46.5604L159.568 46.7886C159.054 47.3078 158.528 47.562 158.002 47.6004C157.405 47.6437 156.85 47.4058 156.364 47.0519C155.399 46.3489 154.619 45.125 154.171 44.3779L154.169 44.3752L151.463 39.6985C151.45 39.6806 151.441 39.6605 151.434 39.6397L151.434 39.6391C151.433 39.638 151.433 39.6368 151.433 39.6357C151.426 39.6143 151.422 39.592 151.423 39.5693C151.423 39.5672 151.423 39.5651 151.423 39.563C151.424 39.5438 151.427 39.5244 151.434 39.5054C151.442 39.4789 151.457 39.4546 151.475 39.4329C151.481 39.4264 151.488 39.4213 151.494 39.4155Z" fill="#B1CCFF"/>
<path d="M159.949 50.5282C160.023 50.5466 160.077 50.6008 160.1 50.6675L161.885 54.511L161.886 54.5138C162.164 55.1385 162.605 56.1994 162.622 57.1474C162.631 57.6258 162.532 58.1023 162.225 58.4781C161.955 58.8097 161.543 59.0379 160.97 59.1358L160.718 59.1681L160.717 59.1692L160.715 59.1684L160.714 59.1695L160.712 59.1687L160.459 59.1854C159.878 59.1997 159.43 59.0547 159.1 58.7817C158.727 58.4719 158.539 58.0232 158.455 57.5522C158.289 56.6186 158.517 55.4928 158.67 54.8263L158.671 54.8232L159.682 50.7072C159.692 50.6395 159.733 50.5774 159.798 50.5447C159.843 50.5221 159.896 50.5153 159.949 50.5282Z" fill="#B1CCFF"/>
<path d="M14.7969 85.0764L47.3508 80.942C47.7662 80.8893 48.1432 81.2451 48.1063 81.6818C47.7849 85.4846 47.1894 95.3201 48.4935 105.589C49.9592 117.13 52.513 124.474 53.7837 127.595C53.9699 128.052 53.6613 128.562 53.2167 128.618L20.8303 132.731C20.5715 132.764 20.3505 132.645 20.2461 132.448C19.0373 130.171 15.3178 122.353 13.7076 109.674C12.0938 96.9672 13.7081 88.118 14.294 85.5114C14.3444 85.2872 14.5335 85.1098 14.7969 85.0764Z" fill="white" stroke="#E9E9E9" stroke-width="1.29484"/>
<path d="M9.61772 79.9164L42.1143 75.3527C42.5289 75.2945 42.9106 75.6453 42.8794 76.0825C42.6082 79.8892 42.1426 89.7317 43.5822 99.9826C45.2001 111.503 47.8506 118.813 49.1624 121.917C49.3546 122.372 49.0527 122.885 48.6089 122.947L16.2796 127.487C16.0213 127.524 15.7987 127.407 15.6917 127.212C14.453 124.951 10.6306 117.183 8.85315 104.527C7.07178 91.8419 8.56921 82.9721 9.12059 80.358C9.16801 80.1332 9.35475 79.9533 9.61772 79.9164Z" fill="white" stroke="#E9E9E9" stroke-width="1.29484"/>
<path d="M4.85733 85.205L36.9753 78.4753C37.3851 78.3894 37.7894 78.7139 37.7876 79.1522C37.7719 82.9684 37.9665 92.82 40.0894 102.952C42.4752 114.338 45.6093 121.454 47.126 124.463C47.3482 124.904 47.0815 125.436 46.6428 125.528L14.6902 132.223C14.4348 132.276 14.2049 132.175 14.0851 131.988C12.6978 129.815 8.36379 122.32 5.74266 109.811C3.11577 97.2742 4.01582 88.3241 4.39089 85.6789C4.42315 85.4515 4.59742 85.2595 4.85733 85.205Z" fill="white" stroke="#E9E9E9" stroke-width="1.29484"/>
<path d="M15.7843 109.066L14.6805 103.631L12.978 103.976C12.4598 104.082 12.0149 103.897 11.9075 103.368C11.8023 102.85 12.1399 102.506 12.658 102.401L17.8184 101.353C18.3259 101.25 18.7815 101.433 18.8867 101.951C18.9941 102.479 18.6459 102.825 18.1383 102.928L16.4253 103.276L17.529 108.712C17.6364 109.24 17.371 109.669 16.8423 109.776C16.3136 109.883 15.8916 109.595 15.7843 109.066ZM24.9538 105.817L25.5014 100.651C25.5776 99.9423 25.9661 99.6322 26.6323 99.4969C27.4148 99.338 27.9151 99.6328 28.0761 100.426L29.283 106.369C29.3839 106.866 29.1587 107.275 28.6617 107.376C28.1647 107.477 27.7977 107.188 27.6968 106.691L26.782 102.186L26.7609 102.19L26.1029 107.246C26.0617 107.639 25.7853 107.905 25.3834 107.986C24.9816 108.068 24.6236 107.932 24.4321 107.585L21.8543 103.187L21.8332 103.191L22.748 107.696C22.8489 108.193 22.6237 108.602 22.1267 108.703C21.6297 108.804 21.2627 108.515 21.1618 108.018L19.9549 102.075C19.7939 101.282 20.1396 100.815 20.9221 100.657C21.5883 100.521 22.0669 100.655 22.4137 101.278L24.9326 105.821L24.9538 105.817ZM30.9185 105.993L29.6622 99.8065C29.5549 99.2778 29.8414 98.8452 30.3701 98.7379C30.8988 98.6305 31.3419 98.9149 31.4493 99.4436L32.7056 105.63C32.8129 106.158 32.5158 106.593 31.9871 106.7C31.4584 106.808 31.0258 106.521 30.9185 105.993Z" fill="#FF9431"/>
</svg>
