<svg width="218" height="166" viewBox="0 0 218 166" fill="none" xmlns="http://www.w3.org/2000/svg">
<path d="M196.756 113.486C181.317 110.287 175.883 101.416 173.19 95.046C172.686 93.8514 173.561 92.5476 174.857 92.4986L194.246 91.7645C196.086 91.6948 197.032 94.163 195.895 95.6103C190.849 102.029 194.598 106.956 198.205 110.808C199.369 112.051 198.424 113.832 196.756 113.486Z" fill="#FFE5D3"/>
<rect x="109.077" y="20.5217" width="107.556" height="79.8122" rx="15.2023" fill="#FFE5D3"/>
<rect y="76.01" width="96.5348" height="68.0304" rx="15.2023" fill="#FFEF92"/>
<mask id="mask0_1419_1698" style="mask-type:alpha" maskUnits="userSpaceOnUse" x="0" y="76" width="97" height="69">
<rect y="76.0103" width="96.5348" height="68.0304" rx="15.2023" fill="#FFD4D4"/>
</mask>
<g mask="url(#mask0_1419_1698)">
<ellipse cx="10.261" cy="118.772" rx="20.1431" ry="17.1696" fill="#FFDD77"/>
<ellipse cx="84.7537" cy="118.772" rx="20.1431" ry="17.1696" fill="#FFDD77"/>
</g>
<circle cx="29.455" cy="106.986" r="13.4921" fill="white"/>
<circle cx="29.4556" cy="106.985" r="7.41113" fill="#5E4E4E"/>
<mask id="mask1_1419_1698" style="mask-type:alpha" maskUnits="userSpaceOnUse" x="109" y="20" width="108" height="81">
<rect x="109.078" y="20.522" width="107.556" height="79.8122" rx="15.2023" fill="#FFCAB2"/>
</mask>
<g mask="url(#mask1_1419_1698)">
<ellipse cx="120.51" cy="70.6895" rx="22.4429" ry="20.1431" fill="#FFCAB2"/>
<ellipse cx="203.507" cy="70.6895" rx="22.4429" ry="20.1431" fill="#FFCAB2"/>
</g>
<circle cx="144.233" cy="53.3964" r="13.4921" fill="white"/>
<circle cx="144.232" cy="53.397" r="7.41113" fill="#5E4E4E"/>
<path d="M81.9792 160.066C66.5395 156.866 61.1058 147.995 58.4133 141.625C57.9084 140.431 58.7837 139.127 60.0797 139.078L79.4691 138.344C81.3087 138.274 82.2551 140.742 81.1174 142.189C76.0719 148.608 79.8209 153.535 83.428 157.387C84.5919 158.63 83.6466 160.411 81.9792 160.066Z" fill="#FFEF92"/>
<circle cx="32.3046" cy="104.894" r="1.90029" fill="#7F6E6E"/>
<circle cx="181.478" cy="53.3964" r="13.4921" fill="white"/>
<circle cx="181.477" cy="53.397" r="7.41113" fill="#5E4E4E"/>
<path d="M26.4393 90.0658C27.6421 88.6952 30.1011 87.253 33.1051 88.5269" stroke="#FFBA1A" stroke-width="1.52023" stroke-linecap="round"/>
<path d="M70.1186 87.4768C68.8907 88.8248 66.4054 90.2214 63.4256 88.8921" stroke="#FFBA1A" stroke-width="1.52023" stroke-linecap="round"/>
<circle cx="183.949" cy="51.3051" r="1.90029" fill="#7F6E6E"/>
<circle cx="147.083" cy="51.3051" r="1.90029" fill="#7F6E6E"/>
<path d="M141.216 35.8307C142.419 34.4601 144.878 33.0179 147.882 34.2918" stroke="#FFA362" stroke-width="1.52023" stroke-linecap="round"/>
<path d="M178.207 34.2906C179.889 33.586 182.732 33.3677 184.873 35.8295" stroke="#FFA362" stroke-width="1.52023" stroke-linecap="round"/>
<path d="M165.705 90.4519C164.472 91.5167 162.205 92.3688 160.004 90.4519" stroke="#FFBE8F" stroke-width="1.52023" stroke-linecap="round"/>
<path d="M53.9689 120.845C53.9689 122.341 51.4165 123.137 48.268 123.137C45.1195 123.137 42.5671 122.341 42.5671 120.845C42.5671 119.348 45.1195 116.676 48.268 116.676C51.4165 116.676 53.9689 119.348 53.9689 120.845Z" fill="#FFBA1A"/>
<path d="M52.8282 123.161C52.8282 124.105 50.7863 124.657 48.2675 124.657C45.7487 124.657 43.7068 124.105 43.7068 123.161C43.7068 122.216 45.7487 121.237 48.2675 121.237C50.7863 121.237 52.8282 122.216 52.8282 123.161Z" fill="#FFBA1A"/>
<ellipse cx="43.8269" cy="71.8287" rx="5.70087" ry="11.0217" transform="rotate(-11.1295 43.8269 71.8287)" fill="#FFEF92"/>
<ellipse cx="52.1893" cy="66.9746" rx="6.7928" ry="13.0232" transform="rotate(7.15205 52.1893 66.9746)" fill="#FFEF92"/>
<path d="M47.5073 65.7483C48.2041 67.3319 49.2176 72.2093 48.6475 75.4398" stroke="#FFDD77" stroke-width="1.52023" stroke-linecap="round"/>
<path d="M125.978 34.2049C128.243 37.5358 133.328 36.9021 134.706 33.1172L140.254 17.8817C141.518 14.4111 138.666 10.8316 135 11.2884L120.335 13.1159C116.67 13.5727 114.784 17.7427 116.861 20.797L125.978 34.2049Z" fill="#FFC9A3"/>
<path d="M200.259 34.2049C197.994 37.5358 192.909 36.9021 191.531 33.1172L185.983 17.8817C184.72 14.4111 187.572 10.8316 191.237 11.2884L205.902 13.1159C209.567 13.5727 211.454 17.7427 209.377 20.797L200.259 34.2049Z" fill="#FFC9A3"/>
<path d="M72.5911 9.11938C84.1356 9.11938 93.4944 18.4782 93.4944 30.0227C93.4944 36.0874 90.91 41.5471 86.7844 45.3655C87.575 48.1654 90.1933 49.8591 92.6467 51.2043C93.8258 51.8512 93.5543 53.4204 92.218 53.5715C84.9114 54.3962 79.7361 52.8784 75.9836 50.6497C74.8794 50.8299 73.7463 50.926 72.5911 50.926C61.0466 50.926 51.6877 41.5672 51.6877 30.0227C51.6877 18.4782 61.0466 9.11946 72.5911 9.11938Z" fill="white"/>
<path d="M72.5911 9.11938V8.35927H72.5911L72.5911 9.11938ZM93.4944 30.0227H94.2545H93.4944ZM86.7844 45.3655L86.2681 44.8076C86.0584 45.0017 85.9753 45.297 86.0529 45.572L86.7844 45.3655ZM92.6467 51.2043L93.0123 50.5379L93.0122 50.5378L92.6467 51.2043ZM92.218 53.5715L92.3033 54.3269L92.3034 54.3268L92.218 53.5715ZM75.9836 50.6497L76.3718 49.9961C76.2182 49.9049 76.0375 49.8707 75.8612 49.8995L75.9836 50.6497ZM72.5911 50.926L72.5911 51.6861H72.5911V50.926ZM51.6877 30.0227H50.9276H51.6877ZM72.5911 9.11938V9.8795C83.7158 9.8795 92.7343 18.898 92.7343 30.0227H93.4944H94.2545C94.2545 18.0584 84.5554 8.35927 72.5911 8.35927V9.11938ZM93.4944 30.0227H92.7343C92.7343 35.8667 90.245 41.127 86.2681 44.8076L86.7844 45.3655L87.3007 45.9233C91.5751 41.9673 94.2545 36.3081 94.2545 30.0227H93.4944ZM86.7844 45.3655L86.0529 45.572C86.9395 48.7122 89.8483 50.5368 92.2813 51.8708L92.6467 51.2043L93.0122 50.5378C90.5382 49.1813 88.2104 47.6187 87.5159 45.1589L86.7844 45.3655ZM92.6467 51.2043L92.2811 51.8708C92.601 52.0462 92.6545 52.2875 92.6272 52.4407C92.6014 52.5862 92.4821 52.7767 92.1326 52.8162L92.218 53.5715L92.3034 54.3268C93.2902 54.2152 93.9748 53.5455 94.124 52.7069C94.2718 51.876 93.8715 51.0093 93.0123 50.5379L92.6467 51.2043ZM92.218 53.5715L92.1328 52.8162C84.983 53.6232 79.9751 52.1363 76.3718 49.9961L75.9836 50.6497L75.5955 51.3032C79.4971 53.6206 84.8398 55.1692 92.3033 54.3269L92.218 53.5715ZM75.9836 50.6497L75.8612 49.8995C74.7962 50.0733 73.704 50.1659 72.5911 50.1659V50.926V51.6861C73.7885 51.6861 74.9626 51.5865 76.1061 51.3998L75.9836 50.6497ZM72.5911 50.926L72.5911 50.1659C61.4664 50.1658 52.4479 41.1474 52.4479 30.0227H51.6877H50.9276C50.9276 41.987 60.6268 51.6861 72.5911 51.6861L72.5911 50.926ZM51.6877 30.0227H52.4479C52.4479 18.898 61.4664 9.87957 72.5911 9.8795L72.5911 9.11938L72.5911 8.35927C60.6268 8.35934 50.9276 18.0584 50.9276 30.0227H51.6877Z" fill="#E4E4E4"/>
<path d="M143.943 116.551C134.223 110.323 121.293 113.153 115.065 122.874C111.793 127.98 111.023 133.971 112.437 139.412C110.261 141.343 107.143 141.357 104.352 141.166C103.01 141.074 102.391 142.542 103.435 143.39C109.142 148.026 114.318 149.54 118.68 149.688C119.512 150.436 120.414 151.128 121.387 151.751C131.107 157.98 144.036 155.149 150.265 145.429C156.493 135.709 153.663 122.78 143.943 116.551Z" fill="white"/>
<path d="M143.943 116.551L144.353 115.911L144.353 115.911L143.943 116.551ZM115.065 122.874L114.425 122.463L114.425 122.463L115.065 122.874ZM112.437 139.412L113.172 139.221C113.244 139.497 113.155 139.791 112.941 139.981L112.437 139.412ZM104.352 141.166L104.403 140.407L104.403 140.407L104.352 141.166ZM103.435 143.39L102.956 143.98L102.956 143.98L103.435 143.39ZM118.68 149.688L118.706 148.929C118.884 148.935 119.055 149.003 119.188 149.123L118.68 149.688ZM121.387 151.751L120.977 152.391L120.977 152.391L121.387 151.751ZM150.265 145.429L150.905 145.839L150.905 145.839L150.265 145.429ZM143.943 116.551L143.533 117.191C134.166 111.189 121.707 113.917 115.705 123.284L115.065 122.874L114.425 122.463C120.88 112.39 134.279 109.457 144.353 115.911L143.943 116.551ZM115.065 122.874L115.705 123.284C112.552 128.204 111.81 133.976 113.172 139.221L112.437 139.412L111.701 139.603C110.237 133.966 111.034 127.756 114.425 122.463L115.065 122.874ZM112.437 139.412L112.941 139.981C110.501 142.146 107.068 142.114 104.3 141.924L104.352 141.166L104.403 140.407C107.218 140.6 110.02 140.54 111.932 138.843L112.437 139.412ZM104.352 141.166L104.3 141.924C103.936 141.899 103.76 142.074 103.701 142.217C103.644 142.354 103.642 142.578 103.915 142.8L103.435 143.39L102.956 143.98C102.185 143.354 101.97 142.421 102.297 141.634C102.621 140.854 103.426 140.341 104.403 140.407L104.352 141.166ZM103.435 143.39L103.915 142.8C109.499 147.337 114.517 148.786 118.706 148.929L118.68 149.688L118.654 150.448C114.119 150.294 108.785 148.716 102.956 143.98L103.435 143.39ZM118.68 149.688L119.188 149.123C119.991 149.844 120.86 150.511 121.797 151.111L121.387 151.751L120.977 152.391C119.969 151.745 119.034 151.028 118.172 150.254L118.68 149.688ZM121.387 151.751L121.797 151.111C131.164 157.113 143.623 154.386 149.625 145.019L150.265 145.429L150.905 145.839C144.45 155.913 131.051 158.846 120.977 152.391L121.387 151.751ZM150.265 145.429L149.625 145.019C155.627 135.652 152.899 123.193 143.533 117.191L143.943 116.551L144.353 115.911C154.426 122.366 157.36 135.766 150.905 145.839L150.265 145.429Z" fill="#E4E4E4"/>
<path d="M46.177 122.567C47.0638 122.757 49.1795 123.023 50.5477 122.567" stroke="#F2AE10" stroke-width="0.760116" stroke-linecap="round" stroke-linejoin="round"/>
<path d="M71.0715 98.4333L58.9814 105.822C58.2539 106.266 58.2539 107.323 58.9814 107.768L71.0715 115.156" stroke="#5E4E4E" stroke-width="4.5607" stroke-linecap="round" stroke-linejoin="round"/>
<path d="M167.556 68.4097C167.739 68.4097 167.897 68.54 167.928 68.7203C168.209 70.3335 168.367 72.1079 168.367 73.9712C168.367 81.3942 165.9 87.4121 162.856 87.4126C159.813 87.4126 157.345 81.3945 157.345 73.9712C157.345 72.1079 157.502 70.3335 157.784 68.7203C157.815 68.54 157.973 68.4097 158.156 68.4097H167.556Z" fill="#5E4E4E"/>
<mask id="mask2_1419_1698" style="mask-type:alpha" maskUnits="userSpaceOnUse" x="157" y="60" width="12" height="28">
<ellipse cx="162.856" cy="73.92" rx="5.51084" ry="13.4921" fill="#5E4E4E"/>
</mask>
<g mask="url(#mask2_1419_1698)">
<ellipse cx="7.34719" cy="13.1506" rx="7.34719" ry="13.1506" transform="matrix(0.904747 0.425949 -0.213162 0.977017 163.411 68.5239)" fill="#7F6E6E"/>
</g>
<ellipse cx="163.044" cy="62.8975" rx="11.0217" ry="7.41113" fill="#FFBE8F"/>
<circle cx="159.435" cy="62.8984" r="2.09032" fill="#5E4E4E"/>
<circle cx="166.276" cy="62.8984" r="2.09032" fill="#5E4E4E"/>
<circle cx="132.83" cy="133.968" r="13.8721" fill="#F06363"/>
<path d="M127.496 139.302L138.167 128.365" stroke="white" stroke-width="3.20126" stroke-linecap="round"/>
<path d="M138.168 139.302L127.497 128.365" stroke="white" stroke-width="3.20126" stroke-linecap="round"/>
<circle cx="73.1607" cy="30.212" r="13.8721" fill="#A3EE6A"/>
<circle cx="73.1613" cy="30.2125" r="5.86897" stroke="white" stroke-width="3.20126"/>
</svg>
