<svg width="20" height="21" viewBox="0 0 20 21" fill="none" xmlns="http://www.w3.org/2000/svg">
<path d="M20 10.5C20 16.0228 15.5228 20.5 10 20.5C4.47715 20.5 0 16.0228 0 10.5C0 4.97715 4.47715 0.5 10 0.5C15.5228 0.5 20 4.97715 20 10.5Z" fill="#EDEDED"/>
<path d="M9.15613 14.8786V9.88255C9.15613 9.21545 9.58193 8.78965 10.249 8.78965C10.9161 8.78965 11.3277 9.21545 11.3277 9.88255V14.8786C11.3277 15.5457 10.9161 15.9573 10.249 15.9573C9.58193 15.9573 9.15613 15.5457 9.15613 14.8786ZM11.498 6.24902C11.498 6.9445 10.9445 7.49805 10.249 7.49805C9.55354 7.49805 9 6.9445 9 6.24902C9 5.55355 9.55354 5 10.249 5C10.9445 5 11.498 5.55355 11.498 6.24902Z" fill="#B5B5B5"/>
</svg>
