<svg width="20" height="20" viewBox="0 0 20 20" fill="none" xmlns="http://www.w3.org/2000/svg">
<path d="M20 10C20 15.5228 15.5228 20 10 20C4.47715 20 0 15.5228 0 10C0 4.47715 4.47715 0 10 0C15.5228 0 20 4.47715 20 10Z" fill="#F7F7F7"/>
<path d="M10 5C8.34315 5 7 6.38485 7 8.09315C7 9.42919 8 10.5 8 10.5C7.21099 10.8945 6.42197 11.289 5.63296 12.6659C5.28121 13.2797 5.76957 14 6.47703 14H13.523C14.2304 14 14.7188 13.2797 14.367 12.6659C13.578 11.289 12.789 10.8945 12 10.5C12 10.5 13 9.42919 13 8.09315C13 6.38485 11.6569 5 10 5Z" stroke="#B5B5B5" stroke-width="2" stroke-linecap="round" stroke-linejoin="round"/>
</svg>
