<svg width="30" height="19" viewBox="0 0 30 19" fill="none" xmlns="http://www.w3.org/2000/svg">
<mask id="path-1-inside-1_1057_604" fill="white">
<path d="M7.5 0C3.35786 0 0 3.35786 0 7.5C0 11.5866 3.26855 14.9068 7.33398 14.9951C7.24479 15.6964 7.01912 16.2688 6.75879 16.7793L6.68457 16.9521C6.54467 17.3564 6.62039 17.7765 6.87988 18.0723C7.14542 18.3744 7.55868 18.4954 7.97949 18.377L8.16016 18.3115C10.149 17.421 11.5446 16.2563 12.5479 15H22.5C26.6421 15 30 11.6421 30 7.5C30 3.35786 26.6421 0 22.5 0H7.5Z"/>
</mask>
<path d="M7.5 0C3.35786 0 0 3.35786 0 7.5C0 11.5866 3.26855 14.9068 7.33398 14.9951C7.24479 15.6964 7.01912 16.2688 6.75879 16.7793L6.68457 16.9521C6.54467 17.3564 6.62039 17.7765 6.87988 18.0723C7.14542 18.3744 7.55868 18.4954 7.97949 18.377L8.16016 18.3115C10.149 17.421 11.5446 16.2563 12.5479 15H22.5C26.6421 15 30 11.6421 30 7.5C30 3.35786 26.6421 0 22.5 0H7.5Z" fill="white"/>
<path d="M7.33398 14.9951L7.35226 14.154L8.28646 14.1743L8.16857 15.1013L7.33398 14.9951ZM6.75879 16.7793L5.98573 16.4474L5.99669 16.4219L6.0093 16.3971L6.75879 16.7793ZM6.68457 16.9521L5.88953 16.677L5.89949 16.6482L5.91152 16.6202L6.68457 16.9521ZM6.87988 18.0723L6.2479 18.6276L6.2475 18.6271L6.87988 18.0723ZM7.97949 18.377L8.26597 19.168L8.23706 19.1784L8.20747 19.1868L7.97949 18.377ZM8.16016 18.3115L8.50396 19.0794L8.47572 19.092L8.44664 19.1026L8.16016 18.3115ZM12.5479 15L11.8905 14.475L12.1431 14.1587H12.5479V15ZM7.5 0V0.841304C3.8225 0.841304 0.841305 3.8225 0.841305 7.5H0H-0.841305C-0.841305 2.89322 2.89322 -0.841304 7.5 -0.841304V0ZM0 7.5H0.841305C0.841305 11.1277 3.74277 14.0756 7.35226 14.154L7.33398 14.9951L7.31571 15.8362C2.79432 15.738 -0.841305 12.0456 -0.841305 7.5H0ZM7.33398 14.9951L8.16857 15.1013C8.06336 15.9284 7.79668 16.5959 7.50828 17.1615L6.75879 16.7793L6.0093 16.3971C6.24155 15.9416 6.42622 15.4644 6.4994 14.889L7.33398 14.9951ZM6.75879 16.7793L7.53184 17.1112L7.45762 17.2841L6.68457 16.9521L5.91152 16.6202L5.98573 16.4474L6.75879 16.7793ZM6.68457 16.9521L7.47961 17.2273C7.43027 17.3699 7.46851 17.4675 7.51227 17.5174L6.87988 18.0723L6.2475 18.6271C5.77228 18.0855 5.65906 17.343 5.88953 16.677L6.68457 16.9521ZM6.87988 18.0723L7.51186 17.5169C7.53682 17.5453 7.56592 17.5631 7.59932 17.5725C7.63296 17.582 7.68361 17.5862 7.75152 17.5671L7.97949 18.377L8.20747 19.1868C7.49227 19.3881 6.73887 19.1863 6.2479 18.6276L6.87988 18.0723ZM7.97949 18.377L7.69301 17.5859L7.87368 17.5205L8.16016 18.3115L8.44664 19.1026L8.26597 19.168L7.97949 18.377ZM8.16016 18.3115L7.81635 17.5437C9.68309 16.7078 10.971 15.6263 11.8905 14.475L12.5479 15L13.2052 15.525C12.1181 16.8863 10.6149 18.1342 8.50396 19.0794L8.16016 18.3115ZM12.5479 15V14.1587H22.5V15V15.8413H12.5479V15ZM22.5 15V14.1587C26.1775 14.1587 29.1587 11.1775 29.1587 7.5H30H30.8413C30.8413 12.1068 27.1068 15.8413 22.5 15.8413V15ZM30 7.5H29.1587C29.1587 3.8225 26.1775 0.841304 22.5 0.841304V0V-0.841304C27.1068 -0.841304 30.8413 2.89322 30.8413 7.5H30ZM22.5 0V0.841304H7.5V0V-0.841304H22.5V0Z" fill="#E4E4E4" mask="url(#path-1-inside-1_1057_604)"/>
</svg>
